<svg width="16" height="16" viewBox="0 0 16 16" fill="none" xmlns="http://www.w3.org/2000/svg">
<g clip-path="url(#clip0_1185_21182)">
<path d="M13.3336 14.0003C12.4069 14.0003 11.4803 13.687 10.6669 13.1203C9.04025 14.2603 6.96025 14.2603 5.33358 13.1203C4.52025 13.687 3.59358 14.0003 2.66692 14.0003H1.33358V15.3337H2.66692C3.58692 15.3337 4.49358 15.1003 5.33358 14.6737C7.01358 15.5337 8.98692 15.5337 10.6669 14.6737C11.5069 15.107 12.4136 15.3337 13.3336 15.3337H14.6669V14.0003H13.3336ZM2.63358 12.667H2.66692C3.73358 12.667 4.68025 12.0803 5.33358 11.3337C5.98692 12.0803 6.93358 12.667 8.00025 12.667C9.06692 12.667 10.0136 12.0803 10.6669 11.3337C11.3203 12.0803 12.2669 12.667 13.3336 12.667H13.3669L14.6269 8.21366C14.6803 8.04033 14.6669 7.85366 14.5869 7.69366C14.5069 7.53366 14.3603 7.41366 14.1869 7.36033L13.3336 7.08033V4.00033C13.3336 3.26699 12.7336 2.66699 12.0003 2.66699H10.0003V0.666992H6.00025V2.66699H4.00025C3.26692 2.66699 2.66692 3.26699 2.66692 4.00033V7.08033L1.80692 7.36033C1.63358 7.41366 1.48692 7.53366 1.40692 7.69366C1.32692 7.85366 1.30692 8.04033 1.36692 8.21366L2.63358 12.667ZM4.00025 4.00033H12.0003V6.64699L8.00025 5.33366L4.00025 6.64699V4.00033Z" fill="#B8B8C0"/>
</g>
<defs>
<clipPath id="clip0_1185_21182">
<rect width="16" height="16" fill="white"/>
</clipPath>
</defs>
</svg>
