<svg width="16" height="16" viewBox="0 0 16 16" fill="none" xmlns="http://www.w3.org/2000/svg">
<g clip-path="url(#clip0_1185_21198)">
<path d="M8.00033 0.666992C5.05366 0.666992 2.66699 1.00033 2.66699 3.33366V10.3337C2.66699 11.6203 3.71366 12.667 5.00033 12.667L4.00033 13.667V14.0003H12.0003V13.667L11.0003 12.667C12.287 12.667 13.3337 11.6203 13.3337 10.3337V3.33366C13.3337 1.00033 10.947 0.666992 8.00033 0.666992ZM8.00033 2.00033C12.0003 2.00033 12.0003 2.80033 12.0003 3.33366H4.00033C4.00033 2.80033 4.00033 2.00033 8.00033 2.00033ZM12.0003 4.66699V6.66699H4.00033V4.66699H12.0003ZM11.0003 11.3337H5.00033C4.44699 11.3337 4.00033 10.887 4.00033 10.3337V8.00033H12.0003V10.3337C12.0003 10.887 11.5537 11.3337 11.0003 11.3337ZM8.00033 8.33366C7.26699 8.33366 6.66699 8.93366 6.66699 9.66699C6.66699 10.4003 7.26699 11.0003 8.00033 11.0003C8.73366 11.0003 9.33366 10.4003 9.33366 9.66699C9.33366 8.93366 8.73366 8.33366 8.00033 8.33366Z" fill="#B8B8C0"/>
</g>
<defs>
<clipPath id="clip0_1185_21198">
<rect width="16" height="16" fill="white"/>
</clipPath>
</defs>
</svg>
