<svg width="16" height="16" viewBox="0 0 16 16" fill="none" xmlns="http://www.w3.org/2000/svg">
<g clip-path="url(#clip0_1185_21213)">
<path d="M13.3337 5.33366H11.3337V2.66699H2.00033C1.26699 2.66699 0.666992 3.26699 0.666992 4.00033V11.3337H2.00033C2.00033 12.4403 2.89366 13.3337 4.00033 13.3337C5.10699 13.3337 6.00033 12.4403 6.00033 11.3337H10.0003C10.0003 12.4403 10.8937 13.3337 12.0003 13.3337C13.107 13.3337 14.0003 12.4403 14.0003 11.3337H15.3337V8.00033L13.3337 5.33366ZM13.0003 6.33366L14.307 8.00033H11.3337V6.33366H13.0003ZM4.00033 12.0003C3.63366 12.0003 3.33366 11.7003 3.33366 11.3337C3.33366 10.967 3.63366 10.667 4.00033 10.667C4.36699 10.667 4.66699 10.967 4.66699 11.3337C4.66699 11.7003 4.36699 12.0003 4.00033 12.0003ZM5.48033 10.0003C5.11366 9.59366 4.59366 9.33366 4.00033 9.33366C3.40699 9.33366 2.88699 9.59366 2.52033 10.0003H2.00033V4.00033H10.0003V10.0003H5.48033ZM12.0003 12.0003C11.6337 12.0003 11.3337 11.7003 11.3337 11.3337C11.3337 10.967 11.6337 10.667 12.0003 10.667C12.367 10.667 12.667 10.967 12.667 11.3337C12.667 11.7003 12.367 12.0003 12.0003 12.0003Z" fill="#B8B8C0"/>
</g>
<defs>
<clipPath id="clip0_1185_21213">
<rect width="16" height="16" fill="white"/>
</clipPath>
</defs>
</svg>
