<svg width="780" height="190" viewBox="0 0 780 190" fill="none" xmlns="http://www.w3.org/2000/svg">
<g clip-path="url(#clip0_311_104103)">
<mask id="path-3-outside-1_311_104103" maskUnits="userSpaceOnUse" x="0" y="0" width="780" height="41" fill="black">
<rect fill="white" width="780" height="41"/>
<path d="M0 0H780V40H0V0Z"/>
</mask>
<path d="M0 0H780V40H0V0Z" fill="white"/>
<path d="M780 40V39H0V40V41H780V40Z" fill="#DBDBE0" mask="url(#path-3-outside-1_311_104103)"/>
<mask id="path-5-inside-2_311_104103" fill="white">
<path d="M0 0H60V40H0V0Z"/>
</mask>
<path d="M60 0H59V40H60H61V0H60Z" fill="#DBDBE0" mask="url(#path-5-inside-2_311_104103)"/>
<path d="M13.1436 24.5V15.27H16.5626C18.9806 15.27 19.6176 16.622 19.6176 17.974C19.6176 19.014 19.0846 20.145 17.5376 20.496L19.9036 24.5H18.5126L16.2506 20.665H14.3786V24.5H13.1436ZM18.3176 17.974C18.3176 17.025 17.8366 16.31 16.4196 16.31H14.3786V19.625H16.4196C17.8496 19.625 18.3176 18.897 18.3176 17.974ZM23.2899 24.656C21.9639 24.656 21.0929 23.902 21.0929 22.745C21.0929 22.095 21.4179 21.536 22.0029 21.211C22.4969 20.964 23.1209 20.808 24.1869 20.678L25.3959 20.535V20.431C25.3959 19.235 24.9669 18.754 23.9659 18.754C23.0819 18.754 22.5359 19.222 22.4839 20.041H21.3009C21.3919 18.715 22.4319 17.844 23.9529 17.844C25.7339 17.844 26.5139 18.65 26.5139 20.548V22.303C26.5139 23.304 26.5789 23.993 26.7349 24.5H25.5779C25.5259 24.162 25.4869 23.733 25.4739 23.317C25.1749 24.149 24.3559 24.656 23.2899 24.656ZM23.5369 23.746C24.6679 23.746 25.4089 22.927 25.4089 21.666V21.341L23.6409 21.601C22.6789 21.744 22.2629 22.082 22.2629 22.719C22.2629 23.356 22.7439 23.746 23.5369 23.746ZM28.5542 24.5V18H29.5942V19.287C30.0232 18.312 30.7382 17.844 31.7652 17.844C33.1952 17.844 33.9362 18.728 33.9362 20.457V24.5H32.8312V20.522C32.8312 19.378 32.3502 18.793 31.4012 18.793C30.3222 18.793 29.6592 19.664 29.6592 21.107V24.5H28.5542ZM35.9555 24.5V15.075H37.0605V21.198L39.9725 18H41.4155L39.0365 20.509L41.5715 24.5H40.2065L38.2435 21.315L37.0605 22.511V24.5H35.9555Z" fill="#737680"/>
<mask id="path-8-inside-3_311_104103" fill="white">
<path d="M60 0H200V40H60V0Z"/>
</mask>
<path d="M200 0H199V40H200H201V0H200Z" fill="#DBDBE0" mask="url(#path-8-inside-3_311_104103)"/>
<path d="M73.5984 14.3984L86.3984 14.3984M73.5984 17.8651L83.0145 17.8651M73.5984 21.3318L86.3984 21.3318M73.5984 24.7984L80.4398 24.7984" stroke="#909097" stroke-width="1.2" stroke-linecap="round" stroke-linejoin="round"/>
<path d="M96.4893 23.221C94.1363 23.221 92.9403 21.947 92.7843 20.257L94.0323 20.075C94.2013 21.232 94.9033 22.246 96.5283 22.246C97.5293 22.246 98.5823 21.817 98.5823 20.621C98.5823 19.529 97.9063 19.178 96.8273 18.957L95.4883 18.684C94.1753 18.411 93.1743 17.722 93.1743 16.136C93.1743 14.589 94.4223 13.549 96.3853 13.549C98.2183 13.549 99.6223 14.368 99.8043 16.175L98.5693 16.435C98.4133 15.2 97.7243 14.524 96.3593 14.524C95.2283 14.524 94.4483 15.083 94.4483 16.019C94.4483 16.916 94.9293 17.384 95.9563 17.605L97.3083 17.891C98.7383 18.19 99.8563 18.827 99.8563 20.504C99.8563 21.934 98.7903 23.221 96.4893 23.221ZM101.807 23V13.575H102.912V17.722C103.302 16.812 104.03 16.344 105.044 16.344C106.448 16.344 107.189 17.241 107.189 18.957V23H106.084V19.035C106.084 17.891 105.603 17.293 104.667 17.293C103.549 17.293 102.912 18.138 102.912 19.607V23H101.807ZM109.208 23V16.5H110.313V23H109.208ZM109.13 15.291V13.9H110.391V15.291H109.13ZM112.395 25.535V16.5H113.435V17.709C113.851 16.812 114.605 16.344 115.554 16.344C117.127 16.344 118.18 17.696 118.18 19.75C118.18 21.83 117.062 23.156 115.489 23.156C114.488 23.156 113.786 22.61 113.5 21.973V25.535H112.395ZM115.229 22.181C116.334 22.181 117.01 21.271 117.01 19.75C117.01 18.216 116.36 17.319 115.268 17.319C114.176 17.319 113.474 18.177 113.474 19.581V19.893C113.474 21.297 114.15 22.181 115.229 22.181ZM119.873 16.5H120.913V17.631C121.277 16.773 121.901 16.344 122.772 16.344C123.669 16.344 124.319 16.799 124.618 17.644C125.047 16.773 125.71 16.344 126.594 16.344C127.842 16.344 128.57 17.228 128.57 18.736V23H127.465V18.827C127.465 17.813 127.049 17.293 126.23 17.293C125.307 17.293 124.774 17.969 124.774 19.152V23H123.669V18.775C123.669 17.826 123.227 17.293 122.447 17.293C121.537 17.293 120.978 18.021 120.978 19.204V23H119.873V16.5ZM133.225 23.156C131.366 23.156 130.261 21.973 130.261 19.828C130.261 17.657 131.353 16.344 133.212 16.344C134.967 16.344 135.981 17.345 135.981 19.295V20.075H131.366C131.379 21.349 132.146 22.181 133.303 22.181C134.135 22.181 134.746 21.739 135.032 20.946L135.942 21.349C135.487 22.532 134.538 23.156 133.225 23.156ZM131.366 19.178H134.863V19.035C134.863 17.839 134.252 17.215 133.186 17.215C132.042 17.215 131.392 17.956 131.366 19.178ZM137.671 23V16.5H138.711V17.787C139.14 16.812 139.855 16.344 140.882 16.344C142.312 16.344 143.053 17.228 143.053 18.957V23H141.948V19.022C141.948 17.878 141.467 17.293 140.518 17.293C139.439 17.293 138.776 18.164 138.776 19.607V23H137.671ZM147.208 23.104C145.804 23.104 145.44 22.259 145.44 21.05V17.41H144.231V16.5H145.44V14.823L146.545 14.355V16.5H148.17V17.41H146.545V21.011C146.545 21.752 146.831 22.064 147.494 22.064C147.78 22.064 147.949 22.025 148.17 21.973V22.987C147.884 23.065 147.624 23.104 147.208 23.104ZM154.345 23H153.11V13.77H154.345V23ZM156.551 23V13.77H159.58C162.232 13.77 163.961 15.629 163.961 18.372C163.961 21.063 162.245 23 159.554 23H156.551ZM159.528 21.96C161.53 21.96 162.661 20.348 162.661 18.372C162.661 16.318 161.556 14.81 159.554 14.81H157.786V21.96H159.528Z" fill="#737680"/>
<mask id="path-12-inside-4_311_104103" fill="white">
<path d="M200 0H393.333V40H200V0Z"/>
</mask>
<path d="M393.333 0H392.333V40H393.333H394.333V0H393.333Z" fill="#DBDBE0" mask="url(#path-12-inside-4_311_104103)"/>
<path d="M216.332 21.3322L219.132 18.5322L221.132 20.5322L223.532 18.1322M214.932 26.132C214.048 26.132 213.332 25.4157 213.332 24.532V14.932C213.332 14.0484 214.048 13.332 214.932 13.332H224.532C225.416 13.332 226.132 14.0484 226.132 14.932V24.532C226.132 25.4157 225.416 26.132 224.532 26.132H214.932Z" stroke="#909097" stroke-width="1.2" stroke-linecap="round" stroke-linejoin="round"/>
<path d="M235.293 24.5V16.31H232.394V15.27H239.427V16.31H236.528V24.5H235.293ZM242.325 24.656C240.492 24.656 239.296 23.369 239.296 21.25C239.296 19.131 240.492 17.844 242.325 17.844C244.158 17.844 245.354 19.131 245.354 21.25C245.354 23.369 244.158 24.656 242.325 24.656ZM242.325 23.694C243.495 23.694 244.184 22.862 244.184 21.25C244.184 19.638 243.495 18.806 242.325 18.806C241.155 18.806 240.466 19.638 240.466 21.25C240.466 22.862 241.155 23.694 242.325 23.694ZM249.121 24.604C247.717 24.604 247.353 23.759 247.353 22.55V18.91H246.144V18H247.353V16.323L248.458 15.855V18H250.083V18.91H248.458V22.511C248.458 23.252 248.744 23.564 249.407 23.564C249.693 23.564 249.862 23.525 250.083 23.473V24.487C249.797 24.565 249.537 24.604 249.121 24.604ZM253.529 24.656C252.203 24.656 251.332 23.902 251.332 22.745C251.332 22.095 251.657 21.536 252.242 21.211C252.736 20.964 253.36 20.808 254.426 20.678L255.635 20.535V20.431C255.635 19.235 255.206 18.754 254.205 18.754C253.321 18.754 252.775 19.222 252.723 20.041H251.54C251.631 18.715 252.671 17.844 254.192 17.844C255.973 17.844 256.753 18.65 256.753 20.548V22.303C256.753 23.304 256.818 23.993 256.974 24.5H255.817C255.765 24.162 255.726 23.733 255.713 23.317C255.414 24.149 254.595 24.656 253.529 24.656ZM253.776 23.746C254.907 23.746 255.648 22.927 255.648 21.666V21.341L253.88 21.601C252.918 21.744 252.502 22.082 252.502 22.719C252.502 23.356 252.983 23.746 253.776 23.746ZM259.898 15.075V24.5H258.793V15.075H259.898ZM265.231 24.5V15.27H268.65C271.068 15.27 271.705 16.622 271.705 17.974C271.705 19.014 271.172 20.145 269.625 20.496L271.991 24.5H270.6L268.338 20.665H266.466V24.5H265.231ZM270.405 17.974C270.405 17.025 269.924 16.31 268.507 16.31H266.466V19.625H268.507C269.937 19.625 270.405 18.897 270.405 17.974ZM273.685 24.5V18H274.79V24.5H273.685ZM273.607 16.791V15.4H274.868V16.791H273.607ZM279.211 24.656C277.677 24.656 276.637 23.941 276.416 22.654L277.534 22.459C277.69 23.291 278.301 23.759 279.25 23.759C280.121 23.759 280.602 23.33 280.602 22.758C280.602 22.186 280.251 21.952 279.666 21.848L278.392 21.614C277.287 21.406 276.663 20.782 276.663 19.794C276.663 18.676 277.599 17.844 279.133 17.844C280.589 17.844 281.577 18.507 281.707 19.599L280.615 19.846C280.472 19.196 279.965 18.741 279.081 18.741C278.249 18.741 277.742 19.105 277.742 19.742C277.742 20.288 278.106 20.548 278.743 20.665L280.004 20.899C281.174 21.12 281.694 21.718 281.694 22.667C281.694 23.837 280.797 24.656 279.211 24.656ZM283.46 24.5V15.075H284.565V21.198L287.477 18H288.92L286.541 20.509L289.076 24.5H287.711L285.748 21.315L284.565 22.511V24.5H283.46ZM297.007 24.721C294.654 24.721 293.458 23.447 293.302 21.757L294.55 21.575C294.719 22.732 295.421 23.746 297.046 23.746C298.047 23.746 299.1 23.317 299.1 22.121C299.1 21.029 298.424 20.678 297.345 20.457L296.006 20.184C294.693 19.911 293.692 19.222 293.692 17.636C293.692 16.089 294.94 15.049 296.903 15.049C298.736 15.049 300.14 15.868 300.322 17.675L299.087 17.935C298.931 16.7 298.242 16.024 296.877 16.024C295.746 16.024 294.966 16.583 294.966 17.519C294.966 18.416 295.447 18.884 296.474 19.105L297.826 19.391C299.256 19.69 300.374 20.327 300.374 22.004C300.374 23.434 299.308 24.721 297.007 24.721ZM304.824 24.656C303.004 24.656 301.834 23.33 301.834 21.25C301.834 19.131 302.978 17.844 304.824 17.844C306.345 17.844 307.333 18.715 307.502 20.21L306.371 20.34C306.254 19.352 305.682 18.806 304.798 18.806C303.68 18.806 303.004 19.716 303.004 21.237C303.004 22.797 303.68 23.694 304.837 23.694C305.721 23.694 306.267 23.161 306.436 22.147L307.489 22.316C307.255 23.798 306.28 24.656 304.824 24.656ZM311.743 24.656C309.91 24.656 308.714 23.369 308.714 21.25C308.714 19.131 309.91 17.844 311.743 17.844C313.576 17.844 314.772 19.131 314.772 21.25C314.772 23.369 313.576 24.656 311.743 24.656ZM311.743 23.694C312.913 23.694 313.602 22.862 313.602 21.25C313.602 19.638 312.913 18.806 311.743 18.806C310.573 18.806 309.884 19.638 309.884 21.25C309.884 22.862 310.573 23.694 311.743 23.694ZM317.495 19.482C317.807 18.572 318.483 17.844 319.471 17.844C319.549 17.844 319.627 17.844 319.705 17.857V18.936H319.653C318.977 18.936 318.535 19.131 318.223 19.443C317.599 20.067 317.573 20.938 317.573 21.718V24.5H316.468V18H317.495V19.482ZM323.46 24.656C321.601 24.656 320.496 23.473 320.496 21.328C320.496 19.157 321.588 17.844 323.447 17.844C325.202 17.844 326.216 18.845 326.216 20.795V21.575H321.601C321.614 22.849 322.381 23.681 323.538 23.681C324.37 23.681 324.981 23.239 325.267 22.446L326.177 22.849C325.722 24.032 324.773 24.656 323.46 24.656ZM321.601 20.678H325.098V20.535C325.098 19.339 324.487 18.715 323.421 18.715C322.277 18.715 321.627 19.456 321.601 20.678Z" fill="#737680"/>
<mask id="path-16-inside-5_311_104103" fill="white">
<path d="M393.332 0H586.665V40H393.332V0Z"/>
</mask>
<path d="M586.665 0H585.665V40H586.665H587.665V0H586.665Z" fill="#DBDBE0" mask="url(#path-16-inside-5_311_104103)"/>
<path d="M413.332 26.4016L418.874 23.2016V16.8016L413.332 13.6016L407.789 16.8016V23.2016L413.332 26.4016ZM413.332 26.4016V20.4016M413.332 20.4016L408.132 17.2016M413.332 20.4016L418.532 17.2016" stroke="#909097" stroke-width="1.2" stroke-linecap="round" stroke-linejoin="round"/>
<path d="M428.162 24.5H426.927V15.27H430.203C432.114 15.27 433.336 16.336 433.336 18C433.336 19.664 432.114 20.73 430.203 20.73H428.162V24.5ZM432.036 18C432.036 16.973 431.269 16.31 430.073 16.31H428.162V19.69H430.073C431.269 19.69 432.036 19.027 432.036 18ZM435.76 19.482C436.072 18.572 436.748 17.844 437.736 17.844C437.814 17.844 437.892 17.844 437.97 17.857V18.936H437.918C437.242 18.936 436.8 19.131 436.488 19.443C435.864 20.067 435.838 20.938 435.838 21.718V24.5H434.733V18H435.76V19.482ZM439.202 24.5V18H440.307V24.5H439.202ZM439.124 16.791V15.4H440.385V16.791H439.124ZM442.388 18H443.428V19.131C443.792 18.273 444.416 17.844 445.287 17.844C446.184 17.844 446.834 18.299 447.133 19.144C447.562 18.273 448.225 17.844 449.109 17.844C450.357 17.844 451.085 18.728 451.085 20.236V24.5H449.98V20.327C449.98 19.313 449.564 18.793 448.745 18.793C447.822 18.793 447.289 19.469 447.289 20.652V24.5H446.184V20.275C446.184 19.326 445.742 18.793 444.962 18.793C444.052 18.793 443.493 19.521 443.493 20.704V24.5H442.388V18ZM454.91 24.656C453.584 24.656 452.713 23.902 452.713 22.745C452.713 22.095 453.038 21.536 453.623 21.211C454.117 20.964 454.741 20.808 455.807 20.678L457.016 20.535V20.431C457.016 19.235 456.587 18.754 455.586 18.754C454.702 18.754 454.156 19.222 454.104 20.041H452.921C453.012 18.715 454.052 17.844 455.573 17.844C457.354 17.844 458.134 18.65 458.134 20.548V22.303C458.134 23.304 458.199 23.993 458.355 24.5H457.198C457.146 24.162 457.107 23.733 457.094 23.317C456.795 24.149 455.976 24.656 454.91 24.656ZM455.157 23.746C456.288 23.746 457.029 22.927 457.029 21.666V21.341L455.261 21.601C454.299 21.744 453.883 22.082 453.883 22.719C453.883 23.356 454.364 23.746 455.157 23.746ZM461.201 19.482C461.513 18.572 462.189 17.844 463.177 17.844C463.255 17.844 463.333 17.844 463.411 17.857V18.936H463.359C462.683 18.936 462.241 19.131 461.929 19.443C461.305 20.067 461.279 20.938 461.279 21.718V24.5H460.174V18H461.201V19.482ZM465.461 27.1C465.266 27.1 465.071 27.087 464.863 27.048V26.073C465.032 26.099 465.188 26.099 465.331 26.099C466.111 26.099 466.514 25.748 466.813 24.903L466.982 24.422L464.395 18H465.63L467.294 22.524C467.411 22.849 467.476 23.109 467.515 23.291H467.541C467.58 23.109 467.658 22.849 467.762 22.524L469.27 18H470.466L467.931 24.916C467.333 26.554 466.553 27.1 465.461 27.1ZM474.953 24.5V15.27H478.372C480.79 15.27 481.427 16.622 481.427 17.974C481.427 19.014 480.894 20.145 479.347 20.496L481.713 24.5H480.322L478.06 20.665H476.188V24.5H474.953ZM480.127 17.974C480.127 17.025 479.646 16.31 478.229 16.31H476.188V19.625H478.229C479.659 19.625 480.127 18.897 480.127 17.974ZM483.407 24.5V18H484.512V24.5H483.407ZM483.329 16.791V15.4H484.59V16.791H483.329ZM488.933 24.656C487.399 24.656 486.359 23.941 486.138 22.654L487.256 22.459C487.412 23.291 488.023 23.759 488.972 23.759C489.843 23.759 490.324 23.33 490.324 22.758C490.324 22.186 489.973 21.952 489.388 21.848L488.114 21.614C487.009 21.406 486.385 20.782 486.385 19.794C486.385 18.676 487.321 17.844 488.855 17.844C490.311 17.844 491.299 18.507 491.429 19.599L490.337 19.846C490.194 19.196 489.687 18.741 488.803 18.741C487.971 18.741 487.464 19.105 487.464 19.742C487.464 20.288 487.828 20.548 488.465 20.665L489.726 20.899C490.896 21.12 491.416 21.718 491.416 22.667C491.416 23.837 490.519 24.656 488.933 24.656ZM493.182 24.5V15.075H494.287V21.198L497.199 18H498.642L496.263 20.509L498.798 24.5H497.433L495.47 21.315L494.287 22.511V24.5H493.182ZM505.534 24.5V16.31H502.635V15.27H509.668V16.31H506.769V24.5H505.534ZM510.478 27.1C510.283 27.1 510.088 27.087 509.88 27.048V26.073C510.049 26.099 510.205 26.099 510.348 26.099C511.128 26.099 511.531 25.748 511.83 24.903L511.999 24.422L509.412 18H510.647L512.311 22.524C512.428 22.849 512.493 23.109 512.532 23.291H512.558C512.597 23.109 512.675 22.849 512.779 22.524L514.287 18H515.483L512.948 24.916C512.35 26.554 511.57 27.1 510.478 27.1ZM516.719 27.035V18H517.759V19.209C518.175 18.312 518.929 17.844 519.878 17.844C521.451 17.844 522.504 19.196 522.504 21.25C522.504 23.33 521.386 24.656 519.813 24.656C518.812 24.656 518.11 24.11 517.824 23.473V27.035H516.719ZM519.553 23.681C520.658 23.681 521.334 22.771 521.334 21.25C521.334 19.716 520.684 18.819 519.592 18.819C518.5 18.819 517.798 19.677 517.798 21.081V21.393C517.798 22.797 518.474 23.681 519.553 23.681ZM526.771 24.656C524.912 24.656 523.807 23.473 523.807 21.328C523.807 19.157 524.899 17.844 526.758 17.844C528.513 17.844 529.527 18.845 529.527 20.795V21.575H524.912C524.925 22.849 525.692 23.681 526.849 23.681C527.681 23.681 528.292 23.239 528.578 22.446L529.488 22.849C529.033 24.032 528.084 24.656 526.771 24.656ZM524.912 20.678H528.409V20.535C528.409 19.339 527.798 18.715 526.732 18.715C525.588 18.715 524.938 19.456 524.912 20.678ZM533.633 24.656C532.099 24.656 531.059 23.941 530.838 22.654L531.956 22.459C532.112 23.291 532.723 23.759 533.672 23.759C534.543 23.759 535.024 23.33 535.024 22.758C535.024 22.186 534.673 21.952 534.088 21.848L532.814 21.614C531.709 21.406 531.085 20.782 531.085 19.794C531.085 18.676 532.021 17.844 533.555 17.844C535.011 17.844 535.999 18.507 536.129 19.599L535.037 19.846C534.894 19.196 534.387 18.741 533.503 18.741C532.671 18.741 532.164 19.105 532.164 19.742C532.164 20.288 532.528 20.548 533.165 20.665L534.426 20.899C535.596 21.12 536.116 21.718 536.116 22.667C536.116 23.837 535.219 24.656 533.633 24.656Z" fill="#737680"/>
<mask id="path-20-inside-6_311_104103" fill="white">
<path d="M586.668 0H780.001V40H586.668V0Z"/>
</mask>
<path d="M780.001 0H779.001V40H780.001H781.001V0H780.001Z" fill="#DBDBE0" mask="url(#path-20-inside-6_311_104103)"/>
<path d="M606.67 18.4016V23.7349M604.27 21.2621C601.924 21.6577 600.27 22.6158 600.27 23.7349C600.27 25.2077 603.135 26.4016 606.67 26.4016C610.204 26.4016 613.07 25.2077 613.07 23.7349C613.07 22.6158 611.415 21.6577 609.07 21.2621M608.803 15.7349C608.803 16.9131 607.848 17.8682 606.67 17.8682C605.491 17.8682 604.536 16.9131 604.536 15.7349C604.536 14.5567 605.491 13.6016 606.67 13.6016C607.848 13.6016 608.803 14.5567 608.803 15.7349Z" stroke="#909097" stroke-width="1.2" stroke-linecap="round" stroke-linejoin="round"/>
<path d="M619.896 24.5V15.27H621.651L624.095 22.368C624.251 22.823 624.277 22.901 624.329 23.239H624.355C624.407 22.901 624.433 22.823 624.589 22.368L627.033 15.27H628.788V24.5H627.657V17.376C627.657 16.999 627.67 16.687 627.709 16.388H627.657C627.631 16.57 627.501 17.129 627.384 17.441L624.94 24.5H623.744L621.3 17.441C621.183 17.129 621.053 16.57 621.027 16.388H620.975C621.014 16.687 621.027 16.999 621.027 17.376V24.5H619.896ZM632.734 24.656C631.408 24.656 630.537 23.902 630.537 22.745C630.537 22.095 630.862 21.536 631.447 21.211C631.941 20.964 632.565 20.808 633.631 20.678L634.84 20.535V20.431C634.84 19.235 634.411 18.754 633.41 18.754C632.526 18.754 631.98 19.222 631.928 20.041H630.745C630.836 18.715 631.876 17.844 633.397 17.844C635.178 17.844 635.958 18.65 635.958 20.548V22.303C635.958 23.304 636.023 23.993 636.179 24.5H635.022C634.97 24.162 634.931 23.733 634.918 23.317C634.619 24.149 633.8 24.656 632.734 24.656ZM632.981 23.746C634.112 23.746 634.853 22.927 634.853 21.666V21.341L633.085 21.601C632.123 21.744 631.707 22.082 631.707 22.719C631.707 23.356 632.188 23.746 632.981 23.746ZM637.491 27.126C637.257 27.126 636.893 27.1 636.698 27.048V26.099C637.075 26.125 637.218 26.125 637.335 26.125C637.816 26.125 638.037 25.917 638.037 25.033V18H639.142V25.15C639.142 26.19 638.791 27.126 637.491 27.126ZM637.959 16.791V15.4H639.22V16.791H637.959ZM643.862 24.656C642.029 24.656 640.833 23.369 640.833 21.25C640.833 19.131 642.029 17.844 643.862 17.844C645.695 17.844 646.891 19.131 646.891 21.25C646.891 23.369 645.695 24.656 643.862 24.656ZM643.862 23.694C645.032 23.694 645.721 22.862 645.721 21.25C645.721 19.638 645.032 18.806 643.862 18.806C642.692 18.806 642.003 19.638 642.003 21.25C642.003 22.862 642.692 23.694 643.862 23.694ZM649.613 19.482C649.925 18.572 650.601 17.844 651.589 17.844C651.667 17.844 651.745 17.844 651.823 17.857V18.936H651.771C651.095 18.936 650.653 19.131 650.341 19.443C649.717 20.067 649.691 20.938 649.691 21.718V24.5H648.586V18H649.613V19.482ZM657.541 24.5H656.306V15.27H657.541V24.5ZM659.682 24.5V18H660.722V19.287C661.151 18.312 661.866 17.844 662.893 17.844C664.323 17.844 665.064 18.728 665.064 20.457V24.5H663.959V20.522C663.959 19.378 663.478 18.793 662.529 18.793C661.45 18.793 660.787 19.664 660.787 21.107V24.5H659.682ZM669.721 24.656C667.901 24.656 666.731 23.33 666.731 21.25C666.731 19.131 667.875 17.844 669.721 17.844C671.242 17.844 672.23 18.715 672.399 20.21L671.268 20.34C671.151 19.352 670.579 18.806 669.695 18.806C668.577 18.806 667.901 19.716 667.901 21.237C667.901 22.797 668.577 23.694 669.734 23.694C670.618 23.694 671.164 23.161 671.333 22.147L672.386 22.316C672.152 23.798 671.177 24.656 669.721 24.656ZM674.053 24.5V18H675.158V24.5H674.053ZM673.975 16.791V15.4H675.236V16.791H673.975ZM679.488 24.656C677.915 24.656 676.849 23.291 676.849 21.25C676.849 19.248 677.993 17.844 679.618 17.844C680.476 17.844 681.113 18.195 681.529 18.962V15.075H682.634V24.5H681.594V23.291C681.204 24.162 680.502 24.656 679.488 24.656ZM679.787 23.681C680.866 23.681 681.555 22.797 681.555 21.406V21.107C681.555 19.69 680.879 18.819 679.787 18.819C678.682 18.819 678.019 19.716 678.019 21.25C678.019 22.771 678.682 23.681 679.787 23.681ZM687.291 24.656C685.432 24.656 684.327 23.473 684.327 21.328C684.327 19.157 685.419 17.844 687.278 17.844C689.033 17.844 690.047 18.845 690.047 20.795V21.575H685.432C685.445 22.849 686.212 23.681 687.369 23.681C688.201 23.681 688.812 23.239 689.098 22.446L690.008 22.849C689.553 24.032 688.604 24.656 687.291 24.656ZM685.432 20.678H688.929V20.535C688.929 19.339 688.318 18.715 687.252 18.715C686.108 18.715 685.458 19.456 685.432 20.678ZM691.737 24.5V18H692.777V19.287C693.206 18.312 693.921 17.844 694.948 17.844C696.378 17.844 697.119 18.728 697.119 20.457V24.5H696.014V20.522C696.014 19.378 695.533 18.793 694.584 18.793C693.505 18.793 692.842 19.664 692.842 21.107V24.5H691.737ZM701.274 24.604C699.87 24.604 699.506 23.759 699.506 22.55V18.91H698.297V18H699.506V16.323L700.611 15.855V18H702.236V18.91H700.611V22.511C700.611 23.252 700.897 23.564 701.56 23.564C701.846 23.564 702.015 23.525 702.236 23.473V24.487C701.95 24.565 701.69 24.604 701.274 24.604ZM706.916 23.356L712.103 16.31H707.085V15.27H713.416V16.414L708.216 23.46H713.598V24.5H706.916V23.356ZM717.736 24.656C715.903 24.656 714.707 23.369 714.707 21.25C714.707 19.131 715.903 17.844 717.736 17.844C719.569 17.844 720.765 19.131 720.765 21.25C720.765 23.369 719.569 24.656 717.736 24.656ZM717.736 23.694C718.906 23.694 719.595 22.862 719.595 21.25C719.595 19.638 718.906 18.806 717.736 18.806C716.566 18.806 715.877 19.638 715.877 21.25C715.877 22.862 716.566 23.694 717.736 23.694ZM722.46 24.5V18H723.5V19.287C723.929 18.312 724.644 17.844 725.671 17.844C727.101 17.844 727.842 18.728 727.842 20.457V24.5H726.737V20.522C726.737 19.378 726.256 18.793 725.307 18.793C724.228 18.793 723.565 19.664 723.565 21.107V24.5H722.46ZM732.473 24.656C730.614 24.656 729.509 23.473 729.509 21.328C729.509 19.157 730.601 17.844 732.46 17.844C734.215 17.844 735.229 18.845 735.229 20.795V21.575H730.614C730.627 22.849 731.394 23.681 732.551 23.681C733.383 23.681 733.994 23.239 734.28 22.446L735.19 22.849C734.735 24.032 733.786 24.656 732.473 24.656ZM730.614 20.678H734.111V20.535C734.111 19.339 733.5 18.715 732.434 18.715C731.29 18.715 730.64 19.456 730.614 20.678ZM739.336 24.656C737.802 24.656 736.762 23.941 736.541 22.654L737.659 22.459C737.815 23.291 738.426 23.759 739.375 23.759C740.246 23.759 740.727 23.33 740.727 22.758C740.727 22.186 740.376 21.952 739.791 21.848L738.517 21.614C737.412 21.406 736.788 20.782 736.788 19.794C736.788 18.676 737.724 17.844 739.258 17.844C740.714 17.844 741.702 18.507 741.832 19.599L740.74 19.846C740.597 19.196 740.09 18.741 739.206 18.741C738.374 18.741 737.867 19.105 737.867 19.742C737.867 20.288 738.231 20.548 738.868 20.665L740.129 20.899C741.299 21.12 741.819 21.718 741.819 22.667C741.819 23.837 740.922 24.656 739.336 24.656Z" fill="#737680"/>
<rect width="780" height="42" transform="translate(0 40)" fill="#F5F5F5"/>
<mask id="path-24-inside-7_311_104103" fill="white">
<path d="M0 40H60V82H0V40Z"/>
</mask>
<path d="M60 40H59V82H60H61V40H60Z" fill="#DBDBE0" mask="url(#path-24-inside-7_311_104103)"/>
<path d="M19.371 66H13.352V64.986H15.809V58.226L13.365 59.695V58.512L15.861 56.965H16.927V64.986H19.371V66Z" fill="#17171C"/>
<mask id="path-27-inside-8_311_104103" fill="white">
<path d="M60 40H200V82H60V40Z"/>
</mask>
<path d="M200 40H199V82H200H201V40H200Z" fill="#DBDBE0" mask="url(#path-27-inside-8_311_104103)"/>
<path d="M78.656 66H73.404V65.038H75.445V57.732H73.404V56.783H78.656V57.732H76.615V65.038H78.656V66ZM87.4975 61.372C87.4975 62.62 87.3805 63.777 86.8605 64.609C86.3405 65.454 85.3655 66 83.9225 66H81.1795V56.783H83.9225C85.3655 56.783 86.3535 57.368 86.8735 58.213C87.3935 59.045 87.4975 60.124 87.4975 61.372ZM86.3145 61.372C86.3145 60.189 86.2625 59.11 85.6255 58.46C85.2745 58.096 84.7155 57.849 83.9225 57.849H82.3365V64.934H83.9225C84.7545 64.934 85.3135 64.661 85.6645 64.284C86.2755 63.621 86.3145 62.516 86.3145 61.372ZM94.48 62.594H89.839V61.567H94.48V62.594ZM103.608 63.465C103.608 64.232 103.296 64.817 102.841 65.259C102.204 65.883 101.229 66.169 100.241 66.169C99.1226 66.169 98.2516 65.87 97.6276 65.298C97.0426 64.752 96.6656 63.959 96.6656 63.088H97.8746C97.8746 63.634 98.1346 64.18 98.5116 64.544C98.9276 64.947 99.5906 65.103 100.241 65.103C100.943 65.103 101.515 64.96 101.931 64.57C102.217 64.31 102.399 63.985 102.399 63.491C102.399 62.776 101.97 62.178 100.878 62.009L99.4606 61.788C98.0826 61.58 97.0296 60.813 97.0296 59.344C97.0296 58.655 97.3156 57.992 97.8096 57.524C98.4466 56.926 99.2266 56.614 100.189 56.614C101.086 56.614 101.944 56.887 102.555 57.472C103.114 58.005 103.4 58.681 103.426 59.461H102.217C102.191 59.006 102.035 58.629 101.775 58.33C101.424 57.927 100.891 57.68 100.176 57.68C99.5126 57.68 98.9796 57.875 98.5766 58.33C98.3426 58.603 98.2256 58.902 98.2256 59.318C98.2256 60.15 98.8886 60.527 99.5776 60.618C100.098 60.683 100.566 60.774 101.073 60.852C102.607 61.073 103.608 62.009 103.608 63.465ZM110.564 63.062H111.76C111.682 64.856 110.239 66.182 108.445 66.182C107.522 66.182 106.716 65.831 106.066 65.194C105.026 64.18 104.935 62.763 104.935 61.398C104.935 60.033 105.026 58.616 106.066 57.602C106.716 56.965 107.522 56.614 108.445 56.614C110.226 56.614 111.669 57.862 111.747 59.669H110.538C110.512 59.162 110.291 58.668 110.005 58.369C109.628 57.953 109.082 57.706 108.445 57.706C107.821 57.706 107.314 57.966 106.885 58.408C106.131 59.188 106.131 60.384 106.131 61.398C106.131 62.412 106.131 63.608 106.885 64.388C107.314 64.83 107.821 65.09 108.445 65.09C109.615 65.09 110.538 64.245 110.564 63.062ZM119.354 61.476C119.354 63.218 119.198 64.479 118.288 65.402C117.846 65.844 117.235 66.169 116.338 66.169C115.441 66.169 114.83 65.844 114.388 65.402C113.478 64.479 113.322 63.218 113.322 61.476C113.322 59.734 113.478 58.46 114.388 57.537C114.83 57.095 115.441 56.783 116.338 56.783C117.235 56.783 117.846 57.095 118.288 57.537C119.198 58.46 119.354 59.734 119.354 61.476ZM114.505 63.01L117.898 58.85C117.794 58.603 117.651 58.382 117.456 58.2C117.196 57.953 116.819 57.784 116.338 57.784C115.857 57.784 115.48 57.953 115.22 58.2C114.453 58.928 114.466 60.254 114.466 61.476C114.466 61.983 114.453 62.516 114.505 63.01ZM118.21 61.476C118.21 60.995 118.21 60.501 118.171 60.033L114.817 64.18C114.921 64.401 115.051 64.596 115.22 64.752C115.48 64.999 115.857 65.168 116.338 65.168C116.819 65.168 117.196 64.999 117.456 64.752C118.223 64.024 118.21 62.698 118.21 61.476ZM127.74 66H121.721V64.986H124.178V58.226L121.734 59.695V58.512L124.23 56.965H125.296V64.986H127.74V66Z" fill="#17171C"/>
<mask id="path-30-inside-9_311_104103" fill="white">
<path d="M200 40H393.333V82H200V40Z"/>
</mask>
<path d="M393.333 40H392.333V82H393.333H394.333V40H393.333Z" fill="#DBDBE0" mask="url(#path-30-inside-9_311_104103)"/>
<path d="M218.994 62.517C218.994 63.206 218.76 63.752 218.396 64.181C217.863 64.818 216.979 65.169 216.03 65.169C215.081 65.169 214.197 64.818 213.664 64.181C213.3 63.752 213.066 63.206 213.066 62.517C213.066 61.529 213.651 60.671 214.483 60.294C213.742 59.904 213.248 59.124 213.248 58.253C213.248 57.512 213.547 56.927 213.989 56.511C214.496 56.043 215.237 55.783 216.03 55.783C216.823 55.783 217.564 56.043 218.071 56.511C218.513 56.927 218.812 57.512 218.812 58.253C218.812 59.124 218.318 59.904 217.577 60.294C218.409 60.671 218.994 61.529 218.994 62.517ZM217.694 58.253C217.694 57.33 216.927 56.758 216.03 56.758C215.133 56.758 214.366 57.33 214.366 58.253C214.366 59.085 214.99 59.813 216.03 59.813C217.07 59.813 217.694 59.085 217.694 58.253ZM217.876 62.465C217.876 61.503 217.174 60.775 216.03 60.775C214.886 60.775 214.184 61.503 214.184 62.465C214.184 63.531 214.977 64.194 216.03 64.194C217.083 64.194 217.876 63.531 217.876 62.465ZM227.082 60.346C227.082 61.633 226.939 62.972 226.328 63.947C225.899 64.623 225.08 65.169 223.936 65.169C223.169 65.169 222.48 64.896 222.025 64.428C221.622 64.025 221.323 63.466 221.297 62.803H222.415C222.441 63.245 222.649 63.583 222.922 63.817C223.182 64.051 223.546 64.168 223.975 64.168C224.547 64.168 224.976 63.934 225.249 63.622C225.821 62.972 225.951 61.802 225.964 60.853C225.678 61.477 224.768 61.906 223.91 61.906C223.091 61.906 222.402 61.62 221.973 61.204C221.388 60.645 221.05 59.826 221.05 58.864C221.05 57.954 221.375 57.213 221.882 56.654C222.363 56.134 223.117 55.783 224.053 55.783C225.067 55.783 225.86 56.303 226.302 56.901C226.952 57.798 227.082 59.072 227.082 60.346ZM225.847 58.851C225.847 58.214 225.652 57.707 225.301 57.33C225.015 57.018 224.573 56.784 224.001 56.784C223.429 56.784 223 56.992 222.714 57.304C222.363 57.681 222.168 58.214 222.168 58.851C222.168 59.488 222.376 60.021 222.714 60.398C222.987 60.71 223.455 60.918 224.027 60.918C224.599 60.918 225.054 60.684 225.327 60.372C225.665 59.995 225.847 59.488 225.847 58.851Z" fill="#17171C"/>
<mask id="path-33-inside-10_311_104103" fill="white">
<path d="M393.332 40H586.665V82H393.332V40Z"/>
</mask>
<path d="M586.665 40H585.665V82H586.665H587.665V40H586.665Z" fill="#DBDBE0" mask="url(#path-33-inside-10_311_104103)"/>
<path d="M408.248 65V57.44H405.572V56.48H412.064V57.44H409.388V65H408.248ZM414.68 65.144C412.964 65.144 411.944 64.052 411.944 62.072C411.944 60.068 412.952 58.856 414.668 58.856C416.288 58.856 417.224 59.78 417.224 61.58V62.3H412.964C412.976 63.476 413.684 64.244 414.752 64.244C415.52 64.244 416.084 63.836 416.348 63.104L417.188 63.476C416.768 64.568 415.892 65.144 414.68 65.144ZM412.964 61.472H416.192V61.34C416.192 60.236 415.628 59.66 414.644 59.66C413.588 59.66 412.988 60.344 412.964 61.472ZM418.784 59H419.744V60.044C420.08 59.252 420.656 58.856 421.46 58.856C422.288 58.856 422.888 59.276 423.164 60.056C423.56 59.252 424.172 58.856 424.988 58.856C426.14 58.856 426.812 59.672 426.812 61.064V65H425.792V61.148C425.792 60.212 425.408 59.732 424.652 59.732C423.8 59.732 423.308 60.356 423.308 61.448V65H422.288V61.1C422.288 60.224 421.88 59.732 421.16 59.732C420.32 59.732 419.804 60.404 419.804 61.496V65H418.784V59ZM428.675 67.34V59H429.635V60.116C430.019 59.288 430.715 58.856 431.591 58.856C433.043 58.856 434.015 60.104 434.015 62C434.015 63.92 432.983 65.144 431.531 65.144C430.607 65.144 429.959 64.64 429.695 64.052V67.34H428.675ZM431.291 64.244C432.311 64.244 432.935 63.404 432.935 62C432.935 60.584 432.335 59.756 431.327 59.756C430.319 59.756 429.671 60.548 429.671 61.844V62.132C429.671 63.428 430.295 64.244 431.291 64.244ZM437.953 65.144C436.237 65.144 435.217 64.052 435.217 62.072C435.217 60.068 436.225 58.856 437.941 58.856C439.561 58.856 440.497 59.78 440.497 61.58V62.3H436.237C436.249 63.476 436.957 64.244 438.025 64.244C438.793 64.244 439.357 63.836 439.621 63.104L440.461 63.476C440.041 64.568 439.165 65.144 437.953 65.144ZM436.237 61.472H439.465V61.34C439.465 60.236 438.901 59.66 437.917 59.66C436.861 59.66 436.261 60.344 436.237 61.472ZM443.006 60.368C443.294 59.528 443.918 58.856 444.83 58.856C444.902 58.856 444.974 58.856 445.046 58.868V59.864H444.998C444.374 59.864 443.966 60.044 443.678 60.332C443.102 60.908 443.078 61.712 443.078 62.432V65H442.058V59H443.006V60.368ZM447.827 65.144C446.603 65.144 445.799 64.448 445.799 63.38C445.799 62.78 446.099 62.264 446.639 61.964C447.095 61.736 447.671 61.592 448.655 61.472L449.771 61.34V61.244C449.771 60.14 449.375 59.696 448.451 59.696C447.635 59.696 447.131 60.128 447.083 60.884H445.991C446.075 59.66 447.035 58.856 448.439 58.856C450.083 58.856 450.803 59.6 450.803 61.352V62.972C450.803 63.896 450.863 64.532 451.007 65H449.939C449.891 64.688 449.855 64.292 449.843 63.908C449.567 64.676 448.811 65.144 447.827 65.144ZM448.055 64.304C449.099 64.304 449.783 63.548 449.783 62.384V62.084L448.151 62.324C447.263 62.456 446.879 62.768 446.879 63.356C446.879 63.944 447.323 64.304 448.055 64.304ZM454.611 65.096C453.315 65.096 452.979 64.316 452.979 63.2V59.84H451.863V59H452.979V57.452L453.999 57.02V59H455.499V59.84H453.999V63.164C453.999 63.848 454.263 64.136 454.875 64.136C455.139 64.136 455.295 64.1 455.499 64.052V64.988C455.235 65.06 454.995 65.096 454.611 65.096ZM458.944 65.144C457.432 65.144 456.892 64.232 456.892 62.828V59H457.912V62.708C457.912 63.716 458.344 64.268 459.136 64.268C460.096 64.268 460.744 63.452 460.744 62.228V59H461.764V65H460.804V63.872C460.528 64.604 459.784 65.144 458.944 65.144ZM464.627 60.368C464.915 59.528 465.539 58.856 466.451 58.856C466.523 58.856 466.595 58.856 466.667 58.868V59.864H466.619C465.995 59.864 465.587 60.044 465.299 60.332C464.723 60.908 464.699 61.712 464.699 62.432V65H463.679V59H464.627V60.368ZM470.133 65.144C468.417 65.144 467.397 64.052 467.397 62.072C467.397 60.068 468.405 58.856 470.121 58.856C471.741 58.856 472.677 59.78 472.677 61.58V62.3H468.417C468.429 63.476 469.137 64.244 470.205 64.244C470.973 64.244 471.537 63.836 471.801 63.104L472.641 63.476C472.221 64.568 471.345 65.144 470.133 65.144ZM468.417 61.472H471.645V61.34C471.645 60.236 471.081 59.66 470.097 59.66C469.041 59.66 468.441 60.344 468.417 61.472ZM474.13 66.152C474.73 65.888 474.85 65.624 474.85 65.036V65H474.082V63.584H475.486V64.916C475.486 65.876 475.234 66.332 474.406 66.68L474.13 66.152ZM486.686 56.48V65H485.546V61.124H481.25V65H480.11V56.48H481.25V60.164H485.546V56.48H486.686ZM490.655 65.144C489.143 65.144 488.603 64.232 488.603 62.828V59H489.623V62.708C489.623 63.716 490.055 64.268 490.847 64.268C491.807 64.268 492.455 63.452 492.455 62.228V59H493.475V65H492.515V63.872C492.239 64.604 491.495 65.144 490.655 65.144ZM495.39 59H496.35V60.044C496.686 59.252 497.262 58.856 498.066 58.856C498.894 58.856 499.494 59.276 499.77 60.056C500.166 59.252 500.778 58.856 501.594 58.856C502.746 58.856 503.418 59.672 503.418 61.064V65H502.398V61.148C502.398 60.212 502.014 59.732 501.258 59.732C500.406 59.732 499.914 60.356 499.914 61.448V65H498.894V61.1C498.894 60.224 498.486 59.732 497.766 59.732C496.926 59.732 496.41 60.404 496.41 61.496V65H495.39V59ZM505.28 65V59H506.3V65H505.28ZM505.208 57.884V56.6H506.372V57.884H505.208ZM510.298 65.144C508.846 65.144 507.862 63.884 507.862 62C507.862 60.152 508.918 58.856 510.418 58.856C511.21 58.856 511.798 59.18 512.182 59.888V56.3H513.202V65H512.242V63.884C511.882 64.688 511.234 65.144 510.298 65.144ZM510.574 64.244C511.57 64.244 512.206 63.428 512.206 62.144V61.868C512.206 60.56 511.582 59.756 510.574 59.756C509.554 59.756 508.942 60.584 508.942 62C508.942 63.404 509.554 64.244 510.574 64.244ZM515.159 65V59H516.179V65H515.159ZM515.087 57.884V56.6H516.251V57.884H515.087ZM520.107 65.096C518.811 65.096 518.475 64.316 518.475 63.2V59.84H517.359V59H518.475V57.452L519.495 57.02V59H520.995V59.84H519.495V63.164C519.495 63.848 519.759 64.136 520.371 64.136C520.635 64.136 520.791 64.1 520.995 64.052V64.988C520.731 65.06 520.491 65.096 520.107 65.096ZM522.84 67.4C522.66 67.4 522.48 67.388 522.288 67.352V66.452C522.444 66.476 522.588 66.476 522.72 66.476C523.44 66.476 523.812 66.152 524.088 65.372L524.244 64.928L521.856 59H522.996L524.532 63.176C524.64 63.476 524.7 63.716 524.736 63.884H524.76C524.796 63.716 524.868 63.476 524.964 63.176L526.356 59H527.46L525.12 65.384C524.568 66.896 523.848 67.4 522.84 67.4ZM527.908 66.152C528.508 65.888 528.628 65.624 528.628 65.036V65H527.86V63.584H529.264V64.916C529.264 65.876 529.012 66.332 528.184 66.68L527.908 66.152ZM536.887 65.204C534.715 65.204 533.611 64.028 533.467 62.468L534.619 62.3C534.775 63.368 535.423 64.304 536.923 64.304C537.847 64.304 538.819 63.908 538.819 62.804C538.819 61.796 538.195 61.472 537.199 61.268L535.963 61.016C534.751 60.764 533.827 60.128 533.827 58.664C533.827 57.236 534.979 56.276 536.791 56.276C538.483 56.276 539.779 57.032 539.947 58.7L538.807 58.94C538.663 57.8 538.027 57.176 536.767 57.176C535.723 57.176 535.003 57.692 535.003 58.556C535.003 59.384 535.447 59.816 536.395 60.02L537.643 60.284C538.963 60.56 539.995 61.148 539.995 62.696C539.995 64.016 539.011 65.204 536.887 65.204ZM541.796 65V56.3H542.816V60.128C543.176 59.288 543.848 58.856 544.784 58.856C546.08 58.856 546.764 59.684 546.764 61.268V65H545.744V61.34C545.744 60.284 545.3 59.732 544.436 59.732C543.404 59.732 542.816 60.512 542.816 61.868V65H541.796ZM551.099 65.144C549.407 65.144 548.303 63.956 548.303 62C548.303 60.044 549.407 58.856 551.099 58.856C552.791 58.856 553.895 60.044 553.895 62C553.895 63.956 552.791 65.144 551.099 65.144ZM551.099 64.256C552.179 64.256 552.815 63.488 552.815 62C552.815 60.512 552.179 59.744 551.099 59.744C550.019 59.744 549.383 60.512 549.383 62C549.383 63.488 550.019 64.256 551.099 64.256ZM557.848 65.144C556.168 65.144 555.088 63.92 555.088 62C555.088 60.044 556.144 58.856 557.848 58.856C559.252 58.856 560.164 59.66 560.32 61.04L559.276 61.16C559.168 60.248 558.64 59.744 557.824 59.744C556.792 59.744 556.168 60.584 556.168 61.988C556.168 63.428 556.792 64.256 557.86 64.256C558.676 64.256 559.18 63.764 559.336 62.828L560.308 62.984C560.092 64.352 559.192 65.144 557.848 65.144ZM561.847 65V56.3H562.867V61.952L565.555 59H566.887L564.691 61.316L567.031 65H565.771L563.959 62.06L562.867 63.164V65H561.847Z" fill="#17171C"/>
<mask id="path-36-inside-11_311_104103" fill="white">
<path d="M586.668 40H780.001V82H586.668V40Z"/>
</mask>
<path d="M780.001 40H779.001V82H780.001H781.001V40H780.001Z" fill="#DBDBE0" mask="url(#path-36-inside-11_311_104103)"/>
<path d="M601.008 64.46H605.584V65.5H599.773V56.27H605.493V57.31H601.008V60.248H605.272V61.288H601.008V64.46ZM607.3 65.5V59H608.34V60.287C608.769 59.312 609.484 58.844 610.511 58.844C611.941 58.844 612.682 59.728 612.682 61.457V65.5H611.577V61.522C611.577 60.378 611.096 59.793 610.147 59.793C609.068 59.793 608.405 60.664 608.405 62.107V65.5H607.3ZM616.836 65.604C615.432 65.604 615.068 64.759 615.068 63.55V59.91H613.859V59H615.068V57.323L616.173 56.855V59H617.798V59.91H616.173V63.511C616.173 64.252 616.459 64.564 617.122 64.564C617.408 64.564 617.577 64.525 617.798 64.473V65.487C617.512 65.565 617.252 65.604 616.836 65.604ZM619.487 65.5V59H620.592V65.5H619.487ZM619.409 57.791V56.4H620.67V57.791H619.409ZM623.701 60.482C624.013 59.572 624.689 58.844 625.677 58.844C625.755 58.844 625.833 58.844 625.911 58.857V59.936H625.859C625.183 59.936 624.741 60.131 624.429 60.443C623.805 61.067 623.779 61.938 623.779 62.718V65.5H622.674V59H623.701V60.482ZM629.666 65.656C627.807 65.656 626.702 64.473 626.702 62.328C626.702 60.157 627.794 58.844 629.653 58.844C631.408 58.844 632.422 59.845 632.422 61.795V62.575H627.807C627.82 63.849 628.587 64.681 629.744 64.681C630.576 64.681 631.187 64.239 631.473 63.446L632.383 63.849C631.928 65.032 630.979 65.656 629.666 65.656ZM627.807 61.678H631.304V61.535C631.304 60.339 630.693 59.715 629.627 59.715C628.483 59.715 627.833 60.456 627.807 61.678ZM639.418 65.5V57.31H636.519V56.27H643.552V57.31H640.653V65.5H639.418ZM645.105 60.482C645.417 59.572 646.093 58.844 647.081 58.844C647.159 58.844 647.237 58.844 647.315 58.857V59.936H647.263C646.587 59.936 646.145 60.131 645.833 60.443C645.209 61.067 645.183 61.938 645.183 62.718V65.5H644.078V59H645.105V60.482ZM650.328 65.656C649.002 65.656 648.131 64.902 648.131 63.745C648.131 63.095 648.456 62.536 649.041 62.211C649.535 61.964 650.159 61.808 651.225 61.678L652.434 61.535V61.431C652.434 60.235 652.005 59.754 651.004 59.754C650.12 59.754 649.574 60.222 649.522 61.041H648.339C648.43 59.715 649.47 58.844 650.991 58.844C652.772 58.844 653.552 59.65 653.552 61.548V63.303C653.552 64.304 653.617 64.993 653.773 65.5H652.616C652.564 65.162 652.525 64.733 652.512 64.317C652.213 65.149 651.394 65.656 650.328 65.656ZM650.575 64.746C651.706 64.746 652.447 63.927 652.447 62.666V62.341L650.679 62.601C649.717 62.744 649.301 63.082 649.301 63.719C649.301 64.356 649.782 64.746 650.575 64.746ZM655.593 65.5V59H656.633V60.287C657.062 59.312 657.777 58.844 658.804 58.844C660.234 58.844 660.975 59.728 660.975 61.457V65.5H659.87V61.522C659.87 60.378 659.389 59.793 658.44 59.793C657.361 59.793 656.698 60.664 656.698 62.107V65.5H655.593ZM665.334 65.656C663.8 65.656 662.76 64.941 662.539 63.654L663.657 63.459C663.813 64.291 664.424 64.759 665.373 64.759C666.244 64.759 666.725 64.33 666.725 63.758C666.725 63.186 666.374 62.952 665.789 62.848L664.515 62.614C663.41 62.406 662.786 61.782 662.786 60.794C662.786 59.676 663.722 58.844 665.256 58.844C666.712 58.844 667.7 59.507 667.83 60.599L666.738 60.846C666.595 60.196 666.088 59.741 665.204 59.741C664.372 59.741 663.865 60.105 663.865 60.742C663.865 61.288 664.229 61.548 664.866 61.665L666.127 61.899C667.297 62.12 667.817 62.718 667.817 63.667C667.817 64.837 666.92 65.656 665.334 65.656ZM669.583 65.5V59H670.688V65.5H669.583ZM669.505 57.791V56.4H670.766V57.791H669.505ZM674.943 65.604C673.539 65.604 673.175 64.759 673.175 63.55V59.91H671.966V59H673.175V57.323L674.28 56.855V59H675.905V59.91H674.28V63.511C674.28 64.252 674.566 64.564 675.229 64.564C675.515 64.564 675.684 64.525 675.905 64.473V65.487C675.619 65.565 675.359 65.604 674.943 65.604ZM680.845 65.5V56.27H684.264C686.682 56.27 687.319 57.622 687.319 58.974C687.319 60.014 686.786 61.145 685.239 61.496L687.605 65.5H686.214L683.952 61.665H682.08V65.5H680.845ZM686.019 58.974C686.019 58.025 685.538 57.31 684.121 57.31H682.08V60.625H684.121C685.551 60.625 686.019 59.897 686.019 58.974ZM691.747 65.656C689.914 65.656 688.718 64.369 688.718 62.25C688.718 60.131 689.914 58.844 691.747 58.844C693.58 58.844 694.776 60.131 694.776 62.25C694.776 64.369 693.58 65.656 691.747 65.656ZM691.747 64.694C692.917 64.694 693.606 63.862 693.606 62.25C693.606 60.638 692.917 59.806 691.747 59.806C690.577 59.806 689.888 60.638 689.888 62.25C689.888 63.862 690.577 64.694 691.747 64.694ZM698.655 65.656C697.017 65.656 696.432 64.668 696.432 63.147V59H697.537V63.017C697.537 64.109 698.005 64.707 698.863 64.707C699.903 64.707 700.605 63.823 700.605 62.497V59H701.71V65.5H700.67V64.278C700.371 65.071 699.565 65.656 698.655 65.656ZM705.957 65.604C704.553 65.604 704.189 64.759 704.189 63.55V59.91H702.98V59H704.189V57.323L705.294 56.855V59H706.919V59.91H705.294V63.511C705.294 64.252 705.58 64.564 706.243 64.564C706.529 64.564 706.698 64.525 706.919 64.473V65.487C706.633 65.565 706.373 65.604 705.957 65.604ZM710.992 65.656C709.133 65.656 708.028 64.473 708.028 62.328C708.028 60.157 709.12 58.844 710.979 58.844C712.734 58.844 713.748 59.845 713.748 61.795V62.575H709.133C709.146 63.849 709.913 64.681 711.07 64.681C711.902 64.681 712.513 64.239 712.799 63.446L713.709 63.849C713.254 65.032 712.305 65.656 710.992 65.656ZM709.133 61.678H712.63V61.535C712.63 60.339 712.019 59.715 710.953 59.715C709.809 59.715 709.159 60.456 709.133 61.678Z" fill="#17171C"/>
<rect width="780" height="48" transform="translate(0 82)" fill="white"/>
<mask id="path-39-inside-12_311_104103" fill="white">
<path d="M0 82H60V130H0V82Z"/>
</mask>
<path d="M60 82H59V130H60H61V82H60Z" fill="#DBDBE0" mask="url(#path-39-inside-12_311_104103)"/>
<path d="M18.877 111H13.378V110.051L17.109 105.54C17.46 105.124 17.603 104.708 17.603 104.24C17.603 103.317 17.031 102.784 16.082 102.784C15.276 102.784 14.509 103.226 14.509 104.422H13.365C13.365 102.849 14.47 101.783 16.069 101.783C17.057 101.783 17.863 102.186 18.318 102.823C18.591 103.213 18.734 103.655 18.734 104.227C18.734 104.942 18.461 105.54 17.967 106.151L14.821 109.96H18.877V111Z" fill="#17171C"/>
<mask id="path-42-inside-13_311_104103" fill="white">
<path d="M60 82H200V130H60V82Z"/>
</mask>
<path d="M200 82H199V130H200H201V82H200Z" fill="#DBDBE0" mask="url(#path-42-inside-13_311_104103)"/>
<path d="M78.656 111H73.404V110.038H75.445V102.732H73.404V101.783H78.656V102.732H76.615V110.038H78.656V111ZM87.4975 106.372C87.4975 107.62 87.3805 108.777 86.8605 109.609C86.3405 110.454 85.3655 111 83.9225 111H81.1795V101.783H83.9225C85.3655 101.783 86.3535 102.368 86.8735 103.213C87.3935 104.045 87.4975 105.124 87.4975 106.372ZM86.3145 106.372C86.3145 105.189 86.2625 104.11 85.6255 103.46C85.2745 103.096 84.7155 102.849 83.9225 102.849H82.3365V109.934H83.9225C84.7545 109.934 85.3135 109.661 85.6645 109.284C86.2755 108.621 86.3145 107.516 86.3145 106.372ZM94.48 107.594H89.839V106.567H94.48V107.594ZM103.608 108.465C103.608 109.232 103.296 109.817 102.841 110.259C102.204 110.883 101.229 111.169 100.241 111.169C99.1226 111.169 98.2516 110.87 97.6276 110.298C97.0426 109.752 96.6656 108.959 96.6656 108.088H97.8746C97.8746 108.634 98.1346 109.18 98.5116 109.544C98.9276 109.947 99.5906 110.103 100.241 110.103C100.943 110.103 101.515 109.96 101.931 109.57C102.217 109.31 102.399 108.985 102.399 108.491C102.399 107.776 101.97 107.178 100.878 107.009L99.4606 106.788C98.0826 106.58 97.0296 105.813 97.0296 104.344C97.0296 103.655 97.3156 102.992 97.8096 102.524C98.4466 101.926 99.2266 101.614 100.189 101.614C101.086 101.614 101.944 101.887 102.555 102.472C103.114 103.005 103.4 103.681 103.426 104.461H102.217C102.191 104.006 102.035 103.629 101.775 103.33C101.424 102.927 100.891 102.68 100.176 102.68C99.5126 102.68 98.9796 102.875 98.5766 103.33C98.3426 103.603 98.2256 103.902 98.2256 104.318C98.2256 105.15 98.8886 105.527 99.5776 105.618C100.098 105.683 100.566 105.774 101.073 105.852C102.607 106.073 103.608 107.009 103.608 108.465ZM110.564 108.062H111.76C111.682 109.856 110.239 111.182 108.445 111.182C107.522 111.182 106.716 110.831 106.066 110.194C105.026 109.18 104.935 107.763 104.935 106.398C104.935 105.033 105.026 103.616 106.066 102.602C106.716 101.965 107.522 101.614 108.445 101.614C110.226 101.614 111.669 102.862 111.747 104.669H110.538C110.512 104.162 110.291 103.668 110.005 103.369C109.628 102.953 109.082 102.706 108.445 102.706C107.821 102.706 107.314 102.966 106.885 103.408C106.131 104.188 106.131 105.384 106.131 106.398C106.131 107.412 106.131 108.608 106.885 109.388C107.314 109.83 107.821 110.09 108.445 110.09C109.615 110.09 110.538 109.245 110.564 108.062ZM119.354 106.476C119.354 108.218 119.198 109.479 118.288 110.402C117.846 110.844 117.235 111.169 116.338 111.169C115.441 111.169 114.83 110.844 114.388 110.402C113.478 109.479 113.322 108.218 113.322 106.476C113.322 104.734 113.478 103.46 114.388 102.537C114.83 102.095 115.441 101.783 116.338 101.783C117.235 101.783 117.846 102.095 118.288 102.537C119.198 103.46 119.354 104.734 119.354 106.476ZM114.505 108.01L117.898 103.85C117.794 103.603 117.651 103.382 117.456 103.2C117.196 102.953 116.819 102.784 116.338 102.784C115.857 102.784 115.48 102.953 115.22 103.2C114.453 103.928 114.466 105.254 114.466 106.476C114.466 106.983 114.453 107.516 114.505 108.01ZM118.21 106.476C118.21 105.995 118.21 105.501 118.171 105.033L114.817 109.18C114.921 109.401 115.051 109.596 115.22 109.752C115.48 109.999 115.857 110.168 116.338 110.168C116.819 110.168 117.196 109.999 117.456 109.752C118.223 109.024 118.21 107.698 118.21 106.476ZM127.701 109.076H126.479V111H125.361V109.076H121.084V107.88L124.646 101.965H125.842L122.176 108.075H125.361V105.384H126.479V108.075H127.701V109.076Z" fill="#17171C"/>
<mask id="path-45-inside-14_311_104103" fill="white">
<path d="M200 82H393.333V130H200V82Z"/>
</mask>
<path d="M393.333 82H392.333V130H393.333H394.333V82H393.333Z" fill="#DBDBE0" mask="url(#path-45-inside-14_311_104103)"/>
<path d="M219.111 101.966L215.315 110H214.119L217.915 101.966H213.053V100.965H219.111V101.966ZM227.433 110H221.414V108.986H223.871V102.226L221.427 103.695V102.512L223.923 100.965H224.989V108.986H227.433V110Z" fill="#17171C"/>
<mask id="path-48-inside-15_311_104103" fill="white">
<path d="M393.332 82H586.665V130H393.332V82Z"/>
</mask>
<path d="M586.665 82H585.665V130H586.665H587.665V82H586.665Z" fill="#DBDBE0" mask="url(#path-48-inside-15_311_104103)"/>
<path d="M409.687 111.221C407.334 111.221 406.138 109.947 405.982 108.257L407.23 108.075C407.399 109.232 408.101 110.246 409.726 110.246C410.727 110.246 411.78 109.817 411.78 108.621C411.78 107.529 411.104 107.178 410.025 106.957L408.686 106.684C407.373 106.411 406.372 105.722 406.372 104.136C406.372 102.589 407.62 101.549 409.583 101.549C411.416 101.549 412.82 102.368 413.002 104.175L411.767 104.435C411.611 103.2 410.922 102.524 409.557 102.524C408.426 102.524 407.646 103.083 407.646 104.019C407.646 104.916 408.127 105.384 409.154 105.605L410.506 105.891C411.936 106.19 413.054 106.827 413.054 108.504C413.054 109.934 411.988 111.221 409.687 111.221ZM415.005 111V101.575H416.11V105.722C416.5 104.812 417.228 104.344 418.242 104.344C419.646 104.344 420.387 105.241 420.387 106.957V111H419.282V107.035C419.282 105.891 418.801 105.293 417.865 105.293C416.747 105.293 416.11 106.138 416.11 107.607V111H415.005ZM425.083 111.156C423.25 111.156 422.054 109.869 422.054 107.75C422.054 105.631 423.25 104.344 425.083 104.344C426.916 104.344 428.112 105.631 428.112 107.75C428.112 109.869 426.916 111.156 425.083 111.156ZM425.083 110.194C426.253 110.194 426.942 109.362 426.942 107.75C426.942 106.138 426.253 105.306 425.083 105.306C423.913 105.306 423.224 106.138 423.224 107.75C423.224 109.362 423.913 110.194 425.083 110.194ZM432.395 111.156C430.575 111.156 429.405 109.83 429.405 107.75C429.405 105.631 430.549 104.344 432.395 104.344C433.916 104.344 434.904 105.215 435.073 106.71L433.942 106.84C433.825 105.852 433.253 105.306 432.369 105.306C431.251 105.306 430.575 106.216 430.575 107.737C430.575 109.297 431.251 110.194 432.408 110.194C433.292 110.194 433.838 109.661 434.007 108.647L435.06 108.816C434.826 110.298 433.851 111.156 432.395 111.156ZM436.727 111V101.575H437.832V107.698L440.744 104.5H442.187L439.808 107.009L442.343 111H440.978L439.015 107.815L437.832 109.011V111H436.727Z" fill="#17171C"/>
<mask id="path-51-inside-16_311_104103" fill="white">
<path d="M586.668 82H780.001V130H586.668V82Z"/>
</mask>
<path d="M780.001 82H779.001V130H780.001H781.001V82H780.001Z" fill="#DBDBE0" mask="url(#path-51-inside-16_311_104103)"/>
<path d="M603.023 110.721C600.67 110.721 599.474 109.447 599.318 107.757L600.566 107.575C600.735 108.732 601.437 109.746 603.062 109.746C604.063 109.746 605.116 109.317 605.116 108.121C605.116 107.029 604.44 106.678 603.361 106.457L602.022 106.184C600.709 105.911 599.708 105.222 599.708 103.636C599.708 102.089 600.956 101.049 602.919 101.049C604.752 101.049 606.156 101.868 606.338 103.675L605.103 103.935C604.947 102.7 604.258 102.024 602.893 102.024C601.762 102.024 600.982 102.583 600.982 103.519C600.982 104.416 601.463 104.884 602.49 105.105L603.842 105.391C605.272 105.69 606.39 106.327 606.39 108.004C606.39 109.434 605.324 110.721 603.023 110.721ZM610.813 110.656C608.954 110.656 607.849 109.473 607.849 107.328C607.849 105.157 608.941 103.844 610.8 103.844C612.555 103.844 613.569 104.845 613.569 106.795V107.575H608.954C608.967 108.849 609.734 109.681 610.891 109.681C611.723 109.681 612.334 109.239 612.62 108.446L613.53 108.849C613.075 110.032 612.126 110.656 610.813 110.656ZM608.954 106.678H612.451V106.535C612.451 105.339 611.84 104.715 610.774 104.715C609.63 104.715 608.98 105.456 608.954 106.678ZM617.029 110.656C615.703 110.656 614.832 109.902 614.832 108.745C614.832 108.095 615.157 107.536 615.742 107.211C616.236 106.964 616.86 106.808 617.926 106.678L619.135 106.535V106.431C619.135 105.235 618.706 104.754 617.705 104.754C616.821 104.754 616.275 105.222 616.223 106.041H615.04C615.131 104.715 616.171 103.844 617.692 103.844C619.473 103.844 620.253 104.65 620.253 106.548V108.303C620.253 109.304 620.318 109.993 620.474 110.5H619.317C619.265 110.162 619.226 109.733 619.213 109.317C618.914 110.149 618.095 110.656 617.029 110.656ZM617.276 109.746C618.407 109.746 619.148 108.927 619.148 107.666V107.341L617.38 107.601C616.418 107.744 616.002 108.082 616.002 108.719C616.002 109.356 616.483 109.746 617.276 109.746ZM624.377 110.604C622.973 110.604 622.609 109.759 622.609 108.55V104.91H621.4V104H622.609V102.323L623.714 101.855V104H625.339V104.91H623.714V108.511C623.714 109.252 624 109.564 624.663 109.564C624.949 109.564 625.118 109.525 625.339 109.473V110.487C625.053 110.565 624.793 110.604 624.377 110.604ZM629.481 110.604C628.077 110.604 627.713 109.759 627.713 108.55V104.91H626.504V104H627.713V102.323L628.818 101.855V104H630.443V104.91H628.818V108.511C628.818 109.252 629.104 109.564 629.767 109.564C630.053 109.564 630.222 109.525 630.443 109.473V110.487C630.157 110.565 629.897 110.604 629.481 110.604ZM633.237 101.075V110.5H632.132V101.075H633.237ZM637.892 110.656C636.033 110.656 634.928 109.473 634.928 107.328C634.928 105.157 636.02 103.844 637.879 103.844C639.634 103.844 640.648 104.845 640.648 106.795V107.575H636.033C636.046 108.849 636.813 109.681 637.97 109.681C638.802 109.681 639.413 109.239 639.699 108.446L640.609 108.849C640.154 110.032 639.205 110.656 637.892 110.656ZM636.033 106.678H639.53V106.535C639.53 105.339 638.919 104.715 637.853 104.715C636.709 104.715 636.059 105.456 636.033 106.678ZM647.644 110.5V102.31H644.745V101.27H651.778V102.31H648.879V110.5H647.644ZM654.612 110.656C652.753 110.656 651.648 109.473 651.648 107.328C651.648 105.157 652.74 103.844 654.599 103.844C656.354 103.844 657.368 104.845 657.368 106.795V107.575H652.753C652.766 108.849 653.533 109.681 654.69 109.681C655.522 109.681 656.133 109.239 656.419 108.446L657.329 108.849C656.874 110.032 655.925 110.656 654.612 110.656ZM652.753 106.678H656.25V106.535C656.25 105.339 655.639 104.715 654.573 104.715C653.429 104.715 652.779 105.456 652.753 106.678ZM660.086 105.482C660.398 104.572 661.074 103.844 662.062 103.844C662.14 103.844 662.218 103.844 662.296 103.857V104.936H662.244C661.568 104.936 661.126 105.131 660.814 105.443C660.19 106.067 660.164 106.938 660.164 107.718V110.5H659.059V104H660.086V105.482ZM663.527 104H664.567V105.131C664.931 104.273 665.555 103.844 666.426 103.844C667.323 103.844 667.973 104.299 668.272 105.144C668.701 104.273 669.364 103.844 670.248 103.844C671.496 103.844 672.224 104.728 672.224 106.236V110.5H671.119V106.327C671.119 105.313 670.703 104.793 669.884 104.793C668.961 104.793 668.428 105.469 668.428 106.652V110.5H667.323V106.275C667.323 105.326 666.881 104.793 666.101 104.793C665.191 104.793 664.632 105.521 664.632 106.704V110.5H663.527V104ZM674.242 110.5V104H675.347V110.5H674.242ZM674.164 102.791V101.4H675.425V102.791H674.164ZM677.429 110.5V104H678.469V105.287C678.898 104.312 679.613 103.844 680.64 103.844C682.07 103.844 682.811 104.728 682.811 106.457V110.5H681.706V106.522C681.706 105.378 681.225 104.793 680.276 104.793C679.197 104.793 678.534 105.664 678.534 107.107V110.5H677.429ZM686.637 110.656C685.311 110.656 684.44 109.902 684.44 108.745C684.44 108.095 684.765 107.536 685.35 107.211C685.844 106.964 686.468 106.808 687.534 106.678L688.743 106.535V106.431C688.743 105.235 688.314 104.754 687.313 104.754C686.429 104.754 685.883 105.222 685.831 106.041H684.648C684.739 104.715 685.779 103.844 687.3 103.844C689.081 103.844 689.861 104.65 689.861 106.548V108.303C689.861 109.304 689.926 109.993 690.082 110.5H688.925C688.873 110.162 688.834 109.733 688.821 109.317C688.522 110.149 687.703 110.656 686.637 110.656ZM686.884 109.746C688.015 109.746 688.756 108.927 688.756 107.666V107.341L686.988 107.601C686.026 107.744 685.61 108.082 685.61 108.719C685.61 109.356 686.091 109.746 686.884 109.746ZM693.006 101.075V110.5H691.901V101.075H693.006ZM698.404 101.27H699.639V107.198C699.639 108.68 700.458 109.629 701.953 109.629C703.448 109.629 704.267 108.68 704.267 107.198V101.27H705.502V107.276C705.502 109.33 704.241 110.721 701.953 110.721C699.665 110.721 698.404 109.33 698.404 107.276V101.27ZM707.542 110.5V104H708.582V105.287C709.011 104.312 709.726 103.844 710.753 103.844C712.183 103.844 712.924 104.728 712.924 106.457V110.5H711.819V106.522C711.819 105.378 711.338 104.793 710.389 104.793C709.31 104.793 708.647 105.664 708.647 107.107V110.5H707.542ZM716.048 101.075V110.5H714.943V101.075H716.048ZM720.769 110.656C718.936 110.656 717.74 109.369 717.74 107.25C717.74 105.131 718.936 103.844 720.769 103.844C722.602 103.844 723.798 105.131 723.798 107.25C723.798 109.369 722.602 110.656 720.769 110.656ZM720.769 109.694C721.939 109.694 722.628 108.862 722.628 107.25C722.628 105.638 721.939 104.806 720.769 104.806C719.599 104.806 718.91 105.638 718.91 107.25C718.91 108.862 719.599 109.694 720.769 109.694ZM727.237 110.656C725.911 110.656 725.04 109.902 725.04 108.745C725.04 108.095 725.365 107.536 725.95 107.211C726.444 106.964 727.068 106.808 728.134 106.678L729.343 106.535V106.431C729.343 105.235 728.914 104.754 727.913 104.754C727.029 104.754 726.483 105.222 726.431 106.041H725.248C725.339 104.715 726.379 103.844 727.9 103.844C729.681 103.844 730.461 104.65 730.461 106.548V108.303C730.461 109.304 730.526 109.993 730.682 110.5H729.525C729.473 110.162 729.434 109.733 729.421 109.317C729.122 110.149 728.303 110.656 727.237 110.656ZM727.484 109.746C728.615 109.746 729.356 108.927 729.356 107.666V107.341L727.588 107.601C726.626 107.744 726.21 108.082 726.21 108.719C726.21 109.356 726.691 109.746 727.484 109.746ZM734.788 110.656C733.215 110.656 732.149 109.291 732.149 107.25C732.149 105.248 733.293 103.844 734.918 103.844C735.776 103.844 736.413 104.195 736.829 104.962V101.075H737.934V110.5H736.894V109.291C736.504 110.162 735.802 110.656 734.788 110.656ZM735.087 109.681C736.166 109.681 736.855 108.797 736.855 107.406V107.107C736.855 105.69 736.179 104.819 735.087 104.819C733.982 104.819 733.319 105.716 733.319 107.25C733.319 108.771 733.982 109.681 735.087 109.681ZM740.055 110.5V104H741.16V110.5H740.055ZM739.977 102.791V101.4H741.238V102.791H739.977ZM743.241 110.5V104H744.281V105.287C744.71 104.312 745.425 103.844 746.452 103.844C747.882 103.844 748.623 104.728 748.623 106.457V110.5H747.518V106.522C747.518 105.378 747.037 104.793 746.088 104.793C745.009 104.793 744.346 105.664 744.346 107.107V110.5H743.241ZM753.048 113.191C750.76 113.191 750.123 112.333 750.123 111.41C750.123 110.799 750.487 110.279 751.176 110.058C750.63 109.811 750.422 109.395 750.422 108.927C750.422 108.277 750.799 107.835 751.345 107.627C750.929 107.224 750.708 106.678 750.708 106.041C750.708 104.78 751.605 103.844 753.113 103.844C753.607 103.844 754.023 103.948 754.387 104.117C754.582 103.454 755.063 102.934 755.934 102.934C756.077 102.934 756.22 102.947 756.363 102.986V103.948C756.233 103.922 756.077 103.896 755.895 103.896C755.401 103.896 755.076 104.091 754.92 104.507C755.31 104.897 755.518 105.43 755.518 106.041C755.518 107.302 754.621 108.264 753.113 108.264C752.632 108.264 752.216 108.16 751.865 107.991C751.592 108.108 751.397 108.329 751.397 108.628C751.397 108.992 751.67 109.291 752.476 109.291H754.062C755.531 109.291 756.272 109.954 756.272 111.124C756.272 112.346 755.31 113.191 753.048 113.191ZM753.113 107.419C753.945 107.419 754.478 106.847 754.478 106.054C754.478 105.261 753.945 104.689 753.113 104.689C752.281 104.689 751.748 105.248 751.748 106.041C751.748 106.834 752.281 107.419 753.113 107.419ZM751.202 111.215C751.202 112.021 752.008 112.281 753.178 112.281C754.764 112.281 755.167 111.787 755.167 111.202C755.167 110.591 754.712 110.266 753.815 110.266H752.437C752.242 110.266 752.06 110.253 751.891 110.24C751.423 110.448 751.202 110.825 751.202 111.215Z" fill="#17171C"/>
<rect width="780" height="60" transform="translate(0 130)" fill="#F5F5F5"/>
<mask id="path-54-inside-17_311_104103" fill="white">
<path d="M0 130H60V190H0V130Z"/>
</mask>
<path d="M60 130H59V190H60H61V130H60Z" fill="#DBDBE0" mask="url(#path-54-inside-17_311_104103)"/>
<path d="M18.838 162.53C18.838 163.232 18.591 163.882 18.149 164.35C17.668 164.857 16.94 165.169 15.926 165.169C15.055 165.169 14.327 164.857 13.82 164.35C13.352 163.882 13.066 163.245 13.053 162.413H14.184C14.21 162.92 14.353 163.349 14.652 163.661C14.925 163.96 15.354 164.168 15.926 164.168C16.472 164.168 16.966 163.999 17.278 163.648C17.525 163.375 17.707 162.998 17.707 162.504C17.707 161.399 16.914 160.827 15.809 160.827H15.224V159.8H15.809C16.849 159.8 17.512 159.228 17.512 158.279C17.512 157.863 17.369 157.499 17.083 157.226C16.836 156.979 16.433 156.784 15.939 156.784C15.445 156.784 15.068 156.927 14.795 157.148C14.444 157.434 14.262 157.876 14.249 158.422H13.118C13.131 157.525 13.456 156.875 13.989 156.433C14.496 156.017 15.185 155.783 15.965 155.783C16.719 155.783 17.447 156.056 17.928 156.511C18.383 156.927 18.656 157.499 18.656 158.279C18.656 159.124 18.071 160.008 17.33 160.32C18.292 160.645 18.838 161.594 18.838 162.53Z" fill="#17171C"/>
<mask id="path-57-inside-18_311_104103" fill="white">
<path d="M60 130H200V190H60V130Z"/>
</mask>
<path d="M200 130H199V190H200H201V130H200Z" fill="#DBDBE0" mask="url(#path-57-inside-18_311_104103)"/>
<path d="M78.656 165H73.404V164.038H75.445V156.732H73.404V155.783H78.656V156.732H76.615V164.038H78.656V165ZM87.4975 160.372C87.4975 161.62 87.3805 162.777 86.8605 163.609C86.3405 164.454 85.3655 165 83.9225 165H81.1795V155.783H83.9225C85.3655 155.783 86.3535 156.368 86.8735 157.213C87.3935 158.045 87.4975 159.124 87.4975 160.372ZM86.3145 160.372C86.3145 159.189 86.2625 158.11 85.6255 157.46C85.2745 157.096 84.7155 156.849 83.9225 156.849H82.3365V163.934H83.9225C84.7545 163.934 85.3135 163.661 85.6645 163.284C86.2755 162.621 86.3145 161.516 86.3145 160.372ZM94.48 161.594H89.839V160.567H94.48V161.594ZM103.608 162.465C103.608 163.232 103.296 163.817 102.841 164.259C102.204 164.883 101.229 165.169 100.241 165.169C99.1226 165.169 98.2516 164.87 97.6276 164.298C97.0426 163.752 96.6656 162.959 96.6656 162.088H97.8746C97.8746 162.634 98.1346 163.18 98.5116 163.544C98.9276 163.947 99.5906 164.103 100.241 164.103C100.943 164.103 101.515 163.96 101.931 163.57C102.217 163.31 102.399 162.985 102.399 162.491C102.399 161.776 101.97 161.178 100.878 161.009L99.4606 160.788C98.0826 160.58 97.0296 159.813 97.0296 158.344C97.0296 157.655 97.3156 156.992 97.8096 156.524C98.4466 155.926 99.2266 155.614 100.189 155.614C101.086 155.614 101.944 155.887 102.555 156.472C103.114 157.005 103.4 157.681 103.426 158.461H102.217C102.191 158.006 102.035 157.629 101.775 157.33C101.424 156.927 100.891 156.68 100.176 156.68C99.5126 156.68 98.9796 156.875 98.5766 157.33C98.3426 157.603 98.2256 157.902 98.2256 158.318C98.2256 159.15 98.8886 159.527 99.5776 159.618C100.098 159.683 100.566 159.774 101.073 159.852C102.607 160.073 103.608 161.009 103.608 162.465ZM110.564 162.062H111.76C111.682 163.856 110.239 165.182 108.445 165.182C107.522 165.182 106.716 164.831 106.066 164.194C105.026 163.18 104.935 161.763 104.935 160.398C104.935 159.033 105.026 157.616 106.066 156.602C106.716 155.965 107.522 155.614 108.445 155.614C110.226 155.614 111.669 156.862 111.747 158.669H110.538C110.512 158.162 110.291 157.668 110.005 157.369C109.628 156.953 109.082 156.706 108.445 156.706C107.821 156.706 107.314 156.966 106.885 157.408C106.131 158.188 106.131 159.384 106.131 160.398C106.131 161.412 106.131 162.608 106.885 163.388C107.314 163.83 107.821 164.09 108.445 164.09C109.615 164.09 110.538 163.245 110.564 162.062ZM119.354 160.476C119.354 162.218 119.198 163.479 118.288 164.402C117.846 164.844 117.235 165.169 116.338 165.169C115.441 165.169 114.83 164.844 114.388 164.402C113.478 163.479 113.322 162.218 113.322 160.476C113.322 158.734 113.478 157.46 114.388 156.537C114.83 156.095 115.441 155.783 116.338 155.783C117.235 155.783 117.846 156.095 118.288 156.537C119.198 157.46 119.354 158.734 119.354 160.476ZM114.505 162.01L117.898 157.85C117.794 157.603 117.651 157.382 117.456 157.2C117.196 156.953 116.819 156.784 116.338 156.784C115.857 156.784 115.48 156.953 115.22 157.2C114.453 157.928 114.466 159.254 114.466 160.476C114.466 160.983 114.453 161.516 114.505 162.01ZM118.21 160.476C118.21 159.995 118.21 159.501 118.171 159.033L114.817 163.18C114.921 163.401 115.051 163.596 115.22 163.752C115.48 163.999 115.857 164.168 116.338 164.168C116.819 164.168 117.196 163.999 117.456 163.752C118.223 163.024 118.21 161.698 118.21 160.476ZM127.246 165H121.747V164.051L125.478 159.54C125.829 159.124 125.972 158.708 125.972 158.24C125.972 157.317 125.4 156.784 124.451 156.784C123.645 156.784 122.878 157.226 122.878 158.422H121.734C121.734 156.849 122.839 155.783 124.438 155.783C125.426 155.783 126.232 156.186 126.687 156.823C126.96 157.213 127.103 157.655 127.103 158.227C127.103 158.942 126.83 159.54 126.336 160.151L123.19 163.96H127.246V165Z" fill="#17171C"/>
<mask id="path-60-inside-19_311_104103" fill="white">
<path d="M200 130H393.333V190H200V130Z"/>
</mask>
<path d="M393.333 130H392.333V190H393.333H394.333V130H393.333Z" fill="#DBDBE0" mask="url(#path-60-inside-19_311_104103)"/>
<path d="M219.111 155.966L215.315 164H214.119L217.915 155.966H213.053V154.965H219.111V155.966ZM227.433 164H221.414V162.986H223.871V156.226L221.427 157.695V156.512L223.923 154.965H224.989V162.986H227.433V164Z" fill="#17171C"/>
<mask id="path-63-inside-20_311_104103" fill="white">
<path d="M393.332 130H586.665V190H393.332V130Z"/>
</mask>
<path d="M586.665 130H585.665V190H586.665H587.665V130H586.665Z" fill="#DBDBE0" mask="url(#path-63-inside-20_311_104103)"/>
<path d="M408.248 155V147.44H405.572V146.48H412.064V147.44H409.388V155H408.248ZM414.68 155.144C412.964 155.144 411.944 154.052 411.944 152.072C411.944 150.068 412.952 148.856 414.668 148.856C416.288 148.856 417.224 149.78 417.224 151.58V152.3H412.964C412.976 153.476 413.684 154.244 414.752 154.244C415.52 154.244 416.084 153.836 416.348 153.104L417.188 153.476C416.768 154.568 415.892 155.144 414.68 155.144ZM412.964 151.472H416.192V151.34C416.192 150.236 415.628 149.66 414.644 149.66C413.588 149.66 412.988 150.344 412.964 151.472ZM418.784 149H419.744V150.044C420.08 149.252 420.656 148.856 421.46 148.856C422.288 148.856 422.888 149.276 423.164 150.056C423.56 149.252 424.172 148.856 424.988 148.856C426.14 148.856 426.812 149.672 426.812 151.064V155H425.792V151.148C425.792 150.212 425.408 149.732 424.652 149.732C423.8 149.732 423.308 150.356 423.308 151.448V155H422.288V151.1C422.288 150.224 421.88 149.732 421.16 149.732C420.32 149.732 419.804 150.404 419.804 151.496V155H418.784V149ZM428.675 157.34V149H429.635V150.116C430.019 149.288 430.715 148.856 431.591 148.856C433.043 148.856 434.015 150.104 434.015 152C434.015 153.92 432.983 155.144 431.531 155.144C430.607 155.144 429.959 154.64 429.695 154.052V157.34H428.675ZM431.291 154.244C432.311 154.244 432.935 153.404 432.935 152C432.935 150.584 432.335 149.756 431.327 149.756C430.319 149.756 429.671 150.548 429.671 151.844V152.132C429.671 153.428 430.295 154.244 431.291 154.244ZM437.953 155.144C436.237 155.144 435.217 154.052 435.217 152.072C435.217 150.068 436.225 148.856 437.941 148.856C439.561 148.856 440.497 149.78 440.497 151.58V152.3H436.237C436.249 153.476 436.957 154.244 438.025 154.244C438.793 154.244 439.357 153.836 439.621 153.104L440.461 153.476C440.041 154.568 439.165 155.144 437.953 155.144ZM436.237 151.472H439.465V151.34C439.465 150.236 438.901 149.66 437.917 149.66C436.861 149.66 436.261 150.344 436.237 151.472ZM443.006 150.368C443.294 149.528 443.918 148.856 444.83 148.856C444.902 148.856 444.974 148.856 445.046 148.868V149.864H444.998C444.374 149.864 443.966 150.044 443.678 150.332C443.102 150.908 443.078 151.712 443.078 152.432V155H442.058V149H443.006V150.368ZM447.827 155.144C446.603 155.144 445.799 154.448 445.799 153.38C445.799 152.78 446.099 152.264 446.639 151.964C447.095 151.736 447.671 151.592 448.655 151.472L449.771 151.34V151.244C449.771 150.14 449.375 149.696 448.451 149.696C447.635 149.696 447.131 150.128 447.083 150.884H445.991C446.075 149.66 447.035 148.856 448.439 148.856C450.083 148.856 450.803 149.6 450.803 151.352V152.972C450.803 153.896 450.863 154.532 451.007 155H449.939C449.891 154.688 449.855 154.292 449.843 153.908C449.567 154.676 448.811 155.144 447.827 155.144ZM448.055 154.304C449.099 154.304 449.783 153.548 449.783 152.384V152.084L448.151 152.324C447.263 152.456 446.879 152.768 446.879 153.356C446.879 153.944 447.323 154.304 448.055 154.304ZM454.611 155.096C453.315 155.096 452.979 154.316 452.979 153.2V149.84H451.863V149H452.979V147.452L453.999 147.02V149H455.499V149.84H453.999V153.164C453.999 153.848 454.263 154.136 454.875 154.136C455.139 154.136 455.295 154.1 455.499 154.052V154.988C455.235 155.06 454.995 155.096 454.611 155.096ZM458.944 155.144C457.432 155.144 456.892 154.232 456.892 152.828V149H457.912V152.708C457.912 153.716 458.344 154.268 459.136 154.268C460.096 154.268 460.744 153.452 460.744 152.228V149H461.764V155H460.804V153.872C460.528 154.604 459.784 155.144 458.944 155.144ZM464.627 150.368C464.915 149.528 465.539 148.856 466.451 148.856C466.523 148.856 466.595 148.856 466.667 148.868V149.864H466.619C465.995 149.864 465.587 150.044 465.299 150.332C464.723 150.908 464.699 151.712 464.699 152.432V155H463.679V149H464.627V150.368ZM470.133 155.144C468.417 155.144 467.397 154.052 467.397 152.072C467.397 150.068 468.405 148.856 470.121 148.856C471.741 148.856 472.677 149.78 472.677 151.58V152.3H468.417C468.429 153.476 469.137 154.244 470.205 154.244C470.973 154.244 471.537 153.836 471.801 153.104L472.641 153.476C472.221 154.568 471.345 155.144 470.133 155.144ZM468.417 151.472H471.645V151.34C471.645 150.236 471.081 149.66 470.097 149.66C469.041 149.66 468.441 150.344 468.417 151.472ZM479.471 155L476.519 146.48H477.719L479.759 152.744C479.927 153.248 480.011 153.584 480.071 153.896H480.119C480.179 153.584 480.263 153.248 480.431 152.744L482.471 146.48H483.671L480.719 155H479.471ZM486.03 155.144C484.806 155.144 484.002 154.448 484.002 153.38C484.002 152.78 484.302 152.264 484.842 151.964C485.298 151.736 485.874 151.592 486.858 151.472L487.974 151.34V151.244C487.974 150.14 487.578 149.696 486.654 149.696C485.838 149.696 485.334 150.128 485.286 150.884H484.194C484.278 149.66 485.238 148.856 486.642 148.856C488.286 148.856 489.006 149.6 489.006 151.352V152.972C489.006 153.896 489.066 154.532 489.21 155H488.142C488.094 154.688 488.058 154.292 488.046 153.908C487.77 154.676 487.014 155.144 486.03 155.144ZM486.258 154.304C487.302 154.304 487.986 153.548 487.986 152.384V152.084L486.354 152.324C485.466 152.456 485.082 152.768 485.082 153.356C485.082 153.944 485.526 154.304 486.258 154.304ZM491.838 150.368C492.126 149.528 492.75 148.856 493.662 148.856C493.734 148.856 493.806 148.856 493.878 148.868V149.864H493.83C493.206 149.864 492.798 150.044 492.51 150.332C491.934 150.908 491.91 151.712 491.91 152.432V155H490.89V149H491.838V150.368ZM495.015 155V149H496.035V155H495.015ZM494.943 147.884V146.6H496.107V147.884H494.943ZM499.624 155.144C498.4 155.144 497.596 154.448 497.596 153.38C497.596 152.78 497.896 152.264 498.436 151.964C498.892 151.736 499.468 151.592 500.452 151.472L501.568 151.34V151.244C501.568 150.14 501.172 149.696 500.248 149.696C499.432 149.696 498.928 150.128 498.88 150.884H497.788C497.872 149.66 498.832 148.856 500.236 148.856C501.88 148.856 502.6 149.6 502.6 151.352V152.972C502.6 153.896 502.66 154.532 502.804 155H501.736C501.688 154.688 501.652 154.292 501.64 153.908C501.364 154.676 500.608 155.144 499.624 155.144ZM499.852 154.304C500.896 154.304 501.58 153.548 501.58 152.384V152.084L499.948 152.324C499.06 152.456 498.676 152.768 498.676 153.356C498.676 153.944 499.12 154.304 499.852 154.304ZM506.407 155.096C505.111 155.096 504.775 154.316 504.775 153.2V149.84H503.659V149H504.775V147.452L505.795 147.02V149H507.295V149.84H505.795V153.164C505.795 153.848 506.059 154.136 506.671 154.136C506.935 154.136 507.091 154.1 507.295 154.052V154.988C507.031 155.06 506.791 155.096 506.407 155.096ZM508.855 155V149H509.875V155H508.855ZM508.783 147.884V146.6H509.947V147.884H508.783ZM514.232 155.144C512.54 155.144 511.436 153.956 511.436 152C511.436 150.044 512.54 148.856 514.232 148.856C515.924 148.856 517.028 150.044 517.028 152C517.028 153.956 515.924 155.144 514.232 155.144ZM514.232 154.256C515.312 154.256 515.948 153.488 515.948 152C515.948 150.512 515.312 149.744 514.232 149.744C513.152 149.744 512.516 150.512 512.516 152C512.516 153.488 513.152 154.256 514.232 154.256ZM518.593 155V149H519.553V150.188C519.949 149.288 520.609 148.856 521.557 148.856C522.877 148.856 523.561 149.672 523.561 151.268V155H522.541V151.328C522.541 150.272 522.097 149.732 521.221 149.732C520.225 149.732 519.613 150.536 519.613 151.868V155H518.593ZM408.2 174.68C406.916 173.144 406.112 171.116 406.112 169.052C406.112 166.988 406.94 165.032 408.224 163.616L408.944 164.048C407.684 165.692 407.144 167.204 407.144 169.088C407.144 170.972 407.684 172.532 408.944 174.224L408.2 174.68ZM412.479 173V165.44H409.803V164.48H416.295V165.44H413.619V173H412.479ZM417.495 173V164.3H418.515V168.128C418.875 167.288 419.547 166.856 420.483 166.856C421.779 166.856 422.463 167.684 422.463 169.268V173H421.443V169.34C421.443 168.284 420.999 167.732 420.135 167.732C419.103 167.732 418.515 168.512 418.515 169.868V173H417.495ZM426.738 173.144C425.022 173.144 424.002 172.052 424.002 170.072C424.002 168.068 425.01 166.856 426.726 166.856C428.346 166.856 429.282 167.78 429.282 169.58V170.3H425.022C425.034 171.476 425.742 172.244 426.81 172.244C427.578 172.244 428.142 171.836 428.406 171.104L429.246 171.476C428.826 172.568 427.95 173.144 426.738 173.144ZM425.022 169.472H428.25V169.34C428.25 168.236 427.686 167.66 426.702 167.66C425.646 167.66 425.046 168.344 425.022 169.472ZM431.791 168.368C432.079 167.528 432.703 166.856 433.615 166.856C433.687 166.856 433.759 166.856 433.831 166.868V167.864H433.783C433.159 167.864 432.751 168.044 432.463 168.332C431.887 168.908 431.863 169.712 431.863 170.432V173H430.843V167H431.791V168.368ZM434.968 167H435.928V168.044C436.264 167.252 436.84 166.856 437.644 166.856C438.472 166.856 439.072 167.276 439.348 168.056C439.744 167.252 440.356 166.856 441.172 166.856C442.324 166.856 442.996 167.672 442.996 169.064V173H441.976V169.148C441.976 168.212 441.592 167.732 440.836 167.732C439.984 167.732 439.492 168.356 439.492 169.448V173H438.472V169.1C438.472 168.224 438.064 167.732 437.344 167.732C436.504 167.732 435.988 168.404 435.988 169.496V173H434.968V167ZM446.526 173.144C445.302 173.144 444.498 172.448 444.498 171.38C444.498 170.78 444.798 170.264 445.338 169.964C445.794 169.736 446.37 169.592 447.354 169.472L448.47 169.34V169.244C448.47 168.14 448.074 167.696 447.15 167.696C446.334 167.696 445.83 168.128 445.782 168.884H444.69C444.774 167.66 445.734 166.856 447.138 166.856C448.782 166.856 449.502 167.6 449.502 169.352V170.972C449.502 171.896 449.562 172.532 449.706 173H448.638C448.59 172.688 448.554 172.292 448.542 171.908C448.266 172.676 447.51 173.144 446.526 173.144ZM446.754 172.304C447.798 172.304 448.482 171.548 448.482 170.384V170.084L446.85 170.324C445.962 170.456 445.578 170.768 445.578 171.356C445.578 171.944 446.022 172.304 446.754 172.304ZM452.406 164.3V173H451.386V164.3H452.406ZM460.329 173.204C458.157 173.204 457.053 172.028 456.909 170.468L458.061 170.3C458.217 171.368 458.865 172.304 460.365 172.304C461.289 172.304 462.261 171.908 462.261 170.804C462.261 169.796 461.637 169.472 460.641 169.268L459.405 169.016C458.193 168.764 457.269 168.128 457.269 166.664C457.269 165.236 458.421 164.276 460.233 164.276C461.925 164.276 463.221 165.032 463.389 166.7L462.249 166.94C462.105 165.8 461.469 165.176 460.209 165.176C459.165 165.176 458.445 165.692 458.445 166.556C458.445 167.384 458.889 167.816 459.837 168.02L461.085 168.284C462.405 168.56 463.437 169.148 463.437 170.696C463.437 172.016 462.453 173.204 460.329 173.204ZM465.237 173V164.3H466.257V168.128C466.617 167.288 467.289 166.856 468.225 166.856C469.521 166.856 470.205 167.684 470.205 169.268V173H469.185V169.34C469.185 168.284 468.741 167.732 467.877 167.732C466.845 167.732 466.257 168.512 466.257 169.868V173H465.237ZM474.541 173.144C472.849 173.144 471.745 171.956 471.745 170C471.745 168.044 472.849 166.856 474.541 166.856C476.233 166.856 477.337 168.044 477.337 170C477.337 171.956 476.233 173.144 474.541 173.144ZM474.541 172.256C475.621 172.256 476.257 171.488 476.257 170C476.257 168.512 475.621 167.744 474.541 167.744C473.461 167.744 472.825 168.512 472.825 170C472.825 171.488 473.461 172.256 474.541 172.256ZM481.29 173.144C479.61 173.144 478.53 171.92 478.53 170C478.53 168.044 479.586 166.856 481.29 166.856C482.694 166.856 483.606 167.66 483.762 169.04L482.718 169.16C482.61 168.248 482.082 167.744 481.266 167.744C480.234 167.744 479.61 168.584 479.61 169.988C479.61 171.428 480.234 172.256 481.302 172.256C482.118 172.256 482.622 171.764 482.778 170.828L483.75 170.984C483.534 172.352 482.634 173.144 481.29 173.144ZM485.288 173V164.3H486.308V169.952L488.996 167H490.328L488.132 169.316L490.472 173H489.212L487.4 170.06L486.308 171.164V173H485.288ZM490.942 174.224C492.202 172.532 492.742 170.972 492.742 169.088C492.742 167.204 492.202 165.692 490.942 164.048L491.662 163.616C492.946 165.032 493.774 166.988 493.774 169.052C493.774 171.116 492.97 173.144 491.686 174.68L490.942 174.224Z" fill="#17171C"/>
<mask id="path-66-inside-21_311_104103" fill="white">
<path d="M586.668 130H780.001V190H586.668V130Z"/>
</mask>
<path d="M780.001 130H779.001V190H780.001H781.001V130H780.001Z" fill="#DBDBE0" mask="url(#path-66-inside-21_311_104103)"/>
<path d="M601.008 164.5H599.773V155.27H601.008V164.5ZM603.148 164.5V158H604.188V159.287C604.617 158.312 605.332 157.844 606.359 157.844C607.789 157.844 608.53 158.728 608.53 160.457V164.5H607.425V160.522C607.425 159.378 606.944 158.793 605.995 158.793C604.916 158.793 604.253 159.664 604.253 161.107V164.5H603.148ZM612.685 164.604C611.281 164.604 610.917 163.759 610.917 162.55V158.91H609.708V158H610.917V156.323L612.022 155.855V158H613.647V158.91H612.022V162.511C612.022 163.252 612.308 163.564 612.971 163.564C613.257 163.564 613.426 163.525 613.647 163.473V164.487C613.361 164.565 613.101 164.604 612.685 164.604ZM617.719 164.656C615.86 164.656 614.755 163.473 614.755 161.328C614.755 159.157 615.847 157.844 617.706 157.844C619.461 157.844 620.475 158.845 620.475 160.795V161.575H615.86C615.873 162.849 616.64 163.681 617.797 163.681C618.629 163.681 619.24 163.239 619.526 162.446L620.436 162.849C619.981 164.032 619.032 164.656 617.719 164.656ZM615.86 160.678H619.357V160.535C619.357 159.339 618.746 158.715 617.68 158.715C616.536 158.715 615.886 159.456 615.86 160.678ZM623.193 159.482C623.505 158.572 624.181 157.844 625.169 157.844C625.247 157.844 625.325 157.844 625.403 157.857V158.936H625.351C624.675 158.936 624.233 159.131 623.921 159.443C623.297 160.067 623.271 160.938 623.271 161.718V164.5H622.166V158H623.193V159.482ZM626.635 158H627.675V159.131C628.039 158.273 628.663 157.844 629.534 157.844C630.431 157.844 631.081 158.299 631.38 159.144C631.809 158.273 632.472 157.844 633.356 157.844C634.604 157.844 635.332 158.728 635.332 160.236V164.5H634.227V160.327C634.227 159.313 633.811 158.793 632.992 158.793C632.069 158.793 631.536 159.469 631.536 160.652V164.5H630.431V160.275C630.431 159.326 629.989 158.793 629.209 158.793C628.299 158.793 627.74 159.521 627.74 160.704V164.5H626.635V158ZM640.027 164.656C638.194 164.656 636.998 163.369 636.998 161.25C636.998 159.131 638.194 157.844 640.027 157.844C641.86 157.844 643.056 159.131 643.056 161.25C643.056 163.369 641.86 164.656 640.027 164.656ZM640.027 163.694C641.197 163.694 641.886 162.862 641.886 161.25C641.886 159.638 641.197 158.806 640.027 158.806C638.857 158.806 638.168 159.638 638.168 161.25C638.168 162.862 638.857 163.694 640.027 163.694ZM647 164.656C645.427 164.656 644.361 163.291 644.361 161.25C644.361 159.248 645.505 157.844 647.13 157.844C647.988 157.844 648.625 158.195 649.041 158.962V155.075H650.146V164.5H649.106V163.291C648.716 164.162 648.014 164.656 647 164.656ZM647.299 163.681C648.378 163.681 649.067 162.797 649.067 161.406V161.107C649.067 159.69 648.391 158.819 647.299 158.819C646.194 158.819 645.531 159.716 645.531 161.25C645.531 162.771 646.194 163.681 647.299 163.681ZM654.035 164.656C652.709 164.656 651.838 163.902 651.838 162.745C651.838 162.095 652.163 161.536 652.748 161.211C653.242 160.964 653.866 160.808 654.932 160.678L656.141 160.535V160.431C656.141 159.235 655.712 158.754 654.711 158.754C653.827 158.754 653.281 159.222 653.229 160.041H652.046C652.137 158.715 653.177 157.844 654.698 157.844C656.479 157.844 657.259 158.65 657.259 160.548V162.303C657.259 163.304 657.324 163.993 657.48 164.5H656.323C656.271 164.162 656.232 163.733 656.219 163.317C655.92 164.149 655.101 164.656 654.035 164.656ZM654.282 163.746C655.413 163.746 656.154 162.927 656.154 161.666V161.341L654.386 161.601C653.424 161.744 653.008 162.082 653.008 162.719C653.008 163.356 653.489 163.746 654.282 163.746ZM660.405 155.075V164.5H659.3V155.075H660.405ZM667.792 164.5V156.31H664.893V155.27H671.926V156.31H669.027V164.5H667.792ZM673.479 159.482C673.791 158.572 674.467 157.844 675.455 157.844C675.533 157.844 675.611 157.844 675.689 157.857V158.936H675.637C674.961 158.936 674.519 159.131 674.207 159.443C673.583 160.067 673.557 160.938 673.557 161.718V164.5H672.452V158H673.479V159.482ZM678.702 164.656C677.376 164.656 676.505 163.902 676.505 162.745C676.505 162.095 676.83 161.536 677.415 161.211C677.909 160.964 678.533 160.808 679.599 160.678L680.808 160.535V160.431C680.808 159.235 680.379 158.754 679.378 158.754C678.494 158.754 677.948 159.222 677.896 160.041H676.713C676.804 158.715 677.844 157.844 679.365 157.844C681.146 157.844 681.926 158.65 681.926 160.548V162.303C681.926 163.304 681.991 163.993 682.147 164.5H680.99C680.938 164.162 680.899 163.733 680.886 163.317C680.587 164.149 679.768 164.656 678.702 164.656ZM678.949 163.746C680.08 163.746 680.821 162.927 680.821 161.666V161.341L679.053 161.601C678.091 161.744 677.675 162.082 677.675 162.719C677.675 163.356 678.156 163.746 678.949 163.746ZM683.967 164.5V158H685.007V159.287C685.436 158.312 686.151 157.844 687.178 157.844C688.608 157.844 689.349 158.728 689.349 160.457V164.5H688.244V160.522C688.244 159.378 687.763 158.793 686.814 158.793C685.735 158.793 685.072 159.664 685.072 161.107V164.5H683.967ZM693.708 164.656C692.174 164.656 691.134 163.941 690.913 162.654L692.031 162.459C692.187 163.291 692.798 163.759 693.747 163.759C694.618 163.759 695.099 163.33 695.099 162.758C695.099 162.186 694.748 161.952 694.163 161.848L692.889 161.614C691.784 161.406 691.16 160.782 691.16 159.794C691.16 158.676 692.096 157.844 693.63 157.844C695.086 157.844 696.074 158.507 696.204 159.599L695.112 159.846C694.969 159.196 694.462 158.741 693.578 158.741C692.746 158.741 692.239 159.105 692.239 159.742C692.239 160.288 692.603 160.548 693.24 160.665L694.501 160.899C695.671 161.12 696.191 161.718 696.191 162.667C696.191 163.837 695.294 164.656 693.708 164.656ZM698.438 164.5V158.91H697.242V158H698.438V156.973C698.438 155.79 699.179 154.997 700.336 154.997C700.648 154.997 700.921 155.023 701.168 155.088V156.037C700.934 155.998 700.687 155.972 700.479 155.972C699.816 155.972 699.543 156.336 699.543 157.129V158H701.168V158.91H699.543V164.5H698.438ZM704.885 164.656C703.026 164.656 701.921 163.473 701.921 161.328C701.921 159.157 703.013 157.844 704.872 157.844C706.627 157.844 707.641 158.845 707.641 160.795V161.575H703.026C703.039 162.849 703.806 163.681 704.963 163.681C705.795 163.681 706.406 163.239 706.692 162.446L707.602 162.849C707.147 164.032 706.198 164.656 704.885 164.656ZM703.026 160.678H706.523V160.535C706.523 159.339 705.912 158.715 704.846 158.715C703.702 158.715 703.052 159.456 703.026 160.678ZM710.359 159.482C710.671 158.572 711.347 157.844 712.335 157.844C712.413 157.844 712.491 157.844 712.569 157.857V158.936H712.517C711.841 158.936 711.399 159.131 711.087 159.443C710.463 160.067 710.437 160.938 710.437 161.718V164.5H709.332V158H710.359V159.482ZM716.792 163.356L721.979 156.31H716.961V155.27H723.292V156.414L718.092 163.46H723.474V164.5H716.792V163.356ZM727.612 164.656C725.779 164.656 724.583 163.369 724.583 161.25C724.583 159.131 725.779 157.844 727.612 157.844C729.445 157.844 730.641 159.131 730.641 161.25C730.641 163.369 729.445 164.656 727.612 164.656ZM727.612 163.694C728.782 163.694 729.471 162.862 729.471 161.25C729.471 159.638 728.782 158.806 727.612 158.806C726.442 158.806 725.753 159.638 725.753 161.25C725.753 162.862 726.442 163.694 727.612 163.694ZM732.336 164.5V158H733.376V159.287C733.805 158.312 734.52 157.844 735.547 157.844C736.977 157.844 737.718 158.728 737.718 160.457V164.5H736.613V160.522C736.613 159.378 736.132 158.793 735.183 158.793C734.104 158.793 733.441 159.664 733.441 161.107V164.5H732.336ZM742.349 164.656C740.49 164.656 739.385 163.473 739.385 161.328C739.385 159.157 740.477 157.844 742.336 157.844C744.091 157.844 745.105 158.845 745.105 160.795V161.575H740.49C740.503 162.849 741.27 163.681 742.427 163.681C743.259 163.681 743.87 163.239 744.156 162.446L745.066 162.849C744.611 164.032 743.662 164.656 742.349 164.656ZM740.49 160.678H743.987V160.535C743.987 159.339 743.376 158.715 742.31 158.715C741.166 158.715 740.516 159.456 740.49 160.678Z" fill="#17171C"/>
</g>
<path d="M10 0.5H770C775.247 0.5 779.5 4.75329 779.5 10V180C779.5 185.247 775.247 189.5 770 189.5H10C4.7533 189.5 0.5 185.247 0.5 180V10C0.5 4.75329 4.75329 0.5 10 0.5Z" stroke="#DCDCE0"/>
<defs>
<clipPath id="clip0_311_104103">
<path d="M0 10C0 4.47715 4.47715 0 10 0H770C775.523 0 780 4.47715 780 10V180C780 185.523 775.523 190 770 190H9.99998C4.47713 190 0 185.523 0 180V10Z" fill="white"/>
</clipPath>
</defs>
</svg>
