<svg width="780" height="380" viewBox="0 0 780 380" fill="none" xmlns="http://www.w3.org/2000/svg">
<g clip-path="url(#clip0_311_49749)">
<path d="M0 10C0 4.47716 4.47715 0 10 0H770C775.523 0 780 4.47715 780 10V370C780 375.523 775.523 380 770 380H9.99998C4.47713 380 0 375.523 0 370V10Z" fill="white"/>
<mask id="path-3-inside-1_311_49749" fill="white">
<path d="M0 0H156V40H0V0Z"/>
</mask>
<path d="M156 40V41C156.552 41 157 40.5523 157 40H156ZM156 0H155V40H156H157V0H156ZM156 40V39H0V40V41H156V40Z" fill="#DCDCE0" mask="url(#path-3-inside-1_311_49749)"/>
<path d="M13.692 15.072H20.712V15.984C20.712 16.98 20.712 18.06 20.412 19.584H21.972V20.34H17.664V24.9H16.752V20.34H12.48V19.584H19.5C19.824 18.084 19.824 16.968 19.824 15.984V15.804H13.692V15.072ZM30.2043 14.376H31.1043V17.58H32.6763V18.336H31.1043V22.056H30.2043V14.376ZM22.9923 20.112C25.4883 19.332 27.1323 17.82 27.3243 15.936H23.4243V15.192H28.2963C28.2963 17.892 26.3763 19.884 23.3763 20.844L22.9923 20.112ZM24.5883 24.636V21.276H25.4883V23.892H31.5843V24.636H24.5883Z" fill="#737680"/>
<mask id="path-6-inside-2_311_49749" fill="white">
<path d="M156 0H312V40H156V0Z"/>
</mask>
<path d="M312 40V41C312.552 41 313 40.5523 313 40H312ZM312 0H311V40H312H313V0H312ZM312 40V39H156V40V41H312V40Z" fill="#DCDCE0" mask="url(#path-6-inside-2_311_49749)"/>
<path d="M168.48 19.98H172.776V18.852C170.784 18.756 169.536 18 169.536 16.776C169.536 15.48 170.976 14.688 173.22 14.688C175.464 14.688 176.904 15.48 176.904 16.776C176.904 18 175.656 18.756 173.664 18.852V19.98H177.96V20.712H168.48V19.98ZM169.716 24.636V21.612H170.616V23.892H176.916V24.636H169.716ZM170.46 16.776C170.46 17.628 171.552 18.132 173.22 18.132C174.9 18.132 175.98 17.628 175.98 16.776C175.98 15.948 174.9 15.432 173.22 15.432C171.552 15.432 170.46 15.948 170.46 16.776ZM180.192 15.216H187.26V15.96H181.092V19.296H187.38V20.04H184.152V22.776H188.484V23.532H178.968V22.776H183.264V20.04H180.192V15.216Z" fill="#737680"/>
<mask id="path-9-inside-3_311_49749" fill="white">
<path d="M312 0H468V40H312V0Z"/>
</mask>
<path d="M468 40V41C468.552 41 469 40.5523 469 40H468ZM468 0H467V40H468H469V0H468ZM468 40V39H312V40V41H468V40Z" fill="#DCDCE0" mask="url(#path-9-inside-3_311_49749)"/>
<path d="M324.48 19.572H333.96V20.304H329.664V21.396C331.644 21.468 332.808 22.068 332.808 23.124C332.808 24.24 331.476 24.852 329.22 24.852C326.952 24.852 325.632 24.24 325.632 23.124C325.632 22.068 326.784 21.468 328.776 21.396V20.304H324.48V19.572ZM325.044 18.288C326.964 18.108 328.656 17.328 328.74 16.128H325.464V15.408H328.776V14.34H329.676V15.408H333V16.128H329.712C329.796 17.328 331.476 18.108 333.396 18.288L333.12 18.996C331.416 18.816 329.856 18.192 329.22 17.136C328.584 18.192 327.024 18.816 325.332 18.996L325.044 18.288ZM326.532 23.124C326.532 23.784 327.528 24.168 329.22 24.168C330.9 24.168 331.896 23.784 331.896 23.124C331.896 22.44 330.9 22.068 329.22 22.068C327.528 22.068 326.532 22.44 326.532 23.124ZM340.44 15.084C340.44 15.504 340.392 15.9 340.308 16.272H342.684V14.376H343.584V20.64H342.684V19.236H339.912V18.492H342.684V17.004H340.068C339.36 18.66 337.728 19.86 335.484 20.484L335.124 19.776C337.668 19.08 339.288 17.64 339.48 15.816H335.652V15.084H340.44ZM336.588 21.84V21.108H343.584V24.852H342.684V21.84H336.588Z" fill="#737680"/>
<mask id="path-12-inside-4_311_49749" fill="white">
<path d="M468 0H624V40H468V0Z"/>
</mask>
<path d="M624 40V41C624.552 41 625 40.5523 625 40H624ZM624 0H623V40H624H625V0H624ZM624 40V39H468V40V41H624V40Z" fill="#DCDCE0" mask="url(#path-12-inside-4_311_49749)"/>
<path d="M481.692 20.664H482.58V21.924H487.824V20.664H488.712V24.732H481.692V20.664ZM480.48 19.92V19.188H489.96V19.92H480.48ZM481.032 17.7C482.868 17.448 484.764 16.332 484.764 14.976V14.496H485.688V14.976C485.688 16.296 487.608 17.46 489.42 17.7L489.084 18.408C487.5 18.168 485.892 17.34 485.232 16.164C484.572 17.352 482.964 18.168 481.368 18.408L481.032 17.7ZM482.58 24H487.824V22.632H482.58V24ZM492.192 15.216H499.26V15.96H493.092V19.296H499.38V20.04H496.152V22.776H500.484V23.532H490.968V22.776H495.264V20.04H492.192V15.216Z" fill="#737680"/>
<mask id="path-15-inside-5_311_49749" fill="white">
<path d="M624 0H780V40H624V0Z"/>
</mask>
<path d="M780 40V41C780.552 41 781 40.5523 781 40H780ZM780 0H779V40H780H781V0H780ZM780 40V39H624V40V41H780V40Z" fill="#DCDCE0" mask="url(#path-15-inside-5_311_49749)"/>
<path d="M636.48 22.752H640.788V20.196H641.688V22.752H645.996V23.508H636.48V22.752ZM636.96 19.836C638.7 19.536 640.764 18.06 640.764 16.368V16.092H637.272V15.348H645.192V16.092H641.7V16.368C641.7 18.06 643.788 19.512 645.552 19.8L645.18 20.508C643.608 20.196 641.916 19.164 641.244 17.724C640.56 19.176 638.88 20.22 637.332 20.544L636.96 19.836ZM648.192 15.216H655.26V15.96H649.092V19.296H655.38V20.04H652.152V22.776H656.484V23.532H646.968V22.776H651.264V20.04H648.192V15.216Z" fill="#737680"/>
<rect width="780" height="36" transform="translate(0 40)" fill="#F5F5F5"/>
<mask id="path-18-inside-6_311_49749" fill="white">
<path d="M0 40H156V76H0V40Z"/>
</mask>
<path d="M156 40H155V76H156H157V40H156Z" fill="#DCDCE0" mask="url(#path-18-inside-6_311_49749)"/>
<path d="M20.508 52.376H21.372V62.876H20.508V57.356H18.972V62.324H18.132V52.616H18.972V56.6H20.508V52.376ZM12.876 60.26V53.66H16.764V54.404H13.764V59.504C15.204 59.504 16.212 59.444 17.352 59.204L17.46 59.948C16.2 60.212 15.144 60.26 13.548 60.26H12.876ZM28.5243 55.292H30.6843V52.388H31.5843V60.068H30.6843V56.036H28.5243V55.292ZM23.0043 58.004C24.5403 57.452 25.6683 56.06 25.6683 54.548V53.984H23.2923V53.24H28.8963V53.984H26.5683V54.536C26.5683 55.904 27.6363 57.236 29.1363 57.764L28.6803 58.472C27.5043 58.04 26.5803 57.152 26.1363 56.06C25.6923 57.272 24.7203 58.256 23.4723 58.724L23.0043 58.004ZM24.9003 62.636V59.396H25.8003V61.892H31.8843V62.636H24.9003ZM38.1606 59.024C40.3926 59.024 41.8206 59.744 41.8206 60.944C41.8206 62.144 40.3926 62.864 38.1606 62.864C35.9406 62.864 34.5246 62.144 34.5246 60.944C34.5246 59.744 35.9406 59.024 38.1606 59.024ZM33.4686 58.028V57.296H37.4046V55.256H38.2926V57.296H42.9366V58.028H33.4686ZM34.5966 53.66V52.916H41.7246V53.816C41.7246 54.668 41.7246 55.508 41.4366 56.588L40.5606 56.492C40.8366 55.412 40.8366 54.632 40.8366 53.816V53.66H34.5966ZM35.4126 60.944C35.4126 61.688 36.4926 62.156 38.1606 62.156C39.8406 62.156 40.9206 61.688 40.9206 60.944C40.9206 60.188 39.8406 59.72 38.1606 59.72C36.4926 59.72 35.4126 60.188 35.4126 60.944ZM44.1968 53.156H49.8128V53.9H47.4608V54.356C47.4608 55.748 48.4928 56.984 50.0168 57.5L49.5848 58.196C48.3968 57.788 47.4848 56.96 47.0408 55.892C46.5968 57.104 45.6248 58.064 44.3768 58.508L43.9208 57.8C45.4808 57.248 46.5728 55.892 46.5728 54.368V53.9H44.1968V53.156ZM45.3128 60.92C45.3128 59.708 46.6208 59.012 48.7448 59.012C50.8808 59.012 52.1888 59.708 52.1888 60.92C52.1888 62.144 50.8808 62.852 48.7448 62.852C46.6208 62.852 45.3128 62.144 45.3128 60.92ZM46.1888 60.92C46.1888 61.688 47.1728 62.144 48.7448 62.144C50.3288 62.144 51.3008 61.688 51.3008 60.92C51.3008 60.176 50.3288 59.732 48.7448 59.732C47.1728 59.732 46.1888 60.176 46.1888 60.92ZM51.1808 58.712V52.376H52.0808V55.076H53.6528V55.82H52.0808V58.712H51.1808Z" fill="#737680"/>
<mask id="path-21-inside-7_311_49749" fill="white">
<path d="M156 40H312V76H156V40Z"/>
</mask>
<path d="M156 40H312V76H156V40Z" fill="#DCFCE7"/>
<path d="M312 40H311V76H312H313V40H312Z" fill="#DCDCE0" mask="url(#path-21-inside-7_311_49749)"/>
<path d="M174.017 53.202L170.805 60H169.793L173.005 53.202H168.891V52.355H174.017V53.202Z" fill="#737680"/>
<mask id="path-24-inside-8_311_49749" fill="white">
<path d="M312 40H468V76H312V40Z"/>
</mask>
<path d="M468 40H467V76H468H469V40H468Z" fill="#DCDCE0" mask="url(#path-24-inside-8_311_49749)"/>
<path d="M329.962 56.672C329.962 58.146 329.83 59.213 329.06 59.994C328.686 60.368 328.169 60.643 327.41 60.643C326.651 60.643 326.134 60.368 325.76 59.994C324.99 59.213 324.858 58.146 324.858 56.672C324.858 55.198 324.99 54.12 325.76 53.339C326.134 52.965 326.651 52.701 327.41 52.701C328.169 52.701 328.686 52.965 329.06 53.339C329.83 54.12 329.962 55.198 329.962 56.672ZM325.859 57.97L328.73 54.45C328.642 54.241 328.521 54.054 328.356 53.9C328.136 53.691 327.817 53.548 327.41 53.548C327.003 53.548 326.684 53.691 326.464 53.9C325.815 54.516 325.826 55.638 325.826 56.672C325.826 57.101 325.815 57.552 325.859 57.97ZM328.994 56.672C328.994 56.265 328.994 55.847 328.961 55.451L326.123 58.96C326.211 59.147 326.321 59.312 326.464 59.444C326.684 59.653 327.003 59.796 327.41 59.796C327.817 59.796 328.136 59.653 328.356 59.444C329.005 58.828 328.994 57.706 328.994 56.672Z" fill="#737680"/>
<mask id="path-27-inside-9_311_49749" fill="white">
<path d="M468 40H624V76H468V40Z"/>
</mask>
<path d="M624 40H623V76H624H625V40H624Z" fill="#DCDCE0" mask="url(#path-27-inside-9_311_49749)"/>
<path d="M485.962 56.672C485.962 58.146 485.83 59.213 485.06 59.994C484.686 60.368 484.169 60.643 483.41 60.643C482.651 60.643 482.134 60.368 481.76 59.994C480.99 59.213 480.858 58.146 480.858 56.672C480.858 55.198 480.99 54.12 481.76 53.339C482.134 52.965 482.651 52.701 483.41 52.701C484.169 52.701 484.686 52.965 485.06 53.339C485.83 54.12 485.962 55.198 485.962 56.672ZM481.859 57.97L484.73 54.45C484.642 54.241 484.521 54.054 484.356 53.9C484.136 53.691 483.817 53.548 483.41 53.548C483.003 53.548 482.684 53.691 482.464 53.9C481.815 54.516 481.826 55.638 481.826 56.672C481.826 57.101 481.815 57.552 481.859 57.97ZM484.994 56.672C484.994 56.265 484.994 55.847 484.961 55.451L482.123 58.96C482.211 59.147 482.321 59.312 482.464 59.444C482.684 59.653 483.003 59.796 483.41 59.796C483.817 59.796 484.136 59.653 484.356 59.444C485.005 58.828 484.994 57.706 484.994 56.672Z" fill="#737680"/>
<mask id="path-30-inside-10_311_49749" fill="white">
<path d="M624 40H780V76H624V40Z"/>
</mask>
<path d="M624 40H780V76H624V40Z" fill="#DCFCE7"/>
<path d="M780 40H779V76H780H781V40H780Z" fill="#DCDCE0" mask="url(#path-30-inside-10_311_49749)"/>
<path d="M642.237 60H637.144V59.142H639.223V53.422L637.155 54.665V53.664L639.267 52.355H640.169V59.142H642.237V60Z" fill="#737680"/>
<mask id="path-33-inside-11_311_49749" fill="white">
<path d="M0 76H156V116H0V76Z"/>
</mask>
<path d="M156 76H155V116H156H157V76H156Z" fill="#DCDCE0" mask="url(#path-33-inside-11_311_49749)"/>
<path d="M12.672 92.212H15.06V90.556H15.948V92.212H18.312V92.932H15.948V93.784C15.948 95.5 17.04 97.216 18.528 97.948L18.024 98.644C16.884 98.068 15.96 96.916 15.516 95.548C15.072 97.024 14.1 98.248 12.912 98.836L12.396 98.152C13.92 97.42 15.072 95.62 15.072 93.784V92.932H12.672V92.212ZM19.632 100.876V90.376H20.532V94.72H22.284V95.476H20.532V100.876H19.632ZM30.2163 90.376H31.1163V92.044H32.6883V92.8H31.1163V94.252H32.6883V94.996H31.1163V96.736H30.2163V90.376ZM23.4243 91.78V91.024H28.1403V93.856H24.3363V95.356C26.1843 95.356 27.5403 95.296 29.1723 95.008L29.2563 95.752C27.5883 96.04 26.1843 96.1 24.2643 96.1H23.4483V93.148H27.2523V91.78H23.4243ZM24.3243 98.944C24.3243 97.756 25.6323 97.06 27.7683 97.06C29.9043 97.06 31.2003 97.756 31.2003 98.944C31.2003 100.156 29.9043 100.864 27.7683 100.864C25.6323 100.864 24.3243 100.156 24.3243 98.944ZM25.2003 98.944C25.2003 99.712 26.1723 100.156 27.7683 100.156C29.3643 100.156 30.3243 99.712 30.3243 98.944C30.3243 98.212 29.3643 97.756 27.7683 97.756C26.1723 97.756 25.2003 98.212 25.2003 98.944ZM34.2246 95.668C34.2246 94.156 34.8246 92.14 35.6766 90.796H36.6486C35.6886 92.116 35.0166 94.12 35.0166 95.668C35.0166 97.216 35.6886 99.22 36.6486 100.54H35.6766C34.8246 99.196 34.2246 97.18 34.2246 95.668ZM45.9377 90.376H46.8017V100.876H45.9377V95.356H44.4017V100.324H43.5617V90.616H44.4017V94.6H45.9377V90.376ZM38.3057 98.26V91.66H42.1937V92.404H39.1937V97.504C40.6337 97.504 41.6417 97.444 42.7817 97.204L42.8897 97.948C41.6297 98.212 40.5737 98.26 38.9777 98.26H38.3057ZM53.954 93.292H56.114V90.388H57.014V98.068H56.114V94.036H53.954V93.292ZM48.434 96.004C49.97 95.452 51.098 94.06 51.098 92.548V91.984H48.722V91.24H54.326V91.984H51.998V92.536C51.998 93.904 53.066 95.236 54.566 95.764L54.11 96.472C52.934 96.04 52.01 95.152 51.566 94.06C51.122 95.272 50.15 96.256 48.902 96.724L48.434 96.004ZM50.33 100.636V97.396H51.23V99.892H57.314V100.636H50.33ZM59.2463 95.152H64.3103V96.004H59.2463V95.152ZM65.6245 96.628H75.1405V97.36H70.7965V100.876H69.9085V97.36H65.6245V96.628ZM66.8365 95.344V90.82H67.7245V92.272H73.0165V90.82H73.9045V95.344H66.8365ZM67.7245 94.6H73.0165V93.004H67.7245V94.6ZM78.7288 91H79.6048V92.344C79.6048 93.808 80.6968 95.152 82.2208 95.692L81.7648 96.4C80.5768 95.968 79.6528 95.068 79.1968 93.952C78.7648 95.212 77.8168 96.184 76.5808 96.676L76.0888 95.956C77.6728 95.38 78.7288 93.964 78.7288 92.32V91ZM77.7688 100.636V97.384H78.6688V99.892H84.7288V100.636H77.7688ZM83.3488 98.128V90.364H84.2488V93.604H85.8208V94.36H84.2488V98.128H83.3488ZM89.3131 95.668C89.3131 97.192 88.7131 99.196 87.8731 100.54H86.9011C87.8491 99.232 88.5211 97.216 88.5211 95.668C88.5211 94.12 87.8491 92.104 86.9011 90.796H87.8731C88.7131 92.14 89.3131 94.144 89.3131 95.668Z" fill="#737680"/>
<mask id="path-36-inside-12_311_49749" fill="white">
<path d="M156 76H312V116H156V76Z"/>
</mask>
<path d="M156 76H312V116H156V76Z" fill="#DCFCE7"/>
<path d="M312 76H311V116H312H313V76H312Z" fill="#DCDCE0" mask="url(#path-36-inside-12_311_49749)"/>
<path d="M174.105 93.536C174.105 94.306 173.83 94.933 173.401 95.406C172.994 95.846 172.356 96.143 171.564 96.143C170.706 96.143 170.046 95.703 169.672 95.186C169.122 94.427 168.99 93.371 168.99 92.282C168.99 91.193 169.111 90.115 169.628 89.29C169.991 88.718 170.64 88.201 171.608 88.201C172.257 88.201 172.84 88.432 173.225 88.817C173.566 89.158 173.819 89.642 173.841 90.203H172.895C172.873 89.829 172.697 89.532 172.466 89.334C172.246 89.147 171.938 89.048 171.575 89.048C171.091 89.048 170.75 89.279 170.519 89.543C170.035 90.093 169.947 91.05 169.936 91.853C170.178 91.325 170.959 90.962 171.685 90.962C172.378 90.962 172.961 91.204 173.324 91.556C173.819 92.029 174.105 92.733 174.105 93.536ZM173.159 93.547C173.159 93.008 172.983 92.557 172.697 92.238C172.466 91.974 172.07 91.798 171.586 91.798C171.102 91.798 170.728 92.007 170.497 92.271C170.211 92.59 170.057 93.008 170.057 93.547C170.057 94.086 170.233 94.504 170.53 94.823C170.772 95.087 171.124 95.296 171.608 95.296C172.092 95.296 172.455 95.12 172.697 94.856C172.994 94.537 173.159 94.086 173.159 93.547Z" fill="#737680"/>
<mask id="path-39-inside-13_311_49749" fill="white">
<path d="M312 76H468V116H312V76Z"/>
</mask>
<path d="M468 76H467V116H468H469V76H468Z" fill="#DCDCE0" mask="url(#path-39-inside-13_311_49749)"/>
<path d="M329.962 94.672C329.962 96.146 329.83 97.213 329.06 97.994C328.686 98.368 328.169 98.643 327.41 98.643C326.651 98.643 326.134 98.368 325.76 97.994C324.99 97.213 324.858 96.146 324.858 94.672C324.858 93.198 324.99 92.12 325.76 91.339C326.134 90.965 326.651 90.701 327.41 90.701C328.169 90.701 328.686 90.965 329.06 91.339C329.83 92.12 329.962 93.198 329.962 94.672ZM325.859 95.97L328.73 92.45C328.642 92.241 328.521 92.054 328.356 91.9C328.136 91.691 327.817 91.548 327.41 91.548C327.003 91.548 326.684 91.691 326.464 91.9C325.815 92.516 325.826 93.638 325.826 94.672C325.826 95.101 325.815 95.552 325.859 95.97ZM328.994 94.672C328.994 94.265 328.994 93.847 328.961 93.451L326.123 96.96C326.211 97.147 326.321 97.312 326.464 97.444C326.684 97.653 327.003 97.796 327.41 97.796C327.817 97.796 328.136 97.653 328.356 97.444C329.005 96.828 328.994 95.706 328.994 94.672Z" fill="#737680"/>
<mask id="path-42-inside-14_311_49749" fill="white">
<path d="M468 76H624V116H468V76Z"/>
</mask>
<path d="M624 76H623V116H624H625V76H624Z" fill="#DCDCE0" mask="url(#path-42-inside-14_311_49749)"/>
<path d="M485.962 94.672C485.962 96.146 485.83 97.213 485.06 97.994C484.686 98.368 484.169 98.643 483.41 98.643C482.651 98.643 482.134 98.368 481.76 97.994C480.99 97.213 480.858 96.146 480.858 94.672C480.858 93.198 480.99 92.12 481.76 91.339C482.134 90.965 482.651 90.701 483.41 90.701C484.169 90.701 484.686 90.965 485.06 91.339C485.83 92.12 485.962 93.198 485.962 94.672ZM481.859 95.97L484.73 92.45C484.642 92.241 484.521 92.054 484.356 91.9C484.136 91.691 483.817 91.548 483.41 91.548C483.003 91.548 482.684 91.691 482.464 91.9C481.815 92.516 481.826 93.638 481.826 94.672C481.826 95.101 481.815 95.552 481.859 95.97ZM484.994 94.672C484.994 94.265 484.994 93.847 484.961 93.451L482.123 96.96C482.211 97.147 482.321 97.312 482.464 97.444C482.684 97.653 483.003 97.796 483.41 97.796C483.817 97.796 484.136 97.653 484.356 97.444C485.005 96.828 484.994 95.706 484.994 94.672Z" fill="#737680"/>
<mask id="path-45-inside-15_311_49749" fill="white">
<path d="M624 76H780V116H624V76Z"/>
</mask>
<path d="M780 76H779V116H780H781V76H780Z" fill="#DCDCE0" mask="url(#path-45-inside-15_311_49749)"/>
<path d="M641.962 94.672C641.962 96.146 641.83 97.213 641.06 97.994C640.686 98.368 640.169 98.643 639.41 98.643C638.651 98.643 638.134 98.368 637.76 97.994C636.99 97.213 636.858 96.146 636.858 94.672C636.858 93.198 636.99 92.12 637.76 91.339C638.134 90.965 638.651 90.701 639.41 90.701C640.169 90.701 640.686 90.965 641.06 91.339C641.83 92.12 641.962 93.198 641.962 94.672ZM637.859 95.97L640.73 92.45C640.642 92.241 640.521 92.054 640.356 91.9C640.136 91.691 639.817 91.548 639.41 91.548C639.003 91.548 638.684 91.691 638.464 91.9C637.815 92.516 637.826 93.638 637.826 94.672C637.826 95.101 637.815 95.552 637.859 95.97ZM640.994 94.672C640.994 94.265 640.994 93.847 640.961 93.451L638.123 96.96C638.211 97.147 638.321 97.312 638.464 97.444C638.684 97.653 639.003 97.796 639.41 97.796C639.817 97.796 640.136 97.653 640.356 97.444C641.005 96.828 640.994 95.706 640.994 94.672Z" fill="#737680"/>
<rect width="780" height="36" transform="translate(0 116)" fill="#F5F5F5"/>
<mask id="path-48-inside-16_311_49749" fill="white">
<path d="M0 116H156V152H0V116Z"/>
</mask>
<path d="M156 116H155V152H156H157V116H156Z" fill="#DCDCE0" mask="url(#path-48-inside-16_311_49749)"/>
<path d="M12.48 134.628H21.996V135.36H17.652V138.876H16.764V135.36H12.48V134.628ZM13.692 133.344V128.82H14.58V130.272H19.872V128.82H20.76V133.344H13.692ZM14.58 132.6H19.872V131.004H14.58V132.6ZM25.5843 129H26.4603V130.344C26.4603 131.808 27.5523 133.152 29.0763 133.692L28.6203 134.4C27.4323 133.968 26.5083 133.068 26.0523 131.952C25.6203 133.212 24.6723 134.184 23.4363 134.676L22.9443 133.956C24.5283 133.38 25.5843 131.964 25.5843 130.32V129ZM24.6243 138.636V135.384H25.5243V137.892H31.5843V138.636H24.6243ZM30.2043 136.128V128.364H31.1043V131.604H32.6763V132.36H31.1043V136.128H30.2043ZM41.1846 128.364H42.0726V138.888H41.1846V133.104H38.9646V132.372H41.1846V128.364ZM33.9366 136.356V129.348H38.7846V130.092H34.8246V132.288H38.3166V133.02H34.8246V135.6C36.7686 135.6 38.0046 135.552 39.4446 135.276L39.5406 136.02C38.0286 136.284 36.7566 136.356 34.7286 136.356H33.9366ZM44.5448 129.408H49.3448V136.224H44.5448V129.408ZM45.4328 135.492H48.4808V130.14H45.4328V135.492ZM51.6128 138.888V128.364H52.5128V138.888H51.6128ZM55.0451 128.88H55.9451V132.6C57.5891 132.6 58.9691 132.504 60.5051 132.192L60.6371 132.948C59.0051 133.26 57.5891 133.356 55.8611 133.356H55.0451V128.88ZM56.3171 135.048V134.316H63.0611V136.8H57.2291V138H63.4451V138.732H56.3411V136.116H62.1611V135.048H56.3171ZM59.1251 130.896V130.14H62.1611V128.376H63.0611V133.812H62.1611V130.896H59.1251Z" fill="#737680"/>
<mask id="path-51-inside-17_311_49749" fill="white">
<path d="M156 116H312V152H156V116Z"/>
</mask>
<path d="M156 116H312V152H156V116Z" fill="#FEF3C7"/>
<path d="M312 116H311V152H312H313V116H312Z" fill="#DCDCE0" mask="url(#path-51-inside-17_311_49749)"/>
<path d="M173.94 132.062C173.94 133.151 173.819 134.284 173.302 135.109C172.939 135.681 172.246 136.143 171.278 136.143C170.629 136.143 170.046 135.912 169.661 135.516C169.32 135.175 169.067 134.702 169.045 134.141H169.991C170.013 134.515 170.189 134.801 170.42 134.999C170.64 135.197 170.948 135.296 171.311 135.296C171.795 135.296 172.158 135.098 172.389 134.834C172.873 134.284 172.983 133.294 172.994 132.491C172.752 133.019 171.982 133.382 171.256 133.382C170.563 133.382 169.98 133.14 169.617 132.788C169.122 132.315 168.836 131.622 168.836 130.808C168.836 130.038 169.111 129.411 169.54 128.938C169.947 128.498 170.585 128.201 171.377 128.201C172.235 128.201 172.906 128.641 173.28 129.147C173.83 129.906 173.94 130.984 173.94 132.062ZM172.895 130.797C172.895 130.258 172.73 129.829 172.433 129.51C172.191 129.246 171.817 129.048 171.333 129.048C170.849 129.048 170.486 129.224 170.244 129.488C169.947 129.807 169.782 130.258 169.782 130.797C169.782 131.336 169.958 131.787 170.244 132.106C170.475 132.37 170.871 132.546 171.355 132.546C171.839 132.546 172.224 132.348 172.455 132.084C172.741 131.765 172.895 131.336 172.895 130.797Z" fill="#737680"/>
<mask id="path-54-inside-18_311_49749" fill="white">
<path d="M312 116H468V152H312V116Z"/>
</mask>
<path d="M312 116H468V152H312V116Z" fill="#FEE2E2"/>
<path d="M468 116H467V152H468H469V116H468Z" fill="#DCDCE0" mask="url(#path-54-inside-18_311_49749)"/>
<path d="M330.237 136.5H325.144V135.642H327.223V129.922L325.155 131.165V130.164L327.267 128.855H328.169V135.642H330.237V136.5ZM336.64 136.5H331.987V135.697L335.144 131.88C335.441 131.528 335.562 131.176 335.562 130.78C335.562 129.999 335.078 129.548 334.275 129.548C333.593 129.548 332.944 129.922 332.944 130.934H331.976C331.976 129.603 332.911 128.701 334.264 128.701C335.1 128.701 335.782 129.042 336.167 129.581C336.398 129.911 336.519 130.285 336.519 130.769C336.519 131.374 336.288 131.88 335.87 132.397L333.208 135.62H336.64V136.5Z" fill="#737680"/>
<mask id="path-57-inside-19_311_49749" fill="white">
<path d="M468 116H624V152H468V116Z"/>
</mask>
<path d="M624 116H623V152H624H625V116H624Z" fill="#DCDCE0" mask="url(#path-57-inside-19_311_49749)"/>
<path d="M485.962 132.672C485.962 134.146 485.83 135.213 485.06 135.994C484.686 136.368 484.169 136.643 483.41 136.643C482.651 136.643 482.134 136.368 481.76 135.994C480.99 135.213 480.858 134.146 480.858 132.672C480.858 131.198 480.99 130.12 481.76 129.339C482.134 128.965 482.651 128.701 483.41 128.701C484.169 128.701 484.686 128.965 485.06 129.339C485.83 130.12 485.962 131.198 485.962 132.672ZM481.859 133.97L484.73 130.45C484.642 130.241 484.521 130.054 484.356 129.9C484.136 129.691 483.817 129.548 483.41 129.548C483.003 129.548 482.684 129.691 482.464 129.9C481.815 130.516 481.826 131.638 481.826 132.672C481.826 133.101 481.815 133.552 481.859 133.97ZM484.994 132.672C484.994 132.265 484.994 131.847 484.961 131.451L482.123 134.96C482.211 135.147 482.321 135.312 482.464 135.444C482.684 135.653 483.003 135.796 483.41 135.796C483.817 135.796 484.136 135.653 484.356 135.444C485.005 134.828 484.994 133.706 484.994 132.672Z" fill="#737680"/>
<mask id="path-60-inside-20_311_49749" fill="white">
<path d="M624 116H780V152H624V116Z"/>
</mask>
<path d="M780 116H779V152H780H781V116H780Z" fill="#DCDCE0" mask="url(#path-60-inside-20_311_49749)"/>
<path d="M641.962 132.672C641.962 134.146 641.83 135.213 641.06 135.994C640.686 136.368 640.169 136.643 639.41 136.643C638.651 136.643 638.134 136.368 637.76 135.994C636.99 135.213 636.858 134.146 636.858 132.672C636.858 131.198 636.99 130.12 637.76 129.339C638.134 128.965 638.651 128.701 639.41 128.701C640.169 128.701 640.686 128.965 641.06 129.339C641.83 130.12 641.962 131.198 641.962 132.672ZM637.859 133.97L640.73 130.45C640.642 130.241 640.521 130.054 640.356 129.9C640.136 129.691 639.817 129.548 639.41 129.548C639.003 129.548 638.684 129.691 638.464 129.9C637.815 130.516 637.826 131.638 637.826 132.672C637.826 133.101 637.815 133.552 637.859 133.97ZM640.994 132.672C640.994 132.265 640.994 131.847 640.961 131.451L638.123 134.96C638.211 135.147 638.321 135.312 638.464 135.444C638.684 135.653 639.003 135.796 639.41 135.796C639.817 135.796 640.136 135.653 640.356 135.444C641.005 134.828 640.994 133.706 640.994 132.672Z" fill="#737680"/>
<mask id="path-63-inside-21_311_49749" fill="white">
<path d="M0 152H156V192H0V152Z"/>
</mask>
<path d="M156 152H155V192H156H157V152H156Z" fill="#DCDCE0" mask="url(#path-63-inside-21_311_49749)"/>
<path d="M12.456 168.2H14.628V166.676H15.516V168.2H17.676V168.932H12.456V168.2ZM12.828 172.04C12.828 170.648 13.764 169.664 15.072 169.664C16.38 169.664 17.328 170.648 17.328 172.04C17.328 173.456 16.38 174.428 15.072 174.428C13.764 174.428 12.828 173.456 12.828 172.04ZM13.632 172.04C13.632 172.988 14.232 173.66 15.072 173.66C15.912 173.66 16.524 172.988 16.524 172.04C16.524 171.104 15.912 170.42 15.072 170.42C14.232 170.42 13.632 171.104 13.632 172.04ZM18.228 176.348V166.628H19.08V170.816H20.484V166.376H21.336V176.876H20.484V171.56H19.08V176.348H18.228ZM25.5603 166.916H26.4363V168.068C26.4363 169.508 27.5283 170.828 29.0163 171.356L28.5483 172.052C27.3963 171.632 26.4723 170.744 26.0283 169.628C25.5843 170.888 24.6483 171.86 23.4243 172.352L22.9323 171.632C24.5043 171.056 25.5603 169.628 25.5603 168.008V166.916ZM24.3363 174.956C24.3363 173.756 25.6323 173.06 27.7683 173.06C29.9163 173.06 31.2123 173.756 31.2123 174.956C31.2123 176.156 29.9163 176.852 27.7683 176.852C25.6323 176.852 24.3363 176.156 24.3363 174.956ZM25.2123 174.956C25.2123 175.7 26.1963 176.144 27.7683 176.144C29.3523 176.144 30.3243 175.7 30.3243 174.956C30.3243 174.212 29.3523 173.768 27.7683 173.768C26.1963 173.768 25.2123 174.212 25.2123 174.956ZM30.2043 172.772V166.376H31.1043V169.124H32.6763V169.88H31.1043V172.772H30.2043ZM34.2246 171.668C34.2246 170.156 34.8246 168.14 35.6766 166.796H36.6486C35.6886 168.116 35.0166 170.12 35.0166 171.668C35.0166 173.216 35.6886 175.22 36.6486 176.54H35.6766C34.8246 175.196 34.2246 173.18 34.2246 171.668ZM37.9097 172.628H47.4257V173.36H43.0817V176.876H42.1937V173.36H37.9097V172.628ZM39.1217 171.344V166.82H40.0097V168.272H45.3017V166.82H46.1897V171.344H39.1217ZM40.0097 170.6H45.3017V169.004H40.0097V170.6ZM51.014 167H51.89V168.344C51.89 169.808 52.982 171.152 54.506 171.692L54.05 172.4C52.862 171.968 51.938 171.068 51.482 169.952C51.05 171.212 50.102 172.184 48.866 172.676L48.374 171.956C49.958 171.38 51.014 169.964 51.014 168.32V167ZM50.054 176.636V173.384H50.954V175.892H57.014V176.636H50.054ZM55.634 174.128V166.364H56.534V169.604H58.106V170.36H56.534V174.128H55.634ZM59.2463 171.152H64.3103V172.004H59.2463V171.152ZM68.3965 167.3H69.2965V169.208C69.2965 171.128 70.6045 173.06 72.1165 173.768L71.5765 174.488C70.3885 173.9 69.3565 172.64 68.8645 171.128C68.3845 172.724 67.3405 174.068 66.1165 174.68L65.5645 173.936C67.0885 173.204 68.3965 171.2 68.3965 169.208V167.3ZM73.2805 176.888V166.364H74.1805V176.888H73.2805ZM78.4648 167.264C79.8328 167.264 80.7088 168.668 80.7088 170.9C80.7088 173.144 79.8328 174.548 78.4648 174.548C77.1208 174.548 76.2448 173.144 76.2448 170.9C76.2448 168.668 77.1208 167.264 78.4648 167.264ZM77.0848 170.9C77.0848 172.616 77.6248 173.708 78.4648 173.708C79.3288 173.708 79.8688 172.616 79.8688 170.9C79.8688 169.184 79.3288 168.104 78.4648 168.104C77.6248 168.104 77.0848 169.184 77.0848 170.9ZM81.8248 176.336V166.616H82.6768V170.552H84.1528V166.376H85.0168V176.876H84.1528V171.296H82.6768V176.336H81.8248ZM87.8611 166.652H94.9051V167.312H88.7611V168.188H94.6291V168.824H88.7611V169.76H94.9651V170.42H87.8611V166.652ZM86.6131 171.944V171.248H96.0811V171.944H86.6131ZM87.7531 173.444V172.784H94.8571V175.04H88.6651V176.084H95.1811V176.756H87.7891V174.392H93.9811V173.444H87.7531ZM99.8014 171.668C99.8014 173.192 99.2014 175.196 98.3614 176.54H97.3894C98.3374 175.232 99.0094 173.216 99.0094 171.668C99.0094 170.12 98.3374 168.104 97.3894 166.796H98.3614C99.2014 168.14 99.8014 170.144 99.8014 171.668Z" fill="#737680"/>
<mask id="path-66-inside-22_311_49749" fill="white">
<path d="M156 152H312V192H156V152Z"/>
</mask>
<path d="M156 152H312V192H156V152Z" fill="#FEE2E2"/>
<path d="M312 152H311V192H312H313V152H312Z" fill="#DCDCE0" mask="url(#path-66-inside-22_311_49749)"/>
<path d="M174.237 174.5H169.144V173.642H171.223V167.922L169.155 169.165V168.164L171.267 166.855H172.169V173.642H174.237V174.5ZM180.838 167.702L177.626 174.5H176.614L179.826 167.702H175.712V166.855H180.838V167.702ZM187.66 167.702L184.448 174.5H183.436L186.648 167.702H182.534V166.855H187.66V167.702ZM194.668 172.872H193.634V174.5H192.688V172.872H189.069V171.86L192.083 166.855H193.095L189.993 172.025H192.688V169.748H193.634V172.025H194.668V172.872Z" fill="#737680"/>
<mask id="path-69-inside-23_311_49749" fill="white">
<path d="M312 152H468V192H312V152Z"/>
</mask>
<path d="M468 152H467V192H468H469V152H468Z" fill="#DCDCE0" mask="url(#path-69-inside-23_311_49749)"/>
<path d="M329.962 170.672C329.962 172.146 329.83 173.213 329.06 173.994C328.686 174.368 328.169 174.643 327.41 174.643C326.651 174.643 326.134 174.368 325.76 173.994C324.99 173.213 324.858 172.146 324.858 170.672C324.858 169.198 324.99 168.12 325.76 167.339C326.134 166.965 326.651 166.701 327.41 166.701C328.169 166.701 328.686 166.965 329.06 167.339C329.83 168.12 329.962 169.198 329.962 170.672ZM325.859 171.97L328.73 168.45C328.642 168.241 328.521 168.054 328.356 167.9C328.136 167.691 327.817 167.548 327.41 167.548C327.003 167.548 326.684 167.691 326.464 167.9C325.815 168.516 325.826 169.638 325.826 170.672C325.826 171.101 325.815 171.552 325.859 171.97ZM328.994 170.672C328.994 170.265 328.994 169.847 328.961 169.451L326.123 172.96C326.211 173.147 326.321 173.312 326.464 173.444C326.684 173.653 327.003 173.796 327.41 173.796C327.817 173.796 328.136 173.653 328.356 173.444C329.005 172.828 328.994 171.706 328.994 170.672Z" fill="#737680"/>
<mask id="path-72-inside-24_311_49749" fill="white">
<path d="M468 152H624V192H468V152Z"/>
</mask>
<path d="M624 152H623V192H624H625V152H624Z" fill="#DCDCE0" mask="url(#path-72-inside-24_311_49749)"/>
<path d="M485.962 170.672C485.962 172.146 485.83 173.213 485.06 173.994C484.686 174.368 484.169 174.643 483.41 174.643C482.651 174.643 482.134 174.368 481.76 173.994C480.99 173.213 480.858 172.146 480.858 170.672C480.858 169.198 480.99 168.12 481.76 167.339C482.134 166.965 482.651 166.701 483.41 166.701C484.169 166.701 484.686 166.965 485.06 167.339C485.83 168.12 485.962 169.198 485.962 170.672ZM481.859 171.97L484.73 168.45C484.642 168.241 484.521 168.054 484.356 167.9C484.136 167.691 483.817 167.548 483.41 167.548C483.003 167.548 482.684 167.691 482.464 167.9C481.815 168.516 481.826 169.638 481.826 170.672C481.826 171.101 481.815 171.552 481.859 171.97ZM484.994 170.672C484.994 170.265 484.994 169.847 484.961 169.451L482.123 172.96C482.211 173.147 482.321 173.312 482.464 173.444C482.684 173.653 483.003 173.796 483.41 173.796C483.817 173.796 484.136 173.653 484.356 173.444C485.005 172.828 484.994 171.706 484.994 170.672Z" fill="#737680"/>
<mask id="path-75-inside-25_311_49749" fill="white">
<path d="M624 152H780V192H624V152Z"/>
</mask>
<path d="M780 152H779V192H780H781V152H780Z" fill="#DCDCE0" mask="url(#path-75-inside-25_311_49749)"/>
<path d="M641.962 170.672C641.962 172.146 641.83 173.213 641.06 173.994C640.686 174.368 640.169 174.643 639.41 174.643C638.651 174.643 638.134 174.368 637.76 173.994C636.99 173.213 636.858 172.146 636.858 170.672C636.858 169.198 636.99 168.12 637.76 167.339C638.134 166.965 638.651 166.701 639.41 166.701C640.169 166.701 640.686 166.965 641.06 167.339C641.83 168.12 641.962 169.198 641.962 170.672ZM637.859 171.97L640.73 168.45C640.642 168.241 640.521 168.054 640.356 167.9C640.136 167.691 639.817 167.548 639.41 167.548C639.003 167.548 638.684 167.691 638.464 167.9C637.815 168.516 637.826 169.638 637.826 170.672C637.826 171.101 637.815 171.552 637.859 171.97ZM640.994 170.672C640.994 170.265 640.994 169.847 640.961 169.451L638.123 172.96C638.211 173.147 638.321 173.312 638.464 173.444C638.684 173.653 639.003 173.796 639.41 173.796C639.817 173.796 640.136 173.653 640.356 173.444C641.005 172.828 640.994 171.706 640.994 170.672Z" fill="#737680"/>
<rect width="780" height="36" transform="translate(0 192)" fill="#F5F5F5"/>
<mask id="path-78-inside-26_311_49749" fill="white">
<path d="M0 192H156V228H0V192Z"/>
</mask>
<path d="M156 192H155V228H156H157V192H156Z" fill="#DCDCE0" mask="url(#path-78-inside-26_311_49749)"/>
<path d="M15.252 205.3H16.152V207.208C16.152 209.128 17.46 211.06 18.972 211.768L18.432 212.488C17.244 211.9 16.212 210.64 15.72 209.128C15.24 210.724 14.196 212.068 12.972 212.68L12.42 211.936C13.944 211.204 15.252 209.2 15.252 207.208V205.3ZM20.136 214.888V204.364H21.036V214.888H20.136ZM25.3203 205.264C26.6883 205.264 27.5643 206.668 27.5643 208.9C27.5643 211.144 26.6883 212.548 25.3203 212.548C23.9763 212.548 23.1003 211.144 23.1003 208.9C23.1003 206.668 23.9763 205.264 25.3203 205.264ZM23.9403 208.9C23.9403 210.616 24.4803 211.708 25.3203 211.708C26.1843 211.708 26.7243 210.616 26.7243 208.9C26.7243 207.184 26.1843 206.104 25.3203 206.104C24.4803 206.104 23.9403 207.184 23.9403 208.9ZM28.6803 214.336V204.616H29.5323V208.552H31.0083V204.376H31.8723V214.876H31.0083V209.296H29.5323V214.336H28.6803ZM34.7166 204.652H41.7606V205.312H35.6166V206.188H41.4846V206.824H35.6166V207.76H41.8206V208.42H34.7166V204.652ZM33.4686 209.944V209.248H42.9366V209.944H33.4686ZM34.6086 211.444V210.784H41.7126V213.04H35.5206V214.084H42.0366V214.756H34.6446V212.392H40.8366V211.444H34.6086ZM51.6728 204.364H52.5608V214.888H51.6728V209.104H49.4528V208.372H51.6728V204.364ZM44.4248 212.356V205.348H49.2728V206.092H45.3128V208.288H48.8048V209.02H45.3128V211.6C47.2568 211.6 48.4928 211.552 49.9328 211.276L50.0288 212.02C48.5168 212.284 47.2448 212.356 45.2168 212.356H44.4248ZM55.0331 205.408H59.8331V212.224H55.0331V205.408ZM55.9211 211.492H58.9691V206.14H55.9211V211.492ZM62.1011 214.888V204.364H63.0011V214.888H62.1011ZM65.5334 204.88H66.4334V208.6C68.0774 208.6 69.4574 208.504 70.9934 208.192L71.1254 208.948C69.4934 209.26 68.0774 209.356 66.3494 209.356H65.5334V204.88ZM66.8054 211.048V210.316H73.5494V212.8H67.7174V214H73.9334V214.732H66.8294V212.116H72.6494V211.048H66.8054ZM69.6134 206.896V206.14H72.6494V204.376H73.5494V209.812H72.6494V206.896H69.6134Z" fill="#737680"/>
<mask id="path-81-inside-27_311_49749" fill="white">
<path d="M156 192H312V228H156V192Z"/>
</mask>
<path d="M156 192H312V228H156V192Z" fill="#FEF3C7"/>
<path d="M312 192H311V228H312H313V192H312Z" fill="#DCDCE0" mask="url(#path-81-inside-27_311_49749)"/>
<path d="M173.918 209.899C173.918 210.482 173.72 210.944 173.412 211.307C172.961 211.846 172.213 212.143 171.41 212.143C170.607 212.143 169.859 211.846 169.408 211.307C169.1 210.944 168.902 210.482 168.902 209.899C168.902 209.063 169.397 208.337 170.101 208.018C169.474 207.688 169.056 207.028 169.056 206.291C169.056 205.664 169.309 205.169 169.683 204.817C170.112 204.421 170.739 204.201 171.41 204.201C172.081 204.201 172.708 204.421 173.137 204.817C173.511 205.169 173.764 205.664 173.764 206.291C173.764 207.028 173.346 207.688 172.719 208.018C173.423 208.337 173.918 209.063 173.918 209.899ZM172.818 206.291C172.818 205.51 172.169 205.026 171.41 205.026C170.651 205.026 170.002 205.51 170.002 206.291C170.002 206.995 170.53 207.611 171.41 207.611C172.29 207.611 172.818 206.995 172.818 206.291ZM172.972 209.855C172.972 209.041 172.378 208.425 171.41 208.425C170.442 208.425 169.848 209.041 169.848 209.855C169.848 210.757 170.519 211.318 171.41 211.318C172.301 211.318 172.972 210.757 172.972 209.855Z" fill="#737680"/>
<mask id="path-84-inside-28_311_49749" fill="white">
<path d="M312 192H468V228H312V192Z"/>
</mask>
<path d="M312 192H468V228H312V192Z" fill="#FEE2E2"/>
<path d="M468 192H467V228H468H469V192H468Z" fill="#DCDCE0" mask="url(#path-84-inside-28_311_49749)"/>
<path d="M329.819 212.5H325.166V211.697L328.323 207.88C328.62 207.528 328.741 207.176 328.741 206.78C328.741 205.999 328.257 205.548 327.454 205.548C326.772 205.548 326.123 205.922 326.123 206.934H325.155C325.155 205.603 326.09 204.701 327.443 204.701C328.279 204.701 328.961 205.042 329.346 205.581C329.577 205.911 329.698 206.285 329.698 206.769C329.698 207.374 329.467 207.88 329.049 208.397L326.387 211.62H329.819V212.5ZM336.926 210.036C336.926 210.806 336.651 211.433 336.222 211.906C335.815 212.346 335.177 212.643 334.385 212.643C333.527 212.643 332.867 212.203 332.493 211.686C331.943 210.927 331.811 209.871 331.811 208.782C331.811 207.693 331.932 206.615 332.449 205.79C332.812 205.218 333.461 204.701 334.429 204.701C335.078 204.701 335.661 204.932 336.046 205.317C336.387 205.658 336.64 206.142 336.662 206.703H335.716C335.694 206.329 335.518 206.032 335.287 205.834C335.067 205.647 334.759 205.548 334.396 205.548C333.912 205.548 333.571 205.779 333.34 206.043C332.856 206.593 332.768 207.55 332.757 208.353C332.999 207.825 333.78 207.462 334.506 207.462C335.199 207.462 335.782 207.704 336.145 208.056C336.64 208.529 336.926 209.233 336.926 210.036ZM335.98 210.047C335.98 209.508 335.804 209.057 335.518 208.738C335.287 208.474 334.891 208.298 334.407 208.298C333.923 208.298 333.549 208.507 333.318 208.771C333.032 209.09 332.878 209.508 332.878 210.047C332.878 210.586 333.054 211.004 333.351 211.323C333.593 211.587 333.945 211.796 334.429 211.796C334.913 211.796 335.276 211.62 335.518 211.356C335.815 211.037 335.98 210.586 335.98 210.047ZM343.88 212.5H338.787V211.642H340.866V205.922L338.798 207.165V206.164L340.91 204.855H341.812V211.642H343.88V212.5Z" fill="#737680"/>
<mask id="path-87-inside-29_311_49749" fill="white">
<path d="M468 192H624V228H468V192Z"/>
</mask>
<path d="M624 192H623V228H624H625V192H624Z" fill="#DCDCE0" mask="url(#path-87-inside-29_311_49749)"/>
<path d="M485.962 208.672C485.962 210.146 485.83 211.213 485.06 211.994C484.686 212.368 484.169 212.643 483.41 212.643C482.651 212.643 482.134 212.368 481.76 211.994C480.99 211.213 480.858 210.146 480.858 208.672C480.858 207.198 480.99 206.12 481.76 205.339C482.134 204.965 482.651 204.701 483.41 204.701C484.169 204.701 484.686 204.965 485.06 205.339C485.83 206.12 485.962 207.198 485.962 208.672ZM481.859 209.97L484.73 206.45C484.642 206.241 484.521 206.054 484.356 205.9C484.136 205.691 483.817 205.548 483.41 205.548C483.003 205.548 482.684 205.691 482.464 205.9C481.815 206.516 481.826 207.638 481.826 208.672C481.826 209.101 481.815 209.552 481.859 209.97ZM484.994 208.672C484.994 208.265 484.994 207.847 484.961 207.451L482.123 210.96C482.211 211.147 482.321 211.312 482.464 211.444C482.684 211.653 483.003 211.796 483.41 211.796C483.817 211.796 484.136 211.653 484.356 211.444C485.005 210.828 484.994 209.706 484.994 208.672Z" fill="#737680"/>
<mask id="path-90-inside-30_311_49749" fill="white">
<path d="M624 192H780V228H624V192Z"/>
</mask>
<path d="M780 192H779V228H780H781V192H780Z" fill="#DCDCE0" mask="url(#path-90-inside-30_311_49749)"/>
<path d="M641.962 208.672C641.962 210.146 641.83 211.213 641.06 211.994C640.686 212.368 640.169 212.643 639.41 212.643C638.651 212.643 638.134 212.368 637.76 211.994C636.99 211.213 636.858 210.146 636.858 208.672C636.858 207.198 636.99 206.12 637.76 205.339C638.134 204.965 638.651 204.701 639.41 204.701C640.169 204.701 640.686 204.965 641.06 205.339C641.83 206.12 641.962 207.198 641.962 208.672ZM637.859 209.97L640.73 206.45C640.642 206.241 640.521 206.054 640.356 205.9C640.136 205.691 639.817 205.548 639.41 205.548C639.003 205.548 638.684 205.691 638.464 205.9C637.815 206.516 637.826 207.638 637.826 208.672C637.826 209.101 637.815 209.552 637.859 209.97ZM640.994 208.672C640.994 208.265 640.994 207.847 640.961 207.451L638.123 210.96C638.211 211.147 638.321 211.312 638.464 211.444C638.684 211.653 639.003 211.796 639.41 211.796C639.817 211.796 640.136 211.653 640.356 211.444C641.005 210.828 640.994 209.706 640.994 208.672Z" fill="#737680"/>
<mask id="path-93-inside-31_311_49749" fill="white">
<path d="M0 228H156V268H0V228Z"/>
</mask>
<path d="M156 228H155V268H156H157V228H156Z" fill="#DCDCE0" mask="url(#path-93-inside-31_311_49749)"/>
<path d="M20.172 242.376H21.072V252.876H20.172V242.376ZM12.612 250.176C15.444 248.82 16.872 246.768 17.064 244.248H13.08V243.504H17.976C17.976 246.528 16.584 249.192 13.092 250.896L12.612 250.176ZM23.1603 244.212H25.5483V242.556H26.4363V244.212H28.8003V244.932H26.4363V245.784C26.4363 247.5 27.5283 249.216 29.0163 249.948L28.5123 250.644C27.3723 250.068 26.4483 248.916 26.0043 247.548C25.5603 249.024 24.5883 250.248 23.4003 250.836L22.8843 250.152C24.4083 249.42 25.5603 247.62 25.5603 245.784V244.932H23.1603V244.212ZM30.1203 252.876V242.376H31.0203V246.72H32.7723V247.476H31.0203V252.876H30.1203ZM34.2246 247.668C34.2246 246.156 34.8246 244.14 35.6766 242.796H36.6486C35.6886 244.116 35.0166 246.12 35.0166 247.668C35.0166 249.216 35.6886 251.22 36.6486 252.54H35.6766C34.8246 251.196 34.2246 249.18 34.2246 247.668ZM40.6817 243.3H41.5817V245.208C41.5817 247.128 42.8897 249.06 44.4017 249.768L43.8617 250.488C42.6737 249.9 41.6417 248.64 41.1497 247.128C40.6697 248.724 39.6257 250.068 38.4017 250.68L37.8497 249.936C39.3737 249.204 40.6817 247.2 40.6817 245.208V243.3ZM45.5657 252.888V242.364H46.4657V252.888H45.5657ZM50.75 243.264C52.118 243.264 52.994 244.668 52.994 246.9C52.994 249.144 52.118 250.548 50.75 250.548C49.406 250.548 48.53 249.144 48.53 246.9C48.53 244.668 49.406 243.264 50.75 243.264ZM49.37 246.9C49.37 248.616 49.91 249.708 50.75 249.708C51.614 249.708 52.154 248.616 52.154 246.9C52.154 245.184 51.614 244.104 50.75 244.104C49.91 244.104 49.37 245.184 49.37 246.9ZM54.11 252.336V242.616H54.962V246.552H56.438V242.376H57.302V252.876H56.438V247.296H54.962V252.336H54.11ZM60.1463 242.652H67.1903V243.312H61.0463V244.188H66.9143V244.824H61.0463V245.76H67.2503V246.42H60.1463V242.652ZM58.8983 247.944V247.248H68.3663V247.944H58.8983ZM60.0383 249.444V248.784H67.1423V251.04H60.9503V252.084H67.4663V252.756H60.0743V250.392H66.2663V249.444H60.0383ZM69.7345 247.152H74.7985V248.004H69.7345V247.152ZM78.8848 243.3H79.7848V245.208C79.7848 247.128 81.0928 249.06 82.6048 249.768L82.0648 250.488C80.8768 249.9 79.8448 248.64 79.3528 247.128C78.8728 248.724 77.8288 250.068 76.6048 250.68L76.0528 249.936C77.5768 249.204 78.8848 247.2 78.8848 245.208V243.3ZM83.7688 252.888V242.364H84.6688V252.888H83.7688ZM92.0011 243.468C92.0011 246.492 90.9571 249.276 87.2131 251.136L86.7211 250.44C88.6771 249.468 89.8531 248.244 90.4891 246.828L86.9131 247.176L86.7691 246.372L90.7771 246.096C90.9571 245.496 91.0651 244.872 91.1011 244.212H87.2971V243.468H92.0011ZM93.7531 252.876V242.364H94.6651V246.66H96.3571V247.416H94.6651V252.876H93.7531ZM98.0974 243.444H105.417V244.488C105.417 245.784 105.417 247.212 105.045 249.324L104.133 249.216C104.517 247.212 104.517 245.748 104.517 244.488V244.188H98.0974V243.444ZM97.0894 251.376V250.62H100.821V246.852H101.709V250.62H106.581V251.376H97.0894ZM110.29 247.668C110.29 249.192 109.69 251.196 108.85 252.54H107.878C108.826 251.232 109.498 249.216 109.498 247.668C109.498 246.12 108.826 244.104 107.878 242.796H108.85C109.69 244.14 110.29 246.144 110.29 247.668Z" fill="#737680"/>
<mask id="path-96-inside-32_311_49749" fill="white">
<path d="M156 228H312V268H156V228Z"/>
</mask>
<path d="M156 228H312V268H156V228Z" fill="#DCFCE7"/>
<path d="M312 228H311V268H312H313V228H312Z" fill="#DCDCE0" mask="url(#path-96-inside-32_311_49749)"/>
<path d="M174.028 245.481C174.028 246.284 173.808 246.933 173.379 247.406C172.983 247.846 172.367 248.154 171.564 248.154C170.816 248.154 170.178 247.901 169.76 247.494C169.331 247.076 169.078 246.504 169.045 245.8H169.98C170.002 246.284 170.167 246.636 170.42 246.889C170.673 247.142 171.069 247.296 171.553 247.296C172.081 247.296 172.466 247.087 172.697 246.79C172.95 246.471 173.082 246.042 173.082 245.525C173.082 244.997 172.928 244.535 172.642 244.216C172.4 243.952 172.037 243.787 171.553 243.787C171.036 243.787 170.519 244.018 170.255 244.458H169.21L169.419 240.355H173.643V241.202H170.222L170.101 243.644C170.442 243.149 171.091 242.951 171.74 242.951C172.411 242.951 172.961 243.193 173.335 243.578C173.786 244.04 174.028 244.722 174.028 245.481Z" fill="#737680"/>
<mask id="path-99-inside-33_311_49749" fill="white">
<path d="M312 228H468V268H312V228Z"/>
</mask>
<path d="M312 228H468V268H312V228Z" fill="#FEF3C7"/>
<path d="M468 228H467V268H468H469V228H468Z" fill="#DCDCE0" mask="url(#path-99-inside-33_311_49749)"/>
<path d="M330.028 245.481C330.028 246.284 329.808 246.933 329.379 247.406C328.983 247.846 328.367 248.154 327.564 248.154C326.816 248.154 326.178 247.901 325.76 247.494C325.331 247.076 325.078 246.504 325.045 245.8H325.98C326.002 246.284 326.167 246.636 326.42 246.889C326.673 247.142 327.069 247.296 327.553 247.296C328.081 247.296 328.466 247.087 328.697 246.79C328.95 246.471 329.082 246.042 329.082 245.525C329.082 244.997 328.928 244.535 328.642 244.216C328.4 243.952 328.037 243.787 327.553 243.787C327.036 243.787 326.519 244.018 326.255 244.458H325.21L325.419 240.355H329.643V241.202H326.222L326.101 243.644C326.442 243.149 327.091 242.951 327.74 242.951C328.411 242.951 328.961 243.193 329.335 243.578C329.786 244.04 330.028 244.722 330.028 245.481Z" fill="#737680"/>
<mask id="path-102-inside-34_311_49749" fill="white">
<path d="M468 228H624V268H468V228Z"/>
</mask>
<path d="M468 228H624V268H468V228Z" fill="#FEE2E2"/>
<path d="M624 228H623V268H624H625V228H624Z" fill="#DCDCE0" mask="url(#path-102-inside-34_311_49749)"/>
<path d="M485.786 248.41C485.786 249.004 485.577 249.554 485.203 249.95C484.796 250.379 484.18 250.643 483.322 250.643C482.585 250.643 481.969 250.379 481.54 249.95C481.144 249.554 480.902 249.015 480.891 248.311H481.848C481.87 248.74 481.991 249.103 482.244 249.367C482.475 249.62 482.838 249.796 483.322 249.796C483.784 249.796 484.202 249.653 484.466 249.356C484.675 249.125 484.829 248.806 484.829 248.388C484.829 247.453 484.158 246.969 483.223 246.969H482.728V246.1H483.223C484.103 246.1 484.664 245.616 484.664 244.813C484.664 244.461 484.543 244.153 484.301 243.922C484.092 243.713 483.751 243.548 483.333 243.548C482.915 243.548 482.596 243.669 482.365 243.856C482.068 244.098 481.914 244.472 481.903 244.934H480.946C480.957 244.175 481.232 243.625 481.683 243.251C482.112 242.899 482.695 242.701 483.355 242.701C483.993 242.701 484.609 242.932 485.016 243.317C485.401 243.669 485.632 244.153 485.632 244.813C485.632 245.528 485.137 246.276 484.51 246.54C485.324 246.815 485.786 247.618 485.786 248.41ZM492.838 243.702L489.626 250.5H488.614L491.826 243.702H487.712V242.855H492.838V243.702ZM499.429 248.41C499.429 249.004 499.22 249.554 498.846 249.95C498.439 250.379 497.823 250.643 496.965 250.643C496.228 250.643 495.612 250.379 495.183 249.95C494.787 249.554 494.545 249.015 494.534 248.311H495.491C495.513 248.74 495.634 249.103 495.887 249.367C496.118 249.62 496.481 249.796 496.965 249.796C497.427 249.796 497.845 249.653 498.109 249.356C498.318 249.125 498.472 248.806 498.472 248.388C498.472 247.453 497.801 246.969 496.866 246.969H496.371V246.1H496.866C497.746 246.1 498.307 245.616 498.307 244.813C498.307 244.461 498.186 244.153 497.944 243.922C497.735 243.713 497.394 243.548 496.976 243.548C496.558 243.548 496.239 243.669 496.008 243.856C495.711 244.098 495.557 244.472 495.546 244.934H494.589C494.6 244.175 494.875 243.625 495.326 243.251C495.755 242.899 496.338 242.701 496.998 242.701C497.636 242.701 498.252 242.932 498.659 243.317C499.044 243.669 499.275 244.153 499.275 244.813C499.275 245.528 498.78 246.276 498.153 246.54C498.967 246.815 499.429 247.618 499.429 248.41Z" fill="#737680"/>
<mask id="path-105-inside-35_311_49749" fill="white">
<path d="M624 228H780V268H624V228Z"/>
</mask>
<path d="M780 228H779V268H780H781V228H780Z" fill="#DCDCE0" mask="url(#path-105-inside-35_311_49749)"/>
<path d="M641.962 246.672C641.962 248.146 641.83 249.213 641.06 249.994C640.686 250.368 640.169 250.643 639.41 250.643C638.651 250.643 638.134 250.368 637.76 249.994C636.99 249.213 636.858 248.146 636.858 246.672C636.858 245.198 636.99 244.12 637.76 243.339C638.134 242.965 638.651 242.701 639.41 242.701C640.169 242.701 640.686 242.965 641.06 243.339C641.83 244.12 641.962 245.198 641.962 246.672ZM637.859 247.97L640.73 244.45C640.642 244.241 640.521 244.054 640.356 243.9C640.136 243.691 639.817 243.548 639.41 243.548C639.003 243.548 638.684 243.691 638.464 243.9C637.815 244.516 637.826 245.638 637.826 246.672C637.826 247.101 637.815 247.552 637.859 247.97ZM640.994 246.672C640.994 246.265 640.994 245.847 640.961 245.451L638.123 248.96C638.211 249.147 638.321 249.312 638.464 249.444C638.684 249.653 639.003 249.796 639.41 249.796C639.817 249.796 640.136 249.653 640.356 249.444C641.005 248.828 640.994 247.706 640.994 246.672Z" fill="#737680"/>
<rect width="780" height="36" transform="translate(0 268)" fill="#F5F5F5"/>
<mask id="path-108-inside-36_311_49749" fill="white">
<path d="M0 268H156V304H0V268Z"/>
</mask>
<path d="M156 268H155V304H156H157V268H156Z" fill="#DCDCE0" mask="url(#path-108-inside-36_311_49749)"/>
<path d="M15.252 281.3H16.152V283.208C16.152 285.128 17.46 287.06 18.972 287.768L18.432 288.488C17.244 287.9 16.212 286.64 15.72 285.128C15.24 286.724 14.196 288.068 12.972 288.68L12.42 287.936C13.944 287.204 15.252 285.2 15.252 283.208V281.3ZM20.136 290.888V280.364H21.036V290.888H20.136ZM28.3683 281.468C28.3683 284.492 27.3243 287.276 23.5803 289.136L23.0883 288.44C25.0443 287.468 26.2203 286.244 26.8563 284.828L23.2803 285.176L23.1363 284.372L27.1443 284.096C27.3243 283.496 27.4323 282.872 27.4683 282.212H23.6643V281.468H28.3683ZM30.1203 290.876V280.364H31.0323V284.66H32.7243V285.416H31.0323V290.876H30.1203ZM34.4646 281.444H41.7846V282.488C41.7846 283.784 41.7846 285.212 41.4126 287.324L40.5006 287.216C40.8846 285.212 40.8846 283.748 40.8846 282.488V282.188H34.4646V281.444ZM33.4566 289.376V288.62H37.1886V284.852H38.0766V288.62H42.9486V289.376H33.4566ZM54.4025 280.376H55.3025V290.876H54.4025V280.376ZM46.8425 288.176C49.6745 286.82 51.1025 284.768 51.2945 282.248H47.3105V281.504H52.2065C52.2065 284.528 50.8145 287.192 47.3225 288.896L46.8425 288.176ZM57.3908 282.212H59.7788V280.556H60.6668V282.212H63.0308V282.932H60.6668V283.784C60.6668 285.5 61.7588 287.216 63.2468 287.948L62.7428 288.644C61.6028 288.068 60.6788 286.916 60.2348 285.548C59.7908 287.024 58.8188 288.248 57.6308 288.836L57.1147 288.152C58.6388 287.42 59.7908 285.62 59.7908 283.784V282.932H57.3908V282.212ZM64.3508 290.876V280.376H65.2508V284.72H67.0028V285.476H65.2508V290.876H64.3508ZM69.307 287.156H76.303V290.876H75.403V287.876H69.307V287.156ZM67.843 283.484C67.843 282.008 68.995 280.976 70.543 280.976C71.455 280.976 72.223 281.336 72.703 281.936H75.403V280.376H76.303V286.556H75.403V285.044H72.691C72.211 285.632 71.443 285.992 70.543 285.992C68.995 285.992 67.843 284.96 67.843 283.484ZM68.695 283.484C68.695 284.516 69.487 285.224 70.543 285.224C71.587 285.224 72.367 284.516 72.367 283.484C72.367 282.476 71.587 281.744 70.543 281.744C69.487 281.744 68.695 282.476 68.695 283.484ZM73.099 284.3H75.403V282.68H73.111C73.183 282.932 73.231 283.196 73.231 283.484C73.231 283.772 73.183 284.048 73.099 284.3Z" fill="#737680"/>
<mask id="path-111-inside-37_311_49749" fill="white">
<path d="M156 268H312V304H156V268Z"/>
</mask>
<path d="M156 268H312V304H156V268Z" fill="#DCFCE7"/>
<path d="M312 268H311V304H312H313V268H312Z" fill="#DCDCE0" mask="url(#path-111-inside-37_311_49749)"/>
<path d="M174.105 285.536C174.105 286.306 173.83 286.933 173.401 287.406C172.994 287.846 172.356 288.143 171.564 288.143C170.706 288.143 170.046 287.703 169.672 287.186C169.122 286.427 168.99 285.371 168.99 284.282C168.99 283.193 169.111 282.115 169.628 281.29C169.991 280.718 170.64 280.201 171.608 280.201C172.257 280.201 172.84 280.432 173.225 280.817C173.566 281.158 173.819 281.642 173.841 282.203H172.895C172.873 281.829 172.697 281.532 172.466 281.334C172.246 281.147 171.938 281.048 171.575 281.048C171.091 281.048 170.75 281.279 170.519 281.543C170.035 282.093 169.947 283.05 169.936 283.853C170.178 283.325 170.959 282.962 171.685 282.962C172.378 282.962 172.961 283.204 173.324 283.556C173.819 284.029 174.105 284.733 174.105 285.536ZM173.159 285.547C173.159 285.008 172.983 284.557 172.697 284.238C172.466 283.974 172.07 283.798 171.586 283.798C171.102 283.798 170.728 284.007 170.497 284.271C170.211 284.59 170.057 285.008 170.057 285.547C170.057 286.086 170.233 286.504 170.53 286.823C170.772 287.087 171.124 287.296 171.608 287.296C172.092 287.296 172.455 287.12 172.697 286.856C172.994 286.537 173.159 286.086 173.159 285.547Z" fill="#737680"/>
<mask id="path-114-inside-38_311_49749" fill="white">
<path d="M312 268H468V304H312V268Z"/>
</mask>
<path d="M468 268H467V304H468H469V268H468Z" fill="#DCDCE0" mask="url(#path-114-inside-38_311_49749)"/>
<path d="M329.962 284.672C329.962 286.146 329.83 287.213 329.06 287.994C328.686 288.368 328.169 288.643 327.41 288.643C326.651 288.643 326.134 288.368 325.76 287.994C324.99 287.213 324.858 286.146 324.858 284.672C324.858 283.198 324.99 282.12 325.76 281.339C326.134 280.965 326.651 280.701 327.41 280.701C328.169 280.701 328.686 280.965 329.06 281.339C329.83 282.12 329.962 283.198 329.962 284.672ZM325.859 285.97L328.73 282.45C328.642 282.241 328.521 282.054 328.356 281.9C328.136 281.691 327.817 281.548 327.41 281.548C327.003 281.548 326.684 281.691 326.464 281.9C325.815 282.516 325.826 283.638 325.826 284.672C325.826 285.101 325.815 285.552 325.859 285.97ZM328.994 284.672C328.994 284.265 328.994 283.847 328.961 283.451L326.123 286.96C326.211 287.147 326.321 287.312 326.464 287.444C326.684 287.653 327.003 287.796 327.41 287.796C327.817 287.796 328.136 287.653 328.356 287.444C329.005 286.828 328.994 285.706 328.994 284.672Z" fill="#737680"/>
<mask id="path-117-inside-39_311_49749" fill="white">
<path d="M468 268H624V304H468V268Z"/>
</mask>
<path d="M624 268H623V304H624H625V268H624Z" fill="#DCDCE0" mask="url(#path-117-inside-39_311_49749)"/>
<path d="M485.962 284.672C485.962 286.146 485.83 287.213 485.06 287.994C484.686 288.368 484.169 288.643 483.41 288.643C482.651 288.643 482.134 288.368 481.76 287.994C480.99 287.213 480.858 286.146 480.858 284.672C480.858 283.198 480.99 282.12 481.76 281.339C482.134 280.965 482.651 280.701 483.41 280.701C484.169 280.701 484.686 280.965 485.06 281.339C485.83 282.12 485.962 283.198 485.962 284.672ZM481.859 285.97L484.73 282.45C484.642 282.241 484.521 282.054 484.356 281.9C484.136 281.691 483.817 281.548 483.41 281.548C483.003 281.548 482.684 281.691 482.464 281.9C481.815 282.516 481.826 283.638 481.826 284.672C481.826 285.101 481.815 285.552 481.859 285.97ZM484.994 284.672C484.994 284.265 484.994 283.847 484.961 283.451L482.123 286.96C482.211 287.147 482.321 287.312 482.464 287.444C482.684 287.653 483.003 287.796 483.41 287.796C483.817 287.796 484.136 287.653 484.356 287.444C485.005 286.828 484.994 285.706 484.994 284.672Z" fill="#737680"/>
<mask id="path-120-inside-40_311_49749" fill="white">
<path d="M624 268H780V304H624V268Z"/>
</mask>
<path d="M780 268H779V304H780H781V268H780Z" fill="#DCDCE0" mask="url(#path-120-inside-40_311_49749)"/>
<path d="M641.962 284.672C641.962 286.146 641.83 287.213 641.06 287.994C640.686 288.368 640.169 288.643 639.41 288.643C638.651 288.643 638.134 288.368 637.76 287.994C636.99 287.213 636.858 286.146 636.858 284.672C636.858 283.198 636.99 282.12 637.76 281.339C638.134 280.965 638.651 280.701 639.41 280.701C640.169 280.701 640.686 280.965 641.06 281.339C641.83 282.12 641.962 283.198 641.962 284.672ZM637.859 285.97L640.73 282.45C640.642 282.241 640.521 282.054 640.356 281.9C640.136 281.691 639.817 281.548 639.41 281.548C639.003 281.548 638.684 281.691 638.464 281.9C637.815 282.516 637.826 283.638 637.826 284.672C637.826 285.101 637.815 285.552 637.859 285.97ZM640.994 284.672C640.994 284.265 640.994 283.847 640.961 283.451L638.123 286.96C638.211 287.147 638.321 287.312 638.464 287.444C638.684 287.653 639.003 287.796 639.41 287.796C639.817 287.796 640.136 287.653 640.356 287.444C641.005 286.828 640.994 285.706 640.994 284.672Z" fill="#737680"/>
<mask id="path-123-inside-41_311_49749" fill="white">
<path d="M0 304H156V344H0V304Z"/>
</mask>
<path d="M156 304H155V344H156H157V304H156Z" fill="#DCDCE0" mask="url(#path-123-inside-41_311_49749)"/>
<path d="M12.672 314.212H15.06V312.556H15.948V314.212H18.312V314.932H15.948V315.784C15.948 317.5 17.04 319.216 18.528 319.948L18.024 320.644C16.884 320.068 15.96 318.916 15.516 317.548C15.072 319.024 14.1 320.248 12.912 320.836L12.396 320.152C13.92 319.42 15.072 317.62 15.072 315.784V314.932H12.672V314.212ZM19.632 322.876V312.376H20.532V316.72H22.284V317.476H20.532V322.876H19.632ZM30.2163 312.376H31.1163V314.044H32.6883V314.8H31.1163V316.252H32.6883V316.996H31.1163V318.736H30.2163V312.376ZM23.4243 313.78V313.024H28.1403V315.856H24.3363V317.356C26.1843 317.356 27.5403 317.296 29.1723 317.008L29.2563 317.752C27.5883 318.04 26.1843 318.1 24.2643 318.1H23.4483V315.148H27.2523V313.78H23.4243ZM24.3243 320.944C24.3243 319.756 25.6323 319.06 27.7683 319.06C29.9043 319.06 31.2003 319.756 31.2003 320.944C31.2003 322.156 29.9043 322.864 27.7683 322.864C25.6323 322.864 24.3243 322.156 24.3243 320.944ZM25.2003 320.944C25.2003 321.712 26.1723 322.156 27.7683 322.156C29.3643 322.156 30.3243 321.712 30.3243 320.944C30.3243 320.212 29.3643 319.756 27.7683 319.756C26.1723 319.756 25.2003 320.212 25.2003 320.944ZM34.2246 317.668C34.2246 316.156 34.8246 314.14 35.6766 312.796H36.6486C35.6886 314.116 35.0166 316.12 35.0166 317.668C35.0166 319.216 35.6886 321.22 36.6486 322.54H35.6766C34.8246 321.196 34.2246 319.18 34.2246 317.668ZM40.6817 313.3H41.5817V315.208C41.5817 317.128 42.8897 319.06 44.4017 319.768L43.8617 320.488C42.6737 319.9 41.6417 318.64 41.1497 317.128C40.6697 318.724 39.6257 320.068 38.4017 320.68L37.8497 319.936C39.3737 319.204 40.6817 317.2 40.6817 315.208V313.3ZM45.5657 322.888V312.364H46.4657V322.888H45.5657ZM53.798 313.468C53.798 316.492 52.754 319.276 49.01 321.136L48.518 320.44C50.474 319.468 51.65 318.244 52.286 316.828L48.71 317.176L48.566 316.372L52.574 316.096C52.754 315.496 52.862 314.872 52.898 314.212H49.094V313.468H53.798ZM55.55 322.876V312.364H56.462V316.66H58.154V317.416H56.462V322.876H55.55ZM59.8943 313.444H67.2143V314.488C67.2143 315.784 67.2143 317.212 66.8423 319.324L65.9303 319.216C66.3143 317.212 66.3143 315.748 66.3143 314.488V314.188H59.8943V313.444ZM58.8863 321.376V320.62H62.6183V316.852H63.5063V320.62H68.3783V321.376H58.8863ZM69.7345 317.152H74.7985V318.004H69.7345V317.152ZM83.7928 312.388H84.7048V320.056H83.7928V312.388ZM76.3528 315.7C76.3528 314.176 77.5288 313.12 79.0768 313.12C80.6368 313.12 81.8008 314.176 81.8008 315.7C81.8008 317.2 80.6368 318.268 79.0768 318.268C77.5288 318.268 76.3528 317.2 76.3528 315.7ZM77.2288 315.7C77.2288 316.732 78.0328 317.476 79.0768 317.476C80.1328 317.476 80.9368 316.732 80.9368 315.7C80.9368 314.644 80.1328 313.9 79.0768 313.9C78.0328 313.9 77.2288 314.644 77.2288 315.7ZM77.9968 322.636V319.276H78.8848V321.892H85.0288V322.636H77.9968ZM94.2691 312.376H95.1691V322.888H94.2691V312.376ZM87.2851 320.272V313.384H92.2291V314.14H88.1731V319.504C90.2131 319.504 91.5571 319.444 93.1291 319.144L93.2251 319.912C91.5931 320.212 90.2251 320.272 88.1251 320.272H87.2851ZM99.4414 313.264C100.809 313.264 101.685 314.668 101.685 316.9C101.685 319.144 100.809 320.548 99.4414 320.548C98.0974 320.548 97.2214 319.144 97.2214 316.9C97.2214 314.668 98.0974 313.264 99.4414 313.264ZM98.0614 316.9C98.0614 318.616 98.6014 319.708 99.4414 319.708C100.305 319.708 100.845 318.616 100.845 316.9C100.845 315.184 100.305 314.104 99.4414 314.104C98.6014 314.104 98.0614 315.184 98.0614 316.9ZM102.801 322.336V312.616H103.653V316.552H105.129V312.376H105.993V322.876H105.129V317.296H103.653V322.336H102.801ZM114.742 312.364H115.642V316.588H117.334V317.344H115.642V322.876H114.742V312.364ZM108.022 320.2V313.408H108.91V319.456C110.434 319.456 112.018 319.336 113.734 318.976L113.842 319.732C112.042 320.092 110.446 320.2 108.85 320.2H108.022ZM118.954 312.664H126.634V313.36H125.026V315.436H126.598V316.132H123.25V317.188H127.546V317.908H118.066V317.188H122.35V316.132H118.99V315.436H120.562V313.36H118.954V312.664ZM119.218 319.432V318.76H126.322V321.004H120.13V322.06H126.646V322.756H119.254V320.356H125.446V319.432H119.218ZM121.474 315.436H124.138V313.36H121.474V315.436ZM136.246 312.364H137.146V322.888H136.246V312.364ZM129.142 314.104V313.372H133.978V317.08H130.066V319.588C131.806 319.588 133.354 319.516 135.226 319.216L135.322 319.948C133.402 320.272 131.818 320.332 130.03 320.332H129.166V316.336H133.078V314.104H129.142ZM16.728 325.096H17.664V325.912C17.664 327.736 19.728 329.332 21.516 329.668L21.096 330.412C19.548 330.052 17.868 328.924 17.196 327.376C16.524 328.924 14.856 330.052 13.296 330.412L12.9 329.668C14.664 329.32 16.728 327.736 16.728 325.912V325.096ZM12.48 333.436V332.692H21.996V333.436H12.48ZM25.6803 329.668C25.6803 331.192 25.0803 333.196 24.2403 334.54H23.2683C24.2163 333.232 24.8883 331.216 24.8883 329.668C24.8883 328.12 24.2163 326.104 23.2683 324.796H24.2403C25.0803 326.14 25.6803 328.144 25.6803 329.668Z" fill="#737680"/>
<mask id="path-126-inside-42_311_49749" fill="white">
<path d="M156 304H312V344H156V304Z"/>
</mask>
<path d="M156 304H312V344H156V304Z" fill="#DCFCE7"/>
<path d="M312 304H311V344H312H313V304H312Z" fill="#DCDCE0" mask="url(#path-126-inside-42_311_49749)"/>
<path d="M174.017 317.202L170.805 324H169.793L173.005 317.202H168.891V316.355H174.017V317.202Z" fill="#737680"/>
<mask id="path-129-inside-43_311_49749" fill="white">
<path d="M312 304H468V344H312V304Z"/>
</mask>
<path d="M468 304H467V344H468H469V304H468Z" fill="#DCDCE0" mask="url(#path-129-inside-43_311_49749)"/>
<path d="M329.962 322.672C329.962 324.146 329.83 325.213 329.06 325.994C328.686 326.368 328.169 326.643 327.41 326.643C326.651 326.643 326.134 326.368 325.76 325.994C324.99 325.213 324.858 324.146 324.858 322.672C324.858 321.198 324.99 320.12 325.76 319.339C326.134 318.965 326.651 318.701 327.41 318.701C328.169 318.701 328.686 318.965 329.06 319.339C329.83 320.12 329.962 321.198 329.962 322.672ZM325.859 323.97L328.73 320.45C328.642 320.241 328.521 320.054 328.356 319.9C328.136 319.691 327.817 319.548 327.41 319.548C327.003 319.548 326.684 319.691 326.464 319.9C325.815 320.516 325.826 321.638 325.826 322.672C325.826 323.101 325.815 323.552 325.859 323.97ZM328.994 322.672C328.994 322.265 328.994 321.847 328.961 321.451L326.123 324.96C326.211 325.147 326.321 325.312 326.464 325.444C326.684 325.653 327.003 325.796 327.41 325.796C327.817 325.796 328.136 325.653 328.356 325.444C329.005 324.828 328.994 323.706 328.994 322.672Z" fill="#737680"/>
<mask id="path-132-inside-44_311_49749" fill="white">
<path d="M468 304H624V344H468V304Z"/>
</mask>
<path d="M624 304H623V344H624H625V304H624Z" fill="#DCDCE0" mask="url(#path-132-inside-44_311_49749)"/>
<path d="M485.962 322.672C485.962 324.146 485.83 325.213 485.06 325.994C484.686 326.368 484.169 326.643 483.41 326.643C482.651 326.643 482.134 326.368 481.76 325.994C480.99 325.213 480.858 324.146 480.858 322.672C480.858 321.198 480.99 320.12 481.76 319.339C482.134 318.965 482.651 318.701 483.41 318.701C484.169 318.701 484.686 318.965 485.06 319.339C485.83 320.12 485.962 321.198 485.962 322.672ZM481.859 323.97L484.73 320.45C484.642 320.241 484.521 320.054 484.356 319.9C484.136 319.691 483.817 319.548 483.41 319.548C483.003 319.548 482.684 319.691 482.464 319.9C481.815 320.516 481.826 321.638 481.826 322.672C481.826 323.101 481.815 323.552 481.859 323.97ZM484.994 322.672C484.994 322.265 484.994 321.847 484.961 321.451L482.123 324.96C482.211 325.147 482.321 325.312 482.464 325.444C482.684 325.653 483.003 325.796 483.41 325.796C483.817 325.796 484.136 325.653 484.356 325.444C485.005 324.828 484.994 323.706 484.994 322.672Z" fill="#737680"/>
<mask id="path-135-inside-45_311_49749" fill="white">
<path d="M624 304H780V344H624V304Z"/>
</mask>
<path d="M780 304H779V344H780H781V304H780Z" fill="#DCDCE0" mask="url(#path-135-inside-45_311_49749)"/>
<path d="M641.962 322.672C641.962 324.146 641.83 325.213 641.06 325.994C640.686 326.368 640.169 326.643 639.41 326.643C638.651 326.643 638.134 326.368 637.76 325.994C636.99 325.213 636.858 324.146 636.858 322.672C636.858 321.198 636.99 320.12 637.76 319.339C638.134 318.965 638.651 318.701 639.41 318.701C640.169 318.701 640.686 318.965 641.06 319.339C641.83 320.12 641.962 321.198 641.962 322.672ZM637.859 323.97L640.73 320.45C640.642 320.241 640.521 320.054 640.356 319.9C640.136 319.691 639.817 319.548 639.41 319.548C639.003 319.548 638.684 319.691 638.464 319.9C637.815 320.516 637.826 321.638 637.826 322.672C637.826 323.101 637.815 323.552 637.859 323.97ZM640.994 322.672C640.994 322.265 640.994 321.847 640.961 321.451L638.123 324.96C638.211 325.147 638.321 325.312 638.464 325.444C638.684 325.653 639.003 325.796 639.41 325.796C639.817 325.796 640.136 325.653 640.356 325.444C641.005 324.828 640.994 323.706 640.994 322.672Z" fill="#737680"/>
<rect width="780" height="36" transform="translate(0 344)" fill="#F5F5F5"/>
<mask id="path-138-inside-46_311_49749" fill="white">
<path d="M0 344H156V380H0V344Z"/>
</mask>
<path d="M156 344H155V380H156H157V344H156Z" fill="#DCDCE0" mask="url(#path-138-inside-46_311_49749)"/>
<path d="M20.16 356.388H21.072V364.056H20.16V356.388ZM12.72 359.7C12.72 358.176 13.896 357.12 15.444 357.12C17.004 357.12 18.168 358.176 18.168 359.7C18.168 361.2 17.004 362.268 15.444 362.268C13.896 362.268 12.72 361.2 12.72 359.7ZM13.596 359.7C13.596 360.732 14.4 361.476 15.444 361.476C16.5 361.476 17.304 360.732 17.304 359.7C17.304 358.644 16.5 357.9 15.444 357.9C14.4 357.9 13.596 358.644 13.596 359.7ZM14.364 366.636V363.276H15.252V365.892H21.396V366.636H14.364ZM30.6363 356.376H31.5363V366.888H30.6363V356.376ZM23.6523 364.272V357.384H28.5963V358.14H24.5403V363.504C26.5803 363.504 27.9243 363.444 29.4963 363.144L29.5923 363.912C27.9603 364.212 26.5923 364.272 24.4923 364.272H23.6523ZM35.8086 357.264C37.1766 357.264 38.0526 358.668 38.0526 360.9C38.0526 363.144 37.1766 364.548 35.8086 364.548C34.4646 364.548 33.5886 363.144 33.5886 360.9C33.5886 358.668 34.4646 357.264 35.8086 357.264ZM34.4286 360.9C34.4286 362.616 34.9686 363.708 35.8086 363.708C36.6726 363.708 37.2126 362.616 37.2126 360.9C37.2126 359.184 36.6726 358.104 35.8086 358.104C34.9686 358.104 34.4286 359.184 34.4286 360.9ZM39.1686 366.336V356.616H40.0206V360.552H41.4966V356.376H42.3606V366.876H41.4966V361.296H40.0206V366.336H39.1686ZM51.1088 356.364H52.0088V360.588H53.7008V361.344H52.0088V366.876H51.1088V356.364ZM44.3888 364.2V357.408H45.2768V363.456C46.8008 363.456 48.3848 363.336 50.1008 362.976L50.2088 363.732C48.4088 364.092 46.8128 364.2 45.2168 364.2H44.3888ZM55.3211 356.664H63.0011V357.36H61.3931V359.436H62.9651V360.132H59.6171V361.188H63.9131V361.908H54.4331V361.188H58.7171V360.132H55.3571V359.436H56.9291V357.36H55.3211V356.664ZM55.5851 363.432V362.76H62.6891V365.004H56.4971V366.06H63.0131V366.756H55.6211V364.356H61.8131V363.432H55.5851ZM57.8411 359.436H60.5051V357.36H57.8411V359.436ZM72.6134 356.364H73.5134V366.888H72.6134V356.364ZM65.5094 358.104V357.372H70.3454V361.08H66.4334V363.588C68.1734 363.588 69.7214 363.516 71.5934 363.216L71.6894 363.948C69.7694 364.272 68.1854 364.332 66.3974 364.332H65.5334V360.336H69.4454V358.104H65.5094ZM79.6577 357.096H80.5937V357.912C80.5937 359.736 82.6577 361.332 84.4457 361.668L84.0257 362.412C82.4777 362.052 80.7977 360.924 80.1257 359.376C79.4537 360.924 77.7857 362.052 76.2257 362.412L75.8297 361.668C77.5937 361.32 79.6577 359.736 79.6577 357.912V357.096ZM75.4097 365.436V364.692H84.9257V365.436H75.4097ZM88.9636 357.66H91.3276V356.328H92.2156V357.66H94.5676V358.404H92.2156V358.632C92.2156 359.94 93.2716 361.104 94.7956 361.56L94.3756 362.256C93.1876 361.884 92.2516 361.104 91.7956 360.084C91.3516 361.236 90.3796 362.112 89.1436 362.532L88.6996 361.836C90.2356 361.344 91.3276 360.084 91.3276 358.632V358.404H88.9636V357.66ZM90.0316 364.968C90.0316 363.768 91.3276 363.096 93.4636 363.096C95.6116 363.096 96.9076 363.768 96.9076 364.968C96.9076 366.156 95.6116 366.84 93.4636 366.84C91.3276 366.84 90.0316 366.156 90.0316 364.968ZM90.9076 364.968C90.9076 365.7 91.8796 366.144 93.4636 366.144C95.0476 366.144 96.0196 365.7 96.0196 364.968C96.0196 364.224 95.0476 363.792 93.4636 363.792C91.8796 363.792 90.9076 364.224 90.9076 364.968ZM95.8996 362.82V356.376H96.7996V359.124H98.3716V359.88H96.7996V362.82H95.8996ZM100.16 357.444H107.48V358.488C107.48 359.784 107.48 361.212 107.108 363.324L106.196 363.216C106.58 361.212 106.58 359.748 106.58 358.488V358.188H100.16V357.444ZM99.1519 365.376V364.62H102.884V360.852H103.772V364.62H108.644V365.376H99.1519Z" fill="#737680"/>
<mask id="path-141-inside-47_311_49749" fill="white">
<path d="M156 344H312V380H156V344Z"/>
</mask>
<path d="M156 344H312V380H156V344Z" fill="#DCFCE7"/>
<path d="M312 344H311V380H312H313V344H312Z" fill="#DCDCE0" mask="url(#path-141-inside-47_311_49749)"/>
<path d="M174.105 361.536C174.105 362.306 173.83 362.933 173.401 363.406C172.994 363.846 172.356 364.143 171.564 364.143C170.706 364.143 170.046 363.703 169.672 363.186C169.122 362.427 168.99 361.371 168.99 360.282C168.99 359.193 169.111 358.115 169.628 357.29C169.991 356.718 170.64 356.201 171.608 356.201C172.257 356.201 172.84 356.432 173.225 356.817C173.566 357.158 173.819 357.642 173.841 358.203H172.895C172.873 357.829 172.697 357.532 172.466 357.334C172.246 357.147 171.938 357.048 171.575 357.048C171.091 357.048 170.75 357.279 170.519 357.543C170.035 358.093 169.947 359.05 169.936 359.853C170.178 359.325 170.959 358.962 171.685 358.962C172.378 358.962 172.961 359.204 173.324 359.556C173.819 360.029 174.105 360.733 174.105 361.536ZM173.159 361.547C173.159 361.008 172.983 360.557 172.697 360.238C172.466 359.974 172.07 359.798 171.586 359.798C171.102 359.798 170.728 360.007 170.497 360.271C170.211 360.59 170.057 361.008 170.057 361.547C170.057 362.086 170.233 362.504 170.53 362.823C170.772 363.087 171.124 363.296 171.608 363.296C172.092 363.296 172.455 363.12 172.697 362.856C172.994 362.537 173.159 362.086 173.159 361.547Z" fill="#737680"/>
<mask id="path-144-inside-48_311_49749" fill="white">
<path d="M312 344H468V380H312V344Z"/>
</mask>
<path d="M468 344H467V380H468H469V344H468Z" fill="#DCDCE0" mask="url(#path-144-inside-48_311_49749)"/>
<path d="M329.962 360.672C329.962 362.146 329.83 363.213 329.06 363.994C328.686 364.368 328.169 364.643 327.41 364.643C326.651 364.643 326.134 364.368 325.76 363.994C324.99 363.213 324.858 362.146 324.858 360.672C324.858 359.198 324.99 358.12 325.76 357.339C326.134 356.965 326.651 356.701 327.41 356.701C328.169 356.701 328.686 356.965 329.06 357.339C329.83 358.12 329.962 359.198 329.962 360.672ZM325.859 361.97L328.73 358.45C328.642 358.241 328.521 358.054 328.356 357.9C328.136 357.691 327.817 357.548 327.41 357.548C327.003 357.548 326.684 357.691 326.464 357.9C325.815 358.516 325.826 359.638 325.826 360.672C325.826 361.101 325.815 361.552 325.859 361.97ZM328.994 360.672C328.994 360.265 328.994 359.847 328.961 359.451L326.123 362.96C326.211 363.147 326.321 363.312 326.464 363.444C326.684 363.653 327.003 363.796 327.41 363.796C327.817 363.796 328.136 363.653 328.356 363.444C329.005 362.828 328.994 361.706 328.994 360.672Z" fill="#737680"/>
<mask id="path-147-inside-49_311_49749" fill="white">
<path d="M468 344H624V380H468V344Z"/>
</mask>
<path d="M624 344H623V380H624H625V344H624Z" fill="#DCDCE0" mask="url(#path-147-inside-49_311_49749)"/>
<path d="M485.962 360.672C485.962 362.146 485.83 363.213 485.06 363.994C484.686 364.368 484.169 364.643 483.41 364.643C482.651 364.643 482.134 364.368 481.76 363.994C480.99 363.213 480.858 362.146 480.858 360.672C480.858 359.198 480.99 358.12 481.76 357.339C482.134 356.965 482.651 356.701 483.41 356.701C484.169 356.701 484.686 356.965 485.06 357.339C485.83 358.12 485.962 359.198 485.962 360.672ZM481.859 361.97L484.73 358.45C484.642 358.241 484.521 358.054 484.356 357.9C484.136 357.691 483.817 357.548 483.41 357.548C483.003 357.548 482.684 357.691 482.464 357.9C481.815 358.516 481.826 359.638 481.826 360.672C481.826 361.101 481.815 361.552 481.859 361.97ZM484.994 360.672C484.994 360.265 484.994 359.847 484.961 359.451L482.123 362.96C482.211 363.147 482.321 363.312 482.464 363.444C482.684 363.653 483.003 363.796 483.41 363.796C483.817 363.796 484.136 363.653 484.356 363.444C485.005 362.828 484.994 361.706 484.994 360.672Z" fill="#737680"/>
<mask id="path-150-inside-50_311_49749" fill="white">
<path d="M624 344H780V380H624V344Z"/>
</mask>
<path d="M780 344H779V380H780H781V344H780Z" fill="#DCDCE0" mask="url(#path-150-inside-50_311_49749)"/>
<path d="M641.962 360.672C641.962 362.146 641.83 363.213 641.06 363.994C640.686 364.368 640.169 364.643 639.41 364.643C638.651 364.643 638.134 364.368 637.76 363.994C636.99 363.213 636.858 362.146 636.858 360.672C636.858 359.198 636.99 358.12 637.76 357.339C638.134 356.965 638.651 356.701 639.41 356.701C640.169 356.701 640.686 356.965 641.06 357.339C641.83 358.12 641.962 359.198 641.962 360.672ZM637.859 361.97L640.73 358.45C640.642 358.241 640.521 358.054 640.356 357.9C640.136 357.691 639.817 357.548 639.41 357.548C639.003 357.548 638.684 357.691 638.464 357.9C637.815 358.516 637.826 359.638 637.826 360.672C637.826 361.101 637.815 361.552 637.859 361.97ZM640.994 360.672C640.994 360.265 640.994 359.847 640.961 359.451L638.123 362.96C638.211 363.147 638.321 363.312 638.464 363.444C638.684 363.653 639.003 363.796 639.41 363.796C639.817 363.796 640.136 363.653 640.356 363.444C641.005 362.828 640.994 361.706 640.994 360.672Z" fill="#737680"/>
</g>
<path d="M10 0.5H770C775.247 0.5 779.5 4.75329 779.5 10V370C779.5 375.247 775.247 379.5 770 379.5H10C4.7533 379.5 0.5 375.247 0.5 370V10C0.500004 4.7533 4.7533 0.5 10 0.5Z" stroke="#DCDCE0"/>
<defs>
<clipPath id="clip0_311_49749">
<path d="M0 10C0 4.47716 4.47715 0 10 0H770C775.523 0 780 4.47715 780 10V370C780 375.523 775.523 380 770 380H9.99998C4.47713 380 0 375.523 0 370V10Z" fill="white"/>
</clipPath>
</defs>
</svg>
