<svg width="780" height="184" viewBox="0 0 780 184" fill="none" xmlns="http://www.w3.org/2000/svg">
<g clip-path="url(#clip0_311_49660)">
<mask id="path-3-outside-1_311_49660" maskUnits="userSpaceOnUse" x="0" y="0" width="780" height="41" fill="black">
<rect fill="white" width="780" height="41"/>
<path d="M0 0H780V40H0V0Z"/>
</mask>
<path d="M0 0H780V40H0V0Z" fill="white"/>
<path d="M780 40V39H0V40V41H780V40Z" fill="#DBDBE0" mask="url(#path-3-outside-1_311_49660)"/>
<mask id="path-5-inside-2_311_49660" fill="white">
<path d="M0 0H60V40H0V0Z"/>
</mask>
<path d="M60 0H59V40H60H61V0H60Z" fill="#DBDBE0" mask="url(#path-5-inside-2_311_49660)"/>
<path d="M17.2987 14.36H18.2997V14.945C18.2997 16.453 20.3797 17.805 22.3037 18.104L21.9267 18.871C20.2367 18.572 18.5207 17.61 17.8057 16.284C17.1037 17.636 15.3877 18.585 13.6717 18.884L13.2817 18.117C15.2447 17.818 17.2987 16.492 17.2987 14.945V14.36ZM12.6447 20.678V19.885H22.9537V20.678H18.3647V23.031H17.3767V20.678H12.6447ZM13.9707 25.189V21.913H14.9457V24.383H21.8097V25.189H13.9707ZM27.725 14.62C29.415 14.62 30.624 15.556 30.624 16.947C30.624 18.325 29.415 19.274 27.725 19.274C26.048 19.274 24.839 18.325 24.839 16.947C24.839 15.556 26.048 14.62 27.725 14.62ZM23.981 20.262C26.1 20.262 28.999 20.236 31.508 19.846L31.573 20.587C30.494 20.782 29.363 20.899 28.271 20.977V25.098H27.296V21.029C26.152 21.081 25.06 21.094 24.111 21.094L23.981 20.262ZM25.775 16.947C25.775 17.844 26.594 18.455 27.725 18.455C28.869 18.455 29.688 17.844 29.688 16.947C29.688 16.05 28.869 15.426 27.725 15.426C26.594 15.426 25.775 16.05 25.775 16.947ZM32.34 25.462V14.074H33.302V25.462H32.34Z" fill="#737680"/>
<mask id="path-8-inside-3_311_49660" fill="white">
<path d="M60 0H240V40H60V0Z"/>
</mask>
<path d="M240 0H239V40H240H241V0H240Z" fill="#DBDBE0" mask="url(#path-8-inside-3_311_49660)"/>
<path d="M73.5999 14.4004L86.3999 14.4004M73.5999 17.8671L83.016 17.8671M73.5999 21.3337L86.3999 21.3337M73.5999 24.8004L80.4413 24.8004" stroke="#999FAA" stroke-width="1.2" stroke-linecap="round" stroke-linejoin="round"/>
<path d="M92.9975 18.372H103.307V19.178H98.7175V21.518H97.7295V19.178H92.9975V18.372ZM94.1545 15.148C94.1545 13.744 95.7405 12.86 98.1325 12.86C100.551 12.86 102.111 13.744 102.111 15.148C102.111 16.552 100.551 17.423 98.1325 17.423C95.7405 17.423 94.1545 16.552 94.1545 15.148ZM94.3235 23.689V20.374H95.2985V22.87H102.163V23.689H94.3235ZM95.1945 15.148C95.1945 16.058 96.3775 16.617 98.1325 16.617C99.9005 16.617 101.084 16.058 101.084 15.148C101.084 14.238 99.9005 13.666 98.1325 13.666C96.3775 13.666 95.1945 14.238 95.1945 15.148ZM109.001 16.552H109.976V18.242H114.63V19.035H104.36V18.242H109.001V16.552ZM104.984 16.357C106.96 16.071 109.001 14.823 109.001 13.276V12.756H109.989V13.276C109.989 14.81 112.043 16.071 114.006 16.357L113.629 17.137C111.926 16.838 110.21 15.941 109.508 14.615C108.793 15.941 107.077 16.838 105.361 17.137L104.984 16.357ZM105.608 21.96C105.608 20.712 107.051 20.01 109.495 20.01C111.926 20.01 113.382 20.712 113.382 21.96C113.382 23.234 111.926 23.923 109.495 23.923C107.051 23.923 105.608 23.234 105.608 21.96ZM106.583 21.96C106.583 22.727 107.675 23.169 109.495 23.169C111.315 23.169 112.394 22.727 112.394 21.96C112.394 21.206 111.315 20.764 109.495 20.764C107.675 20.764 106.583 21.206 106.583 21.96ZM124.081 12.574H125.056V20.985H124.081V16.916H121.572V16.097H124.081V12.574ZM115.891 18.879C118.517 17.995 120.337 16.344 120.545 14.264H116.463V13.458H121.598C121.598 16.37 119.518 18.593 116.307 19.672L115.891 18.879ZM117.893 23.689V20.127H118.881V22.883H125.342V23.689H117.893ZM130.718 13.614H131.654V23H130.718V13.614ZM136.802 22.168C139.012 22.168 140.572 20.569 140.572 18.307C140.572 16.045 139.012 14.446 136.802 14.446H134.904V22.168H136.802ZM133.968 23V13.614H136.802C139.545 13.614 141.482 15.551 141.482 18.307C141.482 21.063 139.545 23 136.802 23H133.968Z" fill="#737680"/>
<mask id="path-12-inside-4_311_49660" fill="white">
<path d="M240 0H420V40H240V0Z"/>
</mask>
<path d="M420 0H419V40H420H421V0H420Z" fill="#DBDBE0" mask="url(#path-12-inside-4_311_49660)"/>
<path d="M256.334 21.3331L259.134 18.5331L261.134 20.5331L263.534 18.1331M254.933 26.133C254.05 26.133 253.333 25.4167 253.333 24.533V14.933C253.333 14.0494 254.05 13.333 254.933 13.333H264.533C265.417 13.333 266.133 14.0494 266.133 14.933V24.533C266.133 25.4167 265.417 26.133 264.533 26.133H254.933Z" stroke="#999FAA" stroke-width="1.2" stroke-linecap="round" stroke-linejoin="round"/>
<path d="M278.594 17.233H280.934V14.087H281.909V22.407H280.934V18.039H278.594V17.233ZM272.614 20.171C274.278 19.573 275.5 18.065 275.5 16.427V15.816H272.926V15.01H278.997V15.816H276.475V16.414C276.475 17.896 277.632 19.339 279.257 19.911L278.763 20.678C277.489 20.21 276.488 19.248 276.007 18.065C275.526 19.378 274.473 20.444 273.121 20.951L272.614 20.171ZM274.668 25.189V21.679H275.643V24.383H282.234V25.189H274.668ZM288.565 18.585H290.359V14.347H291.269V24.851H290.359V19.391H288.565V18.585ZM283.846 22.355C285.38 21.458 286.29 19.456 286.29 17.584V16.999H284.145V16.193H286.29V14.477H287.226V16.193H289.345V16.999H287.226V17.584C287.226 19.404 288.162 21.289 289.683 22.121L289.124 22.849C288.006 22.225 287.187 21.042 286.771 19.664C286.368 21.133 285.549 22.42 284.418 23.109L283.846 22.355ZM292.634 25.449V14.074H293.57V25.449H292.634ZM306.628 14.061H307.603V25.462H306.628V14.061ZM298.932 15.946V15.153H304.171V19.17H299.933V21.887C301.818 21.887 303.495 21.809 305.523 21.484L305.627 22.277C303.547 22.628 301.831 22.693 299.894 22.693H298.958V18.364H303.196V15.946H298.932ZM314.26 14.854H315.274V15.738C315.274 17.714 317.51 19.443 319.447 19.807L318.992 20.613C317.315 20.223 315.495 19.001 314.767 17.324C314.039 19.001 312.232 20.223 310.542 20.613L310.113 19.807C312.024 19.43 314.26 17.714 314.26 15.738V14.854ZM309.658 23.889V23.083H319.967V23.889H309.658ZM322.255 15.244H330.016V16.648C330.016 18.325 330.016 19.872 329.548 22.173L328.573 22.082C328.82 20.99 328.937 20.028 329.002 19.131L322.099 19.508L321.956 18.702L329.028 18.403C329.054 17.805 329.054 17.22 329.054 16.648V16.05H322.255V15.244ZM321.02 23.837V23.018H331.303V23.837H321.02ZM339.98 14.854H340.994V15.738C340.994 17.714 343.23 19.443 345.167 19.807L344.712 20.613C343.035 20.223 341.215 19.001 340.487 17.324C339.759 19.001 337.952 20.223 336.262 20.613L335.833 19.807C337.744 19.43 339.98 17.714 339.98 15.738V14.854ZM335.378 23.889V23.083H345.687V23.889H335.378ZM347.976 15.192H355.75V16.284C355.75 17.675 355.75 19.222 355.282 21.536L354.32 21.419C354.541 20.379 354.658 19.482 354.723 18.676L347.82 19.079L347.677 18.221L354.762 17.935C354.788 17.337 354.788 16.791 354.788 16.284V15.998H347.976V15.192ZM346.741 23.863V23.057H350.784V20.093H351.746V23.057H357.011V23.863H346.741ZM361.119 14.958C362.666 14.958 363.784 16.297 363.927 18.442H366.475V14.061H367.437V25.462H366.475V19.222H363.927C363.836 21.458 362.692 22.875 361.119 22.875C359.468 22.875 358.298 21.328 358.298 18.91C358.298 16.492 359.468 14.958 361.119 14.958ZM359.221 18.91C359.221 20.769 360.001 22.004 361.119 22.004C362.25 22.004 363.017 20.769 363.017 18.91C363.017 17.051 362.25 15.829 361.119 15.829C360.001 15.829 359.221 17.051 359.221 18.91Z" fill="#737680"/>
<mask id="path-16-inside-5_311_49660" fill="white">
<path d="M420 0H600V40H420V0Z"/>
</mask>
<path d="M600 0H599V40H600H601V0H600Z" fill="#DBDBE0" mask="url(#path-16-inside-5_311_49660)"/>
<path d="M440 26.3996L445.543 23.1996V16.7996L440 13.5996L434.458 16.7996V23.1996L440 26.3996ZM440 26.3996V20.3996M440 20.3996L434.8 17.1996M440 20.3996L445.2 17.1996" stroke="#AAA8A4" stroke-width="1.2" stroke-linecap="round" stroke-linejoin="round"/>
<path d="M452.756 20.587H463.039V21.393H458.359V25.449H457.397V21.393H452.756V20.587ZM453.38 18.806C455.317 18.52 457.358 17.22 457.358 15.686V15.595H453.731V14.802H462.038V15.595H458.437V15.686C458.437 17.22 460.478 18.52 462.415 18.806L462.038 19.599C460.309 19.3 458.58 18.338 457.904 16.96C457.215 18.338 455.486 19.3 453.757 19.599L453.38 18.806ZM464.118 23.161H466.679V20.054C465.717 19.56 465.132 18.741 465.132 17.714C465.132 15.946 466.861 14.802 469.253 14.802C471.671 14.802 473.374 15.946 473.374 17.714C473.374 18.728 472.802 19.534 471.866 20.041V23.161H474.427V23.967H464.118V23.161ZM466.081 17.714C466.081 19.001 467.407 19.846 469.253 19.846C471.099 19.846 472.438 19.001 472.438 17.714C472.438 16.427 471.099 15.582 469.253 15.582C467.407 15.582 466.081 16.427 466.081 17.714ZM467.641 23.161H470.891V20.418C470.397 20.548 469.851 20.613 469.253 20.613C468.668 20.613 468.135 20.548 467.641 20.418V23.161ZM486.81 14.061H487.785V25.462H486.81V14.061ZM479.114 15.946V15.153H484.353V19.17H480.115V21.887C482 21.887 483.677 21.809 485.705 21.484L485.809 22.277C483.729 22.628 482.013 22.693 480.076 22.693H479.14V18.364H483.378V15.946H479.114ZM494.441 14.854H495.455V15.738C495.455 17.714 497.691 19.443 499.628 19.807L499.173 20.613C497.496 20.223 495.676 19.001 494.948 17.324C494.22 19.001 492.413 20.223 490.723 20.613L490.294 19.807C492.205 19.43 494.441 17.714 494.441 15.738V14.854ZM489.839 23.889V23.083H500.148V23.889H489.839ZM502.436 15.244H510.197V16.648C510.197 18.325 510.197 19.872 509.729 22.173L508.754 22.082C509.001 20.99 509.118 20.028 509.183 19.131L502.28 19.508L502.137 18.702L509.209 18.403C509.235 17.805 509.235 17.22 509.235 16.648V16.05H502.436V15.244ZM501.201 23.837V23.018H511.484V23.837H501.201ZM515.56 20.561H525.869V21.38H523.139V25.449H522.151V21.38H519.239V25.449H518.238V21.38H515.56V20.561ZM516.717 17.012C516.717 15.491 518.316 14.555 520.682 14.555C523.061 14.555 524.647 15.491 524.647 17.012C524.647 18.533 523.061 19.482 520.682 19.482C518.316 19.482 516.717 18.533 516.717 17.012ZM517.718 17.012C517.718 18.039 518.914 18.689 520.682 18.689C522.45 18.689 523.659 18.039 523.659 17.012C523.659 15.998 522.45 15.335 520.682 15.335C518.914 15.335 517.718 15.998 517.718 17.012ZM533.305 16.83H535.268V14.074H536.243V21.432H535.268V19.833H533.292V19.04H535.268V17.623H533.305V16.83ZM526.922 16.141V15.361H529.678V13.97H530.653V15.361H533.318V16.141H526.922ZM527.585 18.845C527.585 17.584 528.638 16.752 530.146 16.752C531.667 16.752 532.707 17.584 532.707 18.845C532.707 20.119 531.667 20.964 530.146 20.964C528.638 20.964 527.585 20.119 527.585 18.845ZM528.508 18.845C528.508 19.664 529.158 20.21 530.146 20.21C531.134 20.21 531.797 19.664 531.797 18.845C531.797 18.039 531.134 17.506 530.146 17.506C529.158 17.506 528.508 18.039 528.508 18.845ZM528.755 23.486C528.755 22.264 530.185 21.549 532.538 21.549C534.878 21.549 536.308 22.264 536.308 23.486C536.308 24.708 534.878 25.423 532.538 25.423C530.185 25.423 528.755 24.708 528.755 23.486ZM529.769 23.486C529.769 24.227 530.822 24.669 532.538 24.669C534.241 24.669 535.294 24.227 535.294 23.486C535.294 22.732 534.241 22.316 532.538 22.316C530.822 22.316 529.769 22.732 529.769 23.486Z" fill="#737680"/>
<mask id="path-20-inside-6_311_49660" fill="white">
<path d="M600 0H780V40H600V0Z"/>
</mask>
<path d="M780 0H779V40H780H781V0H780Z" fill="#DBDBE0" mask="url(#path-20-inside-6_311_49660)"/>
<path d="M620 18.3996V23.7329M617.6 21.2601C615.255 21.6557 613.6 22.6138 613.6 23.7329C613.6 25.2057 616.465 26.3996 620 26.3996C623.535 26.3996 626.4 25.2057 626.4 23.7329C626.4 22.6138 624.746 21.6557 622.4 21.2601M622.133 15.7329C622.133 16.9111 621.178 17.8663 620 17.8663C618.822 17.8663 617.867 16.9111 617.867 15.7329C617.867 14.5547 618.822 13.5996 620 13.5996C621.178 13.5996 622.133 14.5547 622.133 15.7329Z" stroke="#999FAA" stroke-width="1.2" stroke-linecap="round" stroke-linejoin="round"/>
<path d="M632.937 20.587H643.22V21.393H638.54V25.449H637.578V21.393H632.937V20.587ZM633.561 18.806C635.498 18.52 637.539 17.22 637.539 15.686V15.595H633.912V14.802H642.219V15.595H638.618V15.686C638.618 17.22 640.659 18.52 642.596 18.806L642.219 19.599C640.49 19.3 638.761 18.338 638.085 16.96C637.396 18.338 635.667 19.3 633.938 19.599L633.561 18.806ZM644.299 23.161H646.86V20.054C645.898 19.56 645.313 18.741 645.313 17.714C645.313 15.946 647.042 14.802 649.434 14.802C651.852 14.802 653.555 15.946 653.555 17.714C653.555 18.728 652.983 19.534 652.047 20.041V23.161H654.608V23.967H644.299V23.161ZM646.262 17.714C646.262 19.001 647.588 19.846 649.434 19.846C651.28 19.846 652.619 19.001 652.619 17.714C652.619 16.427 651.28 15.582 649.434 15.582C647.588 15.582 646.262 16.427 646.262 17.714ZM647.822 23.161H651.072V20.418C650.578 20.548 650.032 20.613 649.434 20.613C648.849 20.613 648.316 20.548 647.822 20.418V23.161ZM659.165 14.542H660.127V16.206H663.442V14.542H664.404V19.495H659.165V14.542ZM660.127 18.702H663.442V16.973H660.127V18.702ZM660.296 21.289V20.509H667.485V23.239H661.284V24.526H667.901V25.319H660.322V22.498H666.523V21.289H660.296ZM666.51 19.95V14.074H667.485V16.557H669.175V17.363H667.485V19.95H666.51ZM672.425 14.776H673.361V16.323C673.361 17.597 674.245 18.884 675.688 19.443L675.181 20.184C674.089 19.768 673.309 18.923 672.906 17.935C672.503 19.027 671.684 20.002 670.553 20.496L670.033 19.742C671.515 19.092 672.425 17.61 672.425 16.323V14.776ZM672.074 23.395C672.074 22.121 673.517 21.367 675.857 21.367C678.197 21.367 679.64 22.121 679.64 23.395C679.64 24.682 678.197 25.423 675.857 25.423C673.517 25.423 672.074 24.682 672.074 23.395ZM673.036 23.395C673.036 24.188 674.115 24.669 675.857 24.669C677.599 24.669 678.665 24.188 678.665 23.395C678.665 22.602 677.599 22.134 675.857 22.134C674.115 22.134 673.036 22.602 673.036 23.395ZM676.208 20.743V14.308H677.131V17.155H678.652V14.087H679.588V21.107H678.652V17.961H677.131V20.743H676.208ZM685.691 14.828H693.296V15.816C693.296 16.895 693.296 18.065 692.971 19.716H694.661V20.535H689.994V25.475H689.006V20.535H684.378V19.716H691.983C692.334 18.091 692.334 16.882 692.334 15.816V15.621H685.691V14.828ZM703.58 14.074H704.555V17.545H706.258V18.364H704.555V22.394H703.58V14.074ZM695.767 20.288C698.471 19.443 700.252 17.805 700.46 15.764H696.235V14.958H701.513C701.513 17.883 699.433 20.041 696.183 21.081L695.767 20.288ZM697.496 25.189V21.549H698.471V24.383H705.075V25.189H697.496Z" fill="#737680"/>
<rect width="780" height="48" transform="translate(0 40)" fill="#F5F5F5"/>
<mask id="path-24-inside-7_311_49660" fill="white">
<path d="M0 40H60V88H0V40Z"/>
</mask>
<path d="M60 40H59V88H60H61V40H60Z" fill="#DBDBE0" mask="url(#path-24-inside-7_311_49660)"/>
<path d="M19.371 69H13.352V67.986H15.809V61.226L13.365 62.695V61.512L15.861 59.965H16.927V67.986H19.371V69Z" fill="#17171C"/>
<mask id="path-27-inside-8_311_49660" fill="white">
<path d="M60 40H240V88H60V40Z"/>
</mask>
<path d="M240 40H239V88H240H241V40H240Z" fill="#DBDBE0" mask="url(#path-27-inside-8_311_49660)"/>
<path d="M78.656 69H73.404V68.038H75.445V60.732H73.404V59.783H78.656V60.732H76.615V68.038H78.656V69ZM87.4975 64.372C87.4975 65.62 87.3805 66.777 86.8605 67.609C86.3405 68.454 85.3655 69 83.9225 69H81.1795V59.783H83.9225C85.3655 59.783 86.3535 60.368 86.8735 61.213C87.3935 62.045 87.4975 63.124 87.4975 64.372ZM86.3145 64.372C86.3145 63.189 86.2625 62.11 85.6255 61.46C85.2745 61.096 84.7155 60.849 83.9225 60.849H82.3365V67.934H83.9225C84.7545 67.934 85.3135 67.661 85.6645 67.284C86.2755 66.621 86.3145 65.516 86.3145 64.372ZM94.48 65.594H89.839V64.567H94.48V65.594ZM103.608 66.465C103.608 67.232 103.296 67.817 102.841 68.259C102.204 68.883 101.229 69.169 100.241 69.169C99.1226 69.169 98.2516 68.87 97.6276 68.298C97.0426 67.752 96.6656 66.959 96.6656 66.088H97.8746C97.8746 66.634 98.1346 67.18 98.5116 67.544C98.9276 67.947 99.5906 68.103 100.241 68.103C100.943 68.103 101.515 67.96 101.931 67.57C102.217 67.31 102.399 66.985 102.399 66.491C102.399 65.776 101.97 65.178 100.878 65.009L99.4606 64.788C98.0826 64.58 97.0296 63.813 97.0296 62.344C97.0296 61.655 97.3156 60.992 97.8096 60.524C98.4466 59.926 99.2266 59.614 100.189 59.614C101.086 59.614 101.944 59.887 102.555 60.472C103.114 61.005 103.4 61.681 103.426 62.461H102.217C102.191 62.006 102.035 61.629 101.775 61.33C101.424 60.927 100.891 60.68 100.176 60.68C99.5126 60.68 98.9796 60.875 98.5766 61.33C98.3426 61.603 98.2256 61.902 98.2256 62.318C98.2256 63.15 98.8886 63.527 99.5776 63.618C100.098 63.683 100.566 63.774 101.073 63.852C102.607 64.073 103.608 65.009 103.608 66.465ZM110.564 66.062H111.76C111.682 67.856 110.239 69.182 108.445 69.182C107.522 69.182 106.716 68.831 106.066 68.194C105.026 67.18 104.935 65.763 104.935 64.398C104.935 63.033 105.026 61.616 106.066 60.602C106.716 59.965 107.522 59.614 108.445 59.614C110.226 59.614 111.669 60.862 111.747 62.669H110.538C110.512 62.162 110.291 61.668 110.005 61.369C109.628 60.953 109.082 60.706 108.445 60.706C107.821 60.706 107.314 60.966 106.885 61.408C106.131 62.188 106.131 63.384 106.131 64.398C106.131 65.412 106.131 66.608 106.885 67.388C107.314 67.83 107.821 68.09 108.445 68.09C109.615 68.09 110.538 67.245 110.564 66.062ZM119.354 64.476C119.354 66.218 119.198 67.479 118.288 68.402C117.846 68.844 117.235 69.169 116.338 69.169C115.441 69.169 114.83 68.844 114.388 68.402C113.478 67.479 113.322 66.218 113.322 64.476C113.322 62.734 113.478 61.46 114.388 60.537C114.83 60.095 115.441 59.783 116.338 59.783C117.235 59.783 117.846 60.095 118.288 60.537C119.198 61.46 119.354 62.734 119.354 64.476ZM114.505 66.01L117.898 61.85C117.794 61.603 117.651 61.382 117.456 61.2C117.196 60.953 116.819 60.784 116.338 60.784C115.857 60.784 115.48 60.953 115.22 61.2C114.453 61.928 114.466 63.254 114.466 64.476C114.466 64.983 114.453 65.516 114.505 66.01ZM118.21 64.476C118.21 63.995 118.21 63.501 118.171 63.033L114.817 67.18C114.921 67.401 115.051 67.596 115.22 67.752C115.48 67.999 115.857 68.168 116.338 68.168C116.819 68.168 117.196 67.999 117.456 67.752C118.223 67.024 118.21 65.698 118.21 64.476ZM127.74 69H121.721V67.986H124.178V61.226L121.734 62.695V61.512L124.23 59.965H125.296V67.986H127.74V69Z" fill="#17171C"/>
<mask id="path-30-inside-9_311_49660" fill="white">
<path d="M240 40H420V88H240V40Z"/>
</mask>
<path d="M420 40H419V88H420H421V40H420Z" fill="#DBDBE0" mask="url(#path-30-inside-9_311_49660)"/>
<path d="M258.994 65.517C258.994 66.206 258.76 66.752 258.396 67.181C257.863 67.818 256.979 68.169 256.03 68.169C255.081 68.169 254.197 67.818 253.664 67.181C253.3 66.752 253.066 66.206 253.066 65.517C253.066 64.529 253.651 63.671 254.483 63.294C253.742 62.904 253.248 62.124 253.248 61.253C253.248 60.512 253.547 59.927 253.989 59.511C254.496 59.043 255.237 58.783 256.03 58.783C256.823 58.783 257.564 59.043 258.071 59.511C258.513 59.927 258.812 60.512 258.812 61.253C258.812 62.124 258.318 62.904 257.577 63.294C258.409 63.671 258.994 64.529 258.994 65.517ZM257.694 61.253C257.694 60.33 256.927 59.758 256.03 59.758C255.133 59.758 254.366 60.33 254.366 61.253C254.366 62.085 254.99 62.813 256.03 62.813C257.07 62.813 257.694 62.085 257.694 61.253ZM257.876 65.465C257.876 64.503 257.174 63.775 256.03 63.775C254.886 63.775 254.184 64.503 254.184 65.465C254.184 66.531 254.977 67.194 256.03 67.194C257.083 67.194 257.876 66.531 257.876 65.465ZM267.082 63.346C267.082 64.633 266.939 65.972 266.328 66.947C265.899 67.623 265.08 68.169 263.936 68.169C263.169 68.169 262.48 67.896 262.025 67.428C261.622 67.025 261.323 66.466 261.297 65.803H262.415C262.441 66.245 262.649 66.583 262.922 66.817C263.182 67.051 263.546 67.168 263.975 67.168C264.547 67.168 264.976 66.934 265.249 66.622C265.821 65.972 265.951 64.802 265.964 63.853C265.678 64.477 264.768 64.906 263.91 64.906C263.091 64.906 262.402 64.62 261.973 64.204C261.388 63.645 261.05 62.826 261.05 61.864C261.05 60.954 261.375 60.213 261.882 59.654C262.363 59.134 263.117 58.783 264.053 58.783C265.067 58.783 265.86 59.303 266.302 59.901C266.952 60.798 267.082 62.072 267.082 63.346ZM265.847 61.851C265.847 61.214 265.652 60.707 265.301 60.33C265.015 60.018 264.573 59.784 264.001 59.784C263.429 59.784 263 59.992 262.714 60.304C262.363 60.681 262.168 61.214 262.168 61.851C262.168 62.488 262.376 63.021 262.714 63.398C262.987 63.71 263.455 63.918 264.027 63.918C264.599 63.918 265.054 63.684 265.327 63.372C265.665 62.995 265.847 62.488 265.847 61.851Z" fill="#17171C"/>
<mask id="path-33-inside-10_311_49660" fill="white">
<path d="M420 40H600V88H420V40Z"/>
</mask>
<path d="M600 40H599V88H600H601V40H600Z" fill="#DBDBE0" mask="url(#path-33-inside-10_311_49660)"/>
<path d="M432.52 64.645H437.174V63.423C435.016 63.319 433.664 62.5 433.664 61.174C433.664 59.77 435.224 58.912 437.655 58.912C440.086 58.912 441.646 59.77 441.646 61.174C441.646 62.5 440.294 63.319 438.136 63.423V64.645H442.79V65.438H432.52V64.645ZM433.859 69.689V66.413H434.834V68.883H441.659V69.689H433.859ZM434.665 61.174C434.665 62.097 435.848 62.643 437.655 62.643C439.475 62.643 440.645 62.097 440.645 61.174C440.645 60.277 439.475 59.718 437.655 59.718C435.848 59.718 434.665 60.277 434.665 61.174ZM445.208 59.484H452.865V60.29H446.183V63.904H452.995V64.71H449.498V67.674H454.191V68.493H443.882V67.674H448.536V64.71H445.208V59.484ZM456.701 68.012L455.986 70.417H455.297L455.687 68.012H456.701ZM463.108 65.386H464.07V66.751H469.751V65.386H470.713V69.793H463.108V65.386ZM461.795 64.58V63.787H472.065V64.58H461.795ZM462.393 62.175C464.382 61.902 466.436 60.693 466.436 59.224V58.704H467.437V59.224C467.437 60.654 469.517 61.915 471.48 62.175L471.116 62.942C469.4 62.682 467.658 61.785 466.943 60.511C466.228 61.798 464.486 62.682 462.757 62.942L462.393 62.175ZM464.07 69H469.751V67.518H464.07V69ZM474.484 59.484H482.141V60.29H475.459V63.904H482.271V64.71H478.774V67.674H483.467V68.493H473.158V67.674H477.812V64.71H474.484V59.484ZM485.976 68.012L485.261 70.417H484.572L484.962 68.012H485.976ZM491.071 64.203H501.341V64.996H496.687V66.179C498.832 66.257 500.093 66.907 500.093 68.051C500.093 69.26 498.65 69.923 496.206 69.923C493.749 69.923 492.319 69.26 492.319 68.051C492.319 66.907 493.567 66.257 495.725 66.179V64.996H491.071V64.203ZM491.682 62.812C493.762 62.617 495.595 61.772 495.686 60.472H492.137V59.692H495.725V58.535H496.7V59.692H500.301V60.472H496.739C496.83 61.772 498.65 62.617 500.73 62.812L500.431 63.579C498.585 63.384 496.895 62.708 496.206 61.564C495.517 62.708 493.827 63.384 491.994 63.579L491.682 62.812ZM493.294 68.051C493.294 68.766 494.373 69.182 496.206 69.182C498.026 69.182 499.105 68.766 499.105 68.051C499.105 67.31 498.026 66.907 496.206 66.907C494.373 66.907 493.294 67.31 493.294 68.051ZM508.361 59.341C508.361 59.796 508.309 60.225 508.218 60.628H510.792V58.574H511.767V65.36H510.792V63.839H507.789V63.033H510.792V61.421H507.958C507.191 63.215 505.423 64.515 502.992 65.191L502.602 64.424C505.358 63.67 507.113 62.11 507.321 60.134H503.174V59.341H508.361ZM504.188 66.66V65.867H511.767V69.923H510.792V66.66H504.188Z" fill="#282828"/>
<mask id="path-36-inside-11_311_49660" fill="white">
<path d="M600 40H780V88H600V40Z"/>
</mask>
<path d="M780 40H779V88H780H781V40H780Z" fill="#DBDBE0" mask="url(#path-36-inside-11_311_49660)"/>
<path d="M618.539 61.233H620.879V58.087H621.854V66.407H620.879V62.039H618.539V61.233ZM612.559 64.171C614.223 63.573 615.445 62.065 615.445 60.427V59.816H612.871V59.01H618.942V59.816H616.42V60.414C616.42 61.896 617.577 63.339 619.202 63.911L618.708 64.678C617.434 64.21 616.433 63.248 615.952 62.065C615.471 63.378 614.418 64.444 613.066 64.951L612.559 64.171ZM614.613 69.189V65.679H615.588V68.383H622.179V69.189H614.613ZM628.51 62.585H630.304V58.347H631.214V68.851H630.304V63.391H628.51V62.585ZM623.791 66.355C625.325 65.458 626.235 63.456 626.235 61.584V60.999H624.09V60.193H626.235V58.477H627.171V60.193H629.29V60.999H627.171V61.584C627.171 63.404 628.107 65.289 629.628 66.121L629.069 66.849C627.951 66.225 627.132 65.042 626.716 63.664C626.313 65.133 625.494 66.42 624.363 67.109L623.791 66.355ZM632.579 69.449V58.074H633.515V69.449H632.579ZM638.241 63.872H648.55V64.678H643.961V67.018H642.973V64.678H638.241V63.872ZM639.398 60.648C639.398 59.244 640.984 58.36 643.376 58.36C645.794 58.36 647.354 59.244 647.354 60.648C647.354 62.052 645.794 62.923 643.376 62.923C640.984 62.923 639.398 62.052 639.398 60.648ZM639.567 69.189V65.874H640.542V68.37H647.406V69.189H639.567ZM640.438 60.648C640.438 61.558 641.621 62.117 643.376 62.117C645.144 62.117 646.327 61.558 646.327 60.648C646.327 59.738 645.144 59.166 643.376 59.166C641.621 59.166 640.438 59.738 640.438 60.648ZM654.244 62.052H655.219V63.742H659.873V64.535H649.603V63.742H654.244V62.052ZM650.227 61.857C652.203 61.571 654.244 60.323 654.244 58.776V58.256H655.232V58.776C655.232 60.31 657.286 61.571 659.249 61.857L658.872 62.637C657.169 62.338 655.453 61.441 654.751 60.115C654.036 61.441 652.32 62.338 650.604 62.637L650.227 61.857ZM650.851 67.46C650.851 66.212 652.294 65.51 654.738 65.51C657.169 65.51 658.625 66.212 658.625 67.46C658.625 68.734 657.169 69.423 654.738 69.423C652.294 69.423 650.851 68.734 650.851 67.46ZM651.826 67.46C651.826 68.227 652.918 68.669 654.738 68.669C656.558 68.669 657.637 68.227 657.637 67.46C657.637 66.706 656.558 66.264 654.738 66.264C652.918 66.264 651.826 66.706 651.826 67.46ZM665.274 58.828H672.879V59.816C672.879 60.895 672.879 62.065 672.554 63.716H674.244V64.535H669.577V69.475H668.589V64.535H663.961V63.716H671.566C671.917 62.091 671.917 60.882 671.917 59.816V59.621H665.274V58.828ZM683.163 58.074H684.138V61.545H685.841V62.364H684.138V66.394H683.163V58.074ZM675.35 64.288C678.054 63.443 679.835 61.805 680.043 59.764H675.818V58.958H681.096C681.096 61.883 679.016 64.041 675.766 65.081L675.35 64.288ZM677.079 69.189V65.549H678.054V68.383H684.658V69.189H677.079Z" fill="#282828"/>
<rect width="780" height="48" transform="translate(0 88)" fill="white"/>
<mask id="path-39-inside-12_311_49660" fill="white">
<path d="M0 88H60V136H0V88Z"/>
</mask>
<path d="M60 88H59V136H60H61V88H60Z" fill="#DBDBE0" mask="url(#path-39-inside-12_311_49660)"/>
<path d="M18.877 117H13.378V116.051L17.109 111.54C17.46 111.124 17.603 110.708 17.603 110.24C17.603 109.317 17.031 108.784 16.082 108.784C15.276 108.784 14.509 109.226 14.509 110.422H13.365C13.365 108.849 14.47 107.783 16.069 107.783C17.057 107.783 17.863 108.186 18.318 108.823C18.591 109.213 18.734 109.655 18.734 110.227C18.734 110.942 18.461 111.54 17.967 112.151L14.821 115.96H18.877V117Z" fill="#17171C"/>
<mask id="path-42-inside-13_311_49660" fill="white">
<path d="M60 88H240V136H60V88Z"/>
</mask>
<path d="M240 88H239V136H240H241V88H240Z" fill="#DBDBE0" mask="url(#path-42-inside-13_311_49660)"/>
<path d="M78.656 117H73.404V116.038H75.445V108.732H73.404V107.783H78.656V108.732H76.615V116.038H78.656V117ZM87.4975 112.372C87.4975 113.62 87.3805 114.777 86.8605 115.609C86.3405 116.454 85.3655 117 83.9225 117H81.1795V107.783H83.9225C85.3655 107.783 86.3535 108.368 86.8735 109.213C87.3935 110.045 87.4975 111.124 87.4975 112.372ZM86.3145 112.372C86.3145 111.189 86.2625 110.11 85.6255 109.46C85.2745 109.096 84.7155 108.849 83.9225 108.849H82.3365V115.934H83.9225C84.7545 115.934 85.3135 115.661 85.6645 115.284C86.2755 114.621 86.3145 113.516 86.3145 112.372ZM94.48 113.594H89.839V112.567H94.48V113.594ZM103.608 114.465C103.608 115.232 103.296 115.817 102.841 116.259C102.204 116.883 101.229 117.169 100.241 117.169C99.1226 117.169 98.2516 116.87 97.6276 116.298C97.0426 115.752 96.6656 114.959 96.6656 114.088H97.8746C97.8746 114.634 98.1346 115.18 98.5116 115.544C98.9276 115.947 99.5906 116.103 100.241 116.103C100.943 116.103 101.515 115.96 101.931 115.57C102.217 115.31 102.399 114.985 102.399 114.491C102.399 113.776 101.97 113.178 100.878 113.009L99.4606 112.788C98.0826 112.58 97.0296 111.813 97.0296 110.344C97.0296 109.655 97.3156 108.992 97.8096 108.524C98.4466 107.926 99.2266 107.614 100.189 107.614C101.086 107.614 101.944 107.887 102.555 108.472C103.114 109.005 103.4 109.681 103.426 110.461H102.217C102.191 110.006 102.035 109.629 101.775 109.33C101.424 108.927 100.891 108.68 100.176 108.68C99.5126 108.68 98.9796 108.875 98.5766 109.33C98.3426 109.603 98.2256 109.902 98.2256 110.318C98.2256 111.15 98.8886 111.527 99.5776 111.618C100.098 111.683 100.566 111.774 101.073 111.852C102.607 112.073 103.608 113.009 103.608 114.465ZM110.564 114.062H111.76C111.682 115.856 110.239 117.182 108.445 117.182C107.522 117.182 106.716 116.831 106.066 116.194C105.026 115.18 104.935 113.763 104.935 112.398C104.935 111.033 105.026 109.616 106.066 108.602C106.716 107.965 107.522 107.614 108.445 107.614C110.226 107.614 111.669 108.862 111.747 110.669H110.538C110.512 110.162 110.291 109.668 110.005 109.369C109.628 108.953 109.082 108.706 108.445 108.706C107.821 108.706 107.314 108.966 106.885 109.408C106.131 110.188 106.131 111.384 106.131 112.398C106.131 113.412 106.131 114.608 106.885 115.388C107.314 115.83 107.821 116.09 108.445 116.09C109.615 116.09 110.538 115.245 110.564 114.062ZM119.354 112.476C119.354 114.218 119.198 115.479 118.288 116.402C117.846 116.844 117.235 117.169 116.338 117.169C115.441 117.169 114.83 116.844 114.388 116.402C113.478 115.479 113.322 114.218 113.322 112.476C113.322 110.734 113.478 109.46 114.388 108.537C114.83 108.095 115.441 107.783 116.338 107.783C117.235 107.783 117.846 108.095 118.288 108.537C119.198 109.46 119.354 110.734 119.354 112.476ZM114.505 114.01L117.898 109.85C117.794 109.603 117.651 109.382 117.456 109.2C117.196 108.953 116.819 108.784 116.338 108.784C115.857 108.784 115.48 108.953 115.22 109.2C114.453 109.928 114.466 111.254 114.466 112.476C114.466 112.983 114.453 113.516 114.505 114.01ZM118.21 112.476C118.21 111.995 118.21 111.501 118.171 111.033L114.817 115.18C114.921 115.401 115.051 115.596 115.22 115.752C115.48 115.999 115.857 116.168 116.338 116.168C116.819 116.168 117.196 115.999 117.456 115.752C118.223 115.024 118.21 113.698 118.21 112.476ZM127.701 115.076H126.479V117H125.361V115.076H121.084V113.88L124.646 107.965H125.842L122.176 114.075H125.361V111.384H126.479V114.075H127.701V115.076Z" fill="#17171C"/>
<mask id="path-45-inside-14_311_49660" fill="white">
<path d="M240 88H420V136H240V88Z"/>
</mask>
<path d="M420 88H419V136H420H421V88H420Z" fill="#DBDBE0" mask="url(#path-45-inside-14_311_49660)"/>
<path d="M259.111 107.966L255.315 116H254.119L257.915 107.966H253.053V106.965H259.111V107.966ZM267.433 116H261.414V114.986H263.871V108.226L261.427 109.695V108.512L263.923 106.965H264.989V114.986H267.433V116Z" fill="#17171C"/>
<mask id="path-48-inside-15_311_49660" fill="white">
<path d="M420 88H600V136H420V88Z"/>
</mask>
<path d="M600 88H599V136H600H601V88H600Z" fill="#DBDBE0" mask="url(#path-48-inside-15_311_49660)"/>
<path d="M432.52 112.203H442.79V112.996H438.136V114.179C440.281 114.257 441.542 114.907 441.542 116.051C441.542 117.26 440.099 117.923 437.655 117.923C435.198 117.923 433.768 117.26 433.768 116.051C433.768 114.907 435.016 114.257 437.174 114.179V112.996H432.52V112.203ZM433.131 110.812C435.211 110.617 437.044 109.772 437.135 108.472H433.586V107.692H437.174V106.535H438.149V107.692H441.75V108.472H438.188C438.279 109.772 440.099 110.617 442.179 110.812L441.88 111.579C440.034 111.384 438.344 110.708 437.655 109.564C436.966 110.708 435.276 111.384 433.443 111.579L433.131 110.812ZM434.743 116.051C434.743 116.766 435.822 117.182 437.655 117.182C439.475 117.182 440.554 116.766 440.554 116.051C440.554 115.31 439.475 114.907 437.655 114.907C435.822 114.907 434.743 115.31 434.743 116.051ZM449.81 107.341C449.81 107.796 449.758 108.225 449.667 108.628H452.241V106.574H453.216V113.36H452.241V111.839H449.238V111.033H452.241V109.421H449.407C448.64 111.215 446.872 112.515 444.441 113.191L444.051 112.424C446.807 111.67 448.562 110.11 448.77 108.134H444.623V107.341H449.81ZM445.637 114.66V113.867H453.216V117.923H452.241V114.66H445.637Z" fill="#282828"/>
<mask id="path-51-inside-16_311_49660" fill="white">
<path d="M600 88H780V136H600V88Z"/>
</mask>
<path d="M780 88H779V136H780H781V88H780Z" fill="#DBDBE0" mask="url(#path-51-inside-16_311_49660)"/>
<path d="M615.523 107.075H616.498V109.142C616.498 111.222 617.915 113.315 619.553 114.082L618.968 114.862C617.681 114.225 616.563 112.86 616.03 111.222C615.51 112.951 614.379 114.407 613.053 115.07L612.455 114.264C614.106 113.471 615.523 111.3 615.523 109.142V107.075ZM620.814 117.462V106.061H621.789V117.462H620.814ZM626.43 107.036C627.912 107.036 628.861 108.557 628.861 110.975C628.861 113.406 627.912 114.927 626.43 114.927C624.974 114.927 624.025 113.406 624.025 110.975C624.025 108.557 624.974 107.036 626.43 107.036ZM624.935 110.975C624.935 112.834 625.52 114.017 626.43 114.017C627.366 114.017 627.951 112.834 627.951 110.975C627.951 109.116 627.366 107.946 626.43 107.946C625.52 107.946 624.935 109.116 624.935 110.975ZM630.07 116.864V106.334H630.993V110.598H632.592V106.074H633.528V117.449H632.592V111.404H630.993V116.864H630.07ZM636.61 106.373H644.241V107.088H637.585V108.037H643.942V108.726H637.585V109.74H644.306V110.455H636.61V106.373ZM635.258 112.106V111.352H645.515V112.106H635.258ZM636.493 113.731V113.016H644.189V115.46H637.481V116.591H644.54V117.319H636.532V114.758H643.24V113.731H636.493ZM657.975 106.061H658.937V117.462H657.975V111.196H655.57V110.403H657.975V106.061ZM650.123 114.719V107.127H655.375V107.933H651.085V110.312H654.868V111.105H651.085V113.9C653.191 113.9 654.53 113.848 656.09 113.549L656.194 114.355C654.556 114.641 653.178 114.719 650.981 114.719H650.123ZM661.615 107.192H666.815V114.576H661.615V107.192ZM662.577 113.783H665.879V107.985H662.577V113.783ZM669.272 117.462V106.061H670.247V117.462H669.272ZM672.991 106.62H673.966V110.65C675.747 110.65 677.242 110.546 678.906 110.208L679.049 111.027C677.281 111.365 675.747 111.469 673.875 111.469H672.991V106.62ZM674.369 113.302V112.509H681.675V115.2H675.357V116.5H682.091V117.293H674.395V114.459H680.7V113.302H674.369ZM677.411 108.804V107.985H680.7V106.074H681.675V111.963H680.7V108.804H677.411ZM694.447 106.074H695.422V110.78H697.307V111.599H695.422V117.449H694.447V106.074ZM686.621 108.713V107.907H689.533V106.204H690.521V107.907H693.355V108.713H686.621ZM687.284 112.288C687.284 110.754 688.454 109.688 690.04 109.688C691.639 109.688 692.796 110.754 692.796 112.288C692.796 113.822 691.639 114.888 690.04 114.888C688.454 114.888 687.284 113.822 687.284 112.288ZM688.22 112.288C688.22 113.328 688.974 114.069 690.04 114.069C691.093 114.069 691.86 113.328 691.86 112.288C691.86 111.248 691.093 110.494 690.04 110.494C688.974 110.494 688.22 111.248 688.22 112.288ZM699.803 113.419H707.382V117.449H706.407V114.199H699.803V113.419ZM698.217 109.441C698.217 107.842 699.465 106.724 701.142 106.724C702.13 106.724 702.962 107.114 703.482 107.764H706.407V106.074H707.382V112.769H706.407V111.131H703.469C702.949 111.768 702.117 112.158 701.142 112.158C699.465 112.158 698.217 111.04 698.217 109.441ZM699.14 109.441C699.14 110.559 699.998 111.326 701.142 111.326C702.273 111.326 703.118 110.559 703.118 109.441C703.118 108.349 702.273 107.556 701.142 107.556C699.998 107.556 699.14 108.349 699.14 109.441ZM703.911 110.325H706.407V108.57H703.924C704.002 108.843 704.054 109.129 704.054 109.441C704.054 109.753 704.002 110.052 703.911 110.325Z" fill="#282828"/>
<rect width="780" height="48" transform="translate(0 136)" fill="#F5F5F5"/>
<mask id="path-54-inside-17_311_49660" fill="white">
<path d="M0 136H60V184H0V136Z"/>
</mask>
<path d="M60 136H59V184H60H61V136H60Z" fill="#DBDBE0" mask="url(#path-54-inside-17_311_49660)"/>
<path d="M18.838 162.53C18.838 163.232 18.591 163.882 18.149 164.35C17.668 164.857 16.94 165.169 15.926 165.169C15.055 165.169 14.327 164.857 13.82 164.35C13.352 163.882 13.066 163.245 13.053 162.413H14.184C14.21 162.92 14.353 163.349 14.652 163.661C14.925 163.96 15.354 164.168 15.926 164.168C16.472 164.168 16.966 163.999 17.278 163.648C17.525 163.375 17.707 162.998 17.707 162.504C17.707 161.399 16.914 160.827 15.809 160.827H15.224V159.8H15.809C16.849 159.8 17.512 159.228 17.512 158.279C17.512 157.863 17.369 157.499 17.083 157.226C16.836 156.979 16.433 156.784 15.939 156.784C15.445 156.784 15.068 156.927 14.795 157.148C14.444 157.434 14.262 157.876 14.249 158.422H13.118C13.131 157.525 13.456 156.875 13.989 156.433C14.496 156.017 15.185 155.783 15.965 155.783C16.719 155.783 17.447 156.056 17.928 156.511C18.383 156.927 18.656 157.499 18.656 158.279C18.656 159.124 18.071 160.008 17.33 160.32C18.292 160.645 18.838 161.594 18.838 162.53Z" fill="#17171C"/>
<mask id="path-57-inside-18_311_49660" fill="white">
<path d="M60 136H240V184H60V136Z"/>
</mask>
<path d="M240 136H239V184H240H241V136H240Z" fill="#DBDBE0" mask="url(#path-57-inside-18_311_49660)"/>
<path d="M78.656 165H73.404V164.038H75.445V156.732H73.404V155.783H78.656V156.732H76.615V164.038H78.656V165ZM87.4975 160.372C87.4975 161.62 87.3805 162.777 86.8605 163.609C86.3405 164.454 85.3655 165 83.9225 165H81.1795V155.783H83.9225C85.3655 155.783 86.3535 156.368 86.8735 157.213C87.3935 158.045 87.4975 159.124 87.4975 160.372ZM86.3145 160.372C86.3145 159.189 86.2625 158.11 85.6255 157.46C85.2745 157.096 84.7155 156.849 83.9225 156.849H82.3365V163.934H83.9225C84.7545 163.934 85.3135 163.661 85.6645 163.284C86.2755 162.621 86.3145 161.516 86.3145 160.372ZM94.48 161.594H89.839V160.567H94.48V161.594ZM103.608 162.465C103.608 163.232 103.296 163.817 102.841 164.259C102.204 164.883 101.229 165.169 100.241 165.169C99.1226 165.169 98.2516 164.87 97.6276 164.298C97.0426 163.752 96.6656 162.959 96.6656 162.088H97.8746C97.8746 162.634 98.1346 163.18 98.5116 163.544C98.9276 163.947 99.5906 164.103 100.241 164.103C100.943 164.103 101.515 163.96 101.931 163.57C102.217 163.31 102.399 162.985 102.399 162.491C102.399 161.776 101.97 161.178 100.878 161.009L99.4606 160.788C98.0826 160.58 97.0296 159.813 97.0296 158.344C97.0296 157.655 97.3156 156.992 97.8096 156.524C98.4466 155.926 99.2266 155.614 100.189 155.614C101.086 155.614 101.944 155.887 102.555 156.472C103.114 157.005 103.4 157.681 103.426 158.461H102.217C102.191 158.006 102.035 157.629 101.775 157.33C101.424 156.927 100.891 156.68 100.176 156.68C99.5126 156.68 98.9796 156.875 98.5766 157.33C98.3426 157.603 98.2256 157.902 98.2256 158.318C98.2256 159.15 98.8886 159.527 99.5776 159.618C100.098 159.683 100.566 159.774 101.073 159.852C102.607 160.073 103.608 161.009 103.608 162.465ZM110.564 162.062H111.76C111.682 163.856 110.239 165.182 108.445 165.182C107.522 165.182 106.716 164.831 106.066 164.194C105.026 163.18 104.935 161.763 104.935 160.398C104.935 159.033 105.026 157.616 106.066 156.602C106.716 155.965 107.522 155.614 108.445 155.614C110.226 155.614 111.669 156.862 111.747 158.669H110.538C110.512 158.162 110.291 157.668 110.005 157.369C109.628 156.953 109.082 156.706 108.445 156.706C107.821 156.706 107.314 156.966 106.885 157.408C106.131 158.188 106.131 159.384 106.131 160.398C106.131 161.412 106.131 162.608 106.885 163.388C107.314 163.83 107.821 164.09 108.445 164.09C109.615 164.09 110.538 163.245 110.564 162.062ZM119.354 160.476C119.354 162.218 119.198 163.479 118.288 164.402C117.846 164.844 117.235 165.169 116.338 165.169C115.441 165.169 114.83 164.844 114.388 164.402C113.478 163.479 113.322 162.218 113.322 160.476C113.322 158.734 113.478 157.46 114.388 156.537C114.83 156.095 115.441 155.783 116.338 155.783C117.235 155.783 117.846 156.095 118.288 156.537C119.198 157.46 119.354 158.734 119.354 160.476ZM114.505 162.01L117.898 157.85C117.794 157.603 117.651 157.382 117.456 157.2C117.196 156.953 116.819 156.784 116.338 156.784C115.857 156.784 115.48 156.953 115.22 157.2C114.453 157.928 114.466 159.254 114.466 160.476C114.466 160.983 114.453 161.516 114.505 162.01ZM118.21 160.476C118.21 159.995 118.21 159.501 118.171 159.033L114.817 163.18C114.921 163.401 115.051 163.596 115.22 163.752C115.48 163.999 115.857 164.168 116.338 164.168C116.819 164.168 117.196 163.999 117.456 163.752C118.223 163.024 118.21 161.698 118.21 160.476ZM127.246 165H121.747V164.051L125.478 159.54C125.829 159.124 125.972 158.708 125.972 158.24C125.972 157.317 125.4 156.784 124.451 156.784C123.645 156.784 122.878 157.226 122.878 158.422H121.734C121.734 156.849 122.839 155.783 124.438 155.783C125.426 155.783 126.232 156.186 126.687 156.823C126.96 157.213 127.103 157.655 127.103 158.227C127.103 158.942 126.83 159.54 126.336 160.151L123.19 163.96H127.246V165Z" fill="#17171C"/>
<mask id="path-60-inside-19_311_49660" fill="white">
<path d="M240 136H420V184H240V136Z"/>
</mask>
<path d="M420 136H419V184H420H421V136H420Z" fill="#DBDBE0" mask="url(#path-60-inside-19_311_49660)"/>
<path d="M259.111 155.966L255.315 164H254.119L257.915 155.966H253.053V154.965H259.111V155.966ZM267.433 164H261.414V162.986H263.871V156.226L261.427 157.695V156.512L263.923 154.965H264.989V162.986H267.433V164Z" fill="#17171C"/>
<mask id="path-63-inside-20_311_49660" fill="white">
<path d="M420 136H600V184H420V136Z"/>
</mask>
<path d="M600 136H599V184H600H601V136H600Z" fill="#DBDBE0" mask="url(#path-63-inside-20_311_49660)"/>
<path d="M432.52 160.645H437.174V159.423C435.016 159.319 433.664 158.5 433.664 157.174C433.664 155.77 435.224 154.912 437.655 154.912C440.086 154.912 441.646 155.77 441.646 157.174C441.646 158.5 440.294 159.319 438.136 159.423V160.645H442.79V161.438H432.52V160.645ZM433.859 165.689V162.413H434.834V164.883H441.659V165.689H433.859ZM434.665 157.174C434.665 158.097 435.848 158.643 437.655 158.643C439.475 158.643 440.645 158.097 440.645 157.174C440.645 156.277 439.475 155.718 437.655 155.718C435.848 155.718 434.665 156.277 434.665 157.174ZM445.208 155.484H452.865V156.29H446.183V159.904H452.995V160.71H449.498V163.674H454.191V164.493H443.882V163.674H448.536V160.71H445.208V155.484ZM466.6 154.587H467.575V162.998H466.6V159.93H463.922V161.048H458.813V155.328H459.775V157.369H462.96V155.328H463.922V156.68H466.6V154.587ZM459.775 160.242H462.96V158.136H459.775V160.242ZM460.295 165.689V162.179H461.27V164.883H467.848V165.689H460.295ZM463.922 159.124H466.6V157.486H463.922V159.124ZM477.364 154.574H478.339V159.423H480.146V160.255H478.339V165.949H477.364V154.574ZM469.473 162.92C470.396 162.92 471.475 162.92 472.593 162.881V161.62C471.28 161.464 470.409 160.697 470.409 159.553C470.409 158.279 471.501 157.447 473.074 157.447C474.66 157.447 475.752 158.279 475.752 159.553C475.752 160.684 474.881 161.464 473.568 161.62V162.842C474.621 162.79 475.674 162.712 476.662 162.569L476.74 163.284C474.283 163.739 471.605 163.752 469.629 163.752L469.473 162.92ZM469.668 156.758V155.965H472.593V154.587H473.568V155.965H476.48V156.758H469.668ZM471.332 159.553C471.332 160.359 472.034 160.879 473.074 160.879C474.127 160.879 474.829 160.359 474.829 159.553C474.829 158.734 474.127 158.201 473.074 158.201C472.034 158.201 471.332 158.734 471.332 159.553ZM481.797 160.307C481.797 158.669 482.447 156.485 483.37 155.029H484.423C483.383 156.459 482.655 158.63 482.655 160.307C482.655 161.984 483.383 164.155 484.423 165.585H483.37C482.447 164.129 481.797 161.945 481.797 160.307ZM488.884 154.964C489.885 154.964 490.73 155.341 491.25 155.965H494.149V154.574H495.111V160.411H494.149V159.098H491.289C490.769 159.748 489.911 160.138 488.884 160.138C487.194 160.138 485.972 159.072 485.972 157.551C485.972 156.03 487.194 154.964 488.884 154.964ZM486.895 157.551C486.895 158.591 487.74 159.345 488.884 159.345C490.028 159.345 490.873 158.591 490.873 157.551C490.873 156.524 490.028 155.77 488.884 155.77C487.74 155.77 486.895 156.524 486.895 157.551ZM487.818 161.789V161.009H495.111V163.713H488.806V165.013H495.553V165.793H487.844V162.972H494.149V161.789H487.818ZM491.679 156.745C491.77 156.992 491.809 157.265 491.809 157.551C491.809 157.824 491.77 158.084 491.692 158.318H494.149V156.745H491.679ZM497.152 160.203H507.422V160.996H502.768V162.179C504.913 162.257 506.174 162.907 506.174 164.051C506.174 165.26 504.731 165.923 502.287 165.923C499.83 165.923 498.4 165.26 498.4 164.051C498.4 162.907 499.648 162.257 501.806 162.179V160.996H497.152V160.203ZM497.763 158.812C499.843 158.617 501.676 157.772 501.767 156.472H498.218V155.692H501.806V154.535H502.781V155.692H506.382V156.472H502.82C502.911 157.772 504.731 158.617 506.811 158.812L506.512 159.579C504.666 159.384 502.976 158.708 502.287 157.564C501.598 158.708 499.908 159.384 498.075 159.579L497.763 158.812ZM499.375 164.051C499.375 164.766 500.454 165.182 502.287 165.182C504.107 165.182 505.186 164.766 505.186 164.051C505.186 163.31 504.107 162.907 502.287 162.907C500.454 162.907 499.375 163.31 499.375 164.051ZM514.442 155.341C514.442 155.796 514.39 156.225 514.299 156.628H516.873V154.574H517.848V161.36H516.873V159.839H513.87V159.033H516.873V157.421H514.039C513.272 159.215 511.504 160.515 509.073 161.191L508.683 160.424C511.439 159.67 513.194 158.11 513.402 156.134H509.255V155.341H514.442ZM510.269 162.66V161.867H517.848V165.923H516.873V162.66H510.269ZM522.814 160.307C522.814 161.958 522.164 164.129 521.254 165.585H520.201C521.228 164.168 521.956 161.984 521.956 160.307C521.956 158.63 521.228 156.446 520.201 155.029H521.254C522.164 156.485 522.814 158.656 522.814 160.307Z" fill="#282828"/>
<mask id="path-66-inside-21_311_49660" fill="white">
<path d="M600 136H780V184H600V136Z"/>
</mask>
<path d="M780 136H779V184H780H781V136H780Z" fill="#DBDBE0" mask="url(#path-66-inside-21_311_49660)"/>
<path d="M612.52 159.963H617.174V158.572H613.898V154.347H614.86V155.66H620.476V154.347H621.451V158.572H618.136V159.963H622.79V160.769H612.52V159.963ZM613.664 162.719V161.926H621.516V165.449H620.554V162.719H613.664ZM614.86 157.792H620.476V156.427H614.86V157.792ZM631.721 154.074H632.696V156.986H634.399V157.818H632.696V160.678H631.721V154.074ZM623.921 156.05V155.257H626.794V153.957H627.769V155.257H630.642V156.05H623.921ZM624.571 158.585C624.571 157.376 625.65 156.596 627.275 156.596C628.9 156.596 629.992 157.376 629.992 158.585C629.992 159.807 628.9 160.587 627.275 160.587C625.65 160.587 624.571 159.807 624.571 158.585ZM625.494 158.585C625.494 159.339 626.209 159.846 627.275 159.846C628.341 159.846 629.056 159.339 629.056 158.585C629.056 157.844 628.341 157.337 627.275 157.337C626.209 157.337 625.494 157.844 625.494 158.585ZM625.572 165.293V161.185H626.534V162.433H631.734V161.185H632.696V165.293H625.572ZM626.534 164.5H631.734V163.187H626.534V164.5ZM638.241 159.872H648.55V160.678H643.961V163.018H642.973V160.678H638.241V159.872ZM639.398 156.648C639.398 155.244 640.984 154.36 643.376 154.36C645.794 154.36 647.354 155.244 647.354 156.648C647.354 158.052 645.794 158.923 643.376 158.923C640.984 158.923 639.398 158.052 639.398 156.648ZM639.567 165.189V161.874H640.542V164.37H647.406V165.189H639.567ZM640.438 156.648C640.438 157.558 641.621 158.117 643.376 158.117C645.144 158.117 646.327 157.558 646.327 156.648C646.327 155.738 645.144 155.166 643.376 155.166C641.621 155.166 640.438 155.738 640.438 156.648ZM654.244 158.052H655.219V159.742H659.873V160.535H649.603V159.742H654.244V158.052ZM650.227 157.857C652.203 157.571 654.244 156.323 654.244 154.776V154.256H655.232V154.776C655.232 156.31 657.286 157.571 659.249 157.857L658.872 158.637C657.169 158.338 655.453 157.441 654.751 156.115C654.036 157.441 652.32 158.338 650.604 158.637L650.227 157.857ZM650.851 163.46C650.851 162.212 652.294 161.51 654.738 161.51C657.169 161.51 658.625 162.212 658.625 163.46C658.625 164.734 657.169 165.423 654.738 165.423C652.294 165.423 650.851 164.734 650.851 163.46ZM651.826 163.46C651.826 164.227 652.918 164.669 654.738 164.669C656.558 164.669 657.637 164.227 657.637 163.46C657.637 162.706 656.558 162.264 654.738 162.264C652.918 162.264 651.826 162.706 651.826 163.46ZM669.98 157.233H672.32V154.087H673.295V162.407H672.32V158.039H669.98V157.233ZM664 160.171C665.664 159.573 666.886 158.065 666.886 156.427V155.816H664.312V155.01H670.383V155.816H667.861V156.414C667.861 157.896 669.018 159.339 670.643 159.911L670.149 160.678C668.875 160.21 667.874 159.248 667.393 158.065C666.912 159.378 665.859 160.444 664.507 160.951L664 160.171ZM666.054 165.189V161.679H667.029V164.383H673.62V165.189H666.054ZM683.137 154.074H684.112V158.065H685.815V158.884H684.112V162.966H683.137V154.074ZM675.272 160.847C676.182 160.847 677.235 160.834 678.353 160.795V159.911C677.04 159.794 676.195 159.157 676.195 158.182C676.195 157.103 677.235 156.44 678.821 156.44C680.407 156.44 681.46 157.103 681.46 158.182C681.46 159.157 680.628 159.794 679.315 159.911V160.756C680.381 160.691 681.46 160.6 682.448 160.444L682.526 161.146C680.108 161.588 677.378 161.64 675.402 161.64L675.272 160.847ZM675.558 155.946V155.205H678.353V154.022H679.315V155.205H682.097V155.946H675.558ZM676.975 165.189V162.381H677.95V164.383H684.515V165.189H676.975ZM677.118 158.182C677.118 158.832 677.781 159.235 678.821 159.235C679.874 159.235 680.537 158.832 680.537 158.182C680.537 157.545 679.874 157.142 678.821 157.142C677.781 157.142 677.118 157.545 677.118 158.182ZM690.995 154.828H698.6V155.816C698.6 156.895 698.6 158.065 698.275 159.716H699.965V160.535H695.298V165.475H694.31V160.535H689.682V159.716H697.287C697.638 158.091 697.638 156.882 697.638 155.816V155.621H690.995V154.828ZM708.883 154.074H709.858V157.545H711.561V158.364H709.858V162.394H708.883V154.074ZM701.07 160.288C703.774 159.443 705.555 157.805 705.763 155.764H701.538V154.958H706.816C706.816 157.883 704.736 160.041 701.486 161.081L701.07 160.288ZM702.799 165.189V161.549H703.774V164.383H710.378V165.189H702.799Z" fill="#282828"/>
</g>
<path d="M10 0.5H770C775.247 0.5 779.5 4.75329 779.5 10V174C779.5 179.247 775.247 183.5 770 183.5H10C4.7533 183.5 0.5 179.247 0.5 174V10C0.5 4.75329 4.7533 0.5 10 0.5Z" stroke="#DCDCE0"/>
<defs>
<clipPath id="clip0_311_49660">
<path d="M0 10C0 4.47715 4.47715 0 10 0H770C775.523 0 780 4.47715 780 10V174C780 179.523 775.523 184 770 184H9.99998C4.47713 184 0 179.523 0 174V10Z" fill="white"/>
</clipPath>
</defs>
</svg>
