<svg width="34" height="34" viewBox="0 0 34 34" fill="none" xmlns="http://www.w3.org/2000/svg">
<g filter="url(#filter0_d_1455_16108)">
<path d="M5 7C5 4.79086 6.79086 3 9 3H25C27.2091 3 29 4.79086 29 7V23C29 25.2091 27.2091 27 25 27H9C6.79086 27 5 25.2091 5 23V7Z" fill="#DBEAFE" shape-rendering="crispEdges"/>
<path d="M25 2.5C27.4853 2.5 29.5 4.51472 29.5 7V23C29.5 25.4853 27.4853 27.5 25 27.5H9C6.51472 27.5 4.5 25.4853 4.5 23V7C4.5 4.51472 6.51472 2.5 9 2.5H25Z" stroke="white" shape-rendering="crispEdges"/>
<path d="M23.6654 17.6663V16.333L17.9987 12.9997V9.33301C17.9987 8.77967 17.552 8.33301 16.9987 8.33301C16.4454 8.33301 15.9987 8.77967 15.9987 9.33301V12.9997L10.332 16.333V17.6663L15.9987 15.9997V19.6663L14.332 20.6663V21.6663L16.9987 20.9997L19.6654 21.6663V20.6663L17.9987 19.6663V15.9997L23.6654 17.6663Z" fill="#1E6EE1"/>
</g>
<defs>
<filter id="filter0_d_1455_16108" x="0" y="0" width="34" height="34" filterUnits="userSpaceOnUse" color-interpolation-filters="sRGB">
<feFlood flood-opacity="0" result="BackgroundImageFix"/>
<feColorMatrix in="SourceAlpha" type="matrix" values="0 0 0 0 0 0 0 0 0 0 0 0 0 0 0 0 0 0 127 0" result="hardAlpha"/>
<feOffset dy="2"/>
<feGaussianBlur stdDeviation="2"/>
<feComposite in2="hardAlpha" operator="out"/>
<feColorMatrix type="matrix" values="0 0 0 0 0 0 0 0 0 0 0 0 0 0 0 0 0 0 0.16 0"/>
<feBlend mode="normal" in2="BackgroundImageFix" result="effect1_dropShadow_1455_16108"/>
<feBlend mode="normal" in="SourceGraphic" in2="effect1_dropShadow_1455_16108" result="shape"/>
</filter>
</defs>
</svg>
