<svg width="34" height="34" viewBox="0 0 34 34" fill="none" xmlns="http://www.w3.org/2000/svg">
<g filter="url(#filter0_d_1455_16119)">
<path d="M5 7C5 4.79086 6.79086 3 9 3H25C27.2091 3 29 4.79086 29 7V23C29 25.2091 27.2091 27 25 27H9C6.79086 27 5 25.2091 5 23V7Z" fill="#DBEAFE" shape-rendering="crispEdges"/>
<path d="M25 2.5C27.4853 2.5 29.5 4.51472 29.5 7V23C29.5 25.4853 27.4853 27.5 25 27.5H9C6.51472 27.5 4.5 25.4853 4.5 23V7C4.5 4.51472 6.51472 2.5 9 2.5H25Z" stroke="white" shape-rendering="crispEdges"/>
<g clip-path="url(#clip0_1455_16119)">
<path d="M22.3333 12.3332H20.3333V9.6665H11C10.2667 9.6665 9.66667 10.2665 9.66667 10.9998V18.3332H11C11 19.4398 11.8933 20.3332 13 20.3332C14.1067 20.3332 15 19.4398 15 18.3332H19C19 19.4398 19.8933 20.3332 21 20.3332C22.1067 20.3332 23 19.4398 23 18.3332H24.3333V14.9998L22.3333 12.3332ZM13 19.3332C12.4467 19.3332 12 18.8865 12 18.3332C12 17.7798 12.4467 17.3332 13 17.3332C13.5533 17.3332 14 17.7798 14 18.3332C14 18.8865 13.5533 19.3332 13 19.3332ZM22 13.3332L23.3067 14.9998H20.3333V13.3332H22ZM21 19.3332C20.4467 19.3332 20 18.8865 20 18.3332C20 17.7798 20.4467 17.3332 21 17.3332C21.5533 17.3332 22 17.7798 22 18.3332C22 18.8865 21.5533 19.3332 21 19.3332Z" fill="#1E6EE1"/>
</g>
</g>
<defs>
<filter id="filter0_d_1455_16119" x="0" y="0" width="34" height="34" filterUnits="userSpaceOnUse" color-interpolation-filters="sRGB">
<feFlood flood-opacity="0" result="BackgroundImageFix"/>
<feColorMatrix in="SourceAlpha" type="matrix" values="0 0 0 0 0 0 0 0 0 0 0 0 0 0 0 0 0 0 127 0" result="hardAlpha"/>
<feOffset dy="2"/>
<feGaussianBlur stdDeviation="2"/>
<feComposite in2="hardAlpha" operator="out"/>
<feColorMatrix type="matrix" values="0 0 0 0 0 0 0 0 0 0 0 0 0 0 0 0 0 0 0.16 0"/>
<feBlend mode="normal" in2="BackgroundImageFix" result="effect1_dropShadow_1455_16119"/>
<feBlend mode="normal" in="SourceGraphic" in2="effect1_dropShadow_1455_16119" result="shape"/>
</filter>
<clipPath id="clip0_1455_16119">
<rect width="16" height="16" fill="white" transform="translate(9 7)"/>
</clipPath>
</defs>
</svg>
