<svg width="20" height="20" viewBox="0 0 20 20" fill="none" xmlns="http://www.w3.org/2000/svg">
<g clip-path="url(#clip0_100_29517)">
<path d="M18.3307 7.5V5.83333H16.6641V4.16667C16.6641 3.25 15.9141 2.5 14.9974 2.5H3.33073C2.41406 2.5 1.66406 3.25 1.66406 4.16667V15.8333C1.66406 16.75 2.41406 17.5 3.33073 17.5H14.9974C15.9141 17.5 16.6641 16.75 16.6641 15.8333V14.1667H18.3307V12.5H16.6641V10.8333H18.3307V9.16667H16.6641V7.5H18.3307ZM14.9974 15.8333H3.33073V4.16667H14.9974V15.8333ZM4.9974 10.8333H9.16406V14.1667H4.9974V10.8333ZM9.9974 5.83333H13.3307V8.33333H9.9974V5.83333ZM4.9974 5.83333H9.16406V10H4.9974V5.83333ZM9.9974 9.16667H13.3307V14.1667H9.9974V9.16667Z" fill="#909097"/>
</g>
<defs>
<clipPath id="clip0_100_29517">
<rect width="20" height="20" fill="white"/>
</clipPath>
</defs>
</svg>
