<svg width="20" height="20" viewBox="0 0 20 20" fill="none" xmlns="http://www.w3.org/2000/svg">
<g clip-path="url(#clip0_100_29511)">
<path d="M16.6654 6.66927H14.1654V3.33594H2.4987C1.58203 3.33594 0.832031 4.08594 0.832031 5.0026V14.1693H2.4987C2.4987 15.5526 3.61536 16.6693 4.9987 16.6693C6.38203 16.6693 7.4987 15.5526 7.4987 14.1693H12.4987C12.4987 15.5526 13.6154 16.6693 14.9987 16.6693C16.382 16.6693 17.4987 15.5526 17.4987 14.1693H19.1654V10.0026L16.6654 6.66927ZM4.9987 15.4193C4.30703 15.4193 3.7487 14.8609 3.7487 14.1693C3.7487 13.4776 4.30703 12.9193 4.9987 12.9193C5.69036 12.9193 6.2487 13.4776 6.2487 14.1693C6.2487 14.8609 5.69036 15.4193 4.9987 15.4193ZM16.2487 7.91927L17.882 10.0026H14.1654V7.91927H16.2487ZM14.9987 15.4193C14.307 15.4193 13.7487 14.8609 13.7487 14.1693C13.7487 13.4776 14.307 12.9193 14.9987 12.9193C15.6904 12.9193 16.2487 13.4776 16.2487 14.1693C16.2487 14.8609 15.6904 15.4193 14.9987 15.4193Z" fill="#909097"/>
</g>
<defs>
<clipPath id="clip0_100_29511">
<rect width="20" height="20" fill="white"/>
</clipPath>
</defs>
</svg>
