<svg width="20" height="20" viewBox="0 0 20 20" fill="none" xmlns="http://www.w3.org/2000/svg">
<g clip-path="url(#clip0_100_29523)">
<path d="M16.6641 4.99935H13.3307V3.33268C13.3307 2.41602 12.5807 1.66602 11.6641 1.66602H8.33073C7.41406 1.66602 6.66406 2.41602 6.66406 3.33268V4.99935H3.33073C2.41406 4.99935 1.66406 5.74935 1.66406 6.66602V16.666C1.66406 17.5827 2.41406 18.3327 3.33073 18.3327H16.6641C17.5807 18.3327 18.3307 17.5827 18.3307 16.666V6.66602C18.3307 5.74935 17.5807 4.99935 16.6641 4.99935ZM8.33073 3.33268H11.6641V4.99935H8.33073V3.33268ZM13.3307 12.4993H10.8307V14.9993H9.16406V12.4993H6.66406V10.8327H9.16406V8.33268H10.8307V10.8327H13.3307V12.4993Z" fill="#417DF7"/>
</g>
<defs>
<clipPath id="clip0_100_29523">
<rect width="20" height="20" fill="white"/>
</clipPath>
</defs>
</svg>
