<svg width="20" height="20" viewBox="0 0 20 20" fill="none" xmlns="http://www.w3.org/2000/svg">
<path d="M18.4545 6.45455H13.2727V1.81818C13.2727 1.36655 12.9062 1 12.4545 1H7C6.54727 1 6.18182 1.36655 6.18182 1.81818V6.45455H1.54545C1.24436 6.45455 1 6.69891 1 7V18.4545C1 18.7556 1.24436 19 1.54545 19H18.4545C18.7556 19 19 18.7556 19 18.4545V7C19 6.69891 18.7556 6.45455 18.4545 6.45455ZM8.36364 3.18182H11.0909V6.45455H8.36364V3.18182ZM13.5455 13.8182H10.5455V16.8182H8.90909V13.8182H5.90909V12.1818H8.90909V9.18182H10.5455V12.1818H13.5455V13.8182Z" fill="#1E6EE1"/>
</svg>
