<svg width="20" height="20" viewBox="0 0 20 20" fill="none" xmlns="http://www.w3.org/2000/svg">
<path d="M14.6071 5.36377H12.9707V14.6365H14.6071V5.36377Z" fill="#909097"/>
<path d="M11.9235 5.36365H10.2871V14.6364H11.9235V5.36365Z" fill="#909097"/>
<path d="M9.18146 5.90922V8.6365C9.18146 8.93759 8.9371 9.18195 8.63601 9.18195H8.09055V14.6365H6.45419V9.18195H5.90874C5.60764 9.18195 5.36328 8.93759 5.36328 8.6365V5.90922C5.36328 5.60813 5.60764 5.36377 5.90874 5.36377H8.63601C8.9371 5.36377 9.18146 5.60813 9.18146 5.90922Z" fill="#909097"/>
<path d="M18.1818 1H1.81818C1.36655 1 1 1.36545 1 1.81818V18.1818C1 18.6335 1.36655 19 1.81818 19H18.1818C18.6335 19 19 18.6335 19 18.1818V1.81818C19 1.36545 18.6335 1 18.1818 1ZM16.8182 16.8182H3.18182V3.18182H16.8182V16.8182Z" fill="#909097"/>
</svg>
