<svg width="20" height="20" viewBox="0 0 20 20" fill="none" xmlns="http://www.w3.org/2000/svg">
<path d="M13 7H7V13H13V7Z" fill="#909097"/>
<path d="M19 7V5.36364H16.8182V4.27273C16.8182 3.66945 16.3305 3.18182 15.7273 3.18182H14.6364V1H13V3.18182H10.8182V1H9.18182V3.18182H7V1H5.36364V3.18182H4.27273C3.67055 3.18182 3.18182 3.66945 3.18182 4.27273V5.36364H1V7H3.18182V9.18182H1V10.8182H3.18182V13H1V14.6364H3.18182V15.7273C3.18182 16.3295 3.67055 16.8182 4.27273 16.8182H5.36364V19H7V16.8182H9.18182V19H10.8182V16.8182H13V19H14.6364V16.8182H15.7273C16.3305 16.8182 16.8182 16.3295 16.8182 15.7273V14.6364H19V13H16.8182V10.8182H19V9.18182H16.8182V7H19ZM14.6364 14.3636C14.6364 14.5142 14.5142 14.6364 14.3636 14.6364H5.63636C5.48582 14.6364 5.36364 14.5142 5.36364 14.3636V5.63636C5.36364 5.48582 5.48582 5.36364 5.63636 5.36364H14.3636C14.5142 5.36364 14.6364 5.48582 14.6364 5.63636V14.3636Z" fill="#909097"/>
</svg>
