<svg width="20" height="20" viewBox="0 0 20 20" fill="none" xmlns="http://www.w3.org/2000/svg">
<path d="M18.9999 11.3637V18.4546C18.9999 18.7557 18.7556 19.0001 18.4545 19.0001H11.3636C11.0625 19.0001 10.8181 18.7557 10.8181 18.4546V11.3637C10.8181 11.0626 11.0625 10.8182 11.3636 10.8182H14.0908V13.5455H15.7272V10.8182H18.4545C18.7556 10.8182 18.9999 11.0626 18.9999 11.3637Z" fill="#1E6EE1"/>
<path d="M13.8185 1.54545V8.63636C13.8185 8.93745 13.5742 9.18182 13.2731 9.18182H6.18217C5.88108 9.18182 5.63672 8.93745 5.63672 8.63636V1.54545C5.63672 1.24436 5.88108 1 6.18217 1H8.90945V3.72727H10.5458V1H13.2731C13.5742 1 13.8185 1.24436 13.8185 1.54545Z" fill="#1E6EE1"/>
<path d="M9.18182 11.3637V18.4546C9.18182 18.7557 8.93745 19.0001 8.63636 19.0001H1.54545C1.24436 19.0001 1 18.7557 1 18.4546V11.3637C1 11.0626 1.24436 10.8182 1.54545 10.8182H4.27273V13.5455H5.90909V10.8182H8.63636C8.93745 10.8182 9.18182 11.0626 9.18182 11.3637Z" fill="#1E6EE1"/>
</svg>
