<svg width="20" height="20" viewBox="0 0 20 20" fill="none" xmlns="http://www.w3.org/2000/svg">
<path d="M4.27344 11.3643C4.57451 11.3643 4.81931 11.6081 4.81934 11.9092V13.8652C4.81934 14.2143 4.9576 14.5494 5.2041 14.7959C5.45061 15.0435 5.78573 15.1816 6.13477 15.1816H8.08984C8.39092 15.1817 8.63574 15.4265 8.63574 15.7275V18.4551C8.63553 18.756 8.39079 19 8.08984 19H5.3623C5.06146 18.9999 4.8176 18.7559 4.81738 18.4551V16.499C4.81738 16.1499 4.67819 15.8149 4.43164 15.5684C4.1851 15.3208 3.85004 15.1816 3.50098 15.1816H1.5459C1.24488 15.1816 1.00012 14.9377 1 14.6367V11.9092C1.00002 11.6081 1.24482 11.3643 1.5459 11.3643H4.27344ZM18.4541 11.3643C18.7552 11.3643 19 11.6081 19 11.9092V14.6367C18.9999 14.9377 18.7551 15.1816 18.4541 15.1816H16.498C16.149 15.1817 15.8139 15.3208 15.5674 15.5684C15.3199 15.8149 15.1816 16.15 15.1816 16.499V18.4551C15.1814 18.756 14.9367 19 14.6357 19H11.9092C11.6082 19 11.3635 18.756 11.3633 18.4551V15.7275C11.3633 15.4264 11.6081 15.1816 11.9092 15.1816H13.8643C14.2132 15.1816 14.5484 15.0434 14.7949 14.7959C15.0426 14.5494 15.1816 14.2143 15.1816 13.8652V11.9092C15.1817 11.6082 15.4256 11.3645 15.7266 11.3643H18.4541ZM11.9082 7.5459C12.2094 7.5459 12.4541 7.78959 12.4541 8.09082V11.9092C12.454 12.2104 12.2094 12.4541 11.9082 12.4541H8.09082C7.78962 12.4541 7.54499 12.2104 7.54492 11.9092V8.09082C7.54495 7.78959 7.78959 7.5459 8.09082 7.5459H11.9082ZM8.08984 1C8.39092 1.00001 8.63574 1.24482 8.63574 1.5459V4.27246C8.63574 4.57354 8.39092 4.81835 8.08984 4.81836H6.13379C5.78474 4.81837 5.44966 4.9576 5.20312 5.2041C4.95661 5.45061 4.8184 5.78573 4.81836 6.13477V8.09082C4.81836 8.39191 4.57355 8.63672 4.27246 8.63672H1.5459C1.24481 8.63672 1 8.39191 1 8.09082V5.36328C1.00019 5.06235 1.24493 4.81836 1.5459 4.81836H3.50098C3.85007 4.81836 4.1851 4.67819 4.43164 4.43164C4.67819 4.1851 4.81738 3.85007 4.81738 3.50098V1.5459C4.81738 1.24489 5.06132 1.00013 5.3623 1H8.08984ZM14.6357 1C14.9368 1 15.1816 1.24481 15.1816 1.5459V3.50098C15.1816 3.85098 15.3211 4.18611 15.5674 4.43262C15.8139 4.67913 16.149 4.81832 16.498 4.81836H18.4541C18.7551 4.81836 18.9998 5.06235 19 5.36328V8.09082C19 8.39191 18.7552 8.63672 18.4541 8.63672H15.7266C15.4256 8.63653 15.1816 8.39179 15.1816 8.09082V6.13477C15.1816 5.78573 15.0414 5.45073 14.7949 5.20312C14.5484 4.95674 14.2132 4.81836 13.8643 4.81836H11.9092C11.6081 4.81836 11.3633 4.57355 11.3633 4.27246V1.5459C11.3633 1.24481 11.6081 1 11.9092 1H14.6357Z" fill="#1E6EE1"/>
</svg>
