<svg width="20" height="20" viewBox="0 0 20 20" fill="none" xmlns="http://www.w3.org/2000/svg">
<path d="M18.249 1C18.6636 1 19 1.33643 19 1.75098V12.251C18.9998 12.6642 18.6634 13 18.249 13H8.97559C8.45197 13 7.95 13.2082 7.5791 13.5791H7.57812C7.20832 13.95 7.00001 14.452 7 14.9756V18.4541C7 18.7552 6.75519 19 6.4541 19H1.5459C1.24481 19 1 18.7552 1 18.4541V13.5459C1 13.2448 1.24481 13 1.5459 13H5.02637C5.2881 13 5.5435 12.9477 5.78125 12.8496C6.01907 12.7514 6.23751 12.6062 6.42188 12.4219C6.79169 12.0521 7 11.55 7 11.0264V1.75098C7 1.33658 7.33577 1.00023 7.74902 1H18.249ZM18.4541 15.7275C18.7552 15.7277 18.999 15.9713 18.999 16.2725V18.4541C18.999 18.7553 18.7552 18.9999 18.4541 19H10.2725C9.97121 19 9.72656 18.7553 9.72656 18.4541V16.2725C9.72659 15.9712 9.97123 15.7275 10.2725 15.7275H18.4541ZM3.72754 1C4.02879 1 4.27344 1.24465 4.27344 1.5459V9.72754C4.27329 10.0287 4.0287 10.2725 3.72754 10.2725H1.5459C1.24486 10.2723 1.00112 10.0286 1.00098 9.72754V1.5459C1.00098 1.24474 1.24477 1.00014 1.5459 1H3.72754ZM9.18164 10H16.8184V8.36328H9.18164V10ZM9.18164 5.63672H16.8184V4H9.18164V5.63672Z" fill="#909097"/>
</svg>
