<svg width="20" height="20" viewBox="0 0 20 20" fill="none" xmlns="http://www.w3.org/2000/svg">
<g clip-path="url(#clip0_1020_5511)">
<path d="M12.7275 0C13.3964 0.00014354 13.9393 0.541795 13.9395 1.21191V12.6533L20 18.7139L18.7148 20L12.6533 13.9395H1.21191C0.543007 13.9393 0.000143861 13.3964 0 12.7275V1.21191C0.000111873 0.541776 0.542987 0.000111825 1.21191 0H12.7275ZM2.72754 2.42383C2.56027 2.42383 2.42383 2.55905 2.42383 2.72754V11.2119C2.42383 11.3792 2.56027 11.5156 2.72754 11.5156H11.2119C11.3792 11.5156 11.5156 11.3792 11.5156 11.2119V2.72754C11.5156 2.55905 11.3792 2.42383 11.2119 2.42383H2.72754ZM9.69629 4.24219V9.69629H4.24219V4.24219H9.69629Z" fill="#909097"/>
</g>
<defs>
<clipPath id="clip0_1020_5511">
<rect width="20" height="20" fill="white"/>
</clipPath>
</defs>
</svg>
