<svg width="20" height="20" viewBox="0 0 20 20" fill="none" xmlns="http://www.w3.org/2000/svg">
<g clip-path="url(#clip0_992_16029)">
<path d="M19.3939 0H7.27273C6.93818 0 6.66667 0.271515 6.66667 0.606061V11.1382C6.66667 11.7212 6.43636 12.2788 6.02424 12.6909C5.81939 12.8958 5.57697 13.057 5.31273 13.1661C5.04848 13.2752 4.76364 13.3333 4.47273 13.3333H0.606061C0.271515 13.3333 0 13.6048 0 13.9394V19.3939C0 19.7285 0.271515 20 0.606061 20H6.06061C6.39636 20 6.66667 19.7285 6.66667 19.3939V15.5285C6.66667 14.9467 6.89818 14.3879 7.3103 13.9758C7.51636 13.7709 7.75879 13.6097 8.02182 13.5006C8.28606 13.3915 8.57091 13.3333 8.86182 13.3333H19.3939C19.7297 13.3333 20 13.0618 20 12.7273V0.606061C20 0.271515 19.7297 0 19.3939 0ZM17.5758 7.57576H14.2424V10.9091H12.4242V7.57576H9.09091V5.75758H12.4242V2.42424H14.2424V5.75758H17.5758V7.57576Z" fill="#1E6EE1"/>
</g>
<defs>
<clipPath id="clip0_992_16029">
<rect width="20" height="20" fill="white"/>
</clipPath>
</defs>
</svg>
