<svg width="20" height="20" viewBox="0 0 20 20" fill="none" xmlns="http://www.w3.org/2000/svg">
<g clip-path="url(#clip0_992_16031)">
<path d="M19.0908 0C19.5926 0 20 0.407362 20 0.90918V19.0908C20 19.5926 19.5926 20 19.0908 20H0.90918C0.407362 20 0 19.5926 0 19.0908V0.90918C0 0.407362 0.407362 0 0.90918 0H19.0908ZM2.42383 2.42383V17.5762H17.5762V2.42383H2.42383ZM8.48438 10.9092C8.81876 10.9094 9.08984 11.1812 9.08984 11.5156V12.1211H15.1504V13.9395H9.08984V14.5459C9.08965 14.8802 8.81864 15.1512 8.48438 15.1514H5.4541C5.11967 15.1514 4.84785 14.8803 4.84766 14.5459V11.5156C4.84766 11.1811 5.11956 10.9092 5.4541 10.9092H8.48438ZM14.5439 4.89355C14.8784 4.8937 15.1494 5.16554 15.1494 5.5V8.53027C15.1492 8.86457 14.8783 9.1356 14.5439 9.13574H11.5137C11.1792 9.13574 10.9074 8.86466 10.9072 8.53027V7.88184H4.85156V6.06348H10.9072V5.5C10.9072 5.16545 11.1791 4.89355 11.5137 4.89355H14.5439Z" fill="#1E6EE1"/>
</g>
<defs>
<clipPath id="clip0_992_16031">
<rect width="20" height="20" fill="white"/>
</clipPath>
</defs>
</svg>
