<svg width="20" height="20" viewBox="0 0 20 20" fill="none" xmlns="http://www.w3.org/2000/svg">
<g clip-path="url(#clip0_311_36090)">
<path d="M9.99992 4.16658C6.77492 4.16658 4.16658 6.77492 4.16658 9.99992H5.83325C5.83325 7.69992 7.69992 5.83325 9.99992 5.83325C12.2999 5.83325 14.1666 7.69992 14.1666 9.99992H15.8333C15.8333 6.77492 13.2249 4.16658 9.99992 4.16658ZM10.8333 11.9083C11.5666 11.5833 12.0833 10.8583 12.0833 9.99992C12.0833 8.84992 11.1499 7.91658 9.99992 7.91658C8.84992 7.91658 7.91658 8.84992 7.91658 9.99992C7.91658 10.8499 8.43325 11.5833 9.16658 11.9083V14.6583L6.32492 17.4999L7.49992 18.6749L9.99992 16.1749L12.4999 18.6749L13.6749 17.4999L10.8333 14.6583V11.9083ZM9.99992 0.833252C4.94158 0.833252 0.833252 4.94158 0.833252 9.99992H2.49992C2.49992 5.85825 5.85825 2.49992 9.99992 2.49992C14.1416 2.49992 17.4999 5.85825 17.4999 9.99992H19.1666C19.1666 4.94158 15.0583 0.833252 9.99992 0.833252Z" fill="#45454F"/>
</g>
<defs>
<clipPath id="clip0_311_36090">
<rect width="20" height="20" fill="white"/>
</clipPath>
</defs>
</svg>
