<svg width="50" height="50" viewBox="0 0 50 50" fill="none" xmlns="http://www.w3.org/2000/svg">
<g filter="url(#filter0_d_172_154679)">
<path d="M9 21C9 12.1634 16.1634 5 25 5C33.8366 5 41 12.1634 41 21C41 29.8366 33.8366 37 25 37C16.1634 37 9 29.8366 9 21Z" fill="#22C55E" shape-rendering="crispEdges"/>
<path d="M25 4.5C34.1127 4.5 41.5 11.8873 41.5 21C41.5 30.1127 34.1127 37.5 25 37.5C15.8873 37.5 8.5 30.1127 8.5 21C8.5 11.8873 15.8873 4.5 25 4.5Z" stroke="white" shape-rendering="crispEdges"/>
<g clip-path="url(#clip0_172_154679)">
<path d="M28.333 13.667H21.6663C20.933 13.667 20.333 14.267 20.333 15.0003V27.0003C20.333 27.7337 20.933 28.3337 21.6663 28.3337H28.333C29.0663 28.3337 29.6663 27.7337 29.6663 27.0003V15.0003C29.6663 14.267 29.0663 13.667 28.333 13.667ZM28.333 25.667H21.6663V16.3337H28.333V25.667ZM22.333 17.0003H27.6663V18.3337H22.333V17.0003Z" fill="white"/>
</g>
</g>
<defs>
<filter id="filter0_d_172_154679" x="0" y="0" width="50" height="50" filterUnits="userSpaceOnUse" color-interpolation-filters="sRGB">
<feFlood flood-opacity="0" result="BackgroundImageFix"/>
<feColorMatrix in="SourceAlpha" type="matrix" values="0 0 0 0 0 0 0 0 0 0 0 0 0 0 0 0 0 0 127 0" result="hardAlpha"/>
<feOffset dy="4"/>
<feGaussianBlur stdDeviation="4"/>
<feComposite in2="hardAlpha" operator="out"/>
<feColorMatrix type="matrix" values="0 0 0 0 0 0 0 0 0 0 0 0 0 0 0 0 0 0 0.16 0"/>
<feBlend mode="normal" in2="BackgroundImageFix" result="effect1_dropShadow_172_154679"/>
<feBlend mode="normal" in="SourceGraphic" in2="effect1_dropShadow_172_154679" result="shape"/>
</filter>
<clipPath id="clip0_172_154679">
<rect width="16" height="16" fill="white" transform="translate(17 13)"/>
</clipPath>
</defs>
</svg>
