<svg width="16" height="16" viewBox="0 0 16 16" fill="none" xmlns="http://www.w3.org/2000/svg">
  <path d="M13.3349 14C12.4082 14 11.4816 13.6867 10.6682 13.12C9.04155 14.26 6.96155 14.26 5.33489 13.12C4.52155 13.6867 3.59489 14 2.66822 14H1.33489V15.3333H2.66822C3.58822 15.3333 4.49489 15.1 5.33489 14.6733C7.01489 15.5333 8.98822 15.5333 10.6682 14.6733C11.5082 15.1067 12.4149 15.3333 13.3349 15.3333H14.6682V14H13.3349ZM2.63489 12.6667H2.66822C3.73489 12.6667 4.68155 12.08 5.33489 11.3333C5.98822 12.08 6.93489 12.6667 8.00155 12.6667C9.06822 12.6667 10.0149 12.08 10.6682 11.3333C11.3216 12.08 12.2682 12.6667 13.3349 12.6667H13.3682L14.6282 8.21333C14.6816 8.04 14.6682 7.85333 14.5882 7.69333C14.5082 7.53333 14.3616 7.41333 14.1882 7.36L13.3349 7.08V4C13.3349 3.26667 12.7349 2.66667 12.0016 2.66667H10.0016V0.666667H6.00155V2.66667H4.00155C3.26822 2.66667 2.66822 3.26667 2.66822 4V7.08L1.80822 7.36C1.63489 7.41333 1.48822 7.53333 1.40822 7.69333C1.32822 7.85333 1.30822 8.04 1.36822 8.21333L2.63489 12.6667ZM4.00155 4H12.0016V6.64667L8.00155 5.33333L4.00155 6.64667V4Z" fill="currentColor"/>
</svg>
