<svg width="16" height="16" viewBox="0 0 16 16" fill="none" xmlns="http://www.w3.org/2000/svg">
<g clip-path="url(#clip0_941_36423)">
<path d="M13.3307 5.33464H11.3307V2.66797H1.9974C1.26406 2.66797 0.664062 3.26797 0.664062 4.0013V11.3346H1.9974C1.9974 12.4413 2.89073 13.3346 3.9974 13.3346C5.10406 13.3346 5.9974 12.4413 5.9974 11.3346H9.9974C9.9974 12.4413 10.8907 13.3346 11.9974 13.3346C13.1041 13.3346 13.9974 12.4413 13.9974 11.3346H15.3307V8.0013L13.3307 5.33464ZM3.9974 12.3346C3.44406 12.3346 2.9974 11.888 2.9974 11.3346C2.9974 10.7813 3.44406 10.3346 3.9974 10.3346C4.55073 10.3346 4.9974 10.7813 4.9974 11.3346C4.9974 11.888 4.55073 12.3346 3.9974 12.3346ZM12.9974 6.33464L14.3041 8.0013H11.3307V6.33464H12.9974ZM11.9974 12.3346C11.4441 12.3346 10.9974 11.888 10.9974 11.3346C10.9974 10.7813 11.4441 10.3346 11.9974 10.3346C12.5507 10.3346 12.9974 10.7813 12.9974 11.3346C12.9974 11.888 12.5507 12.3346 11.9974 12.3346Z" fill="#B8B8C0"/>
</g>
<defs>
<clipPath id="clip0_941_36423">
<rect width="16" height="16" fill="white"/>
</clipPath>
</defs>
</svg>
