<svg width="16" height="16" viewBox="0 0 16 16" fill="none" xmlns="http://www.w3.org/2000/svg">
  <path d="M4.53333 9.70187L4.91474 10.2487C5.09347 10.124 5.2 9.91981 5.2 9.70187H4.53333ZM7.73333 9.70187H7.06667C7.06667 9.8915 7.14743 10.0722 7.28873 10.1986L7.73333 9.70187ZM6.13333 11.3333C5.76514 11.3333 5.46667 11.6318 5.46667 12C5.46667 12.3682 5.76514 12.6667 6.13333 12.6667V12V11.3333ZM6.17083 12.6667C6.53902 12.6667 6.8375 12.3682 6.8375 12C6.8375 11.6318 6.53902 11.3333 6.17083 11.3333V12V12.6667ZM8.93333 12H8.26667C8.26667 13.1782 7.31154 14.1333 6.13333 14.1333V14.8V15.4667C8.04791 15.4667 9.6 13.9146 9.6 12H8.93333ZM6.13333 14.8V14.1333C4.95513 14.1333 4 13.1782 4 12H3.33333H2.66667C2.66667 13.9146 4.21875 15.4667 6.13333 15.4667V14.8ZM3.33333 12H4C4 11.2756 4.36043 10.6353 4.91474 10.2487L4.53333 9.70187L4.15193 9.15508C3.25546 9.7804 2.66667 10.8214 2.66667 12H3.33333ZM7.73333 9.70187L7.28873 10.1986C7.51863 10.4044 7.77273 10.7135 7.96683 11.0586C8.16413 11.41 8.26667 11.7415 8.26667 12H8.93333H9.6C9.6 11.4292 9.38895 10.868 9.12946 10.4058C8.86643 9.93739 8.52087 9.51205 8.17794 9.20512L7.73333 9.70187ZM7.73333 3.6H7.06667V9.70187H7.73333H8.4V3.6H7.73333ZM4.53333 9.70187H5.2V3.59896H4.53333H3.86667V9.70187H4.53333ZM6.13333 2V2.66667C6.64879 2.66667 7.06667 3.08454 7.06667 3.6H7.73333H8.4C8.4 2.34815 7.38518 1.33333 6.13333 1.33333V2ZM6.13333 2V1.33333C4.88205 1.33333 3.86667 2.34654 3.86667 3.59896H4.53333H5.2C5.2 3.08405 5.6173 2.66667 6.13333 2.66667V2ZM6.13333 12V12.6667H6.17083V12V11.3333H6.13333V12ZM12.9333 5.2H12.2667C12.2667 5.71546 11.8488 6.13333 11.3333 6.13333V6.8V7.46667C12.5852 7.46667 13.6 6.45185 13.6 5.2H12.9333ZM11.3333 6.8V6.13333C10.8179 6.13333 10.4 5.71546 10.4 5.2H9.73333H9.06667C9.06667 6.45185 10.0815 7.46667 11.3333 7.46667V6.8ZM9.73333 5.2H10.4C10.4 4.68454 10.8179 4.26667 11.3333 4.26667V3.6V2.93333C10.0815 2.93333 9.06667 3.94815 9.06667 5.2H9.73333ZM11.3333 3.6V4.26667C11.8488 4.26667 12.2667 4.68454 12.2667 5.2H12.9333H13.6C13.6 3.94815 12.5852 2.93333 11.3333 2.93333V3.6Z" fill="currentColor"/>
</svg>
