<svg width="780" height="238" viewBox="0 0 780 238" fill="none" xmlns="http://www.w3.org/2000/svg">
<g clip-path="url(#clip0_311_50379)">
<mask id="path-3-outside-1_311_50379" maskUnits="userSpaceOnUse" x="0" y="0" width="780" height="41" fill="black">
<rect fill="white" width="780" height="41"/>
<path d="M0 0H780V40H0V0Z"/>
</mask>
<path d="M0 0H780V40H0V0Z" fill="white"/>
<path d="M780 40V39H0V40V41H780V40Z" fill="#DBDBE0" mask="url(#path-3-outside-1_311_50379)"/>
<mask id="path-5-inside-2_311_50379" fill="white">
<path d="M0 0H60V40H0V0Z"/>
</mask>
<path d="M60 0H59V40H60H61V0H60Z" fill="#DBDBE0" mask="url(#path-5-inside-2_311_50379)"/>
<path d="M17.2987 14.36H18.2997V14.945C18.2997 16.453 20.3797 17.805 22.3037 18.104L21.9267 18.871C20.2367 18.572 18.5207 17.61 17.8057 16.284C17.1037 17.636 15.3877 18.585 13.6717 18.884L13.2817 18.117C15.2447 17.818 17.2987 16.492 17.2987 14.945V14.36ZM12.6447 20.678V19.885H22.9537V20.678H18.3647V23.031H17.3767V20.678H12.6447ZM13.9707 25.189V21.913H14.9457V24.383H21.8097V25.189H13.9707ZM27.725 14.62C29.415 14.62 30.624 15.556 30.624 16.947C30.624 18.325 29.415 19.274 27.725 19.274C26.048 19.274 24.839 18.325 24.839 16.947C24.839 15.556 26.048 14.62 27.725 14.62ZM23.981 20.262C26.1 20.262 28.999 20.236 31.508 19.846L31.573 20.587C30.494 20.782 29.363 20.899 28.271 20.977V25.098H27.296V21.029C26.152 21.081 25.06 21.094 24.111 21.094L23.981 20.262ZM25.775 16.947C25.775 17.844 26.594 18.455 27.725 18.455C28.869 18.455 29.688 17.844 29.688 16.947C29.688 16.05 28.869 15.426 27.725 15.426C26.594 15.426 25.775 16.05 25.775 16.947ZM32.34 25.462V14.074H33.302V25.462H32.34Z" fill="#737680"/>
<mask id="path-8-inside-3_311_50379" fill="white">
<path d="M60 0H200V40H60V0Z"/>
</mask>
<path d="M200 0H199V40H200H201V0H200Z" fill="#DBDBE0" mask="url(#path-8-inside-3_311_50379)"/>
<path d="M73.5999 14.4004L86.3999 14.4004M73.5999 17.8671L83.016 17.8671M73.5999 21.3337L86.3999 21.3337M73.5999 24.8004L80.4413 24.8004" stroke="#999FAA" stroke-width="1.2" stroke-linecap="round" stroke-linejoin="round"/>
<path d="M92.9975 18.372H103.307V19.178H98.7175V21.518H97.7295V19.178H92.9975V18.372ZM94.1545 15.148C94.1545 13.744 95.7405 12.86 98.1325 12.86C100.551 12.86 102.111 13.744 102.111 15.148C102.111 16.552 100.551 17.423 98.1325 17.423C95.7405 17.423 94.1545 16.552 94.1545 15.148ZM94.3235 23.689V20.374H95.2985V22.87H102.163V23.689H94.3235ZM95.1945 15.148C95.1945 16.058 96.3775 16.617 98.1325 16.617C99.9005 16.617 101.084 16.058 101.084 15.148C101.084 14.238 99.9005 13.666 98.1325 13.666C96.3775 13.666 95.1945 14.238 95.1945 15.148ZM109.001 16.552H109.976V18.242H114.63V19.035H104.36V18.242H109.001V16.552ZM104.984 16.357C106.96 16.071 109.001 14.823 109.001 13.276V12.756H109.989V13.276C109.989 14.81 112.043 16.071 114.006 16.357L113.629 17.137C111.926 16.838 110.21 15.941 109.508 14.615C108.793 15.941 107.077 16.838 105.361 17.137L104.984 16.357ZM105.608 21.96C105.608 20.712 107.051 20.01 109.495 20.01C111.926 20.01 113.382 20.712 113.382 21.96C113.382 23.234 111.926 23.923 109.495 23.923C107.051 23.923 105.608 23.234 105.608 21.96ZM106.583 21.96C106.583 22.727 107.675 23.169 109.495 23.169C111.315 23.169 112.394 22.727 112.394 21.96C112.394 21.206 111.315 20.764 109.495 20.764C107.675 20.764 106.583 21.206 106.583 21.96ZM124.081 12.574H125.056V20.985H124.081V16.916H121.572V16.097H124.081V12.574ZM115.891 18.879C118.517 17.995 120.337 16.344 120.545 14.264H116.463V13.458H121.598C121.598 16.37 119.518 18.593 116.307 19.672L115.891 18.879ZM117.893 23.689V20.127H118.881V22.883H125.342V23.689H117.893ZM130.718 13.614H131.654V23H130.718V13.614ZM136.802 22.168C139.012 22.168 140.572 20.569 140.572 18.307C140.572 16.045 139.012 14.446 136.802 14.446H134.904V22.168H136.802ZM133.968 23V13.614H136.802C139.545 13.614 141.482 15.551 141.482 18.307C141.482 21.063 139.545 23 136.802 23H133.968Z" fill="#737680"/>
<mask id="path-12-inside-4_311_50379" fill="white">
<path d="M200 0H393.333V40H200V0Z"/>
</mask>
<path d="M393.333 0H392.333V40H393.333H394.333V0H393.333Z" fill="#DBDBE0" mask="url(#path-12-inside-4_311_50379)"/>
<path d="M220 18.3996V23.7329M217.6 21.2601C215.255 21.6557 213.6 22.6138 213.6 23.7329C213.6 25.2057 216.465 26.3996 220 26.3996C223.535 26.3996 226.4 25.2057 226.4 23.7329C226.4 22.6138 224.746 21.6557 222.4 21.2601M222.133 15.7329C222.133 16.9111 221.178 17.8663 220 17.8663C218.822 17.8663 217.867 16.9111 217.867 15.7329C217.867 14.5547 218.822 13.5996 220 13.5996C221.178 13.5996 222.133 14.5547 222.133 15.7329Z" stroke="#999FAA" stroke-width="1.2" stroke-linecap="round" stroke-linejoin="round"/>
<path d="M232.937 20.587H243.22V21.393H238.54V25.449H237.578V21.393H232.937V20.587ZM233.561 18.806C235.498 18.52 237.539 17.22 237.539 15.686V15.595H233.912V14.802H242.219V15.595H238.618V15.686C238.618 17.22 240.659 18.52 242.596 18.806L242.219 19.599C240.49 19.3 238.761 18.338 238.085 16.96C237.396 18.338 235.667 19.3 233.938 19.599L233.561 18.806ZM244.299 23.161H246.86V20.054C245.898 19.56 245.313 18.741 245.313 17.714C245.313 15.946 247.042 14.802 249.434 14.802C251.852 14.802 253.555 15.946 253.555 17.714C253.555 18.728 252.983 19.534 252.047 20.041V23.161H254.608V23.967H244.299V23.161ZM246.262 17.714C246.262 19.001 247.588 19.846 249.434 19.846C251.28 19.846 252.619 19.001 252.619 17.714C252.619 16.427 251.28 15.582 249.434 15.582C247.588 15.582 246.262 16.427 246.262 17.714ZM247.822 23.161H251.072V20.418C250.578 20.548 250.032 20.613 249.434 20.613C248.849 20.613 248.316 20.548 247.822 20.418V23.161ZM259.165 14.542H260.127V16.206H263.442V14.542H264.404V19.495H259.165V14.542ZM260.127 18.702H263.442V16.973H260.127V18.702ZM260.296 21.289V20.509H267.485V23.239H261.284V24.526H267.901V25.319H260.322V22.498H266.523V21.289H260.296ZM266.51 19.95V14.074H267.485V16.557H269.175V17.363H267.485V19.95H266.51ZM272.425 14.776H273.361V16.323C273.361 17.597 274.245 18.884 275.688 19.443L275.181 20.184C274.089 19.768 273.309 18.923 272.906 17.935C272.503 19.027 271.684 20.002 270.553 20.496L270.033 19.742C271.515 19.092 272.425 17.61 272.425 16.323V14.776ZM272.074 23.395C272.074 22.121 273.517 21.367 275.857 21.367C278.197 21.367 279.64 22.121 279.64 23.395C279.64 24.682 278.197 25.423 275.857 25.423C273.517 25.423 272.074 24.682 272.074 23.395ZM273.036 23.395C273.036 24.188 274.115 24.669 275.857 24.669C277.599 24.669 278.665 24.188 278.665 23.395C278.665 22.602 277.599 22.134 275.857 22.134C274.115 22.134 273.036 22.602 273.036 23.395ZM276.208 20.743V14.308H277.131V17.155H278.652V14.087H279.588V21.107H278.652V17.961H277.131V20.743H276.208ZM285.691 14.828H293.296V15.816C293.296 16.895 293.296 18.065 292.971 19.716H294.661V20.535H289.994V25.475H289.006V20.535H284.378V19.716H291.983C292.334 18.091 292.334 16.882 292.334 15.816V15.621H285.691V14.828ZM303.58 14.074H304.555V17.545H306.258V18.364H304.555V22.394H303.58V14.074ZM295.767 20.288C298.471 19.443 300.252 17.805 300.46 15.764H296.235V14.958H301.513C301.513 17.883 299.433 20.041 296.183 21.081L295.767 20.288ZM297.496 25.189V21.549H298.471V24.383H305.075V25.189H297.496Z" fill="#737680"/>
<mask id="path-16-inside-5_311_50379" fill="white">
<path d="M393.333 0H586.666V40H393.333V0Z"/>
</mask>
<path d="M586.666 0H585.666V40H586.666H587.666V0H586.666Z" fill="#DBDBE0" mask="url(#path-16-inside-5_311_50379)"/>
<path d="M413.333 26.3996L418.875 23.1996V16.7996L413.333 13.5996L407.79 16.7996V23.1996L413.333 26.3996ZM413.333 26.3996V20.3996M413.333 20.3996L408.133 17.1996M413.333 20.3996L418.533 17.1996" stroke="#AAA8A4" stroke-width="1.2" stroke-linecap="round" stroke-linejoin="round"/>
<path d="M426.27 20.587H436.553V21.393H431.873V25.449H430.911V21.393H426.27V20.587ZM426.894 18.806C428.831 18.52 430.872 17.22 430.872 15.686V15.595H427.245V14.802H435.552V15.595H431.951V15.686C431.951 17.22 433.992 18.52 435.929 18.806L435.552 19.599C433.823 19.3 432.094 18.338 431.418 16.96C430.729 18.338 429 19.3 427.271 19.599L426.894 18.806ZM437.632 23.161H440.193V20.054C439.231 19.56 438.646 18.741 438.646 17.714C438.646 15.946 440.375 14.802 442.767 14.802C445.185 14.802 446.888 15.946 446.888 17.714C446.888 18.728 446.316 19.534 445.38 20.041V23.161H447.941V23.967H437.632V23.161ZM439.595 17.714C439.595 19.001 440.921 19.846 442.767 19.846C444.613 19.846 445.952 19.001 445.952 17.714C445.952 16.427 444.613 15.582 442.767 15.582C440.921 15.582 439.595 16.427 439.595 17.714ZM441.155 23.161H444.405V20.418C443.911 20.548 443.365 20.613 442.767 20.613C442.182 20.613 441.649 20.548 441.155 20.418V23.161ZM460.298 14.061H461.273V25.462H460.298V14.061ZM452.407 18.91C452.407 16.492 453.603 14.958 455.293 14.958C456.97 14.958 458.166 16.492 458.166 18.91C458.166 21.328 456.97 22.875 455.293 22.875C453.603 22.875 452.407 21.328 452.407 18.91ZM453.356 18.91C453.356 20.769 454.149 22.004 455.293 22.004C456.424 22.004 457.23 20.769 457.23 18.91C457.23 17.051 456.424 15.829 455.293 15.829C454.149 15.829 453.356 17.051 453.356 18.91ZM463.353 20.6H473.662V21.406H471.023V25.54H470.035V21.406H466.967V25.54H465.992V21.406H463.353V20.6ZM463.899 18.481C465.901 18.169 467.994 16.804 467.994 15.14V14.49H469.008V15.14C469.008 16.778 471.127 18.182 473.103 18.481L472.7 19.274C470.971 18.962 469.229 17.961 468.514 16.557C467.799 17.974 466.044 18.949 464.302 19.274L463.899 18.481ZM477.711 20.561H488.02V21.38H485.29V25.449H484.302V21.38H481.39V25.449H480.389V21.38H477.711V20.561ZM478.868 17.012C478.868 15.491 480.467 14.555 482.833 14.555C485.212 14.555 486.798 15.491 486.798 17.012C486.798 18.533 485.212 19.482 482.833 19.482C480.467 19.482 478.868 18.533 478.868 17.012ZM479.869 17.012C479.869 18.039 481.065 18.689 482.833 18.689C484.601 18.689 485.81 18.039 485.81 17.012C485.81 15.998 484.601 15.335 482.833 15.335C481.065 15.335 479.869 15.998 479.869 17.012ZM495.457 16.83H497.42V14.074H498.395V21.432H497.42V19.833H495.444V19.04H497.42V17.623H495.457V16.83ZM489.074 16.141V15.361H491.83V13.97H492.805V15.361H495.47V16.141H489.074ZM489.737 18.845C489.737 17.584 490.79 16.752 492.298 16.752C493.819 16.752 494.859 17.584 494.859 18.845C494.859 20.119 493.819 20.964 492.298 20.964C490.79 20.964 489.737 20.119 489.737 18.845ZM490.66 18.845C490.66 19.664 491.31 20.21 492.298 20.21C493.286 20.21 493.949 19.664 493.949 18.845C493.949 18.039 493.286 17.506 492.298 17.506C491.31 17.506 490.66 18.039 490.66 18.845ZM490.907 23.486C490.907 22.264 492.337 21.549 494.69 21.549C497.03 21.549 498.46 22.264 498.46 23.486C498.46 24.708 497.03 25.423 494.69 25.423C492.337 25.423 490.907 24.708 490.907 23.486ZM491.921 23.486C491.921 24.227 492.974 24.669 494.69 24.669C496.393 24.669 497.446 24.227 497.446 23.486C497.446 22.732 496.393 22.316 494.69 22.316C492.974 22.316 491.921 22.732 491.921 23.486Z" fill="#737680"/>
<mask id="path-20-inside-6_311_50379" fill="white">
<path d="M586.667 0H780V40H586.667V0Z"/>
</mask>
<path d="M780 0H779V40H780H781V0H780Z" fill="#DBDBE0" mask="url(#path-20-inside-6_311_50379)"/>
<path d="M603 21.3331L605.8 18.5331L607.8 20.5331L610.2 18.1331M601.6 26.133C600.716 26.133 600 25.4167 600 24.533V14.933C600 14.0494 600.716 13.333 601.6 13.333H611.2C612.084 13.333 612.8 14.0494 612.8 14.933V24.533C612.8 25.4167 612.084 26.133 611.2 26.133H601.6Z" stroke="#999FAA" stroke-width="1.2" stroke-linecap="round" stroke-linejoin="round"/>
<path d="M623.128 14.62C624.818 14.62 626.027 15.556 626.027 16.947C626.027 18.325 624.818 19.274 623.128 19.274C621.451 19.274 620.242 18.325 620.242 16.947C620.242 15.556 621.451 14.62 623.128 14.62ZM619.384 20.262C621.503 20.262 624.402 20.236 626.911 19.846L626.976 20.587C625.897 20.782 624.766 20.899 623.674 20.977V25.098H622.699V21.029C621.555 21.081 620.463 21.094 619.514 21.094L619.384 20.262ZM621.178 16.947C621.178 17.844 621.997 18.455 623.128 18.455C624.272 18.455 625.091 17.844 625.091 16.947C625.091 16.05 624.272 15.426 623.128 15.426C621.997 15.426 621.178 16.05 621.178 16.947ZM627.743 25.462V14.074H628.705V25.462H627.743ZM639.131 14.074H640.106V20.964H639.131V18.351H637.194V17.545H639.131V14.074ZM630.785 16.076V15.283H633.593V13.957H634.555V15.283H637.363V16.076H630.785ZM631.448 18.702C631.448 17.506 632.553 16.674 634.074 16.674C635.608 16.674 636.687 17.506 636.687 18.702C636.687 19.911 635.608 20.73 634.074 20.73C632.553 20.73 631.448 19.911 631.448 18.702ZM632.384 18.702C632.384 19.456 633.086 19.976 634.074 19.976C635.049 19.976 635.751 19.456 635.751 18.702C635.751 17.948 635.049 17.428 634.074 17.428C633.086 17.428 632.384 17.948 632.384 18.702ZM632.748 25.293V21.575H640.106V25.293H632.748ZM633.71 24.5H639.157V22.368H633.71V24.5ZM643.473 14.984H651.13V15.79H644.448V19.404H651.26V20.21H647.763V23.174H652.456V23.993H642.147V23.174H646.801V20.21H643.473V14.984ZM656.857 15.14H662.954V15.946H661.784V19.755C662.369 19.716 662.954 19.664 663.5 19.599L663.565 20.34C661.303 20.678 658.625 20.743 656.675 20.743L656.558 19.924C657.013 19.924 657.494 19.911 658.014 19.911V15.946H656.857V15.14ZM658.274 25.189V21.653H659.236V24.383H665.853V25.189H658.274ZM658.963 19.885C659.574 19.872 660.211 19.846 660.848 19.82V15.946H658.963V19.885ZM664.345 22.446V14.087H665.32V17.558H667.023V18.377H665.32V22.446H664.345ZM675.72 14.061H676.695V17.48H678.398V18.286H676.695V22.303H675.72V14.061ZM668.427 20.288V15.049H673.432V15.868H669.389V19.469C671.664 19.469 672.964 19.404 674.472 19.092L674.589 19.885C673.003 20.197 671.664 20.288 669.298 20.288H668.427ZM669.649 25.189V21.484H670.611V24.383H677.215V25.189H669.649ZM683.553 14.763H691.197V15.634C691.197 16.609 691.197 17.766 690.898 19.326H692.536V20.132H682.227V19.326H689.923C690.235 17.753 690.235 16.609 690.235 15.634V15.556H683.553V14.763ZM683.592 25.189V21.432H684.567V24.383H691.535V25.189H683.592ZM701.935 14.074H702.897V25.449H701.935V19.469H699.231V18.65H701.935V14.074ZM693.589 22.511C696.657 21.003 698.087 18.793 698.282 16.102H694.07V15.296H699.257C699.257 18.52 697.892 21.393 694.135 23.265L693.589 22.511Z" fill="#737680"/>
<rect width="780" height="78" transform="translate(0 40)" fill="#F5F5F5"/>
<mask id="path-24-inside-7_311_50379" fill="white">
<path d="M0 40H60V118H0V40Z"/>
</mask>
<path d="M60 40H59V118H60H61V40H60Z" fill="#DBDBE0" mask="url(#path-24-inside-7_311_50379)"/>
<path d="M32.871 84H26.852V82.986H29.309V76.226L26.865 77.695V76.512L29.361 74.965H30.427V82.986H32.871V84Z" fill="#17171C"/>
<mask id="path-27-inside-8_311_50379" fill="white">
<path d="M60 40H200V118H60V40Z"/>
</mask>
<path d="M200 40H199V118H200H201V40H200Z" fill="#DBDBE0" mask="url(#path-27-inside-8_311_50379)"/>
<path d="M78.656 84H73.404V83.038H75.445V75.732H73.404V74.783H78.656V75.732H76.615V83.038H78.656V84ZM87.4975 79.372C87.4975 80.62 87.3805 81.777 86.8605 82.609C86.3405 83.454 85.3655 84 83.9225 84H81.1795V74.783H83.9225C85.3655 74.783 86.3535 75.368 86.8735 76.213C87.3935 77.045 87.4975 78.124 87.4975 79.372ZM86.3145 79.372C86.3145 78.189 86.2625 77.11 85.6255 76.46C85.2745 76.096 84.7155 75.849 83.9225 75.849H82.3365V82.934H83.9225C84.7545 82.934 85.3135 82.661 85.6645 82.284C86.2755 81.621 86.3145 80.516 86.3145 79.372ZM94.48 80.594H89.839V79.567H94.48V80.594ZM103.608 81.465C103.608 82.232 103.296 82.817 102.841 83.259C102.204 83.883 101.229 84.169 100.241 84.169C99.1226 84.169 98.2516 83.87 97.6276 83.298C97.0426 82.752 96.6656 81.959 96.6656 81.088H97.8746C97.8746 81.634 98.1346 82.18 98.5116 82.544C98.9276 82.947 99.5906 83.103 100.241 83.103C100.943 83.103 101.515 82.96 101.931 82.57C102.217 82.31 102.399 81.985 102.399 81.491C102.399 80.776 101.97 80.178 100.878 80.009L99.4606 79.788C98.0826 79.58 97.0296 78.813 97.0296 77.344C97.0296 76.655 97.3156 75.992 97.8096 75.524C98.4466 74.926 99.2266 74.614 100.189 74.614C101.086 74.614 101.944 74.887 102.555 75.472C103.114 76.005 103.4 76.681 103.426 77.461H102.217C102.191 77.006 102.035 76.629 101.775 76.33C101.424 75.927 100.891 75.68 100.176 75.68C99.5126 75.68 98.9796 75.875 98.5766 76.33C98.3426 76.603 98.2256 76.902 98.2256 77.318C98.2256 78.15 98.8886 78.527 99.5776 78.618C100.098 78.683 100.566 78.774 101.073 78.852C102.607 79.073 103.608 80.009 103.608 81.465ZM110.564 81.062H111.76C111.682 82.856 110.239 84.182 108.445 84.182C107.522 84.182 106.716 83.831 106.066 83.194C105.026 82.18 104.935 80.763 104.935 79.398C104.935 78.033 105.026 76.616 106.066 75.602C106.716 74.965 107.522 74.614 108.445 74.614C110.226 74.614 111.669 75.862 111.747 77.669H110.538C110.512 77.162 110.291 76.668 110.005 76.369C109.628 75.953 109.082 75.706 108.445 75.706C107.821 75.706 107.314 75.966 106.885 76.408C106.131 77.188 106.131 78.384 106.131 79.398C106.131 80.412 106.131 81.608 106.885 82.388C107.314 82.83 107.821 83.09 108.445 83.09C109.615 83.09 110.538 82.245 110.564 81.062ZM119.354 79.476C119.354 81.218 119.198 82.479 118.288 83.402C117.846 83.844 117.235 84.169 116.338 84.169C115.441 84.169 114.83 83.844 114.388 83.402C113.478 82.479 113.322 81.218 113.322 79.476C113.322 77.734 113.478 76.46 114.388 75.537C114.83 75.095 115.441 74.783 116.338 74.783C117.235 74.783 117.846 75.095 118.288 75.537C119.198 76.46 119.354 77.734 119.354 79.476ZM114.505 81.01L117.898 76.85C117.794 76.603 117.651 76.382 117.456 76.2C117.196 75.953 116.819 75.784 116.338 75.784C115.857 75.784 115.48 75.953 115.22 76.2C114.453 76.928 114.466 78.254 114.466 79.476C114.466 79.983 114.453 80.516 114.505 81.01ZM118.21 79.476C118.21 78.995 118.21 78.501 118.171 78.033L114.817 82.18C114.921 82.401 115.051 82.596 115.22 82.752C115.48 82.999 115.857 83.168 116.338 83.168C116.819 83.168 117.196 82.999 117.456 82.752C118.223 82.024 118.21 80.698 118.21 79.476ZM127.493 81.023C127.493 81.972 127.233 82.739 126.726 83.298C126.258 83.818 125.53 84.182 124.581 84.182C123.697 84.182 122.943 83.883 122.449 83.402C121.942 82.908 121.643 82.232 121.604 81.4H122.709C122.735 81.972 122.93 82.388 123.229 82.687C123.528 82.986 123.996 83.168 124.568 83.168C125.192 83.168 125.647 82.921 125.92 82.57C126.219 82.193 126.375 81.686 126.375 81.075C126.375 80.451 126.193 79.905 125.855 79.528C125.569 79.216 125.14 79.021 124.568 79.021C123.957 79.021 123.346 79.294 123.034 79.814H121.799L122.046 74.965H127.038V75.966H122.995L122.852 78.852C123.255 78.267 124.022 78.033 124.789 78.033C125.582 78.033 126.232 78.319 126.674 78.774C127.207 79.32 127.493 80.126 127.493 81.023Z" fill="#17171C"/>
<mask id="path-30-inside-9_311_50379" fill="white">
<path d="M200 40H393.333V118H200V40Z"/>
</mask>
<path d="M393.333 40H392.333V118H393.333H394.333V40H393.333Z" fill="#DBDBE0" mask="url(#path-30-inside-9_311_50379)"/>
<path d="M213.17 74.692H218.37V82.076H213.17V74.692ZM214.132 81.283H217.434V75.485H214.132V81.283ZM220.827 84.962V73.561H221.802V84.962H220.827ZM225.208 74.133H232.839V74.952C232.839 75.823 232.839 76.837 232.553 78.202H234.191V79.008H229.511V81.14H232.917V84.949H231.955V81.933H224.961V81.14H228.549V79.008H223.882V78.202H231.578C231.89 76.824 231.89 75.823 231.89 74.952V74.926H225.208V74.133ZM246.925 73.574H247.861V84.949H246.925V79.047H245.261V84.351H244.351V73.834H245.261V78.228H246.925V73.574ZM238.813 81.985V74.965H239.775V81.127C240.893 81.114 242.115 81.036 243.506 80.763L243.623 81.621C242.063 81.92 240.763 81.985 239.528 81.985H238.813ZM249.603 79.593H259.912V80.399H257.091V81.738H258.638V84.949H257.663V82.531H250.747V81.738H252.398V80.399H249.603V79.593ZM250.916 74.653V73.873H258.573V76.577H251.891V77.825H258.82V78.592H250.942V75.862H257.611V74.653H250.916ZM253.36 81.738H256.142V80.399H253.36V81.738ZM263.961 79.372H274.27V80.178H269.681V82.518H268.693V80.178H263.961V79.372ZM265.118 76.148C265.118 74.744 266.704 73.86 269.096 73.86C271.514 73.86 273.074 74.744 273.074 76.148C273.074 77.552 271.514 78.423 269.096 78.423C266.704 78.423 265.118 77.552 265.118 76.148ZM265.287 84.689V81.374H266.262V83.87H273.126V84.689H265.287ZM266.158 76.148C266.158 77.058 267.341 77.617 269.096 77.617C270.864 77.617 272.047 77.058 272.047 76.148C272.047 75.238 270.864 74.666 269.096 74.666C267.341 74.666 266.158 75.238 266.158 76.148ZM279.965 77.552H280.94V79.242H285.594V80.035H275.324V79.242H279.965V77.552ZM275.948 77.357C277.924 77.071 279.965 75.823 279.965 74.276V73.756H280.953V74.276C280.953 75.81 283.007 77.071 284.97 77.357L284.593 78.137C282.89 77.838 281.174 76.941 280.472 75.615C279.757 76.941 278.041 77.838 276.325 78.137L275.948 77.357ZM276.572 82.96C276.572 81.712 278.015 81.01 280.459 81.01C282.89 81.01 284.346 81.712 284.346 82.96C284.346 84.234 282.89 84.923 280.459 84.923C278.015 84.923 276.572 84.234 276.572 82.96ZM277.547 82.96C277.547 83.727 278.639 84.169 280.459 84.169C282.279 84.169 283.358 83.727 283.358 82.96C283.358 82.206 282.279 81.764 280.459 81.764C278.639 81.764 277.547 82.206 277.547 82.96ZM290.514 79.307C290.514 77.669 291.164 75.485 292.087 74.029H293.14C292.1 75.459 291.372 77.63 291.372 79.307C291.372 80.984 292.1 83.155 293.14 84.585H292.087C291.164 83.129 290.514 80.945 290.514 79.307ZM297.535 74.458C299.199 74.458 300.369 75.992 300.369 78.41C300.369 80.828 299.199 82.375 297.535 82.375C295.871 82.375 294.688 80.828 294.688 78.41C294.688 75.992 295.871 74.458 297.535 74.458ZM295.624 78.41C295.624 80.269 296.404 81.504 297.535 81.504C298.666 81.504 299.446 80.269 299.446 78.41C299.446 76.551 298.666 75.329 297.535 75.329C296.404 75.329 295.624 76.551 295.624 78.41ZM302.254 84.949V73.574H303.242V76.46H305.075V77.279H303.242V79.853H305.075V80.672H303.242V84.949H302.254ZM313.708 73.574H314.683V77.045H316.386V77.864H314.683V81.894H313.708V73.574ZM305.895 79.788C308.599 78.943 310.38 77.305 310.588 75.264H306.363V74.458H311.641C311.641 77.383 309.561 79.541 306.311 80.581L305.895 79.788ZM307.624 84.689V81.049H308.599V83.883H315.203V84.689H307.624ZM320.169 79.307C320.169 80.958 319.519 83.129 318.609 84.585H317.556C318.583 83.168 319.311 80.984 319.311 79.307C319.311 77.63 318.583 75.446 317.556 74.029H318.609C319.519 75.485 320.169 77.656 320.169 79.307Z" fill="#17171C"/>
<mask id="path-33-inside-10_311_50379" fill="white">
<path d="M393.333 40H586.666V118H393.333V40Z"/>
</mask>
<path d="M586.666 40H585.666V118H586.666H587.666V40H586.666Z" fill="#DBDBE0" mask="url(#path-33-inside-10_311_50379)"/>
<path d="M405.853 79.645H410.507V78.423C408.349 78.319 406.997 77.5 406.997 76.174C406.997 74.77 408.557 73.912 410.988 73.912C413.419 73.912 414.979 74.77 414.979 76.174C414.979 77.5 413.627 78.319 411.469 78.423V79.645H416.123V80.438H405.853V79.645ZM407.192 84.689V81.413H408.167V83.883H414.992V84.689H407.192ZM407.998 76.174C407.998 77.097 409.181 77.643 410.988 77.643C412.808 77.643 413.978 77.097 413.978 76.174C413.978 75.277 412.808 74.718 410.988 74.718C409.181 74.718 407.998 75.277 407.998 76.174ZM418.541 74.484H426.198V75.29H419.516V78.904H426.328V79.71H422.831V82.674H427.524V83.493H417.215V82.674H421.869V79.71H418.541V74.484ZM434.759 74.003C436.449 74.003 437.697 75.03 437.697 76.512C437.697 77.994 436.449 79.008 434.759 79.008C433.069 79.008 431.834 77.994 431.834 76.512C431.834 75.03 433.069 74.003 434.759 74.003ZM432.783 76.512C432.783 77.513 433.628 78.215 434.759 78.215C435.903 78.215 436.748 77.513 436.748 76.512C436.748 75.511 435.903 74.796 434.759 74.796C433.628 74.796 432.783 75.511 432.783 76.512ZM433.55 80.763V79.983H440.882V82.7H434.525V84.013H441.272V84.793H433.589V81.972H439.907V80.763H433.55ZM439.894 79.411V73.574H440.882V79.411H439.894ZM443.482 74.146H448.656V74.939H444.457V76.2H448.461V76.967H444.457V78.306C446.693 78.306 447.941 78.267 449.449 78.007L449.54 78.787C447.98 79.06 446.68 79.099 444.34 79.099H443.482V74.146ZM444.574 80.854V80.074H451.763V82.726H445.562V84.039H452.179V84.819H444.6V81.998H450.801V80.854H444.574ZM450.788 79.515V73.574H451.763V76.083H453.453V76.889H451.763V79.515H450.788ZM461.935 75.42V78.748H465.263V79.658H461.935V82.973H461.038V79.658H457.71V78.748H461.038V75.42H461.935ZM478.407 73.574H479.343V84.949H478.407V78.969H476.743V84.351H475.833V73.834H476.743V78.15H478.407V73.574ZM470.139 82.115V74.965H474.351V75.771H471.101V81.296C472.661 81.296 473.753 81.231 474.988 80.971L475.105 81.777C473.74 82.063 472.596 82.115 470.867 82.115H470.139ZM481.073 79.125H491.343V79.931H481.073V79.125ZM482.217 76.031C482.217 74.679 483.764 73.873 486.208 73.873C488.652 73.873 490.199 74.679 490.199 76.031C490.199 77.383 488.652 78.189 486.208 78.189C483.764 78.189 482.217 77.383 482.217 76.031ZM482.321 82.921C482.321 81.634 483.777 80.906 486.208 80.906C488.639 80.906 490.095 81.634 490.095 82.921C490.095 84.221 488.639 84.949 486.208 84.949C483.777 84.949 482.321 84.221 482.321 82.921ZM483.218 76.031C483.218 76.889 484.375 77.409 486.208 77.409C488.041 77.409 489.198 76.889 489.198 76.031C489.198 75.16 488.041 74.64 486.208 74.64C484.375 74.64 483.218 75.16 483.218 76.031ZM483.296 82.921C483.296 83.727 484.388 84.182 486.208 84.182C488.015 84.182 489.107 83.727 489.107 82.921C489.107 82.128 488.015 81.673 486.208 81.673C484.388 81.673 483.296 82.128 483.296 82.921ZM495.782 74.744H502.139V75.563H499.435V77.097C499.435 79.034 500.865 80.984 502.503 81.699L501.944 82.479C500.644 81.868 499.487 80.542 498.954 78.969C498.434 80.646 497.29 82.102 495.99 82.752L495.431 81.985C497.03 81.205 498.46 79.06 498.46 77.097V75.563H495.782V74.744ZM503.725 84.949V73.574H504.7V84.949H503.725ZM515.152 73.587H516.127V81.985H515.152V78.891H512.24C511.72 79.567 510.875 79.97 509.887 79.97C508.21 79.97 506.975 78.813 506.975 77.149C506.975 75.472 508.21 74.302 509.887 74.302C510.862 74.302 511.694 74.705 512.214 75.368H515.152V73.587ZM507.898 77.149C507.898 78.306 508.743 79.125 509.887 79.125C511.018 79.125 511.876 78.306 511.876 77.149C511.876 75.992 511.018 75.173 509.887 75.173C508.743 75.173 507.898 75.992 507.898 77.149ZM508.886 84.689V81.114H509.861V83.883H516.452V84.689H508.886ZM512.656 76.174C512.76 76.473 512.812 76.798 512.812 77.149C512.812 77.487 512.76 77.799 512.669 78.085H515.152V76.174H512.656Z" fill="#17171C"/>
<path d="M599.399 56.156H605.015V56.9H602.663V57.356C602.663 58.748 603.695 59.984 605.219 60.5L604.787 61.196C603.599 60.788 602.687 59.96 602.243 58.892C601.799 60.104 600.827 61.064 599.579 61.508L599.123 60.8C600.683 60.248 601.775 58.892 601.775 57.368V56.9H599.399V56.156ZM600.515 63.92C600.515 62.708 601.823 62.012 603.947 62.012C606.083 62.012 607.391 62.708 607.391 63.92C607.391 65.144 606.083 65.852 603.947 65.852C601.823 65.852 600.515 65.144 600.515 63.92ZM601.391 63.92C601.391 64.688 602.375 65.144 603.947 65.144C605.531 65.144 606.503 64.688 606.503 63.92C606.503 63.176 605.531 62.732 603.947 62.732C602.375 62.732 601.391 63.176 601.391 63.92ZM606.383 61.712V55.376H607.283V58.076H608.855V58.82H607.283V61.712H606.383ZM612.407 56.3H613.307V58.208C613.307 60.128 614.615 62.06 616.127 62.768L615.587 63.488C614.399 62.9 613.367 61.64 612.875 60.128C612.395 61.724 611.351 63.068 610.127 63.68L609.575 62.936C611.099 62.204 612.407 60.2 612.407 58.208V56.3ZM617.291 65.888V55.364H618.191V65.888H617.291ZM627.36 55.376H628.26V58.58H629.832V59.336H628.26V63.056H627.36V55.376ZM620.148 61.112C622.644 60.332 624.288 58.82 624.48 56.936H620.58V56.192H625.452C625.452 58.892 623.532 60.884 620.532 61.844L620.148 61.112ZM621.744 65.636V62.276H622.644V64.892H628.74V65.636H621.744ZM633.377 60.98H637.673V59.852C635.681 59.756 634.433 59 634.433 57.776C634.433 56.48 635.873 55.688 638.117 55.688C640.361 55.688 641.801 56.48 641.801 57.776C641.801 59 640.553 59.756 638.561 59.852V60.98H642.857V61.712H633.377V60.98ZM634.613 65.636V62.612H635.513V64.892H641.813V65.636H634.613ZM635.357 57.776C635.357 58.628 636.449 59.132 638.117 59.132C639.797 59.132 640.877 58.628 640.877 57.776C640.877 56.948 639.797 56.432 638.117 56.432C636.449 56.432 635.357 56.948 635.357 57.776ZM645.09 56.216H652.158V56.96H645.99V60.296H652.278V61.04H649.05V63.776H653.382V64.532H643.866V63.776H648.162V61.04H645.09V56.216ZM657.12 63.764H661.428V61.352H662.316V63.764H666.636V64.52H657.12V63.764ZM657.672 61.004C659.652 60.68 661.428 59.456 661.428 57.788H658.02V57.044H661.428V55.592H662.316V57.044H665.724V57.788H662.328C662.328 59.456 664.08 60.68 666.072 61.004L665.712 61.712C664.068 61.412 662.544 60.572 661.872 59.252C661.212 60.572 659.676 61.412 658.02 61.712L657.672 61.004ZM668.088 56.528H673.368V57.068C673.368 57.908 673.368 59.288 673.068 61.256L672.18 61.184C672.468 59.408 672.492 58.112 672.492 57.272H668.088V56.528ZM667.5 62.804C668.184 62.804 668.952 62.792 669.756 62.78V59.54H670.644V62.756C671.808 62.708 672.996 62.636 674.076 62.504L674.124 63.164C671.94 63.512 669.48 63.56 667.62 63.56L667.5 62.804ZM674.736 65.876V55.376H675.624V59.792H677.34V60.548H675.624V65.876H674.736ZM683.454 55.916H684.33V57.068C684.33 58.508 685.422 59.828 686.91 60.356L686.442 61.052C685.29 60.632 684.366 59.744 683.922 58.628C683.478 59.888 682.542 60.86 681.318 61.352L680.826 60.632C682.398 60.056 683.454 58.628 683.454 57.008V55.916ZM682.23 63.956C682.23 62.756 683.526 62.06 685.662 62.06C687.81 62.06 689.106 62.756 689.106 63.956C689.106 65.156 687.81 65.852 685.662 65.852C683.526 65.852 682.23 65.156 682.23 63.956ZM683.106 63.956C683.106 64.7 684.09 65.144 685.662 65.144C687.246 65.144 688.218 64.7 688.218 63.956C688.218 63.212 687.246 62.768 685.662 62.768C684.09 62.768 683.106 63.212 683.106 63.956ZM688.098 61.772V55.376H688.998V58.124H690.57V58.88H688.998V61.772H688.098ZM691.782 56.588H695.886V57.332H692.634V59.372H695.742V60.092H692.634V62.504C694.194 62.504 695.154 62.456 696.282 62.228L696.39 62.984C695.166 63.224 694.146 63.26 692.442 63.26H691.782V56.588ZM697.074 65.336V55.616H697.926V59.6H699.39V55.376H700.254V65.876H699.39V60.344H697.926V65.336H697.074ZM704.928 56.456H710.796V57.212H708.3V58.628C708.3 60.416 709.62 62.216 711.132 62.876L710.616 63.596C709.416 63.032 708.348 61.808 707.856 60.356C707.376 61.904 706.32 63.248 705.12 63.848L704.604 63.14C706.08 62.42 707.4 60.44 707.4 58.628V57.212H704.928V56.456ZM712.26 65.876V55.376H713.16V65.876H712.26ZM715.092 60.668H719.388V59.036H720.276V60.668H724.608V61.4H715.092V60.668ZM715.668 58.868C717.492 58.616 719.388 57.452 719.388 56.024V55.544H720.288V56.024C720.288 57.44 722.184 58.616 723.996 58.868L723.648 59.588C722.076 59.312 720.492 58.484 719.844 57.26C719.184 58.484 717.6 59.312 716.016 59.588L715.668 58.868ZM716.148 63.188V62.456H723.396V65.876H722.508V63.188H716.148ZM726.925 64.088L726.265 66.308H725.629L725.989 64.088H726.925ZM736.547 59.528H739.343V58.076H736.667C735.983 59.768 734.363 60.992 732.131 61.664L731.759 60.944C734.291 60.2 735.875 58.76 736.055 56.912H732.299V56.168H737.027C737.027 56.576 736.979 56.972 736.895 57.344H739.343V55.376H740.243V61.7H739.343V60.26H736.547V59.528ZM733.367 63.824C733.367 62.564 734.699 61.808 736.835 61.808C738.947 61.808 740.291 62.564 740.291 63.824C740.291 65.072 738.947 65.828 736.835 65.828C734.699 65.828 733.367 65.072 733.367 63.824ZM734.255 63.824C734.255 64.616 735.263 65.108 736.835 65.108C738.407 65.108 739.403 64.616 739.403 63.824C739.403 63.008 738.407 62.528 736.835 62.528C735.263 62.528 734.255 63.008 734.255 63.824ZM742.116 63.764H746.412V61.472H743.256V56.12H744.144V58.016H749.592V56.12H750.48V61.472H747.3V63.764H751.632V64.52H742.116V63.764ZM744.144 60.74H749.592V58.76H744.144V60.74ZM755.838 55.808H756.726V57.344H759.786V55.808H760.674V60.38H755.838V55.808ZM756.726 59.648H759.786V58.052H756.726V59.648ZM756.882 62.036V61.316H763.518V63.836H757.794V65.024H763.902V65.756H756.906V63.152H762.63V62.036H756.882ZM762.618 60.8V55.376H763.518V57.668H765.078V58.412H763.518V60.8H762.618ZM601.367 74.024H602.231V75.452C602.231 76.628 603.047 77.816 604.379 78.332L603.911 79.016C602.903 78.632 602.183 77.852 601.811 76.94C601.439 77.948 600.683 78.848 599.639 79.304L599.159 78.608C600.527 78.008 601.367 76.64 601.367 75.452V74.024ZM601.043 81.98C601.043 80.804 602.375 80.108 604.535 80.108C606.695 80.108 608.027 80.804 608.027 81.98C608.027 83.168 606.695 83.852 604.535 83.852C602.375 83.852 601.043 83.168 601.043 81.98ZM601.931 81.98C601.931 82.712 602.927 83.156 604.535 83.156C606.143 83.156 607.127 82.712 607.127 81.98C607.127 81.248 606.143 80.816 604.535 80.816C602.927 80.816 601.931 81.248 601.931 81.98ZM604.859 79.532V73.592H605.711V76.22H607.115V73.388H607.979V79.868H607.115V76.964H605.711V79.532H604.859ZM620.069 73.364H620.969V83.888H620.069V73.364ZM612.785 77.84C612.785 75.608 613.889 74.192 615.449 74.192C616.997 74.192 618.101 75.608 618.101 77.84C618.101 80.072 616.997 81.5 615.449 81.5C613.889 81.5 612.785 80.072 612.785 77.84ZM613.661 77.84C613.661 79.556 614.393 80.696 615.449 80.696C616.493 80.696 617.237 79.556 617.237 77.84C617.237 76.124 616.493 74.996 615.449 74.996C614.393 74.996 613.661 76.124 613.661 77.84ZM623.393 74.588H627.185V73.304H628.073V74.588H631.829V75.32H623.393V74.588ZM622.889 80.924V80.192H632.405V80.924H628.073V83.888H627.185V80.924H622.889ZM624.245 77.696C624.245 76.568 625.505 75.944 627.629 75.944C629.753 75.944 631.013 76.568 631.013 77.696C631.013 78.8 629.753 79.436 627.629 79.436C625.505 79.436 624.245 78.8 624.245 77.696ZM625.169 77.696C625.169 78.356 626.069 78.74 627.629 78.74C629.189 78.74 630.089 78.356 630.089 77.696C630.089 77.024 629.189 76.628 627.629 76.628C626.069 76.628 625.169 77.024 625.169 77.696ZM644.171 73.376H645.035V83.876H644.171V78.356H642.635V83.324H641.795V73.616H642.635V77.6H644.171V73.376ZM636.539 81.26V74.66H640.427V75.404H637.427V80.504C638.867 80.504 639.875 80.444 641.015 80.204L641.123 80.948C639.863 81.212 638.807 81.26 637.211 81.26H636.539ZM646.631 78.5H656.111V79.244H646.631V78.5ZM647.687 75.644C647.687 74.396 649.115 73.652 651.371 73.652C653.627 73.652 655.055 74.396 655.055 75.644C655.055 76.892 653.627 77.636 651.371 77.636C649.115 77.636 647.687 76.892 647.687 75.644ZM647.783 82.004C647.783 80.816 649.127 80.144 651.371 80.144C653.615 80.144 654.959 80.816 654.959 82.004C654.959 83.204 653.615 83.876 651.371 83.876C649.127 83.876 647.783 83.204 647.783 82.004ZM648.611 75.644C648.611 76.436 649.679 76.916 651.371 76.916C653.063 76.916 654.131 76.436 654.131 75.644C654.131 74.84 653.063 74.36 651.371 74.36C649.679 74.36 648.611 74.84 648.611 75.644ZM648.683 82.004C648.683 82.748 649.691 83.168 651.371 83.168C653.039 83.168 654.047 82.748 654.047 82.004C654.047 81.272 653.039 80.852 651.371 80.852C649.691 80.852 648.683 81.272 648.683 82.004ZM664.464 73.376H665.352V77.72H666.948V78.476H665.352V83.876H664.464V73.376ZM657.096 80.984C658.68 79.352 659.328 77.36 659.436 75.26H657.42V74.516H660.276C660.276 77 659.712 79.472 657.816 81.5L657.096 80.984ZM660.096 81.692C661.728 79.82 662.22 77.444 662.292 75.26H660.612V74.516H663.144C663.144 76.988 662.772 79.904 660.828 82.196L660.096 81.692ZM667.932 74.456H673.8V75.212H671.304V76.628C671.304 78.416 672.624 80.216 674.136 80.876L673.62 81.596C672.42 81.032 671.352 79.808 670.86 78.356C670.38 79.904 669.324 81.248 668.124 81.848L667.608 81.14C669.084 80.42 670.404 78.44 670.404 76.628V75.212H667.932V74.456ZM675.264 83.876V73.376H676.164V83.876H675.264ZM680.862 81.74H685.134V79.172H686.022V81.74H690.378V82.496H680.862V81.74ZM681.258 78.524C683.046 78.2 685.11 76.664 685.11 74.9V74.072H686.046V74.9C686.046 76.664 688.134 78.2 689.91 78.524L689.514 79.28C687.942 78.932 686.262 77.852 685.578 76.34C684.894 77.84 683.214 78.932 681.642 79.28L681.258 78.524ZM691.35 81.764H693.714V78.896C692.826 78.44 692.286 77.684 692.286 76.736C692.286 75.104 693.882 74.048 696.09 74.048C698.322 74.048 699.894 75.104 699.894 76.736C699.894 77.672 699.366 78.416 698.502 78.884V81.764H700.866V82.508H691.35V81.764ZM693.162 76.736C693.162 77.924 694.386 78.704 696.09 78.704C697.794 78.704 699.03 77.924 699.03 76.736C699.03 75.548 697.794 74.768 696.09 74.768C694.386 74.768 693.162 75.548 693.162 76.736ZM694.602 81.764H697.602V79.232C697.146 79.352 696.642 79.412 696.09 79.412C695.55 79.412 695.058 79.352 694.602 79.232V81.764ZM707.376 74.3H708.276V76.208C708.276 78.128 709.584 80.06 711.096 80.768L710.556 81.488C709.368 80.9 708.336 79.64 707.844 78.128C707.364 79.724 706.32 81.068 705.096 81.68L704.544 80.936C706.068 80.204 707.376 78.2 707.376 76.208V74.3ZM712.26 83.888V73.364H713.16V83.888H712.26ZM722.328 73.376H723.228V76.58H724.8V77.336H723.228V81.056H722.328V73.376ZM715.116 79.112C717.612 78.332 719.256 76.82 719.448 74.936H715.548V74.192H720.42C720.42 76.892 718.5 78.884 715.5 79.844L715.116 79.112ZM716.712 83.636V80.276H717.612V82.892H723.708V83.636H716.712ZM736.026 73.376H736.938V78.74H736.026V73.376ZM728.526 78.224C731.142 77.636 732.678 76.364 732.834 74.636H729.042V73.892H733.818C733.818 76.556 731.922 78.236 728.85 78.956L728.526 78.224ZM730.17 79.976V79.256H736.938V81.776H731.082V83.06H737.298V83.768H730.206V81.092H736.038V79.976H730.17ZM746.874 73.376H747.738V83.876H746.874V73.376ZM738.846 80.948C741.114 79.592 742.254 77.672 742.422 75.464H739.278V74.72H743.322C743.322 75.752 743.154 76.76 742.794 77.696H744.69V73.652H745.542V83.324H744.69V78.428H742.47C741.834 79.652 740.826 80.744 739.374 81.608L738.846 80.948ZM752.676 74.192H757.86V74.744C757.86 75.416 757.86 76.46 757.584 77.852L756.696 77.756C756.96 76.496 756.984 75.596 756.984 74.936H752.676V74.192ZM752.028 78.836C752.7 78.836 753.48 78.836 754.284 78.812V76.52H755.172V78.788C756.336 78.74 757.536 78.656 758.616 78.5L758.676 79.16C756.504 79.532 753.984 79.58 752.136 79.58L752.028 78.836ZM753.648 83.636V80.564H754.536V82.892H760.572V83.636H753.648ZM759.336 81.284V73.376H760.236V76.82H761.772V77.564H760.236V81.284H759.336ZM599.147 96.692H608.627V97.424H599.147V96.692ZM599.735 95.384C601.667 95.204 603.347 94.376 603.407 93.152H600.131V92.432H603.443V91.34H604.343V92.432H607.667V93.152H604.379C604.439 94.376 606.119 95.204 608.051 95.384L607.763 96.08C606.071 95.9 604.523 95.264 603.887 94.196C603.251 95.264 601.703 95.9 600.011 96.08L599.735 95.384ZM600.203 99.296V98.576H607.451V101.876H606.563V99.296H600.203ZM617.315 91.376H618.203V97.76H617.315V91.376ZM609.695 96.572C610.583 96.572 611.603 96.572 612.671 96.536V95.264H610.619V91.964H615.659V92.708H611.519V94.52H615.755V95.264H613.571V96.5C614.543 96.452 615.527 96.368 616.451 96.236L616.511 96.884C614.231 97.268 611.699 97.292 609.803 97.304L609.695 96.572ZM611.375 101.732V98.288H618.203V101.732H611.375ZM612.251 101H617.339V99.02H612.251V101Z" fill="#17171C"/>
<rect width="780" height="60" transform="translate(0 118)" fill="white"/>
<mask id="path-37-inside-11_311_50379" fill="white">
<path d="M0 118H60V178H0V118Z"/>
</mask>
<path d="M60 118H59V178H60H61V118H60Z" fill="#DBDBE0" mask="url(#path-37-inside-11_311_50379)"/>
<path d="M32.377 153H26.878V152.051L30.609 147.54C30.96 147.124 31.103 146.708 31.103 146.24C31.103 145.317 30.531 144.784 29.582 144.784C28.776 144.784 28.009 145.226 28.009 146.422H26.865C26.865 144.849 27.97 143.783 29.569 143.783C30.557 143.783 31.363 144.186 31.818 144.823C32.091 145.213 32.234 145.655 32.234 146.227C32.234 146.942 31.961 147.54 31.467 148.151L28.321 151.96H32.377V153Z" fill="#17171C"/>
<mask id="path-40-inside-12_311_50379" fill="white">
<path d="M60 118H200V178H60V118Z"/>
</mask>
<path d="M200 118H199V178H200H201V118H200Z" fill="#DBDBE0" mask="url(#path-40-inside-12_311_50379)"/>
<path d="M78.656 153H73.404V152.038H75.445V144.732H73.404V143.783H78.656V144.732H76.615V152.038H78.656V153ZM87.4975 148.372C87.4975 149.62 87.3805 150.777 86.8605 151.609C86.3405 152.454 85.3655 153 83.9225 153H81.1795V143.783H83.9225C85.3655 143.783 86.3535 144.368 86.8735 145.213C87.3935 146.045 87.4975 147.124 87.4975 148.372ZM86.3145 148.372C86.3145 147.189 86.2625 146.11 85.6255 145.46C85.2745 145.096 84.7155 144.849 83.9225 144.849H82.3365V151.934H83.9225C84.7545 151.934 85.3135 151.661 85.6645 151.284C86.2755 150.621 86.3145 149.516 86.3145 148.372ZM94.48 149.594H89.839V148.567H94.48V149.594ZM103.608 150.465C103.608 151.232 103.296 151.817 102.841 152.259C102.204 152.883 101.229 153.169 100.241 153.169C99.1226 153.169 98.2516 152.87 97.6276 152.298C97.0426 151.752 96.6656 150.959 96.6656 150.088H97.8746C97.8746 150.634 98.1346 151.18 98.5116 151.544C98.9276 151.947 99.5906 152.103 100.241 152.103C100.943 152.103 101.515 151.96 101.931 151.57C102.217 151.31 102.399 150.985 102.399 150.491C102.399 149.776 101.97 149.178 100.878 149.009L99.4606 148.788C98.0826 148.58 97.0296 147.813 97.0296 146.344C97.0296 145.655 97.3156 144.992 97.8096 144.524C98.4466 143.926 99.2266 143.614 100.189 143.614C101.086 143.614 101.944 143.887 102.555 144.472C103.114 145.005 103.4 145.681 103.426 146.461H102.217C102.191 146.006 102.035 145.629 101.775 145.33C101.424 144.927 100.891 144.68 100.176 144.68C99.5126 144.68 98.9796 144.875 98.5766 145.33C98.3426 145.603 98.2256 145.902 98.2256 146.318C98.2256 147.15 98.8886 147.527 99.5776 147.618C100.098 147.683 100.566 147.774 101.073 147.852C102.607 148.073 103.608 149.009 103.608 150.465ZM110.564 150.062H111.76C111.682 151.856 110.239 153.182 108.445 153.182C107.522 153.182 106.716 152.831 106.066 152.194C105.026 151.18 104.935 149.763 104.935 148.398C104.935 147.033 105.026 145.616 106.066 144.602C106.716 143.965 107.522 143.614 108.445 143.614C110.226 143.614 111.669 144.862 111.747 146.669H110.538C110.512 146.162 110.291 145.668 110.005 145.369C109.628 144.953 109.082 144.706 108.445 144.706C107.821 144.706 107.314 144.966 106.885 145.408C106.131 146.188 106.131 147.384 106.131 148.398C106.131 149.412 106.131 150.608 106.885 151.388C107.314 151.83 107.821 152.09 108.445 152.09C109.615 152.09 110.538 151.245 110.564 150.062ZM119.354 148.476C119.354 150.218 119.198 151.479 118.288 152.402C117.846 152.844 117.235 153.169 116.338 153.169C115.441 153.169 114.83 152.844 114.388 152.402C113.478 151.479 113.322 150.218 113.322 148.476C113.322 146.734 113.478 145.46 114.388 144.537C114.83 144.095 115.441 143.783 116.338 143.783C117.235 143.783 117.846 144.095 118.288 144.537C119.198 145.46 119.354 146.734 119.354 148.476ZM114.505 150.01L117.898 145.85C117.794 145.603 117.651 145.382 117.456 145.2C117.196 144.953 116.819 144.784 116.338 144.784C115.857 144.784 115.48 144.953 115.22 145.2C114.453 145.928 114.466 147.254 114.466 148.476C114.466 148.983 114.453 149.516 114.505 150.01ZM118.21 148.476C118.21 147.995 118.21 147.501 118.171 147.033L114.817 151.18C114.921 151.401 115.051 151.596 115.22 151.752C115.48 151.999 115.857 152.168 116.338 152.168C116.819 152.168 117.196 151.999 117.456 151.752C118.223 151.024 118.21 149.698 118.21 148.476ZM127.363 150.517C127.363 151.206 127.129 151.752 126.765 152.181C126.232 152.818 125.348 153.169 124.399 153.169C123.45 153.169 122.566 152.818 122.033 152.181C121.669 151.752 121.435 151.206 121.435 150.517C121.435 149.529 122.02 148.671 122.852 148.294C122.111 147.904 121.617 147.124 121.617 146.253C121.617 145.512 121.916 144.927 122.358 144.511C122.865 144.043 123.606 143.783 124.399 143.783C125.192 143.783 125.933 144.043 126.44 144.511C126.882 144.927 127.181 145.512 127.181 146.253C127.181 147.124 126.687 147.904 125.946 148.294C126.778 148.671 127.363 149.529 127.363 150.517ZM126.063 146.253C126.063 145.33 125.296 144.758 124.399 144.758C123.502 144.758 122.735 145.33 122.735 146.253C122.735 147.085 123.359 147.813 124.399 147.813C125.439 147.813 126.063 147.085 126.063 146.253ZM126.245 150.465C126.245 149.503 125.543 148.775 124.399 148.775C123.255 148.775 122.553 149.503 122.553 150.465C122.553 151.531 123.346 152.194 124.399 152.194C125.452 152.194 126.245 151.531 126.245 150.465Z" fill="#17171C"/>
<mask id="path-43-inside-13_311_50379" fill="white">
<path d="M200 118H393.333V178H200V118Z"/>
</mask>
<path d="M393.333 118H392.333V178H393.333H394.333V118H393.333Z" fill="#DBDBE0" mask="url(#path-43-inside-13_311_50379)"/>
<path d="M212.494 144.05H214.847V142.399H215.809V144.05H218.149V144.843H212.494V144.05ZM212.897 148.21C212.897 146.702 213.911 145.636 215.328 145.636C216.745 145.636 217.772 146.702 217.772 148.21C217.772 149.744 216.745 150.797 215.328 150.797C213.911 150.797 212.897 149.744 212.897 148.21ZM213.768 148.21C213.768 149.237 214.418 149.965 215.328 149.965C216.238 149.965 216.901 149.237 216.901 148.21C216.901 147.196 216.238 146.455 215.328 146.455C214.418 146.455 213.768 147.196 213.768 148.21ZM218.747 152.877V142.347H219.67V146.884H221.191V142.074H222.114V153.449H221.191V147.69H219.67V152.877H218.747ZM226.69 142.659H227.639V143.907C227.639 145.467 228.822 146.897 230.434 147.469L229.927 148.223C228.679 147.768 227.678 146.806 227.197 145.597C226.716 146.962 225.702 148.015 224.376 148.548L223.843 147.768C225.546 147.144 226.69 145.597 226.69 143.842V142.659ZM225.364 151.369C225.364 150.069 226.768 149.315 229.082 149.315C231.409 149.315 232.813 150.069 232.813 151.369C232.813 152.669 231.409 153.423 229.082 153.423C226.768 153.423 225.364 152.669 225.364 151.369ZM226.313 151.369C226.313 152.175 227.379 152.656 229.082 152.656C230.798 152.656 231.851 152.175 231.851 151.369C231.851 150.563 230.798 150.082 229.082 150.082C227.379 150.082 226.313 150.563 226.313 151.369ZM231.721 149.003V142.074H232.696V145.051H234.399V145.87H232.696V149.003H231.721ZM238.241 147.872H248.55V148.678H243.961V151.018H242.973V148.678H238.241V147.872ZM239.398 144.648C239.398 143.244 240.984 142.36 243.376 142.36C245.794 142.36 247.354 143.244 247.354 144.648C247.354 146.052 245.794 146.923 243.376 146.923C240.984 146.923 239.398 146.052 239.398 144.648ZM239.567 153.189V149.874H240.542V152.37H247.406V153.189H239.567ZM240.438 144.648C240.438 145.558 241.621 146.117 243.376 146.117C245.144 146.117 246.327 145.558 246.327 144.648C246.327 143.738 245.144 143.166 243.376 143.166C241.621 143.166 240.438 143.738 240.438 144.648ZM254.244 146.052H255.219V147.742H259.873V148.535H249.603V147.742H254.244V146.052ZM250.227 145.857C252.203 145.571 254.244 144.323 254.244 142.776V142.256H255.232V142.776C255.232 144.31 257.286 145.571 259.249 145.857L258.872 146.637C257.169 146.338 255.453 145.441 254.751 144.115C254.036 145.441 252.32 146.338 250.604 146.637L250.227 145.857ZM250.851 151.46C250.851 150.212 252.294 149.51 254.738 149.51C257.169 149.51 258.625 150.212 258.625 151.46C258.625 152.734 257.169 153.423 254.738 153.423C252.294 153.423 250.851 152.734 250.851 151.46ZM251.826 151.46C251.826 152.227 252.918 152.669 254.738 152.669C256.558 152.669 257.637 152.227 257.637 151.46C257.637 150.706 256.558 150.264 254.738 150.264C252.918 150.264 251.826 150.706 251.826 151.46ZM265.274 142.828H272.879V143.816C272.879 144.895 272.879 146.065 272.554 147.716H274.244V148.535H269.577V153.475H268.589V148.535H263.961V147.716H271.566C271.917 146.091 271.917 144.882 271.917 143.816V143.621H265.274V142.828ZM283.163 142.074H284.138V145.545H285.841V146.364H284.138V150.394H283.163V142.074ZM275.35 148.288C278.054 147.443 279.835 145.805 280.043 143.764H275.818V142.958H281.096C281.096 145.883 279.016 148.041 275.766 149.081L275.35 148.288ZM277.079 153.189V149.549H278.054V152.383H284.658V153.189H277.079Z" fill="#17171C"/>
<mask id="path-46-inside-14_311_50379" fill="white">
<path d="M393.333 118H586.666V178H393.333V118Z"/>
</mask>
<path d="M586.666 118H585.666V178H586.666H587.666V118H586.666Z" fill="#DBDBE0" mask="url(#path-46-inside-14_311_50379)"/>
<path d="M405.853 148.645H410.507V147.423C408.349 147.319 406.997 146.5 406.997 145.174C406.997 143.77 408.557 142.912 410.988 142.912C413.419 142.912 414.979 143.77 414.979 145.174C414.979 146.5 413.627 147.319 411.469 147.423V148.645H416.123V149.438H405.853V148.645ZM407.192 153.689V150.413H408.167V152.883H414.992V153.689H407.192ZM407.998 145.174C407.998 146.097 409.181 146.643 410.988 146.643C412.808 146.643 413.978 146.097 413.978 145.174C413.978 144.277 412.808 143.718 410.988 143.718C409.181 143.718 407.998 144.277 407.998 145.174ZM418.541 143.484H426.198V144.29H419.516V147.904H426.328V148.71H422.831V151.674H427.524V152.493H417.215V151.674H421.869V148.71H418.541V143.484ZM434.759 143.003C436.449 143.003 437.697 144.03 437.697 145.512C437.697 146.994 436.449 148.008 434.759 148.008C433.069 148.008 431.834 146.994 431.834 145.512C431.834 144.03 433.069 143.003 434.759 143.003ZM432.783 145.512C432.783 146.513 433.628 147.215 434.759 147.215C435.903 147.215 436.748 146.513 436.748 145.512C436.748 144.511 435.903 143.796 434.759 143.796C433.628 143.796 432.783 144.511 432.783 145.512ZM433.55 149.763V148.983H440.882V151.7H434.525V153.013H441.272V153.793H433.589V150.972H439.907V149.763H433.55ZM439.894 148.411V142.574H440.882V148.411H439.894ZM443.482 143.146H448.656V143.939H444.457V145.2H448.461V145.967H444.457V147.306C446.693 147.306 447.941 147.267 449.449 147.007L449.54 147.787C447.98 148.06 446.68 148.099 444.34 148.099H443.482V143.146ZM444.574 149.854V149.074H451.763V151.726H445.562V153.039H452.179V153.819H444.6V150.998H450.801V149.854H444.574ZM450.788 148.515V142.574H451.763V145.083H453.453V145.889H451.763V148.515H450.788Z" fill="#17171C"/>
<path d="M602.087 133.772C603.647 133.772 604.799 134.72 604.799 136.088C604.799 137.456 603.647 138.392 602.087 138.392C600.527 138.392 599.387 137.456 599.387 136.088C599.387 134.72 600.527 133.772 602.087 133.772ZM600.263 136.088C600.263 137.012 601.043 137.66 602.087 137.66C603.143 137.66 603.923 137.012 603.923 136.088C603.923 135.164 603.143 134.504 602.087 134.504C601.043 134.504 600.263 135.164 600.263 136.088ZM600.971 140.012V139.292H607.739V141.8H601.871V143.012H608.099V143.732H601.007V141.128H606.839V140.012H600.971ZM606.827 138.764V133.376H607.739V138.764H606.827ZM610.139 133.904H614.915V134.636H611.039V135.8H614.735V136.508H611.039V137.744C613.103 137.744 614.255 137.708 615.647 137.468L615.731 138.188C614.291 138.44 613.091 138.476 610.931 138.476H610.139V133.904ZM611.147 140.096V139.376H617.783V141.824H612.059V143.036H618.167V143.756H611.171V141.152H616.895V140.096H611.147ZM616.883 138.86V133.376H617.783V135.692H619.343V136.436H617.783V138.86H616.883ZM630.137 133.388H631.037V136.58H632.597V137.324H631.037V141.08H630.137V133.388ZM623.357 139.316V134.132H624.245V135.92H627.305V134.132H628.193V139.316H623.357ZM624.245 138.584H627.305V136.628H624.245V138.584ZM624.533 143.636V140.348H625.421V142.892H631.517V143.636H624.533ZM633.377 138.812H637.673V137.528H634.649V133.628H635.537V134.84H640.721V133.628H641.621V137.528H638.561V138.812H642.857V139.556H633.377V138.812ZM634.433 141.356V140.624H641.681V143.876H640.793V141.356H634.433ZM635.537 136.808H640.721V135.548H635.537V136.808ZM643.866 138.92H653.346V139.652H643.866V138.92ZM644.922 135.824C644.922 134.516 646.362 133.736 648.606 133.736C650.85 133.736 652.29 134.516 652.29 135.824C652.29 137.132 650.85 137.912 648.606 137.912C646.362 137.912 644.922 137.132 644.922 135.824ZM645.102 143.648V140.6H646.002V142.904H652.302V143.648H645.102ZM645.846 135.824C645.846 136.664 646.938 137.18 648.606 137.18C650.286 137.18 651.366 136.664 651.366 135.824C651.366 134.984 650.286 134.48 648.606 134.48C646.938 134.48 645.846 134.984 645.846 135.824ZM659.772 139.856H660.636V140.432C660.636 141.38 661.14 142.376 662.124 142.952C663.144 142.316 663.66 141.248 663.66 140.432V139.856H664.536V140.432C664.536 141.524 665.34 142.604 666.66 143.06L666.216 143.732C665.184 143.36 664.452 142.616 664.08 141.74C663.768 142.592 663.132 143.408 662.16 143.828C661.152 143.432 660.504 142.664 660.192 141.776C659.82 142.616 659.1 143.348 658.104 143.732L657.648 143.06C658.968 142.58 659.772 141.44 659.772 140.432V139.856ZM657.372 136.448C657.372 134.996 658.512 134 660.096 134C661.68 134 662.82 134.996 662.82 136.448C662.82 137.888 661.68 138.872 660.096 138.872C658.512 138.872 657.372 137.888 657.372 136.448ZM658.248 136.448C658.248 137.444 659.028 138.128 660.096 138.128C661.176 138.128 661.944 137.444 661.944 136.448C661.944 135.452 661.176 134.756 660.096 134.756C659.028 134.756 658.248 135.452 658.248 136.448ZM664.812 139.388V133.388H665.724V139.388H664.812ZM670.32 139.784H671.184V140.42C671.184 141.368 671.688 142.376 672.672 142.964C673.692 142.328 674.208 141.236 674.208 140.42V139.784H675.084V140.42C675.084 141.512 675.876 142.616 677.208 143.072L676.752 143.744C675.72 143.36 674.988 142.616 674.64 141.728C674.316 142.592 673.68 143.408 672.696 143.84C671.688 143.432 671.052 142.664 670.74 141.776C670.368 142.628 669.648 143.36 668.652 143.744L668.196 143.072C669.516 142.58 670.32 141.44 670.32 140.42V139.784ZM667.8 136.424C667.8 134.984 668.928 133.976 670.476 133.976C671.868 133.976 672.936 134.804 673.128 136.028H675.336V133.376H676.236V139.376H675.336V136.772H673.128C672.96 138.032 671.88 138.872 670.476 138.872C668.928 138.872 667.8 137.876 667.8 136.424ZM668.652 136.424C668.652 137.42 669.42 138.128 670.476 138.128C671.52 138.128 672.288 137.42 672.288 136.424C672.288 135.44 671.52 134.732 670.476 134.732C669.42 134.732 668.652 135.44 668.652 136.424ZM682.836 134.048C685.02 134.048 686.64 135.2 686.64 136.928C686.64 138.668 685.02 139.808 682.836 139.808C680.664 139.808 679.032 138.668 679.032 136.928C679.032 135.2 680.664 134.048 682.836 134.048ZM678.096 142.46V141.704H687.612V142.46H678.096ZM679.896 136.928C679.896 138.212 681.156 139.076 682.836 139.076C684.528 139.076 685.776 138.212 685.776 136.928C685.776 135.656 684.528 134.78 682.836 134.78C681.156 134.78 679.896 135.656 679.896 136.928ZM695.748 133.364H696.648V137.588H698.34V138.344H696.648V143.876H695.748V133.364ZM689.028 141.2V134.408H689.916V140.456C691.44 140.456 693.024 140.336 694.74 139.976L694.848 140.732C693.048 141.092 691.452 141.2 689.856 141.2H689.028ZM700.417 142.088L699.757 144.308H699.121L699.481 142.088H700.417ZM708.06 133.772C709.62 133.772 710.772 134.72 710.772 136.088C710.772 137.456 709.62 138.392 708.06 138.392C706.5 138.392 705.36 137.456 705.36 136.088C705.36 134.72 706.5 133.772 708.06 133.772ZM706.236 136.088C706.236 137.012 707.016 137.66 708.06 137.66C709.116 137.66 709.896 137.012 709.896 136.088C709.896 135.164 709.116 134.504 708.06 134.504C707.016 134.504 706.236 135.164 706.236 136.088ZM706.944 140.012V139.292H713.712V141.8H707.844V143.012H714.072V143.732H706.98V141.128H712.812V140.012H706.944ZM712.8 138.764V133.376H713.712V138.764H712.8ZM716.112 133.904H720.888V134.636H717.012V135.8H720.708V136.508H717.012V137.744C719.076 137.744 720.228 137.708 721.62 137.468L721.704 138.188C720.264 138.44 719.064 138.476 716.904 138.476H716.112V133.904ZM717.12 140.096V139.376H723.756V141.824H718.032V143.036H724.14V143.756H717.144V141.152H722.868V140.096H717.12ZM722.856 138.86V133.376H723.756V135.692H725.316V136.436H723.756V138.86H722.856ZM736.098 133.376H736.998V136.124H738.57V136.88H736.998V139.676H736.098V133.376ZM728.886 138.956C731.418 138.212 733.014 136.748 733.194 134.9H729.342V134.156H734.166C734.166 136.832 732.294 138.788 729.27 139.688L728.886 138.956ZM730.314 141.836C730.314 140.576 731.634 139.808 733.722 139.808C735.798 139.808 737.118 140.576 737.118 141.836C737.118 143.096 735.798 143.852 733.722 143.852C731.634 143.852 730.314 143.096 730.314 141.836ZM731.202 141.836C731.202 142.628 732.198 143.132 733.722 143.132C735.258 143.132 736.242 142.628 736.242 141.836C736.242 141.02 735.258 140.528 733.722 140.528C732.198 140.528 731.202 141.02 731.202 141.836ZM740.574 134.216H747.642V134.96H741.474V138.296H747.762V139.04H744.534V141.776H748.866V142.532H739.35V141.776H743.646V139.04H740.574V134.216ZM756.99 133.364H757.902V137.66H759.594V138.416H757.902V143.876H756.99V133.364ZM749.922 141.164C752.622 139.808 754.086 137.744 754.29 135.248H750.402V134.504H755.202C755.202 137.468 753.81 140.168 750.426 141.86L749.922 141.164ZM599.135 153.068H601.787V151.496H602.687V153.068H605.327V153.812H599.135V153.068ZM599.783 157.112C599.783 155.696 600.827 154.712 602.243 154.712C603.647 154.712 604.691 155.696 604.691 157.112C604.691 158.516 603.647 159.512 602.243 159.512C600.827 159.512 599.783 158.516 599.783 157.112ZM600.623 157.112C600.623 158.06 601.307 158.744 602.243 158.744C603.167 158.744 603.863 158.06 603.863 157.112C603.863 156.164 603.167 155.468 602.243 155.468C601.307 155.468 600.623 156.164 600.623 157.112ZM605.111 156.56V155.792H606.863V151.376H607.751V161.876H606.863V156.56H605.111ZM609.635 156.596H611.999V155.096C611.159 154.76 610.691 154.232 610.691 153.524C610.691 152.288 612.107 151.58 614.375 151.58C616.643 151.58 618.059 152.288 618.059 153.524C618.059 154.232 617.591 154.76 616.763 155.084V156.596H619.115V157.316H609.635V156.596ZM610.787 159.992C610.787 158.816 612.131 158.144 614.375 158.144C616.619 158.144 617.963 158.816 617.963 159.992C617.963 161.192 616.619 161.864 614.375 161.864C612.131 161.864 610.787 161.192 610.787 159.992ZM611.615 153.524C611.615 154.292 612.683 154.76 614.375 154.76C616.067 154.76 617.135 154.292 617.135 153.524C617.135 152.744 616.067 152.276 614.375 152.276C612.683 152.276 611.615 152.744 611.615 153.524ZM611.687 159.992C611.687 160.736 612.695 161.156 614.375 161.156C616.043 161.156 617.051 160.736 617.051 159.992C617.051 159.272 616.043 158.84 614.375 158.84C612.695 158.84 611.687 159.272 611.687 159.992ZM612.887 156.596H615.875V155.336C615.431 155.408 614.927 155.456 614.375 155.456C613.823 155.456 613.331 155.42 612.887 155.336V156.596ZM620.64 151.964H621.54V153.656H624.48V151.964H625.368V154.052H627.84V151.376H628.74V157.472H627.84V154.796H625.368V156.86H620.64V151.964ZM621.54 156.128H624.48V154.376H621.54V156.128ZM621.948 161.732V158H628.74V161.732H621.948ZM622.836 161H627.864V158.732H622.836V161ZM634.032 151.88C635.592 151.88 636.708 152.744 636.708 154.028C636.708 155.3 635.592 156.176 634.032 156.176C632.484 156.176 631.368 155.3 631.368 154.028C631.368 152.744 632.484 151.88 634.032 151.88ZM630.576 157.088C632.532 157.088 635.208 157.064 637.524 156.704L637.584 157.388C636.588 157.568 635.544 157.676 634.536 157.748V161.552H633.636V157.796C632.58 157.844 631.572 157.856 630.696 157.856L630.576 157.088ZM632.232 154.028C632.232 154.856 632.988 155.42 634.032 155.42C635.088 155.42 635.844 154.856 635.844 154.028C635.844 153.2 635.088 152.624 634.032 152.624C632.988 152.624 632.232 153.2 632.232 154.028ZM638.292 161.888V151.376H639.18V161.888H638.292ZM649.14 151.376H650.004V161.876H649.14V151.376ZM641.232 155.9C641.232 153.668 642.108 152.264 643.452 152.264C644.736 152.264 645.576 153.488 645.684 155.48H647.064V151.616H647.916V161.336H647.064V156.224H645.684C645.612 158.276 644.748 159.548 643.452 159.548C642.108 159.548 641.232 158.144 641.232 155.9ZM642.06 155.9C642.06 157.616 642.6 158.708 643.452 158.708C644.328 158.708 644.868 157.616 644.868 155.9C644.868 154.184 644.328 153.104 643.452 153.104C642.6 153.104 642.06 154.184 642.06 155.9ZM656.82 154.976H659.304V151.364H660.192V161.888H659.304V155.708H656.82V154.976ZM651.588 158.924C653.088 158.168 654.324 156.152 654.324 154.208V152.288H655.224V154.208C655.224 156.104 656.448 158.024 657.948 158.732L657.42 159.464C656.232 158.852 655.248 157.58 654.78 156.08C654.324 157.664 653.328 159.008 652.152 159.644L651.588 158.924ZM665.982 152.456H673.146V153.752C673.146 155.3 673.146 156.728 672.714 158.852L671.814 158.768C672.042 157.76 672.15 156.872 672.21 156.044L665.838 156.392L665.706 155.648L672.234 155.372C672.258 154.82 672.258 154.28 672.258 153.752V153.2H665.982V152.456ZM664.842 160.388V159.632H674.334V160.388H664.842ZM683.371 151.376H684.235V161.876H683.371V151.376ZM675.343 158.948C677.611 157.592 678.751 155.672 678.919 153.464H675.775V152.72H679.819C679.819 153.752 679.651 154.76 679.291 155.696H681.187V151.652H682.039V161.324H681.187V156.428H678.967C678.331 157.652 677.323 158.744 675.871 159.608L675.343 158.948ZM689.112 152.012H690.012V153.728H692.94V152.012H693.828V154.208H696.312V151.376H697.212V158.648H696.312V154.952H693.828V156.956H689.112V152.012ZM689.844 161.132C691.668 160.82 693.396 159.68 693.396 158.216V157.916H694.32V158.216C694.32 159.716 696.024 160.82 697.86 161.132L697.512 161.84C695.94 161.552 694.464 160.736 693.852 159.512C693.228 160.724 691.764 161.552 690.192 161.84L689.844 161.132ZM690.012 156.224H692.94V154.448H690.012V156.224ZM701.857 152.192C703.285 152.192 704.317 153.428 704.449 155.408H706.801V151.364H707.689V161.888H706.801V156.128H704.449C704.365 158.192 703.309 159.5 701.857 159.5C700.333 159.5 699.253 158.072 699.253 155.84C699.253 153.608 700.333 152.192 701.857 152.192ZM700.105 155.84C700.105 157.556 700.825 158.696 701.857 158.696C702.901 158.696 703.609 157.556 703.609 155.84C703.609 154.124 702.901 152.996 701.857 152.996C700.825 152.996 700.105 154.124 700.105 155.84ZM716.725 151.364H717.625V155.588H719.317V156.344H717.625V161.876H716.725V151.364ZM710.005 159.2V152.408H710.893V158.456C712.417 158.456 714.001 158.336 715.717 157.976L715.825 158.732C714.025 159.092 712.429 159.2 710.833 159.2H710.005ZM720.373 152.456H726.241V153.212H723.745V154.628C723.745 156.416 725.065 158.216 726.577 158.876L726.061 159.596C724.861 159.032 723.793 157.808 723.301 156.356C722.821 157.904 721.765 159.248 720.565 159.848L720.049 159.14C721.525 158.42 722.845 156.44 722.845 154.628V153.212H720.373V152.456ZM727.705 161.876V151.376H728.605V161.876H727.705ZM736.207 151.976C737.779 151.976 738.919 152.984 738.919 154.4C738.919 155.828 737.779 156.824 736.207 156.824C734.671 156.824 733.519 155.828 733.519 154.4C733.519 152.984 734.671 151.976 736.207 151.976ZM734.395 154.4C734.395 155.384 735.175 156.08 736.207 156.08C737.263 156.08 738.043 155.384 738.043 154.4C738.043 153.428 737.263 152.732 736.207 152.732C735.175 152.732 734.395 153.428 734.395 154.4ZM734.419 161.6V157.772H735.295V160.844C735.895 160.82 736.711 160.736 737.455 160.484L737.611 161.216C736.591 161.552 735.595 161.6 734.923 161.6H734.419ZM737.227 158.504V157.832H739.423V156.872H740.311V157.832H742.495V158.504H737.227ZM737.935 160.376C737.935 159.476 738.727 158.9 739.867 158.9C740.995 158.9 741.799 159.476 741.799 160.376C741.799 161.276 740.995 161.852 739.867 161.852C738.727 161.852 737.935 161.276 737.935 160.376ZM738.739 160.376C738.739 160.88 739.195 161.216 739.867 161.216C740.527 161.216 740.995 160.88 740.995 160.376C740.995 159.872 740.527 159.536 739.867 159.536C739.195 159.536 738.739 159.872 738.739 160.376ZM740.539 156.608V151.376H741.439V153.752H743.011V154.508H741.439V156.608H740.539ZM748.532 151.616C750.8 151.616 752.216 152.348 752.216 153.596C752.216 154.844 750.8 155.564 748.532 155.564C746.264 155.564 744.848 154.844 744.848 153.596C744.848 152.348 746.264 151.616 748.532 151.616ZM743.792 157.232V156.5H753.272V157.232H743.792ZM744.968 161.732V158.3H752.108V161.732H744.968ZM745.772 153.596C745.772 154.376 746.84 154.844 748.532 154.844C750.224 154.844 751.292 154.376 751.292 153.596C751.292 152.792 750.224 152.336 748.532 152.336C746.84 152.336 745.772 152.792 745.772 153.596ZM745.844 161H751.232V159.02H745.844V161Z" fill="#17171C"/>
<rect width="780" height="60" transform="translate(0 178)" fill="#F5F5F5"/>
<mask id="path-50-inside-15_311_50379" fill="white">
<path d="M0 178H60V238H0V178Z"/>
</mask>
<path d="M60 178H59V238H60H61V178H60Z" fill="#DBDBE0" mask="url(#path-50-inside-15_311_50379)"/>
<path d="M32.338 210.53C32.338 211.232 32.091 211.882 31.649 212.35C31.168 212.857 30.44 213.169 29.426 213.169C28.555 213.169 27.827 212.857 27.32 212.35C26.852 211.882 26.566 211.245 26.553 210.413H27.684C27.71 210.92 27.853 211.349 28.152 211.661C28.425 211.96 28.854 212.168 29.426 212.168C29.972 212.168 30.466 211.999 30.778 211.648C31.025 211.375 31.207 210.998 31.207 210.504C31.207 209.399 30.414 208.827 29.309 208.827H28.724V207.8H29.309C30.349 207.8 31.012 207.228 31.012 206.279C31.012 205.863 30.869 205.499 30.583 205.226C30.336 204.979 29.933 204.784 29.439 204.784C28.945 204.784 28.568 204.927 28.295 205.148C27.944 205.434 27.762 205.876 27.749 206.422H26.618C26.631 205.525 26.956 204.875 27.489 204.433C27.996 204.017 28.685 203.783 29.465 203.783C30.219 203.783 30.947 204.056 31.428 204.511C31.883 204.927 32.156 205.499 32.156 206.279C32.156 207.124 31.571 208.008 30.83 208.32C31.792 208.645 32.338 209.594 32.338 210.53Z" fill="#17171C"/>
<mask id="path-53-inside-16_311_50379" fill="white">
<path d="M60 178H200V238H60V178Z"/>
</mask>
<path d="M200 178H199V238H200H201V178H200Z" fill="#DBDBE0" mask="url(#path-53-inside-16_311_50379)"/>
<path d="M78.656 213H73.404V212.038H75.445V204.732H73.404V203.783H78.656V204.732H76.615V212.038H78.656V213ZM87.4975 208.372C87.4975 209.62 87.3805 210.777 86.8605 211.609C86.3405 212.454 85.3655 213 83.9225 213H81.1795V203.783H83.9225C85.3655 203.783 86.3535 204.368 86.8735 205.213C87.3935 206.045 87.4975 207.124 87.4975 208.372ZM86.3145 208.372C86.3145 207.189 86.2625 206.11 85.6255 205.46C85.2745 205.096 84.7155 204.849 83.9225 204.849H82.3365V211.934H83.9225C84.7545 211.934 85.3135 211.661 85.6645 211.284C86.2755 210.621 86.3145 209.516 86.3145 208.372ZM94.48 209.594H89.839V208.567H94.48V209.594ZM103.608 210.465C103.608 211.232 103.296 211.817 102.841 212.259C102.204 212.883 101.229 213.169 100.241 213.169C99.1226 213.169 98.2516 212.87 97.6276 212.298C97.0426 211.752 96.6656 210.959 96.6656 210.088H97.8746C97.8746 210.634 98.1346 211.18 98.5116 211.544C98.9276 211.947 99.5906 212.103 100.241 212.103C100.943 212.103 101.515 211.96 101.931 211.57C102.217 211.31 102.399 210.985 102.399 210.491C102.399 209.776 101.97 209.178 100.878 209.009L99.4606 208.788C98.0826 208.58 97.0296 207.813 97.0296 206.344C97.0296 205.655 97.3156 204.992 97.8096 204.524C98.4466 203.926 99.2266 203.614 100.189 203.614C101.086 203.614 101.944 203.887 102.555 204.472C103.114 205.005 103.4 205.681 103.426 206.461H102.217C102.191 206.006 102.035 205.629 101.775 205.33C101.424 204.927 100.891 204.68 100.176 204.68C99.5126 204.68 98.9796 204.875 98.5766 205.33C98.3426 205.603 98.2256 205.902 98.2256 206.318C98.2256 207.15 98.8886 207.527 99.5776 207.618C100.098 207.683 100.566 207.774 101.073 207.852C102.607 208.073 103.608 209.009 103.608 210.465ZM110.564 210.062H111.76C111.682 211.856 110.239 213.182 108.445 213.182C107.522 213.182 106.716 212.831 106.066 212.194C105.026 211.18 104.935 209.763 104.935 208.398C104.935 207.033 105.026 205.616 106.066 204.602C106.716 203.965 107.522 203.614 108.445 203.614C110.226 203.614 111.669 204.862 111.747 206.669H110.538C110.512 206.162 110.291 205.668 110.005 205.369C109.628 204.953 109.082 204.706 108.445 204.706C107.821 204.706 107.314 204.966 106.885 205.408C106.131 206.188 106.131 207.384 106.131 208.398C106.131 209.412 106.131 210.608 106.885 211.388C107.314 211.83 107.821 212.09 108.445 212.09C109.615 212.09 110.538 211.245 110.564 210.062ZM119.354 208.476C119.354 210.218 119.198 211.479 118.288 212.402C117.846 212.844 117.235 213.169 116.338 213.169C115.441 213.169 114.83 212.844 114.388 212.402C113.478 211.479 113.322 210.218 113.322 208.476C113.322 206.734 113.478 205.46 114.388 204.537C114.83 204.095 115.441 203.783 116.338 203.783C117.235 203.783 117.846 204.095 118.288 204.537C119.198 205.46 119.354 206.734 119.354 208.476ZM114.505 210.01L117.898 205.85C117.794 205.603 117.651 205.382 117.456 205.2C117.196 204.953 116.819 204.784 116.338 204.784C115.857 204.784 115.48 204.953 115.22 205.2C114.453 205.928 114.466 207.254 114.466 208.476C114.466 208.983 114.453 209.516 114.505 210.01ZM118.21 208.476C118.21 207.995 118.21 207.501 118.171 207.033L114.817 211.18C114.921 211.401 115.051 211.596 115.22 211.752C115.48 211.999 115.857 212.168 116.338 212.168C116.819 212.168 117.196 211.999 117.456 211.752C118.223 211.024 118.21 209.698 118.21 208.476ZM127.207 210.53C127.207 211.232 126.96 211.882 126.518 212.35C126.037 212.857 125.309 213.169 124.295 213.169C123.424 213.169 122.696 212.857 122.189 212.35C121.721 211.882 121.435 211.245 121.422 210.413H122.553C122.579 210.92 122.722 211.349 123.021 211.661C123.294 211.96 123.723 212.168 124.295 212.168C124.841 212.168 125.335 211.999 125.647 211.648C125.894 211.375 126.076 210.998 126.076 210.504C126.076 209.399 125.283 208.827 124.178 208.827H123.593V207.8H124.178C125.218 207.8 125.881 207.228 125.881 206.279C125.881 205.863 125.738 205.499 125.452 205.226C125.205 204.979 124.802 204.784 124.308 204.784C123.814 204.784 123.437 204.927 123.164 205.148C122.813 205.434 122.631 205.876 122.618 206.422H121.487C121.5 205.525 121.825 204.875 122.358 204.433C122.865 204.017 123.554 203.783 124.334 203.783C125.088 203.783 125.816 204.056 126.297 204.511C126.752 204.927 127.025 205.499 127.025 206.279C127.025 207.124 126.44 208.008 125.699 208.32C126.661 208.645 127.207 209.594 127.207 210.53Z" fill="#17171C"/>
<mask id="path-56-inside-17_311_50379" fill="white">
<path d="M200 178H393.333V238H200V178Z"/>
</mask>
<path d="M393.333 178H392.333V238H393.333H394.333V178H393.333Z" fill="#DBDBE0" mask="url(#path-56-inside-17_311_50379)"/>
<path d="M212.494 204.55H214.847V202.899H215.809V204.55H218.149V205.343H212.494V204.55ZM212.897 208.71C212.897 207.202 213.911 206.136 215.328 206.136C216.745 206.136 217.772 207.202 217.772 208.71C217.772 210.244 216.745 211.297 215.328 211.297C213.911 211.297 212.897 210.244 212.897 208.71ZM213.768 208.71C213.768 209.737 214.418 210.465 215.328 210.465C216.238 210.465 216.901 209.737 216.901 208.71C216.901 207.696 216.238 206.955 215.328 206.955C214.418 206.955 213.768 207.696 213.768 208.71ZM218.747 213.377V202.847H219.67V207.384H221.191V202.574H222.114V213.949H221.191V208.19H219.67V213.377H218.747ZM227.561 203.315C229.329 203.315 230.59 204.407 230.59 205.98C230.59 207.423 229.55 208.437 228.042 208.619V210.569C229.16 210.517 230.317 210.426 231.383 210.257L231.461 210.972C228.9 211.453 226.105 211.466 224.064 211.466L223.934 210.647C224.857 210.647 225.923 210.647 227.054 210.608V208.619C225.546 208.424 224.519 207.41 224.519 205.98C224.519 204.407 225.78 203.315 227.561 203.315ZM225.468 205.98C225.468 207.059 226.352 207.8 227.561 207.8C228.757 207.8 229.641 207.059 229.641 205.98C229.641 204.901 228.757 204.16 227.561 204.16C226.352 204.16 225.468 204.901 225.468 205.98ZM232.137 213.962V202.561H233.112V213.962H232.137ZM246.613 202.561H247.575V213.962H246.613V207.696H244.208V206.903H246.613V202.561ZM238.761 211.219V203.627H244.013V204.433H239.723V206.812H243.506V207.605H239.723V210.4C241.829 210.4 243.168 210.348 244.728 210.049L244.832 210.855C243.194 211.141 241.816 211.219 239.619 211.219H238.761ZM250.253 203.692H255.453V211.076H250.253V203.692ZM251.215 210.283H254.517V204.485H251.215V210.283ZM257.91 213.962V202.561H258.885V213.962H257.91ZM261.628 203.12H262.603V207.15C264.384 207.15 265.879 207.046 267.543 206.708L267.686 207.527C265.918 207.865 264.384 207.969 262.512 207.969H261.628V203.12ZM263.006 209.802V209.009H270.312V211.7H263.994V213H270.728V213.793H263.032V210.959H269.337V209.802H263.006ZM266.048 205.304V204.485H269.337V202.574H270.312V208.463H269.337V205.304H266.048ZM283.137 202.574H284.112V206.565H285.815V207.384H284.112V211.466H283.137V202.574ZM275.272 209.347C276.182 209.347 277.235 209.334 278.353 209.295V208.411C277.04 208.294 276.195 207.657 276.195 206.682C276.195 205.603 277.235 204.94 278.821 204.94C280.407 204.94 281.46 205.603 281.46 206.682C281.46 207.657 280.628 208.294 279.315 208.411V209.256C280.381 209.191 281.46 209.1 282.448 208.944L282.526 209.646C280.108 210.088 277.378 210.14 275.402 210.14L275.272 209.347ZM275.558 204.446V203.705H278.353V202.522H279.315V203.705H282.097V204.446H275.558ZM276.975 213.689V210.881H277.95V212.883H284.515V213.689H276.975ZM277.118 206.682C277.118 207.332 277.781 207.735 278.821 207.735C279.874 207.735 280.537 207.332 280.537 206.682C280.537 206.045 279.874 205.642 278.821 205.642C277.781 205.642 277.118 206.045 277.118 206.682ZM292.744 205.564H295.032V202.574H296.007V209.373H295.032V206.383H292.744V205.564ZM286.725 208.424C288.389 207.826 289.598 206.318 289.598 204.68V204.173H287.037V203.367H293.108V204.173H290.573V204.68C290.573 206.162 291.73 207.579 293.368 208.151L292.861 208.931C291.587 208.463 290.599 207.501 290.118 206.318C289.637 207.644 288.571 208.697 287.232 209.191L286.725 208.424ZM288.441 210.816V210.01H296.007V213.949H295.032V210.816H288.441ZM302.357 203.328H309.962V204.316C309.962 205.395 309.962 206.565 309.637 208.216H311.327V209.035H306.66V213.975H305.672V209.035H301.044V208.216H308.649C309 206.591 309 205.382 309 204.316V204.121H302.357V203.328ZM320.246 202.574H321.221V206.045H322.924V206.864H321.221V210.894H320.246V202.574ZM312.433 208.788C315.137 207.943 316.918 206.305 317.126 204.264H312.901V203.458H318.179C318.179 206.383 316.099 208.541 312.849 209.581L312.433 208.788ZM314.162 213.689V210.049H315.137V212.883H321.741V213.689H314.162Z" fill="#17171C"/>
<mask id="path-59-inside-18_311_50379" fill="white">
<path d="M393.333 178H586.666V238H393.333V178Z"/>
</mask>
<path d="M586.666 178H585.666V238H586.666H587.666V178H586.666Z" fill="#DBDBE0" mask="url(#path-59-inside-18_311_50379)"/>
<path d="M405.853 208.645H410.507V207.423C408.349 207.319 406.997 206.5 406.997 205.174C406.997 203.77 408.557 202.912 410.988 202.912C413.419 202.912 414.979 203.77 414.979 205.174C414.979 206.5 413.627 207.319 411.469 207.423V208.645H416.123V209.438H405.853V208.645ZM407.192 213.689V210.413H408.167V212.883H414.992V213.689H407.192ZM407.998 205.174C407.998 206.097 409.181 206.643 410.988 206.643C412.808 206.643 413.978 206.097 413.978 205.174C413.978 204.277 412.808 203.718 410.988 203.718C409.181 203.718 407.998 204.277 407.998 205.174ZM418.541 203.484H426.198V204.29H419.516V207.904H426.328V208.71H422.831V211.674H427.524V212.493H417.215V211.674H421.869V208.71H418.541V203.484ZM432.926 209.087H433.888V210.621H439.569V209.087H440.531V213.806H432.926V209.087ZM431.574 208.06V207.228H439.257C439.582 205.824 439.582 204.81 439.582 203.926V203.9H432.9V203.094H440.531V203.926C440.531 204.797 440.531 205.811 440.232 207.228H441.883V208.06H431.574ZM433.888 213.013H439.569V211.388H433.888V213.013ZM451.295 202.587H452.27V210.998H451.295V207.93H448.617V209.048H443.508V203.328H444.47V205.369H447.655V203.328H448.617V204.68H451.295V202.587ZM444.47 208.242H447.655V206.136H444.47V208.242ZM444.99 213.689V210.179H445.965V212.883H452.543V213.689H444.99ZM448.617 207.124H451.295V205.486H448.617V207.124Z" fill="#17171C"/>
<path d="M604.703 196.292H606.863V193.388H607.763V201.068H606.863V197.036H604.703V196.292ZM599.183 199.004C600.719 198.452 601.847 197.06 601.847 195.548V194.984H599.471V194.24H605.075V194.984H602.747V195.536C602.747 196.904 603.815 198.236 605.315 198.764L604.859 199.472C603.683 199.04 602.759 198.152 602.315 197.06C601.871 198.272 600.899 199.256 599.651 199.724L599.183 199.004ZM601.079 203.636V200.396H601.979V202.892H608.063V203.636H601.079ZM612.401 198.728H621.917V199.472H617.681V201.632H616.769V199.472H612.401V198.728ZM613.469 195.752C613.469 194.456 614.933 193.64 617.141 193.64C619.373 193.64 620.813 194.456 620.813 195.752C620.813 197.048 619.373 197.852 617.141 197.852C614.933 197.852 613.469 197.048 613.469 195.752ZM613.625 203.636V200.576H614.525V202.88H620.861V203.636H613.625ZM614.429 195.752C614.429 196.592 615.521 197.108 617.141 197.108C618.773 197.108 619.865 196.592 619.865 195.752C619.865 194.912 618.773 194.384 617.141 194.384C615.521 194.384 614.429 194.912 614.429 195.752ZM627.173 197.048H628.073V198.608H632.369V199.34H622.889V198.608H627.173V197.048ZM623.465 196.868C625.289 196.604 627.173 195.452 627.173 194.024V193.544H628.085V194.024C628.085 195.44 629.981 196.604 631.793 196.868L631.445 197.588C629.873 197.312 628.289 196.484 627.641 195.26C626.981 196.484 625.397 197.312 623.813 197.588L623.465 196.868ZM624.041 202.04C624.041 200.888 625.373 200.24 627.629 200.24C629.873 200.24 631.217 200.888 631.217 202.04C631.217 203.216 629.873 203.852 627.629 203.852C625.373 203.852 624.041 203.216 624.041 202.04ZM624.941 202.04C624.941 202.748 625.949 203.156 627.629 203.156C629.309 203.156 630.305 202.748 630.305 202.04C630.305 201.344 629.309 200.936 627.629 200.936C625.949 200.936 624.941 201.344 624.941 202.04ZM636.623 194.528H641.903V195.068C641.903 195.908 641.903 197.288 641.603 199.256L640.715 199.184C641.003 197.408 641.027 196.112 641.027 195.272H636.623V194.528ZM636.035 200.804C636.719 200.804 637.487 200.792 638.291 200.78V197.54H639.179V200.756C640.343 200.708 641.531 200.636 642.611 200.504L642.659 201.164C640.475 201.512 638.015 201.56 636.155 201.56L636.035 200.804ZM643.271 203.876V193.376H644.159V197.792H645.875V198.548H644.159V203.876H643.271ZM652.211 196.124H654.347V193.376H655.247V199.628H654.347V196.868H652.211V196.124ZM646.679 198.812C648.215 198.248 649.331 196.832 649.331 195.308V194.9H646.955V194.156H652.559V194.9H650.231V195.308C650.231 196.676 651.287 197.984 652.799 198.512L652.331 199.232C651.155 198.8 650.243 197.912 649.799 196.82C649.355 198.068 648.371 199.052 647.135 199.532L646.679 198.812ZM648.311 201.92C648.311 200.696 649.631 199.964 651.803 199.964C653.963 199.964 655.283 200.696 655.283 201.92C655.283 203.156 653.963 203.864 651.803 203.864C649.631 203.864 648.311 203.156 648.311 201.92ZM649.211 201.92C649.211 202.688 650.195 203.156 651.803 203.156C653.399 203.156 654.395 202.688 654.395 201.92C654.395 201.14 653.399 200.672 651.803 200.672C650.195 200.672 649.211 201.14 649.211 201.92ZM660.516 194.144C662.148 194.144 663.312 195.152 663.312 196.604C663.312 198.068 662.148 199.064 660.516 199.064C658.872 199.064 657.708 198.068 657.708 196.604C657.708 195.152 658.872 194.144 660.516 194.144ZM657.168 200.804C659.088 200.804 661.752 200.804 664.044 200.444L664.116 201.104C661.752 201.56 659.172 201.572 657.288 201.572L657.168 200.804ZM658.584 196.604C658.584 197.588 659.4 198.284 660.516 198.284C661.62 198.284 662.436 197.588 662.436 196.604C662.436 195.608 661.62 194.924 660.516 194.924C659.4 194.924 658.584 195.608 658.584 196.604ZM664.74 203.888V193.364H665.64V203.888H664.74ZM670.374 198.98H674.67V197.852C672.678 197.756 671.43 197 671.43 195.776C671.43 194.48 672.87 193.688 675.114 193.688C677.358 193.688 678.798 194.48 678.798 195.776C678.798 197 677.55 197.756 675.558 197.852V198.98H679.854V199.712H670.374V198.98ZM671.61 203.636V200.612H672.51V202.892H678.81V203.636H671.61ZM672.354 195.776C672.354 196.628 673.446 197.132 675.114 197.132C676.794 197.132 677.874 196.628 677.874 195.776C677.874 194.948 676.794 194.432 675.114 194.432C673.446 194.432 672.354 194.948 672.354 195.776ZM682.086 194.216H689.154V194.96H682.986V198.296H689.274V199.04H686.046V201.776H690.378V202.532H680.862V201.776H685.158V199.04H682.086V194.216ZM694.992 193.904H702.744V194.648H699.444V194.684C699.444 195.992 701.208 197.048 703.02 197.288L702.672 198.02C701.016 197.756 699.432 196.916 698.868 195.692C698.292 196.916 696.72 197.756 695.052 198.02L694.704 197.288C696.528 197.048 698.28 195.992 698.28 194.684V194.648H694.992V193.904ZM694.104 199.544V198.8H703.62V199.544H699.384V201.704H698.472V199.544H694.104ZM695.328 203.648V200.66H696.228V202.904H702.564V203.648H695.328ZM708.888 193.76H709.824V194.36C709.824 195.848 711.768 197.132 713.616 197.408L713.244 198.128C711.648 197.852 710.04 196.94 709.368 195.656C708.708 196.964 707.088 197.852 705.468 198.128L705.096 197.408C706.968 197.132 708.888 195.884 708.888 194.36V193.76ZM704.604 200.06V199.316H714.096V200.06H709.776V203.876H708.888V200.06H704.604ZM722.256 193.376H723.156V197.72H724.896V198.476H723.156V203.876H722.256V193.376ZM715.032 195.812V195.068H717.72V193.496H718.632V195.068H721.248V195.812H715.032ZM715.644 199.112C715.644 197.696 716.724 196.712 718.188 196.712C719.664 196.712 720.732 197.696 720.732 199.112C720.732 200.528 719.664 201.512 718.188 201.512C716.724 201.512 715.644 200.528 715.644 199.112ZM716.508 199.112C716.508 200.072 717.204 200.756 718.188 200.756C719.16 200.756 719.868 200.072 719.868 199.112C719.868 198.152 719.16 197.456 718.188 197.456C717.204 197.456 716.508 198.152 716.508 199.112ZM728.293 199.7H729.157V200.432C729.157 201.38 729.661 202.388 730.645 202.976C731.665 202.34 732.181 201.248 732.181 200.432V199.7H733.057V200.432C733.057 201.524 733.849 202.628 735.181 203.084L734.725 203.756C733.693 203.372 732.961 202.628 732.613 201.74C732.289 202.604 731.653 203.42 730.669 203.852C729.661 203.444 729.025 202.676 728.713 201.788C728.341 202.64 727.621 203.372 726.625 203.756L726.169 203.084C727.489 202.592 728.293 201.452 728.293 200.432V199.7ZM725.773 196.424C725.773 194.972 726.901 193.964 728.449 193.964C729.337 193.964 730.093 194.3 730.573 194.864H733.309V193.376H734.209V199.376H733.309V197.96H730.585C730.117 198.536 729.349 198.884 728.449 198.884C726.901 198.884 725.773 197.876 725.773 196.424ZM726.625 196.424C726.625 197.42 727.393 198.128 728.449 198.128C729.493 198.128 730.261 197.42 730.261 196.424C730.261 195.428 729.493 194.72 728.449 194.72C727.393 194.72 726.625 195.428 726.625 196.424ZM730.981 195.584C731.077 195.836 731.125 196.124 731.125 196.424C731.125 196.712 731.077 196.976 731.005 197.216H733.309V195.584H730.981ZM740.809 194.048C742.993 194.048 744.613 195.2 744.613 196.928C744.613 198.668 742.993 199.808 740.809 199.808C738.637 199.808 737.005 198.668 737.005 196.928C737.005 195.2 738.637 194.048 740.809 194.048ZM736.069 202.46V201.704H745.585V202.46H736.069ZM737.869 196.928C737.869 198.212 739.129 199.076 740.809 199.076C742.501 199.076 743.749 198.212 743.749 196.928C743.749 195.656 742.501 194.78 740.809 194.78C739.129 194.78 737.869 195.656 737.869 196.928ZM753.721 193.364H754.621V197.588H756.313V198.344H754.621V203.876H753.721V193.364ZM747.001 201.2V194.408H747.889V200.456C749.413 200.456 750.997 200.336 752.713 199.976L752.821 200.732C751.021 201.092 749.425 201.2 747.829 201.2H747.001ZM758.389 202.088L757.729 204.308H757.093L757.453 202.088H758.389ZM606.311 211.376H607.211V215.72H608.951V216.476H607.211V221.876H606.311V211.376ZM599.087 213.812V213.068H601.775V211.496H602.687V213.068H605.303V213.812H599.087ZM599.699 217.112C599.699 215.696 600.779 214.712 602.243 214.712C603.719 214.712 604.787 215.696 604.787 217.112C604.787 218.528 603.719 219.512 602.243 219.512C600.779 219.512 599.699 218.528 599.699 217.112ZM600.563 217.112C600.563 218.072 601.259 218.756 602.243 218.756C603.215 218.756 603.923 218.072 603.923 217.112C603.923 216.152 603.215 215.456 602.243 215.456C601.259 215.456 600.563 216.152 600.563 217.112ZM611.255 218.156H618.251V221.876H617.351V218.876H611.255V218.156ZM609.791 214.484C609.791 213.008 610.943 211.976 612.491 211.976C613.403 211.976 614.171 212.336 614.651 212.936H617.351V211.376H618.251V217.556H617.351V216.044H614.639C614.159 216.632 613.391 216.992 612.491 216.992C610.943 216.992 609.791 215.96 609.791 214.484ZM610.643 214.484C610.643 215.516 611.435 216.224 612.491 216.224C613.535 216.224 614.315 215.516 614.315 214.484C614.315 213.476 613.535 212.744 612.491 212.744C611.435 212.744 610.643 213.476 610.643 214.484ZM615.047 215.3H617.351V213.68H615.059C615.131 213.932 615.179 214.196 615.179 214.484C615.179 214.772 615.131 215.048 615.047 215.3ZM623.369 212.528H628.649V213.068C628.649 213.908 628.649 215.288 628.349 217.256L627.461 217.184C627.749 215.408 627.773 214.112 627.773 213.272H623.369V212.528ZM622.781 218.804C623.465 218.804 624.233 218.792 625.037 218.78V215.54H625.925V218.756C627.089 218.708 628.277 218.636 629.357 218.504L629.405 219.164C627.221 219.512 624.761 219.56 622.901 219.56L622.781 218.804ZM630.017 221.876V211.376H630.905V215.792H632.621V216.548H630.905V221.876H630.017ZM638.957 214.124H641.093V211.376H641.993V217.628H641.093V214.868H638.957V214.124ZM633.425 216.812C634.961 216.248 636.077 214.832 636.077 213.308V212.9H633.701V212.156H639.305V212.9H636.977V213.308C636.977 214.676 638.033 215.984 639.545 216.512L639.077 217.232C637.901 216.8 636.989 215.912 636.545 214.82C636.101 216.068 635.117 217.052 633.881 217.532L633.425 216.812ZM635.057 219.92C635.057 218.696 636.377 217.964 638.549 217.964C640.709 217.964 642.029 218.696 642.029 219.92C642.029 221.156 640.709 221.864 638.549 221.864C636.377 221.864 635.057 221.156 635.057 219.92ZM635.957 219.92C635.957 220.688 636.941 221.156 638.549 221.156C640.145 221.156 641.141 220.688 641.141 219.92C641.141 219.14 640.145 218.672 638.549 218.672C636.941 218.672 635.957 219.14 635.957 219.92ZM646.631 216.308H656.111V217.04H651.815V218.204C653.795 218.288 654.959 218.924 654.959 220.028C654.959 221.192 653.615 221.852 651.371 221.852C649.127 221.852 647.783 221.192 647.783 220.028C647.783 218.924 648.947 218.288 650.915 218.204V217.04H646.631V216.308ZM647.171 214.928C648.983 214.736 650.747 213.812 650.795 212.6H647.507V211.88H655.259V212.6H651.959C652.007 213.812 653.759 214.736 655.583 214.928L655.247 215.648C653.555 215.432 651.947 214.676 651.383 213.5C650.807 214.676 649.199 215.432 647.507 215.648L647.171 214.928ZM648.683 220.028C648.683 220.748 649.691 221.156 651.371 221.156C653.039 221.156 654.047 220.748 654.047 220.028C654.047 219.296 653.039 218.888 651.371 218.888C649.691 218.888 648.683 219.296 648.683 220.028ZM667.133 211.388H668.033V214.58H669.593V215.324H668.033V219.08H667.133V211.388ZM660.353 217.316V212.132H661.241V213.92H664.301V212.132H665.189V217.316H660.353ZM661.241 216.584H664.301V214.628H661.241V216.584ZM661.529 221.636V218.348H662.417V220.892H668.513V221.636H661.529ZM670.374 216.812H674.67V215.528H671.646V211.628H672.534V212.84H677.718V211.628H678.618V215.528H675.558V216.812H679.854V217.556H670.374V216.812ZM671.43 219.356V218.624H678.678V221.876H677.79V219.356H671.43ZM672.534 214.808H677.718V213.548H672.534V214.808ZM686.454 214.136H688.566V211.376H689.466V217.652H688.566V214.892H686.454V214.136ZM680.898 216.776C682.434 216.224 683.55 214.832 683.55 213.32V212.852H681.186V212.108H686.79V212.852H684.45V213.32C684.45 214.688 685.518 215.996 687.03 216.524L686.562 217.244C685.386 216.812 684.474 215.924 684.03 214.832C683.586 216.056 682.602 217.028 681.366 217.484L680.898 216.776ZM682.482 218.984V218.24H689.466V221.876H688.566V218.984H682.482ZM694.116 216.98H698.412V215.852C696.42 215.756 695.172 215 695.172 213.776C695.172 212.48 696.612 211.688 698.856 211.688C701.1 211.688 702.54 212.48 702.54 213.776C702.54 215 701.292 215.756 699.3 215.852V216.98H703.596V217.712H694.116V216.98ZM695.352 221.636V218.612H696.252V220.892H702.552V221.636H695.352ZM696.096 213.776C696.096 214.628 697.188 215.132 698.856 215.132C700.536 215.132 701.616 214.628 701.616 213.776C701.616 212.948 700.536 212.432 698.856 212.432C697.188 212.432 696.096 212.948 696.096 213.776ZM705.828 212.216H712.896V212.96H706.728V216.296H713.016V217.04H709.788V219.776H714.12V220.532H704.604V219.776H708.9V217.04H705.828V212.216ZM717.87 216.404H727.35V217.148H717.87V216.404ZM719.01 219.968C719.01 218.768 720.354 218.084 722.598 218.084C724.83 218.084 726.186 218.768 726.186 219.968C726.186 221.18 724.83 221.864 722.598 221.864C720.354 221.864 719.01 221.18 719.01 219.968ZM719.07 215.372V211.808H726.162V212.564H719.958V214.64H726.234V215.372H719.07ZM719.91 219.968C719.91 220.724 720.93 221.144 722.598 221.144C724.266 221.144 725.274 220.724 725.274 219.968C725.274 219.236 724.266 218.792 722.598 218.792C720.93 218.792 719.91 219.236 719.91 219.968ZM728.802 212.012H733.518V214.88H729.714V216.44C731.562 216.44 732.918 216.38 734.55 216.092L734.634 216.848C732.966 217.124 731.562 217.184 729.642 217.184H728.826V214.172H732.63V212.744H728.802V212.012ZM729.69 219.068V218.324H736.494V221.876H735.594V219.068H729.69ZM735.594 217.76V211.388H736.494V214.088H738.066V214.844H736.494V217.76H735.594ZM748.812 211.388H749.712V214.58H751.284V215.324H749.712V218.408H748.812V211.388ZM741.552 217.364C742.392 217.364 743.376 217.364 744.396 217.328V216.536C743.184 216.44 742.404 215.876 742.404 215C742.404 214.04 743.364 213.452 744.828 213.452C746.304 213.452 747.264 214.04 747.264 215C747.264 215.864 746.496 216.428 745.284 216.536V217.292C746.268 217.244 747.252 217.16 748.176 217.028L748.248 217.676C745.992 218.084 743.496 218.096 741.672 218.096L741.552 217.364ZM741.816 213.032V212.348H744.396V211.292H745.284V212.348H747.852V213.032H741.816ZM742.836 219.668V218.948H749.712V221.876H748.812V219.668H742.836ZM743.256 215C743.256 215.552 743.868 215.936 744.828 215.936C745.8 215.936 746.412 215.552 746.412 215C746.412 214.436 745.8 214.076 744.828 214.076C743.868 214.076 743.256 214.436 743.256 215ZM759.768 211.388H760.68V219.056H759.768V211.388ZM752.328 214.7C752.328 213.176 753.504 212.12 755.052 212.12C756.612 212.12 757.776 213.176 757.776 214.7C757.776 216.2 756.612 217.268 755.052 217.268C753.504 217.268 752.328 216.2 752.328 214.7ZM753.204 214.7C753.204 215.732 754.008 216.476 755.052 216.476C756.108 216.476 756.912 215.732 756.912 214.7C756.912 213.644 756.108 212.9 755.052 212.9C754.008 212.9 753.204 213.644 753.204 214.7ZM753.972 221.636V218.276H754.86V220.892H761.004V221.636H753.972Z" fill="#17171C"/>
</g>
<path d="M10 0.5H770C775.247 0.5 779.5 4.75329 779.5 10V228C779.5 233.247 775.247 237.5 770 237.5H10C4.7533 237.5 0.5 233.247 0.5 228V10L0.512695 9.51074C0.767337 4.49142 4.91739 0.5 10 0.5Z" stroke="#DCDCE0"/>
<defs>
<clipPath id="clip0_311_50379">
<path d="M0 10C0 4.47715 4.47715 0 10 0H770C775.523 0 780 4.47715 780 10V228C780 233.523 775.523 238 770 238H9.99998C4.47713 238 0 233.523 0 228V10Z" fill="white"/>
</clipPath>
</defs>
</svg>
