<svg width="780" height="256" viewBox="0 0 780 256" fill="none" xmlns="http://www.w3.org/2000/svg">
<g clip-path="url(#clip0_311_34876)">
<path d="M0 10C0 4.47715 4.47715 0 10 0H770C775.523 0 780 4.47715 780 10V246C780 251.523 775.523 256 770 256H9.99998C4.47713 256 0 251.523 0 246V10Z" fill="white"/>
<path d="M0 256L1.01411e-05 0" stroke="#DCDCE0" stroke-width="0.5" stroke-linejoin="round"/>
<path d="M156 256L156 -3.51667e-06" stroke="#DCDCE0" stroke-linejoin="round" stroke-dasharray="2 2"/>
<path d="M312 256L312 -3.51667e-06" stroke="#DCDCE0" stroke-linejoin="round" stroke-dasharray="2 2"/>
<path d="M468 256L468 -3.51667e-06" stroke="#DCDCE0" stroke-linejoin="round" stroke-dasharray="2 2"/>
<path d="M624 256L624 -3.51667e-06" stroke="#DCDCE0" stroke-linejoin="round" stroke-dasharray="2 2"/>
<path d="M780 256L780 -3.51667e-06" stroke="#DCDCE0" stroke-width="0.5" stroke-linejoin="round"/>
<path d="M780 64L-2.86102e-05 64" stroke="#DCDCE0" stroke-linejoin="round" stroke-dasharray="2 2"/>
<path d="M780 128L-2.86102e-05 128" stroke="#DCDCE0" stroke-linejoin="round" stroke-dasharray="2 2"/>
<path d="M780 192L-2.86102e-05 192" stroke="#DCDCE0" stroke-linejoin="round" stroke-dasharray="2 2"/>
<path d="M18.456 82.708C18.456 83.344 18.24 83.848 17.904 84.244C17.412 84.832 16.596 85.156 15.72 85.156C14.844 85.156 14.028 84.832 13.536 84.244C13.2 83.848 12.984 83.344 12.984 82.708C12.984 81.796 13.524 81.004 14.292 80.656C13.608 80.296 13.152 79.576 13.152 78.772C13.152 78.088 13.428 77.548 13.836 77.164C14.304 76.732 14.988 76.492 15.72 76.492C16.452 76.492 17.136 76.732 17.604 77.164C18.012 77.548 18.288 78.088 18.288 78.772C18.288 79.576 17.832 80.296 17.148 80.656C17.916 81.004 18.456 81.796 18.456 82.708ZM17.256 78.772C17.256 77.92 16.548 77.392 15.72 77.392C14.892 77.392 14.184 77.92 14.184 78.772C14.184 79.54 14.76 80.212 15.72 80.212C16.68 80.212 17.256 79.54 17.256 78.772ZM17.424 82.66C17.424 81.772 16.776 81.1 15.72 81.1C14.664 81.1 14.016 81.772 14.016 82.66C14.016 83.644 14.748 84.256 15.72 84.256C16.692 84.256 17.424 83.644 17.424 82.66ZM25.1534 78.304C25.1534 79.456 24.2894 80.272 23.1614 80.272C22.0334 80.272 21.1814 79.456 21.1814 78.304C21.1814 77.152 22.0334 76.336 23.1614 76.336C24.2894 76.336 25.1534 77.152 25.1534 78.304ZM24.2534 78.304C24.2534 77.644 23.7854 77.188 23.1614 77.188C22.5374 77.188 22.0814 77.644 22.0814 78.304C22.0814 78.964 22.5374 79.42 23.1614 79.42C23.7854 79.42 24.2534 78.964 24.2534 78.304ZM32.7148 82.288H33.8188C33.7468 83.944 32.4148 85.168 30.7588 85.168C29.9068 85.168 29.1628 84.844 28.5628 84.256C27.6028 83.32 27.5188 82.012 27.5188 80.752C27.5188 79.492 27.6028 78.184 28.5628 77.248C29.1628 76.66 29.9068 76.336 30.7588 76.336C32.4028 76.336 33.7348 77.488 33.8068 79.156H32.6908C32.6668 78.688 32.4628 78.232 32.1988 77.956C31.8508 77.572 31.3468 77.344 30.7588 77.344C30.1828 77.344 29.7148 77.584 29.3188 77.992C28.6228 78.712 28.6228 79.816 28.6228 80.752C28.6228 81.688 28.6228 82.792 29.3188 83.512C29.7148 83.92 30.1828 84.16 30.7588 84.16C31.8388 84.16 32.6908 83.38 32.7148 82.288Z" fill="#737680"/>
<path d="M18.564 141.584L15.06 149H13.956L17.46 141.584H12.972V140.66H18.564V141.584ZM25.1534 142.304C25.1534 143.456 24.2894 144.272 23.1614 144.272C22.0334 144.272 21.1814 143.456 21.1814 142.304C21.1814 141.152 22.0334 140.336 23.1614 140.336C24.2894 140.336 25.1534 141.152 25.1534 142.304ZM24.2534 142.304C24.2534 141.644 23.7854 141.188 23.1614 141.188C22.5374 141.188 22.0814 141.644 22.0814 142.304C22.0814 142.964 22.5374 143.42 23.1614 143.42C23.7854 143.42 24.2534 142.964 24.2534 142.304ZM32.7148 146.288H33.8188C33.7468 147.944 32.4148 149.168 30.7588 149.168C29.9068 149.168 29.1628 148.844 28.5628 148.256C27.6028 147.32 27.5188 146.012 27.5188 144.752C27.5188 143.492 27.6028 142.184 28.5628 141.248C29.1628 140.66 29.9068 140.336 30.7588 140.336C32.4028 140.336 33.7348 141.488 33.8068 143.156H32.6908C32.6668 142.688 32.4628 142.232 32.1988 141.956C31.8508 141.572 31.3468 141.344 30.7588 141.344C30.1828 141.344 29.7148 141.584 29.3188 141.992C28.6228 142.712 28.6228 143.816 28.6228 144.752C28.6228 145.688 28.6228 146.792 29.3188 147.512C29.7148 147.92 30.1828 148.16 30.7588 148.16C31.8388 148.16 32.6908 147.38 32.7148 146.288Z" fill="#737680"/>
<path d="M18.66 210.312C18.66 211.152 18.36 211.836 17.892 212.352C17.448 212.832 16.752 213.156 15.888 213.156C14.952 213.156 14.232 212.676 13.824 212.112C13.224 211.284 13.08 210.132 13.08 208.944C13.08 207.756 13.212 206.58 13.776 205.68C14.172 205.056 14.88 204.492 15.936 204.492C16.644 204.492 17.28 204.744 17.7 205.164C18.072 205.536 18.348 206.064 18.372 206.676H17.34C17.316 206.268 17.124 205.944 16.872 205.728C16.632 205.524 16.296 205.416 15.9 205.416C15.372 205.416 15 205.668 14.748 205.956C14.22 206.556 14.124 207.6 14.112 208.476C14.376 207.9 15.228 207.504 16.02 207.504C16.776 207.504 17.412 207.768 17.808 208.152C18.348 208.668 18.66 209.436 18.66 210.312ZM17.628 210.324C17.628 209.736 17.436 209.244 17.124 208.896C16.872 208.608 16.44 208.416 15.912 208.416C15.384 208.416 14.976 208.644 14.724 208.932C14.412 209.28 14.244 209.736 14.244 210.324C14.244 210.912 14.436 211.368 14.76 211.716C15.024 212.004 15.408 212.232 15.936 212.232C16.464 212.232 16.86 212.04 17.124 211.752C17.448 211.404 17.628 210.912 17.628 210.324ZM25.1534 206.304C25.1534 207.456 24.2894 208.272 23.1614 208.272C22.0334 208.272 21.1814 207.456 21.1814 206.304C21.1814 205.152 22.0334 204.336 23.1614 204.336C24.2894 204.336 25.1534 205.152 25.1534 206.304ZM24.2534 206.304C24.2534 205.644 23.7854 205.188 23.1614 205.188C22.5374 205.188 22.0814 205.644 22.0814 206.304C22.0814 206.964 22.5374 207.42 23.1614 207.42C23.7854 207.42 24.2534 206.964 24.2534 206.304ZM32.7148 210.288H33.8188C33.7468 211.944 32.4148 213.168 30.7588 213.168C29.9068 213.168 29.1628 212.844 28.5628 212.256C27.6028 211.32 27.5188 210.012 27.5188 208.752C27.5188 207.492 27.6028 206.184 28.5628 205.248C29.1628 204.66 29.9068 204.336 30.7588 204.336C32.4028 204.336 33.7348 205.488 33.8068 207.156H32.6908C32.6668 206.688 32.4628 206.232 32.1988 205.956C31.8508 205.572 31.3468 205.344 30.7588 205.344C30.1828 205.344 29.7148 205.584 29.3188 205.992C28.6228 206.712 28.6228 207.816 28.6228 208.752C28.6228 209.688 28.6228 210.792 29.3188 211.512C29.7148 211.92 30.1828 212.16 30.7588 212.16C31.8388 212.16 32.6908 211.38 32.7148 210.288Z" fill="#737680"/>
<path d="M174.504 208.824C174.504 210.432 174.36 211.596 173.52 212.448C173.112 212.856 172.548 213.156 171.72 213.156C170.892 213.156 170.328 212.856 169.92 212.448C169.08 211.596 168.936 210.432 168.936 208.824C168.936 207.216 169.08 206.04 169.92 205.188C170.328 204.78 170.892 204.492 171.72 204.492C172.548 204.492 173.112 204.78 173.52 205.188C174.36 206.04 174.504 207.216 174.504 208.824ZM170.028 210.24L173.16 206.4C173.064 206.172 172.932 205.968 172.752 205.8C172.512 205.572 172.164 205.416 171.72 205.416C171.276 205.416 170.928 205.572 170.688 205.8C169.98 206.472 169.992 207.696 169.992 208.824C169.992 209.292 169.98 209.784 170.028 210.24ZM173.448 208.824C173.448 208.38 173.448 207.924 173.412 207.492L170.316 211.32C170.412 211.524 170.532 211.704 170.688 211.848C170.928 212.076 171.276 212.232 171.72 212.232C172.164 212.232 172.512 212.076 172.752 211.848C173.46 211.176 173.448 209.952 173.448 208.824ZM182.101 210.312C182.101 211.152 181.801 211.836 181.333 212.352C180.889 212.832 180.193 213.156 179.329 213.156C178.393 213.156 177.673 212.676 177.265 212.112C176.665 211.284 176.521 210.132 176.521 208.944C176.521 207.756 176.653 206.58 177.217 205.68C177.613 205.056 178.321 204.492 179.377 204.492C180.085 204.492 180.721 204.744 181.141 205.164C181.513 205.536 181.789 206.064 181.813 206.676H180.781C180.757 206.268 180.565 205.944 180.313 205.728C180.073 205.524 179.737 205.416 179.341 205.416C178.813 205.416 178.441 205.668 178.189 205.956C177.661 206.556 177.565 207.6 177.553 208.476C177.817 207.9 178.669 207.504 179.461 207.504C180.217 207.504 180.853 207.768 181.249 208.152C181.789 208.668 182.101 209.436 182.101 210.312ZM181.069 210.324C181.069 209.736 180.877 209.244 180.565 208.896C180.313 208.608 179.881 208.416 179.353 208.416C178.825 208.416 178.417 208.644 178.165 208.932C177.853 209.28 177.685 209.736 177.685 210.324C177.685 210.912 177.877 211.368 178.201 211.716C178.465 212.004 178.849 212.232 179.377 212.232C179.905 212.232 180.301 212.04 180.565 211.752C180.889 211.404 181.069 210.912 181.069 210.324ZM187.455 208.668H185.751V206.928H187.455V208.668ZM187.455 213.012H185.751V211.272H187.455V213.012ZM196.9 210.252C196.9 211.128 196.66 211.836 196.192 212.352C195.76 212.832 195.088 213.168 194.212 213.168C193.396 213.168 192.7 212.892 192.244 212.448C191.776 211.992 191.5 211.368 191.464 210.6H192.484C192.508 211.128 192.688 211.512 192.964 211.788C193.24 212.064 193.672 212.232 194.2 212.232C194.776 212.232 195.196 212.004 195.448 211.68C195.724 211.332 195.868 210.864 195.868 210.3C195.868 209.724 195.7 209.22 195.388 208.872C195.124 208.584 194.728 208.404 194.2 208.404C193.636 208.404 193.072 208.656 192.784 209.136H191.644L191.872 204.66H196.48V205.584H192.748L192.616 208.248C192.988 207.708 193.696 207.492 194.404 207.492C195.136 207.492 195.736 207.756 196.144 208.176C196.636 208.68 196.9 209.424 196.9 210.252ZM204.078 210.72C204.078 211.368 203.85 211.968 203.442 212.4C202.998 212.868 202.326 213.156 201.39 213.156C200.586 213.156 199.914 212.868 199.446 212.4C199.014 211.968 198.75 211.38 198.738 210.612H199.782C199.806 211.08 199.938 211.476 200.214 211.764C200.466 212.04 200.862 212.232 201.39 212.232C201.894 212.232 202.35 212.076 202.638 211.752C202.866 211.5 203.034 211.152 203.034 210.696C203.034 209.676 202.302 209.148 201.282 209.148H200.742V208.2H201.282C202.242 208.2 202.854 207.672 202.854 206.796C202.854 206.412 202.722 206.076 202.458 205.824C202.23 205.596 201.858 205.416 201.402 205.416C200.946 205.416 200.598 205.548 200.346 205.752C200.022 206.016 199.854 206.424 199.842 206.928H198.798C198.81 206.1 199.11 205.5 199.602 205.092C200.07 204.708 200.706 204.492 201.426 204.492C202.122 204.492 202.794 204.744 203.238 205.164C203.658 205.548 203.91 206.076 203.91 206.796C203.91 207.576 203.37 208.392 202.686 208.68C203.574 208.98 204.078 209.856 204.078 210.72ZM209.779 208.668H208.075V206.928H209.779V208.668ZM209.779 213.012H208.075V211.272H209.779V213.012ZM219.452 213H213.896V212.064H216.164V205.824L213.908 207.18V206.088L216.212 204.66H217.196V212.064H219.452V213ZM226.666 210.252C226.666 211.128 226.426 211.836 225.958 212.352C225.526 212.832 224.854 213.168 223.978 213.168C223.162 213.168 222.466 212.892 222.01 212.448C221.542 211.992 221.266 211.368 221.23 210.6H222.25C222.274 211.128 222.454 211.512 222.73 211.788C223.006 212.064 223.438 212.232 223.966 212.232C224.542 212.232 224.962 212.004 225.214 211.68C225.49 211.332 225.634 210.864 225.634 210.3C225.634 209.724 225.466 209.22 225.154 208.872C224.89 208.584 224.494 208.404 223.966 208.404C223.402 208.404 222.838 208.656 222.55 209.136H221.41L221.638 204.66H226.246V205.584H222.514L222.382 208.248C222.754 207.708 223.462 207.492 224.17 207.492C224.902 207.492 225.502 207.756 225.91 208.176C226.402 208.68 226.666 209.424 226.666 210.252Z" fill="#737680"/>
<path d="M330.504 208.824C330.504 210.432 330.36 211.596 329.52 212.448C329.112 212.856 328.548 213.156 327.72 213.156C326.892 213.156 326.328 212.856 325.92 212.448C325.08 211.596 324.936 210.432 324.936 208.824C324.936 207.216 325.08 206.04 325.92 205.188C326.328 204.78 326.892 204.492 327.72 204.492C328.548 204.492 329.112 204.78 329.52 205.188C330.36 206.04 330.504 207.216 330.504 208.824ZM326.028 210.24L329.16 206.4C329.064 206.172 328.932 205.968 328.752 205.8C328.512 205.572 328.164 205.416 327.72 205.416C327.276 205.416 326.928 205.572 326.688 205.8C325.98 206.472 325.992 207.696 325.992 208.824C325.992 209.292 325.98 209.784 326.028 210.24ZM329.448 208.824C329.448 208.38 329.448 207.924 329.412 207.492L326.316 211.32C326.412 211.524 326.532 211.704 326.688 211.848C326.928 212.076 327.276 212.232 327.72 212.232C328.164 212.232 328.512 212.076 328.752 211.848C329.46 211.176 329.448 209.952 329.448 208.824ZM338.101 210.312C338.101 211.152 337.801 211.836 337.333 212.352C336.889 212.832 336.193 213.156 335.329 213.156C334.393 213.156 333.673 212.676 333.265 212.112C332.665 211.284 332.521 210.132 332.521 208.944C332.521 207.756 332.653 206.58 333.217 205.68C333.613 205.056 334.321 204.492 335.377 204.492C336.085 204.492 336.721 204.744 337.141 205.164C337.513 205.536 337.789 206.064 337.813 206.676H336.781C336.757 206.268 336.565 205.944 336.313 205.728C336.073 205.524 335.737 205.416 335.341 205.416C334.813 205.416 334.441 205.668 334.189 205.956C333.661 206.556 333.565 207.6 333.553 208.476C333.817 207.9 334.669 207.504 335.461 207.504C336.217 207.504 336.853 207.768 337.249 208.152C337.789 208.668 338.101 209.436 338.101 210.312ZM337.069 210.324C337.069 209.736 336.877 209.244 336.565 208.896C336.313 208.608 335.881 208.416 335.353 208.416C334.825 208.416 334.417 208.644 334.165 208.932C333.853 209.28 333.685 209.736 333.685 210.324C333.685 210.912 333.877 211.368 334.201 211.716C334.465 212.004 334.849 212.232 335.377 212.232C335.905 212.232 336.301 212.04 336.565 211.752C336.889 211.404 337.069 210.912 337.069 210.324ZM343.455 208.668H341.751V206.928H343.455V208.668ZM343.455 213.012H341.751V211.272H343.455V213.012ZM352.9 210.252C352.9 211.128 352.66 211.836 352.192 212.352C351.76 212.832 351.088 213.168 350.212 213.168C349.396 213.168 348.7 212.892 348.244 212.448C347.776 211.992 347.5 211.368 347.464 210.6H348.484C348.508 211.128 348.688 211.512 348.964 211.788C349.24 212.064 349.672 212.232 350.2 212.232C350.776 212.232 351.196 212.004 351.448 211.68C351.724 211.332 351.868 210.864 351.868 210.3C351.868 209.724 351.7 209.22 351.388 208.872C351.124 208.584 350.728 208.404 350.2 208.404C349.636 208.404 349.072 208.656 348.784 209.136H347.644L347.872 204.66H352.48V205.584H348.748L348.616 208.248C348.988 207.708 349.696 207.492 350.404 207.492C351.136 207.492 351.736 207.756 352.144 208.176C352.636 208.68 352.9 209.424 352.9 210.252ZM360.078 210.72C360.078 211.368 359.85 211.968 359.442 212.4C358.998 212.868 358.326 213.156 357.39 213.156C356.586 213.156 355.914 212.868 355.446 212.4C355.014 211.968 354.75 211.38 354.738 210.612H355.782C355.806 211.08 355.938 211.476 356.214 211.764C356.466 212.04 356.862 212.232 357.39 212.232C357.894 212.232 358.35 212.076 358.638 211.752C358.866 211.5 359.034 211.152 359.034 210.696C359.034 209.676 358.302 209.148 357.282 209.148H356.742V208.2H357.282C358.242 208.2 358.854 207.672 358.854 206.796C358.854 206.412 358.722 206.076 358.458 205.824C358.23 205.596 357.858 205.416 357.402 205.416C356.946 205.416 356.598 205.548 356.346 205.752C356.022 206.016 355.854 206.424 355.842 206.928H354.798C354.81 206.1 355.11 205.5 355.602 205.092C356.07 204.708 356.706 204.492 357.426 204.492C358.122 204.492 358.794 204.744 359.238 205.164C359.658 205.548 359.91 206.076 359.91 206.796C359.91 207.576 359.37 208.392 358.686 208.68C359.574 208.98 360.078 209.856 360.078 210.72ZM365.779 208.668H364.075V206.928H365.779V208.668ZM365.779 213.012H364.075V211.272H365.779V213.012ZM375.452 213H369.896V212.064H372.164V205.824L369.908 207.18V206.088L372.212 204.66H373.196V212.064H375.452V213ZM382.666 210.252C382.666 211.128 382.426 211.836 381.958 212.352C381.526 212.832 380.854 213.168 379.978 213.168C379.162 213.168 378.466 212.892 378.01 212.448C377.542 211.992 377.266 211.368 377.23 210.6H378.25C378.274 211.128 378.454 211.512 378.73 211.788C379.006 212.064 379.438 212.232 379.966 212.232C380.542 212.232 380.962 212.004 381.214 211.68C381.49 211.332 381.634 210.864 381.634 210.3C381.634 209.724 381.466 209.22 381.154 208.872C380.89 208.584 380.494 208.404 379.966 208.404C379.402 208.404 378.838 208.656 378.55 209.136H377.41L377.638 204.66H382.246V205.584H378.514L378.382 208.248C378.754 207.708 379.462 207.492 380.17 207.492C380.902 207.492 381.502 207.756 381.91 208.176C382.402 208.68 382.666 209.424 382.666 210.252Z" fill="#737680"/>
<path d="M486.504 208.824C486.504 210.432 486.36 211.596 485.52 212.448C485.112 212.856 484.548 213.156 483.72 213.156C482.892 213.156 482.328 212.856 481.92 212.448C481.08 211.596 480.936 210.432 480.936 208.824C480.936 207.216 481.08 206.04 481.92 205.188C482.328 204.78 482.892 204.492 483.72 204.492C484.548 204.492 485.112 204.78 485.52 205.188C486.36 206.04 486.504 207.216 486.504 208.824ZM482.028 210.24L485.16 206.4C485.064 206.172 484.932 205.968 484.752 205.8C484.512 205.572 484.164 205.416 483.72 205.416C483.276 205.416 482.928 205.572 482.688 205.8C481.98 206.472 481.992 207.696 481.992 208.824C481.992 209.292 481.98 209.784 482.028 210.24ZM485.448 208.824C485.448 208.38 485.448 207.924 485.412 207.492L482.316 211.32C482.412 211.524 482.532 211.704 482.688 211.848C482.928 212.076 483.276 212.232 483.72 212.232C484.164 212.232 484.512 212.076 484.752 211.848C485.46 211.176 485.448 209.952 485.448 208.824ZM494.101 210.312C494.101 211.152 493.801 211.836 493.333 212.352C492.889 212.832 492.193 213.156 491.329 213.156C490.393 213.156 489.673 212.676 489.265 212.112C488.665 211.284 488.521 210.132 488.521 208.944C488.521 207.756 488.653 206.58 489.217 205.68C489.613 205.056 490.321 204.492 491.377 204.492C492.085 204.492 492.721 204.744 493.141 205.164C493.513 205.536 493.789 206.064 493.813 206.676H492.781C492.757 206.268 492.565 205.944 492.313 205.728C492.073 205.524 491.737 205.416 491.341 205.416C490.813 205.416 490.441 205.668 490.189 205.956C489.661 206.556 489.565 207.6 489.553 208.476C489.817 207.9 490.669 207.504 491.461 207.504C492.217 207.504 492.853 207.768 493.249 208.152C493.789 208.668 494.101 209.436 494.101 210.312ZM493.069 210.324C493.069 209.736 492.877 209.244 492.565 208.896C492.313 208.608 491.881 208.416 491.353 208.416C490.825 208.416 490.417 208.644 490.165 208.932C489.853 209.28 489.685 209.736 489.685 210.324C489.685 210.912 489.877 211.368 490.201 211.716C490.465 212.004 490.849 212.232 491.377 212.232C491.905 212.232 492.301 212.04 492.565 211.752C492.889 211.404 493.069 210.912 493.069 210.324ZM499.455 208.668H497.751V206.928H499.455V208.668ZM499.455 213.012H497.751V211.272H499.455V213.012ZM508.9 210.252C508.9 211.128 508.66 211.836 508.192 212.352C507.76 212.832 507.088 213.168 506.212 213.168C505.396 213.168 504.7 212.892 504.244 212.448C503.776 211.992 503.5 211.368 503.464 210.6H504.484C504.508 211.128 504.688 211.512 504.964 211.788C505.24 212.064 505.672 212.232 506.2 212.232C506.776 212.232 507.196 212.004 507.448 211.68C507.724 211.332 507.868 210.864 507.868 210.3C507.868 209.724 507.7 209.22 507.388 208.872C507.124 208.584 506.728 208.404 506.2 208.404C505.636 208.404 505.072 208.656 504.784 209.136H503.644L503.872 204.66H508.48V205.584H504.748L504.616 208.248C504.988 207.708 505.696 207.492 506.404 207.492C507.136 207.492 507.736 207.756 508.144 208.176C508.636 208.68 508.9 209.424 508.9 210.252ZM516.078 210.72C516.078 211.368 515.85 211.968 515.442 212.4C514.998 212.868 514.326 213.156 513.39 213.156C512.586 213.156 511.914 212.868 511.446 212.4C511.014 211.968 510.75 211.38 510.738 210.612H511.782C511.806 211.08 511.938 211.476 512.214 211.764C512.466 212.04 512.862 212.232 513.39 212.232C513.894 212.232 514.35 212.076 514.638 211.752C514.866 211.5 515.034 211.152 515.034 210.696C515.034 209.676 514.302 209.148 513.282 209.148H512.742V208.2H513.282C514.242 208.2 514.854 207.672 514.854 206.796C514.854 206.412 514.722 206.076 514.458 205.824C514.23 205.596 513.858 205.416 513.402 205.416C512.946 205.416 512.598 205.548 512.346 205.752C512.022 206.016 511.854 206.424 511.842 206.928H510.798C510.81 206.1 511.11 205.5 511.602 205.092C512.07 204.708 512.706 204.492 513.426 204.492C514.122 204.492 514.794 204.744 515.238 205.164C515.658 205.548 515.91 206.076 515.91 206.796C515.91 207.576 515.37 208.392 514.686 208.68C515.574 208.98 516.078 209.856 516.078 210.72ZM521.779 208.668H520.075V206.928H521.779V208.668ZM521.779 213.012H520.075V211.272H521.779V213.012ZM531.452 213H525.896V212.064H528.164V205.824L525.908 207.18V206.088L528.212 204.66H529.196V212.064H531.452V213ZM538.666 210.252C538.666 211.128 538.426 211.836 537.958 212.352C537.526 212.832 536.854 213.168 535.978 213.168C535.162 213.168 534.466 212.892 534.01 212.448C533.542 211.992 533.266 211.368 533.23 210.6H534.25C534.274 211.128 534.454 211.512 534.73 211.788C535.006 212.064 535.438 212.232 535.966 212.232C536.542 212.232 536.962 212.004 537.214 211.68C537.49 211.332 537.634 210.864 537.634 210.3C537.634 209.724 537.466 209.22 537.154 208.872C536.89 208.584 536.494 208.404 535.966 208.404C535.402 208.404 534.838 208.656 534.55 209.136H533.41L533.638 204.66H538.246V205.584H534.514L534.382 208.248C534.754 207.708 535.462 207.492 536.17 207.492C536.902 207.492 537.502 207.756 537.91 208.176C538.402 208.68 538.666 209.424 538.666 210.252Z" fill="#737680"/>
<path d="M642.6 213H641.292L637.884 206.16V213H636.84V204.492H638.172L641.568 211.368V204.492H642.6V213ZM650.413 208.752C650.413 210.108 650.305 211.344 649.381 212.244C648.769 212.844 648.013 213.168 647.161 213.168C646.309 213.168 645.553 212.844 644.941 212.244C644.017 211.344 643.909 210.108 643.909 208.752C643.909 207.396 644.017 206.16 644.941 205.26C645.553 204.66 646.309 204.336 647.161 204.336C648.013 204.336 648.769 204.66 649.381 205.26C650.305 206.16 650.413 207.396 650.413 208.752ZM649.309 208.752C649.309 207.864 649.333 206.724 648.637 206.004C648.229 205.584 647.737 205.356 647.161 205.356C646.585 205.356 646.093 205.584 645.685 206.004C644.989 206.724 645.013 207.864 645.013 208.752C645.013 209.64 644.989 210.78 645.685 211.5C646.093 211.92 646.585 212.148 647.161 212.148C647.737 212.148 648.229 211.92 648.637 211.5C649.333 210.78 649.309 209.64 649.309 208.752ZM657.891 204.492L657.303 213H656.019L654.603 208.308L653.223 213H651.927L651.339 204.492H652.347L652.779 211.428L654.123 206.928H655.119L656.463 211.416L656.883 204.492H657.891Z" fill="#737680"/>
<path d="M624.499 192.5H466.999H466.995C438.26 192.5 393.416 192.5 393.416 192.5C393.416 192.5 287.496 192.5 234.141 192.5C180.786 192.5 130.148 192.5 75.7933 192.5C21.4391 192.5 -0.468379 192.5 -0.468379 192.5L-0.46875 192H75.793C130.015 192 183.701 181.267 233.756 160.42C284.341 139.352 338.622 128.59 393.419 128.765L466.994 128.999L624.493 128L624.499 192.5Z" fill="url(#paint0_linear_311_34876)"/>
<path d="M0 192H156" stroke="#DCDCE0"/>
<path d="M0.53125 192H75.7931C130.081 192 183.833 181.254 233.948 160.381C284.472 139.339 338.687 128.59 393.417 128.765L466.996 129L624.496 128" stroke="#DC2D28" stroke-width="2"/>
<circle cx="624" cy="128" r="4.5" fill="white" stroke="#DC2D28"/>
</g>
<path d="M10 0.5H770C775.247 0.5 779.5 4.75329 779.5 10V246C779.5 251.247 775.247 255.5 770 255.5H10C4.7533 255.5 0.5 251.247 0.5 246V10C0.5 4.7533 4.7533 0.5 10 0.5Z" stroke="#DCDCE0"/>
<defs>
<linearGradient id="paint0_linear_311_34876" x1="312.015" y1="128" x2="312.015" y2="192.5" gradientUnits="userSpaceOnUse">
<stop stop-color="#DC2D28" stop-opacity="0.08"/>
<stop offset="1" stop-color="#DC2D28" stop-opacity="0"/>
</linearGradient>
<clipPath id="clip0_311_34876">
<path d="M0 10C0 4.47715 4.47715 0 10 0H770C775.523 0 780 4.47715 780 10V246C780 251.523 775.523 256 770 256H9.99998C4.47713 256 0 251.523 0 246V10Z" fill="white"/>
</clipPath>
</defs>
</svg>
