<svg width="780" height="256" viewBox="0 0 780 256" fill="none" xmlns="http://www.w3.org/2000/svg">
<g clip-path="url(#clip0_311_35107)">
<path d="M0 10C0 4.47715 4.47715 0 10 0H770C775.523 0 780 4.47715 780 10V246C780 251.523 775.523 256 770 256H9.99998C4.47713 256 0 251.523 0 246V10Z" fill="white"/>
<path d="M0 256L1.01411e-05 -3.51667e-06" stroke="#DCDCE0" stroke-width="0.5" stroke-linejoin="round"/>
<path d="M86.668 256L86.668 -3.51667e-06" stroke="#DCDCE0" stroke-linejoin="round" stroke-dasharray="2 2"/>
<path d="M173.332 256L173.332 -3.51667e-06" stroke="#DCDCE0" stroke-linejoin="round" stroke-dasharray="2 2"/>
<path d="M260 256L260 -3.51667e-06" stroke="#DCDCE0" stroke-linejoin="round" stroke-dasharray="2 2"/>
<path d="M346.668 256L346.668 -3.51667e-06" stroke="#DCDCE0" stroke-linejoin="round" stroke-dasharray="2 2"/>
<path d="M433.332 256L433.332 -3.51667e-06" stroke="#DCDCE0" stroke-linejoin="round" stroke-dasharray="2 2"/>
<path d="M520 256L520 -3.51667e-06" stroke="#DCDCE0" stroke-linejoin="round" stroke-dasharray="2 2"/>
<path d="M606.668 256L606.668 -3.51667e-06" stroke="#DCDCE0" stroke-linejoin="round" stroke-dasharray="2 2"/>
<path d="M693.332 256L693.332 -3.51667e-06" stroke="#DCDCE0" stroke-linejoin="round" stroke-dasharray="2 2"/>
<path d="M780 256L780 -3.51667e-06" stroke="#DCDCE0" stroke-width="0.5" stroke-linejoin="round"/>
<path d="M780 64L-2.86102e-05 64" stroke="#DCDCE0" stroke-linejoin="round" stroke-dasharray="2 2"/>
<path d="M780 128L-2.86102e-05 128" stroke="#DCDCE0" stroke-linejoin="round" stroke-dasharray="2 2"/>
<path d="M780 192L-2.86102e-05 192" stroke="#DCDCE0" stroke-linejoin="round" stroke-dasharray="2 2"/>
<path d="M18.48 80.704C18.48 81.892 18.348 83.128 17.784 84.028C17.388 84.652 16.632 85.156 15.576 85.156C14.868 85.156 14.232 84.904 13.812 84.472C13.44 84.1 13.164 83.584 13.14 82.972H14.172C14.196 83.38 14.388 83.692 14.64 83.908C14.88 84.124 15.216 84.232 15.612 84.232C16.14 84.232 16.536 84.016 16.788 83.728C17.316 83.128 17.436 82.048 17.448 81.172C17.184 81.748 16.344 82.144 15.552 82.144C14.796 82.144 14.16 81.88 13.764 81.496C13.224 80.98 12.912 80.224 12.912 79.336C12.912 78.496 13.212 77.812 13.68 77.296C14.124 76.816 14.82 76.492 15.684 76.492C16.62 76.492 17.352 76.972 17.76 77.524C18.36 78.352 18.48 79.528 18.48 80.704ZM17.34 79.324C17.34 78.736 17.16 78.268 16.836 77.92C16.572 77.632 16.164 77.416 15.636 77.416C15.108 77.416 14.712 77.608 14.448 77.896C14.124 78.244 13.944 78.736 13.944 79.324C13.944 79.912 14.136 80.404 14.448 80.752C14.7 81.04 15.132 81.232 15.66 81.232C16.188 81.232 16.608 81.016 16.86 80.728C17.172 80.38 17.34 79.912 17.34 79.324ZM25.1534 78.304C25.1534 79.456 24.2894 80.272 23.1614 80.272C22.0334 80.272 21.1814 79.456 21.1814 78.304C21.1814 77.152 22.0334 76.336 23.1614 76.336C24.2894 76.336 25.1534 77.152 25.1534 78.304ZM24.2534 78.304C24.2534 77.644 23.7854 77.188 23.1614 77.188C22.5374 77.188 22.0814 77.644 22.0814 78.304C22.0814 78.964 22.5374 79.42 23.1614 79.42C23.7854 79.42 24.2534 78.964 24.2534 78.304ZM32.7148 82.288H33.8188C33.7468 83.944 32.4148 85.168 30.7588 85.168C29.9068 85.168 29.1628 84.844 28.5628 84.256C27.6028 83.32 27.5188 82.012 27.5188 80.752C27.5188 79.492 27.6028 78.184 28.5628 77.248C29.1628 76.66 29.9068 76.336 30.7588 76.336C32.4028 76.336 33.7348 77.488 33.8068 79.156H32.6908C32.6668 78.688 32.4628 78.232 32.1988 77.956C31.8508 77.572 31.3468 77.344 30.7588 77.344C30.1828 77.344 29.7148 77.584 29.3188 77.992C28.6228 78.712 28.6228 79.816 28.6228 80.752C28.6228 81.688 28.6228 82.792 29.3188 83.512C29.7148 83.92 30.1828 84.16 30.7588 84.16C31.8388 84.16 32.6908 83.38 32.7148 82.288Z" fill="#737680"/>
<path d="M18.576 146.252C18.576 147.128 18.336 147.836 17.868 148.352C17.436 148.832 16.764 149.168 15.888 149.168C15.072 149.168 14.376 148.892 13.92 148.448C13.452 147.992 13.176 147.368 13.14 146.6H14.16C14.184 147.128 14.364 147.512 14.64 147.788C14.916 148.064 15.348 148.232 15.876 148.232C16.452 148.232 16.872 148.004 17.124 147.68C17.4 147.332 17.544 146.864 17.544 146.3C17.544 145.724 17.376 145.22 17.064 144.872C16.8 144.584 16.404 144.404 15.876 144.404C15.312 144.404 14.748 144.656 14.46 145.136H13.32L13.548 140.66H18.156V141.584H14.424L14.292 144.248C14.664 143.708 15.372 143.492 16.08 143.492C16.812 143.492 17.412 143.756 17.82 144.176C18.312 144.68 18.576 145.424 18.576 146.252ZM24.0494 149.012H22.2734V147.2H24.0494V149.012ZM33.2308 149H28.1548V148.124L31.5988 143.96C31.9228 143.576 32.0548 143.192 32.0548 142.76C32.0548 141.908 31.5268 141.416 30.6508 141.416C29.9068 141.416 29.1988 141.824 29.1988 142.928H28.1428C28.1428 141.476 29.1628 140.492 30.6388 140.492C31.5508 140.492 32.2948 140.864 32.7148 141.452C32.9668 141.812 33.0988 142.22 33.0988 142.748C33.0988 143.408 32.8468 143.96 32.3908 144.524L29.4868 148.04H33.2308V149ZM40.0362 142.304C40.0362 143.456 39.1722 144.272 38.0442 144.272C36.9162 144.272 36.0642 143.456 36.0642 142.304C36.0642 141.152 36.9162 140.336 38.0442 140.336C39.1722 140.336 40.0362 141.152 40.0362 142.304ZM39.1362 142.304C39.1362 141.644 38.6682 141.188 38.0442 141.188C37.4202 141.188 36.9642 141.644 36.9642 142.304C36.9642 142.964 37.4202 143.42 38.0442 143.42C38.6682 143.42 39.1362 142.964 39.1362 142.304ZM47.5976 146.288H48.7016C48.6296 147.944 47.2976 149.168 45.6416 149.168C44.7896 149.168 44.0456 148.844 43.4456 148.256C42.4856 147.32 42.4016 146.012 42.4016 144.752C42.4016 143.492 42.4856 142.184 43.4456 141.248C44.0456 140.66 44.7896 140.336 45.6416 140.336C47.2856 140.336 48.6176 141.488 48.6896 143.156H47.5736C47.5496 142.688 47.3456 142.232 47.0816 141.956C46.7336 141.572 46.2296 141.344 45.6416 141.344C45.0656 141.344 44.5976 141.584 44.2016 141.992C43.5056 142.712 43.5056 143.816 43.5056 144.752C43.5056 145.688 43.5056 146.792 44.2016 147.512C44.5976 147.92 45.0656 148.16 45.6416 148.16C46.7216 148.16 47.5736 147.38 47.5976 146.288Z" fill="#737680"/>
<path d="M18.768 211.224H17.64V213H16.608V211.224H12.66V210.12L15.948 204.66H17.052L13.668 210.3H16.608V207.816H17.64V210.3H18.768V211.224ZM24.0494 213.012H22.2734V211.2H24.0494V213.012ZM33.3388 210.708C33.3388 211.344 33.1228 211.848 32.7868 212.244C32.2948 212.832 31.4788 213.156 30.6028 213.156C29.7268 213.156 28.9108 212.832 28.4188 212.244C28.0828 211.848 27.8668 211.344 27.8668 210.708C27.8668 209.796 28.4068 209.004 29.1748 208.656C28.4908 208.296 28.0348 207.576 28.0348 206.772C28.0348 206.088 28.3108 205.548 28.7188 205.164C29.1868 204.732 29.8708 204.492 30.6028 204.492C31.3348 204.492 32.0188 204.732 32.4868 205.164C32.8948 205.548 33.1708 206.088 33.1708 206.772C33.1708 207.576 32.7148 208.296 32.0308 208.656C32.7988 209.004 33.3388 209.796 33.3388 210.708ZM32.1388 206.772C32.1388 205.92 31.4308 205.392 30.6028 205.392C29.7748 205.392 29.0668 205.92 29.0668 206.772C29.0668 207.54 29.6428 208.212 30.6028 208.212C31.5628 208.212 32.1388 207.54 32.1388 206.772ZM32.3068 210.66C32.3068 209.772 31.6588 209.1 30.6028 209.1C29.5468 209.1 28.8988 209.772 28.8988 210.66C28.8988 211.644 29.6308 212.256 30.6028 212.256C31.5748 212.256 32.3068 211.644 32.3068 210.66ZM40.0362 206.304C40.0362 207.456 39.1722 208.272 38.0442 208.272C36.9162 208.272 36.0642 207.456 36.0642 206.304C36.0642 205.152 36.9162 204.336 38.0442 204.336C39.1722 204.336 40.0362 205.152 40.0362 206.304ZM39.1362 206.304C39.1362 205.644 38.6682 205.188 38.0442 205.188C37.4202 205.188 36.9642 205.644 36.9642 206.304C36.9642 206.964 37.4202 207.42 38.0442 207.42C38.6682 207.42 39.1362 206.964 39.1362 206.304ZM47.5976 210.288H48.7016C48.6296 211.944 47.2976 213.168 45.6416 213.168C44.7896 213.168 44.0456 212.844 43.4456 212.256C42.4856 211.32 42.4016 210.012 42.4016 208.752C42.4016 207.492 42.4856 206.184 43.4456 205.248C44.0456 204.66 44.7896 204.336 45.6416 204.336C47.2856 204.336 48.6176 205.488 48.6896 207.156H47.5736C47.5496 206.688 47.3456 206.232 47.0816 205.956C46.7336 205.572 46.2296 205.344 45.6416 205.344C45.0656 205.344 44.5976 205.584 44.2016 205.992C43.5056 206.712 43.5056 207.816 43.5056 208.752C43.5056 209.688 43.5056 210.792 44.2016 211.512C44.5976 211.92 45.0656 212.16 45.6416 212.16C46.7216 212.16 47.5736 211.38 47.5976 210.288Z" fill="#737680"/>
<path d="M102.504 208.824C102.504 210.432 102.36 211.596 101.52 212.448C101.112 212.856 100.548 213.156 99.72 213.156C98.892 213.156 98.328 212.856 97.92 212.448C97.08 211.596 96.936 210.432 96.936 208.824C96.936 207.216 97.08 206.04 97.92 205.188C98.328 204.78 98.892 204.492 99.72 204.492C100.548 204.492 101.112 204.78 101.52 205.188C102.36 206.04 102.504 207.216 102.504 208.824ZM98.028 210.24L101.16 206.4C101.064 206.172 100.932 205.968 100.752 205.8C100.512 205.572 100.164 205.416 99.72 205.416C99.276 205.416 98.928 205.572 98.688 205.8C97.98 206.472 97.992 207.696 97.992 208.824C97.992 209.292 97.98 209.784 98.028 210.24ZM101.448 208.824C101.448 208.38 101.448 207.924 101.412 207.492L98.316 211.32C98.412 211.524 98.532 211.704 98.688 211.848C98.928 212.076 99.276 212.232 99.72 212.232C100.164 212.232 100.512 212.076 100.752 211.848C101.46 211.176 101.448 209.952 101.448 208.824ZM110.101 210.312C110.101 211.152 109.801 211.836 109.333 212.352C108.889 212.832 108.193 213.156 107.329 213.156C106.393 213.156 105.673 212.676 105.265 212.112C104.665 211.284 104.521 210.132 104.521 208.944C104.521 207.756 104.653 206.58 105.217 205.68C105.613 205.056 106.321 204.492 107.377 204.492C108.085 204.492 108.721 204.744 109.141 205.164C109.513 205.536 109.789 206.064 109.813 206.676H108.781C108.757 206.268 108.565 205.944 108.313 205.728C108.073 205.524 107.737 205.416 107.341 205.416C106.813 205.416 106.441 205.668 106.189 205.956C105.661 206.556 105.565 207.6 105.553 208.476C105.817 207.9 106.669 207.504 107.461 207.504C108.217 207.504 108.853 207.768 109.249 208.152C109.789 208.668 110.101 209.436 110.101 210.312ZM109.069 210.324C109.069 209.736 108.877 209.244 108.565 208.896C108.313 208.608 107.881 208.416 107.353 208.416C106.825 208.416 106.417 208.644 106.165 208.932C105.853 209.28 105.685 209.736 105.685 210.324C105.685 210.912 105.877 211.368 106.201 211.716C106.465 212.004 106.849 212.232 107.377 212.232C107.905 212.232 108.301 212.04 108.565 211.752C108.889 211.404 109.069 210.912 109.069 210.324ZM115.455 208.668H113.751V206.928H115.455V208.668ZM115.455 213.012H113.751V211.272H115.455V213.012ZM124.9 210.252C124.9 211.128 124.66 211.836 124.192 212.352C123.76 212.832 123.088 213.168 122.212 213.168C121.396 213.168 120.7 212.892 120.244 212.448C119.776 211.992 119.5 211.368 119.464 210.6H120.484C120.508 211.128 120.688 211.512 120.964 211.788C121.24 212.064 121.672 212.232 122.2 212.232C122.776 212.232 123.196 212.004 123.448 211.68C123.724 211.332 123.868 210.864 123.868 210.3C123.868 209.724 123.7 209.22 123.388 208.872C123.124 208.584 122.728 208.404 122.2 208.404C121.636 208.404 121.072 208.656 120.784 209.136H119.644L119.872 204.66H124.48V205.584H120.748L120.616 208.248C120.988 207.708 121.696 207.492 122.404 207.492C123.136 207.492 123.736 207.756 124.144 208.176C124.636 208.68 124.9 209.424 124.9 210.252ZM132.078 210.72C132.078 211.368 131.85 211.968 131.442 212.4C130.998 212.868 130.326 213.156 129.39 213.156C128.586 213.156 127.914 212.868 127.446 212.4C127.014 211.968 126.75 211.38 126.738 210.612H127.782C127.806 211.08 127.938 211.476 128.214 211.764C128.466 212.04 128.862 212.232 129.39 212.232C129.894 212.232 130.35 212.076 130.638 211.752C130.866 211.5 131.034 211.152 131.034 210.696C131.034 209.676 130.302 209.148 129.282 209.148H128.742V208.2H129.282C130.242 208.2 130.854 207.672 130.854 206.796C130.854 206.412 130.722 206.076 130.458 205.824C130.23 205.596 129.858 205.416 129.402 205.416C128.946 205.416 128.598 205.548 128.346 205.752C128.022 206.016 127.854 206.424 127.842 206.928H126.798C126.81 206.1 127.11 205.5 127.602 205.092C128.07 204.708 128.706 204.492 129.426 204.492C130.122 204.492 130.794 204.744 131.238 205.164C131.658 205.548 131.91 206.076 131.91 206.796C131.91 207.576 131.37 208.392 130.686 208.68C131.574 208.98 132.078 209.856 132.078 210.72ZM137.779 208.668H136.075V206.928H137.779V208.668ZM137.779 213.012H136.075V211.272H137.779V213.012ZM147.452 213H141.896V212.064H144.164V205.824L141.908 207.18V206.088L144.212 204.66H145.196V212.064H147.452V213ZM154.666 210.252C154.666 211.128 154.426 211.836 153.958 212.352C153.526 212.832 152.854 213.168 151.978 213.168C151.162 213.168 150.466 212.892 150.01 212.448C149.542 211.992 149.266 211.368 149.23 210.6H150.25C150.274 211.128 150.454 211.512 150.73 211.788C151.006 212.064 151.438 212.232 151.966 212.232C152.542 212.232 152.962 212.004 153.214 211.68C153.49 211.332 153.634 210.864 153.634 210.3C153.634 209.724 153.466 209.22 153.154 208.872C152.89 208.584 152.494 208.404 151.966 208.404C151.402 208.404 150.838 208.656 150.55 209.136H149.41L149.638 204.66H154.246V205.584H150.514L150.382 208.248C150.754 207.708 151.462 207.492 152.17 207.492C152.902 207.492 153.502 207.756 153.91 208.176C154.402 208.68 154.666 209.424 154.666 210.252Z" fill="#737680"/>
<path d="M189.504 208.824C189.504 210.432 189.36 211.596 188.52 212.448C188.112 212.856 187.548 213.156 186.72 213.156C185.892 213.156 185.328 212.856 184.92 212.448C184.08 211.596 183.936 210.432 183.936 208.824C183.936 207.216 184.08 206.04 184.92 205.188C185.328 204.78 185.892 204.492 186.72 204.492C187.548 204.492 188.112 204.78 188.52 205.188C189.36 206.04 189.504 207.216 189.504 208.824ZM185.028 210.24L188.16 206.4C188.064 206.172 187.932 205.968 187.752 205.8C187.512 205.572 187.164 205.416 186.72 205.416C186.276 205.416 185.928 205.572 185.688 205.8C184.98 206.472 184.992 207.696 184.992 208.824C184.992 209.292 184.98 209.784 185.028 210.24ZM188.448 208.824C188.448 208.38 188.448 207.924 188.412 207.492L185.316 211.32C185.412 211.524 185.532 211.704 185.688 211.848C185.928 212.076 186.276 212.232 186.72 212.232C187.164 212.232 187.512 212.076 187.752 211.848C188.46 211.176 188.448 209.952 188.448 208.824ZM197.101 210.312C197.101 211.152 196.801 211.836 196.333 212.352C195.889 212.832 195.193 213.156 194.329 213.156C193.393 213.156 192.673 212.676 192.265 212.112C191.665 211.284 191.521 210.132 191.521 208.944C191.521 207.756 191.653 206.58 192.217 205.68C192.613 205.056 193.321 204.492 194.377 204.492C195.085 204.492 195.721 204.744 196.141 205.164C196.513 205.536 196.789 206.064 196.813 206.676H195.781C195.757 206.268 195.565 205.944 195.313 205.728C195.073 205.524 194.737 205.416 194.341 205.416C193.813 205.416 193.441 205.668 193.189 205.956C192.661 206.556 192.565 207.6 192.553 208.476C192.817 207.9 193.669 207.504 194.461 207.504C195.217 207.504 195.853 207.768 196.249 208.152C196.789 208.668 197.101 209.436 197.101 210.312ZM196.069 210.324C196.069 209.736 195.877 209.244 195.565 208.896C195.313 208.608 194.881 208.416 194.353 208.416C193.825 208.416 193.417 208.644 193.165 208.932C192.853 209.28 192.685 209.736 192.685 210.324C192.685 210.912 192.877 211.368 193.201 211.716C193.465 212.004 193.849 212.232 194.377 212.232C194.905 212.232 195.301 212.04 195.565 211.752C195.889 211.404 196.069 210.912 196.069 210.324ZM202.455 208.668H200.751V206.928H202.455V208.668ZM202.455 213.012H200.751V211.272H202.455V213.012ZM211.9 210.252C211.9 211.128 211.66 211.836 211.192 212.352C210.76 212.832 210.088 213.168 209.212 213.168C208.396 213.168 207.7 212.892 207.244 212.448C206.776 211.992 206.5 211.368 206.464 210.6H207.484C207.508 211.128 207.688 211.512 207.964 211.788C208.24 212.064 208.672 212.232 209.2 212.232C209.776 212.232 210.196 212.004 210.448 211.68C210.724 211.332 210.868 210.864 210.868 210.3C210.868 209.724 210.7 209.22 210.388 208.872C210.124 208.584 209.728 208.404 209.2 208.404C208.636 208.404 208.072 208.656 207.784 209.136H206.644L206.872 204.66H211.48V205.584H207.748L207.616 208.248C207.988 207.708 208.696 207.492 209.404 207.492C210.136 207.492 210.736 207.756 211.144 208.176C211.636 208.68 211.9 209.424 211.9 210.252ZM219.078 210.72C219.078 211.368 218.85 211.968 218.442 212.4C217.998 212.868 217.326 213.156 216.39 213.156C215.586 213.156 214.914 212.868 214.446 212.4C214.014 211.968 213.75 211.38 213.738 210.612H214.782C214.806 211.08 214.938 211.476 215.214 211.764C215.466 212.04 215.862 212.232 216.39 212.232C216.894 212.232 217.35 212.076 217.638 211.752C217.866 211.5 218.034 211.152 218.034 210.696C218.034 209.676 217.302 209.148 216.282 209.148H215.742V208.2H216.282C217.242 208.2 217.854 207.672 217.854 206.796C217.854 206.412 217.722 206.076 217.458 205.824C217.23 205.596 216.858 205.416 216.402 205.416C215.946 205.416 215.598 205.548 215.346 205.752C215.022 206.016 214.854 206.424 214.842 206.928H213.798C213.81 206.1 214.11 205.5 214.602 205.092C215.07 204.708 215.706 204.492 216.426 204.492C217.122 204.492 217.794 204.744 218.238 205.164C218.658 205.548 218.91 206.076 218.91 206.796C218.91 207.576 218.37 208.392 217.686 208.68C218.574 208.98 219.078 209.856 219.078 210.72ZM224.779 208.668H223.075V206.928H224.779V208.668ZM224.779 213.012H223.075V211.272H224.779V213.012ZM234.452 213H228.896V212.064H231.164V205.824L228.908 207.18V206.088L231.212 204.66H232.196V212.064H234.452V213ZM241.666 210.252C241.666 211.128 241.426 211.836 240.958 212.352C240.526 212.832 239.854 213.168 238.978 213.168C238.162 213.168 237.466 212.892 237.01 212.448C236.542 211.992 236.266 211.368 236.23 210.6H237.25C237.274 211.128 237.454 211.512 237.73 211.788C238.006 212.064 238.438 212.232 238.966 212.232C239.542 212.232 239.962 212.004 240.214 211.68C240.49 211.332 240.634 210.864 240.634 210.3C240.634 209.724 240.466 209.22 240.154 208.872C239.89 208.584 239.494 208.404 238.966 208.404C238.402 208.404 237.838 208.656 237.55 209.136H236.41L236.638 204.66H241.246V205.584H237.514L237.382 208.248C237.754 207.708 238.462 207.492 239.17 207.492C239.902 207.492 240.502 207.756 240.91 208.176C241.402 208.68 241.666 209.424 241.666 210.252Z" fill="#737680"/>
<path d="M276.504 208.824C276.504 210.432 276.36 211.596 275.52 212.448C275.112 212.856 274.548 213.156 273.72 213.156C272.892 213.156 272.328 212.856 271.92 212.448C271.08 211.596 270.936 210.432 270.936 208.824C270.936 207.216 271.08 206.04 271.92 205.188C272.328 204.78 272.892 204.492 273.72 204.492C274.548 204.492 275.112 204.78 275.52 205.188C276.36 206.04 276.504 207.216 276.504 208.824ZM272.028 210.24L275.16 206.4C275.064 206.172 274.932 205.968 274.752 205.8C274.512 205.572 274.164 205.416 273.72 205.416C273.276 205.416 272.928 205.572 272.688 205.8C271.98 206.472 271.992 207.696 271.992 208.824C271.992 209.292 271.98 209.784 272.028 210.24ZM275.448 208.824C275.448 208.38 275.448 207.924 275.412 207.492L272.316 211.32C272.412 211.524 272.532 211.704 272.688 211.848C272.928 212.076 273.276 212.232 273.72 212.232C274.164 212.232 274.512 212.076 274.752 211.848C275.46 211.176 275.448 209.952 275.448 208.824ZM284.101 210.312C284.101 211.152 283.801 211.836 283.333 212.352C282.889 212.832 282.193 213.156 281.329 213.156C280.393 213.156 279.673 212.676 279.265 212.112C278.665 211.284 278.521 210.132 278.521 208.944C278.521 207.756 278.653 206.58 279.217 205.68C279.613 205.056 280.321 204.492 281.377 204.492C282.085 204.492 282.721 204.744 283.141 205.164C283.513 205.536 283.789 206.064 283.813 206.676H282.781C282.757 206.268 282.565 205.944 282.313 205.728C282.073 205.524 281.737 205.416 281.341 205.416C280.813 205.416 280.441 205.668 280.189 205.956C279.661 206.556 279.565 207.6 279.553 208.476C279.817 207.9 280.669 207.504 281.461 207.504C282.217 207.504 282.853 207.768 283.249 208.152C283.789 208.668 284.101 209.436 284.101 210.312ZM283.069 210.324C283.069 209.736 282.877 209.244 282.565 208.896C282.313 208.608 281.881 208.416 281.353 208.416C280.825 208.416 280.417 208.644 280.165 208.932C279.853 209.28 279.685 209.736 279.685 210.324C279.685 210.912 279.877 211.368 280.201 211.716C280.465 212.004 280.849 212.232 281.377 212.232C281.905 212.232 282.301 212.04 282.565 211.752C282.889 211.404 283.069 210.912 283.069 210.324ZM289.455 208.668H287.751V206.928H289.455V208.668ZM289.455 213.012H287.751V211.272H289.455V213.012ZM298.9 210.252C298.9 211.128 298.66 211.836 298.192 212.352C297.76 212.832 297.088 213.168 296.212 213.168C295.396 213.168 294.7 212.892 294.244 212.448C293.776 211.992 293.5 211.368 293.464 210.6H294.484C294.508 211.128 294.688 211.512 294.964 211.788C295.24 212.064 295.672 212.232 296.2 212.232C296.776 212.232 297.196 212.004 297.448 211.68C297.724 211.332 297.868 210.864 297.868 210.3C297.868 209.724 297.7 209.22 297.388 208.872C297.124 208.584 296.728 208.404 296.2 208.404C295.636 208.404 295.072 208.656 294.784 209.136H293.644L293.872 204.66H298.48V205.584H294.748L294.616 208.248C294.988 207.708 295.696 207.492 296.404 207.492C297.136 207.492 297.736 207.756 298.144 208.176C298.636 208.68 298.9 209.424 298.9 210.252ZM306.078 210.72C306.078 211.368 305.85 211.968 305.442 212.4C304.998 212.868 304.326 213.156 303.39 213.156C302.586 213.156 301.914 212.868 301.446 212.4C301.014 211.968 300.75 211.38 300.738 210.612H301.782C301.806 211.08 301.938 211.476 302.214 211.764C302.466 212.04 302.862 212.232 303.39 212.232C303.894 212.232 304.35 212.076 304.638 211.752C304.866 211.5 305.034 211.152 305.034 210.696C305.034 209.676 304.302 209.148 303.282 209.148H302.742V208.2H303.282C304.242 208.2 304.854 207.672 304.854 206.796C304.854 206.412 304.722 206.076 304.458 205.824C304.23 205.596 303.858 205.416 303.402 205.416C302.946 205.416 302.598 205.548 302.346 205.752C302.022 206.016 301.854 206.424 301.842 206.928H300.798C300.81 206.1 301.11 205.5 301.602 205.092C302.07 204.708 302.706 204.492 303.426 204.492C304.122 204.492 304.794 204.744 305.238 205.164C305.658 205.548 305.91 206.076 305.91 206.796C305.91 207.576 305.37 208.392 304.686 208.68C305.574 208.98 306.078 209.856 306.078 210.72ZM311.779 208.668H310.075V206.928H311.779V208.668ZM311.779 213.012H310.075V211.272H311.779V213.012ZM321.452 213H315.896V212.064H318.164V205.824L315.908 207.18V206.088L318.212 204.66H319.196V212.064H321.452V213ZM328.666 210.252C328.666 211.128 328.426 211.836 327.958 212.352C327.526 212.832 326.854 213.168 325.978 213.168C325.162 213.168 324.466 212.892 324.01 212.448C323.542 211.992 323.266 211.368 323.23 210.6H324.25C324.274 211.128 324.454 211.512 324.73 211.788C325.006 212.064 325.438 212.232 325.966 212.232C326.542 212.232 326.962 212.004 327.214 211.68C327.49 211.332 327.634 210.864 327.634 210.3C327.634 209.724 327.466 209.22 327.154 208.872C326.89 208.584 326.494 208.404 325.966 208.404C325.402 208.404 324.838 208.656 324.55 209.136H323.41L323.638 204.66H328.246V205.584H324.514L324.382 208.248C324.754 207.708 325.462 207.492 326.17 207.492C326.902 207.492 327.502 207.756 327.91 208.176C328.402 208.68 328.666 209.424 328.666 210.252Z" fill="#737680"/>
<path d="M363.504 208.824C363.504 210.432 363.36 211.596 362.52 212.448C362.112 212.856 361.548 213.156 360.72 213.156C359.892 213.156 359.328 212.856 358.92 212.448C358.08 211.596 357.936 210.432 357.936 208.824C357.936 207.216 358.08 206.04 358.92 205.188C359.328 204.78 359.892 204.492 360.72 204.492C361.548 204.492 362.112 204.78 362.52 205.188C363.36 206.04 363.504 207.216 363.504 208.824ZM359.028 210.24L362.16 206.4C362.064 206.172 361.932 205.968 361.752 205.8C361.512 205.572 361.164 205.416 360.72 205.416C360.276 205.416 359.928 205.572 359.688 205.8C358.98 206.472 358.992 207.696 358.992 208.824C358.992 209.292 358.98 209.784 359.028 210.24ZM362.448 208.824C362.448 208.38 362.448 207.924 362.412 207.492L359.316 211.32C359.412 211.524 359.532 211.704 359.688 211.848C359.928 212.076 360.276 212.232 360.72 212.232C361.164 212.232 361.512 212.076 361.752 211.848C362.46 211.176 362.448 209.952 362.448 208.824ZM371.101 210.312C371.101 211.152 370.801 211.836 370.333 212.352C369.889 212.832 369.193 213.156 368.329 213.156C367.393 213.156 366.673 212.676 366.265 212.112C365.665 211.284 365.521 210.132 365.521 208.944C365.521 207.756 365.653 206.58 366.217 205.68C366.613 205.056 367.321 204.492 368.377 204.492C369.085 204.492 369.721 204.744 370.141 205.164C370.513 205.536 370.789 206.064 370.813 206.676H369.781C369.757 206.268 369.565 205.944 369.313 205.728C369.073 205.524 368.737 205.416 368.341 205.416C367.813 205.416 367.441 205.668 367.189 205.956C366.661 206.556 366.565 207.6 366.553 208.476C366.817 207.9 367.669 207.504 368.461 207.504C369.217 207.504 369.853 207.768 370.249 208.152C370.789 208.668 371.101 209.436 371.101 210.312ZM370.069 210.324C370.069 209.736 369.877 209.244 369.565 208.896C369.313 208.608 368.881 208.416 368.353 208.416C367.825 208.416 367.417 208.644 367.165 208.932C366.853 209.28 366.685 209.736 366.685 210.324C366.685 210.912 366.877 211.368 367.201 211.716C367.465 212.004 367.849 212.232 368.377 212.232C368.905 212.232 369.301 212.04 369.565 211.752C369.889 211.404 370.069 210.912 370.069 210.324ZM376.455 208.668H374.751V206.928H376.455V208.668ZM376.455 213.012H374.751V211.272H376.455V213.012ZM385.9 210.252C385.9 211.128 385.66 211.836 385.192 212.352C384.76 212.832 384.088 213.168 383.212 213.168C382.396 213.168 381.7 212.892 381.244 212.448C380.776 211.992 380.5 211.368 380.464 210.6H381.484C381.508 211.128 381.688 211.512 381.964 211.788C382.24 212.064 382.672 212.232 383.2 212.232C383.776 212.232 384.196 212.004 384.448 211.68C384.724 211.332 384.868 210.864 384.868 210.3C384.868 209.724 384.7 209.22 384.388 208.872C384.124 208.584 383.728 208.404 383.2 208.404C382.636 208.404 382.072 208.656 381.784 209.136H380.644L380.872 204.66H385.48V205.584H381.748L381.616 208.248C381.988 207.708 382.696 207.492 383.404 207.492C384.136 207.492 384.736 207.756 385.144 208.176C385.636 208.68 385.9 209.424 385.9 210.252ZM393.078 210.72C393.078 211.368 392.85 211.968 392.442 212.4C391.998 212.868 391.326 213.156 390.39 213.156C389.586 213.156 388.914 212.868 388.446 212.4C388.014 211.968 387.75 211.38 387.738 210.612H388.782C388.806 211.08 388.938 211.476 389.214 211.764C389.466 212.04 389.862 212.232 390.39 212.232C390.894 212.232 391.35 212.076 391.638 211.752C391.866 211.5 392.034 211.152 392.034 210.696C392.034 209.676 391.302 209.148 390.282 209.148H389.742V208.2H390.282C391.242 208.2 391.854 207.672 391.854 206.796C391.854 206.412 391.722 206.076 391.458 205.824C391.23 205.596 390.858 205.416 390.402 205.416C389.946 205.416 389.598 205.548 389.346 205.752C389.022 206.016 388.854 206.424 388.842 206.928H387.798C387.81 206.1 388.11 205.5 388.602 205.092C389.07 204.708 389.706 204.492 390.426 204.492C391.122 204.492 391.794 204.744 392.238 205.164C392.658 205.548 392.91 206.076 392.91 206.796C392.91 207.576 392.37 208.392 391.686 208.68C392.574 208.98 393.078 209.856 393.078 210.72ZM398.779 208.668H397.075V206.928H398.779V208.668ZM398.779 213.012H397.075V211.272H398.779V213.012ZM408.452 213H402.896V212.064H405.164V205.824L402.908 207.18V206.088L405.212 204.66H406.196V212.064H408.452V213ZM415.666 210.252C415.666 211.128 415.426 211.836 414.958 212.352C414.526 212.832 413.854 213.168 412.978 213.168C412.162 213.168 411.466 212.892 411.01 212.448C410.542 211.992 410.266 211.368 410.23 210.6H411.25C411.274 211.128 411.454 211.512 411.73 211.788C412.006 212.064 412.438 212.232 412.966 212.232C413.542 212.232 413.962 212.004 414.214 211.68C414.49 211.332 414.634 210.864 414.634 210.3C414.634 209.724 414.466 209.22 414.154 208.872C413.89 208.584 413.494 208.404 412.966 208.404C412.402 208.404 411.838 208.656 411.55 209.136H410.41L410.638 204.66H415.246V205.584H411.514L411.382 208.248C411.754 207.708 412.462 207.492 413.17 207.492C413.902 207.492 414.502 207.756 414.91 208.176C415.402 208.68 415.666 209.424 415.666 210.252Z" fill="#737680"/>
<path d="M450.504 208.824C450.504 210.432 450.36 211.596 449.52 212.448C449.112 212.856 448.548 213.156 447.72 213.156C446.892 213.156 446.328 212.856 445.92 212.448C445.08 211.596 444.936 210.432 444.936 208.824C444.936 207.216 445.08 206.04 445.92 205.188C446.328 204.78 446.892 204.492 447.72 204.492C448.548 204.492 449.112 204.78 449.52 205.188C450.36 206.04 450.504 207.216 450.504 208.824ZM446.028 210.24L449.16 206.4C449.064 206.172 448.932 205.968 448.752 205.8C448.512 205.572 448.164 205.416 447.72 205.416C447.276 205.416 446.928 205.572 446.688 205.8C445.98 206.472 445.992 207.696 445.992 208.824C445.992 209.292 445.98 209.784 446.028 210.24ZM449.448 208.824C449.448 208.38 449.448 207.924 449.412 207.492L446.316 211.32C446.412 211.524 446.532 211.704 446.688 211.848C446.928 212.076 447.276 212.232 447.72 212.232C448.164 212.232 448.512 212.076 448.752 211.848C449.46 211.176 449.448 209.952 449.448 208.824ZM458.101 210.312C458.101 211.152 457.801 211.836 457.333 212.352C456.889 212.832 456.193 213.156 455.329 213.156C454.393 213.156 453.673 212.676 453.265 212.112C452.665 211.284 452.521 210.132 452.521 208.944C452.521 207.756 452.653 206.58 453.217 205.68C453.613 205.056 454.321 204.492 455.377 204.492C456.085 204.492 456.721 204.744 457.141 205.164C457.513 205.536 457.789 206.064 457.813 206.676H456.781C456.757 206.268 456.565 205.944 456.313 205.728C456.073 205.524 455.737 205.416 455.341 205.416C454.813 205.416 454.441 205.668 454.189 205.956C453.661 206.556 453.565 207.6 453.553 208.476C453.817 207.9 454.669 207.504 455.461 207.504C456.217 207.504 456.853 207.768 457.249 208.152C457.789 208.668 458.101 209.436 458.101 210.312ZM457.069 210.324C457.069 209.736 456.877 209.244 456.565 208.896C456.313 208.608 455.881 208.416 455.353 208.416C454.825 208.416 454.417 208.644 454.165 208.932C453.853 209.28 453.685 209.736 453.685 210.324C453.685 210.912 453.877 211.368 454.201 211.716C454.465 212.004 454.849 212.232 455.377 212.232C455.905 212.232 456.301 212.04 456.565 211.752C456.889 211.404 457.069 210.912 457.069 210.324ZM463.455 208.668H461.751V206.928H463.455V208.668ZM463.455 213.012H461.751V211.272H463.455V213.012ZM472.9 210.252C472.9 211.128 472.66 211.836 472.192 212.352C471.76 212.832 471.088 213.168 470.212 213.168C469.396 213.168 468.7 212.892 468.244 212.448C467.776 211.992 467.5 211.368 467.464 210.6H468.484C468.508 211.128 468.688 211.512 468.964 211.788C469.24 212.064 469.672 212.232 470.2 212.232C470.776 212.232 471.196 212.004 471.448 211.68C471.724 211.332 471.868 210.864 471.868 210.3C471.868 209.724 471.7 209.22 471.388 208.872C471.124 208.584 470.728 208.404 470.2 208.404C469.636 208.404 469.072 208.656 468.784 209.136H467.644L467.872 204.66H472.48V205.584H468.748L468.616 208.248C468.988 207.708 469.696 207.492 470.404 207.492C471.136 207.492 471.736 207.756 472.144 208.176C472.636 208.68 472.9 209.424 472.9 210.252ZM480.078 210.72C480.078 211.368 479.85 211.968 479.442 212.4C478.998 212.868 478.326 213.156 477.39 213.156C476.586 213.156 475.914 212.868 475.446 212.4C475.014 211.968 474.75 211.38 474.738 210.612H475.782C475.806 211.08 475.938 211.476 476.214 211.764C476.466 212.04 476.862 212.232 477.39 212.232C477.894 212.232 478.35 212.076 478.638 211.752C478.866 211.5 479.034 211.152 479.034 210.696C479.034 209.676 478.302 209.148 477.282 209.148H476.742V208.2H477.282C478.242 208.2 478.854 207.672 478.854 206.796C478.854 206.412 478.722 206.076 478.458 205.824C478.23 205.596 477.858 205.416 477.402 205.416C476.946 205.416 476.598 205.548 476.346 205.752C476.022 206.016 475.854 206.424 475.842 206.928H474.798C474.81 206.1 475.11 205.5 475.602 205.092C476.07 204.708 476.706 204.492 477.426 204.492C478.122 204.492 478.794 204.744 479.238 205.164C479.658 205.548 479.91 206.076 479.91 206.796C479.91 207.576 479.37 208.392 478.686 208.68C479.574 208.98 480.078 209.856 480.078 210.72ZM485.779 208.668H484.075V206.928H485.779V208.668ZM485.779 213.012H484.075V211.272H485.779V213.012ZM495.452 213H489.896V212.064H492.164V205.824L489.908 207.18V206.088L492.212 204.66H493.196V212.064H495.452V213ZM502.666 210.252C502.666 211.128 502.426 211.836 501.958 212.352C501.526 212.832 500.854 213.168 499.978 213.168C499.162 213.168 498.466 212.892 498.01 212.448C497.542 211.992 497.266 211.368 497.23 210.6H498.25C498.274 211.128 498.454 211.512 498.73 211.788C499.006 212.064 499.438 212.232 499.966 212.232C500.542 212.232 500.962 212.004 501.214 211.68C501.49 211.332 501.634 210.864 501.634 210.3C501.634 209.724 501.466 209.22 501.154 208.872C500.89 208.584 500.494 208.404 499.966 208.404C499.402 208.404 498.838 208.656 498.55 209.136H497.41L497.638 204.66H502.246V205.584H498.514L498.382 208.248C498.754 207.708 499.462 207.492 500.17 207.492C500.902 207.492 501.502 207.756 501.91 208.176C502.402 208.68 502.666 209.424 502.666 210.252Z" fill="#737680"/>
<path d="M537.504 208.824C537.504 210.432 537.36 211.596 536.52 212.448C536.112 212.856 535.548 213.156 534.72 213.156C533.892 213.156 533.328 212.856 532.92 212.448C532.08 211.596 531.936 210.432 531.936 208.824C531.936 207.216 532.08 206.04 532.92 205.188C533.328 204.78 533.892 204.492 534.72 204.492C535.548 204.492 536.112 204.78 536.52 205.188C537.36 206.04 537.504 207.216 537.504 208.824ZM533.028 210.24L536.16 206.4C536.064 206.172 535.932 205.968 535.752 205.8C535.512 205.572 535.164 205.416 534.72 205.416C534.276 205.416 533.928 205.572 533.688 205.8C532.98 206.472 532.992 207.696 532.992 208.824C532.992 209.292 532.98 209.784 533.028 210.24ZM536.448 208.824C536.448 208.38 536.448 207.924 536.412 207.492L533.316 211.32C533.412 211.524 533.532 211.704 533.688 211.848C533.928 212.076 534.276 212.232 534.72 212.232C535.164 212.232 535.512 212.076 535.752 211.848C536.46 211.176 536.448 209.952 536.448 208.824ZM545.101 210.312C545.101 211.152 544.801 211.836 544.333 212.352C543.889 212.832 543.193 213.156 542.329 213.156C541.393 213.156 540.673 212.676 540.265 212.112C539.665 211.284 539.521 210.132 539.521 208.944C539.521 207.756 539.653 206.58 540.217 205.68C540.613 205.056 541.321 204.492 542.377 204.492C543.085 204.492 543.721 204.744 544.141 205.164C544.513 205.536 544.789 206.064 544.813 206.676H543.781C543.757 206.268 543.565 205.944 543.313 205.728C543.073 205.524 542.737 205.416 542.341 205.416C541.813 205.416 541.441 205.668 541.189 205.956C540.661 206.556 540.565 207.6 540.553 208.476C540.817 207.9 541.669 207.504 542.461 207.504C543.217 207.504 543.853 207.768 544.249 208.152C544.789 208.668 545.101 209.436 545.101 210.312ZM544.069 210.324C544.069 209.736 543.877 209.244 543.565 208.896C543.313 208.608 542.881 208.416 542.353 208.416C541.825 208.416 541.417 208.644 541.165 208.932C540.853 209.28 540.685 209.736 540.685 210.324C540.685 210.912 540.877 211.368 541.201 211.716C541.465 212.004 541.849 212.232 542.377 212.232C542.905 212.232 543.301 212.04 543.565 211.752C543.889 211.404 544.069 210.912 544.069 210.324ZM550.455 208.668H548.751V206.928H550.455V208.668ZM550.455 213.012H548.751V211.272H550.455V213.012ZM559.9 210.252C559.9 211.128 559.66 211.836 559.192 212.352C558.76 212.832 558.088 213.168 557.212 213.168C556.396 213.168 555.7 212.892 555.244 212.448C554.776 211.992 554.5 211.368 554.464 210.6H555.484C555.508 211.128 555.688 211.512 555.964 211.788C556.24 212.064 556.672 212.232 557.2 212.232C557.776 212.232 558.196 212.004 558.448 211.68C558.724 211.332 558.868 210.864 558.868 210.3C558.868 209.724 558.7 209.22 558.388 208.872C558.124 208.584 557.728 208.404 557.2 208.404C556.636 208.404 556.072 208.656 555.784 209.136H554.644L554.872 204.66H559.48V205.584H555.748L555.616 208.248C555.988 207.708 556.696 207.492 557.404 207.492C558.136 207.492 558.736 207.756 559.144 208.176C559.636 208.68 559.9 209.424 559.9 210.252ZM567.078 210.72C567.078 211.368 566.85 211.968 566.442 212.4C565.998 212.868 565.326 213.156 564.39 213.156C563.586 213.156 562.914 212.868 562.446 212.4C562.014 211.968 561.75 211.38 561.738 210.612H562.782C562.806 211.08 562.938 211.476 563.214 211.764C563.466 212.04 563.862 212.232 564.39 212.232C564.894 212.232 565.35 212.076 565.638 211.752C565.866 211.5 566.034 211.152 566.034 210.696C566.034 209.676 565.302 209.148 564.282 209.148H563.742V208.2H564.282C565.242 208.2 565.854 207.672 565.854 206.796C565.854 206.412 565.722 206.076 565.458 205.824C565.23 205.596 564.858 205.416 564.402 205.416C563.946 205.416 563.598 205.548 563.346 205.752C563.022 206.016 562.854 206.424 562.842 206.928H561.798C561.81 206.1 562.11 205.5 562.602 205.092C563.07 204.708 563.706 204.492 564.426 204.492C565.122 204.492 565.794 204.744 566.238 205.164C566.658 205.548 566.91 206.076 566.91 206.796C566.91 207.576 566.37 208.392 565.686 208.68C566.574 208.98 567.078 209.856 567.078 210.72ZM572.779 208.668H571.075V206.928H572.779V208.668ZM572.779 213.012H571.075V211.272H572.779V213.012ZM582.452 213H576.896V212.064H579.164V205.824L576.908 207.18V206.088L579.212 204.66H580.196V212.064H582.452V213ZM589.666 210.252C589.666 211.128 589.426 211.836 588.958 212.352C588.526 212.832 587.854 213.168 586.978 213.168C586.162 213.168 585.466 212.892 585.01 212.448C584.542 211.992 584.266 211.368 584.23 210.6H585.25C585.274 211.128 585.454 211.512 585.73 211.788C586.006 212.064 586.438 212.232 586.966 212.232C587.542 212.232 587.962 212.004 588.214 211.68C588.49 211.332 588.634 210.864 588.634 210.3C588.634 209.724 588.466 209.22 588.154 208.872C587.89 208.584 587.494 208.404 586.966 208.404C586.402 208.404 585.838 208.656 585.55 209.136H584.41L584.638 204.66H589.246V205.584H585.514L585.382 208.248C585.754 207.708 586.462 207.492 587.17 207.492C587.902 207.492 588.502 207.756 588.91 208.176C589.402 208.68 589.666 209.424 589.666 210.252Z" fill="#737680"/>
<path d="M624.504 208.824C624.504 210.432 624.36 211.596 623.52 212.448C623.112 212.856 622.548 213.156 621.72 213.156C620.892 213.156 620.328 212.856 619.92 212.448C619.08 211.596 618.936 210.432 618.936 208.824C618.936 207.216 619.08 206.04 619.92 205.188C620.328 204.78 620.892 204.492 621.72 204.492C622.548 204.492 623.112 204.78 623.52 205.188C624.36 206.04 624.504 207.216 624.504 208.824ZM620.028 210.24L623.16 206.4C623.064 206.172 622.932 205.968 622.752 205.8C622.512 205.572 622.164 205.416 621.72 205.416C621.276 205.416 620.928 205.572 620.688 205.8C619.98 206.472 619.992 207.696 619.992 208.824C619.992 209.292 619.98 209.784 620.028 210.24ZM623.448 208.824C623.448 208.38 623.448 207.924 623.412 207.492L620.316 211.32C620.412 211.524 620.532 211.704 620.688 211.848C620.928 212.076 621.276 212.232 621.72 212.232C622.164 212.232 622.512 212.076 622.752 211.848C623.46 211.176 623.448 209.952 623.448 208.824ZM632.101 210.312C632.101 211.152 631.801 211.836 631.333 212.352C630.889 212.832 630.193 213.156 629.329 213.156C628.393 213.156 627.673 212.676 627.265 212.112C626.665 211.284 626.521 210.132 626.521 208.944C626.521 207.756 626.653 206.58 627.217 205.68C627.613 205.056 628.321 204.492 629.377 204.492C630.085 204.492 630.721 204.744 631.141 205.164C631.513 205.536 631.789 206.064 631.813 206.676H630.781C630.757 206.268 630.565 205.944 630.313 205.728C630.073 205.524 629.737 205.416 629.341 205.416C628.813 205.416 628.441 205.668 628.189 205.956C627.661 206.556 627.565 207.6 627.553 208.476C627.817 207.9 628.669 207.504 629.461 207.504C630.217 207.504 630.853 207.768 631.249 208.152C631.789 208.668 632.101 209.436 632.101 210.312ZM631.069 210.324C631.069 209.736 630.877 209.244 630.565 208.896C630.313 208.608 629.881 208.416 629.353 208.416C628.825 208.416 628.417 208.644 628.165 208.932C627.853 209.28 627.685 209.736 627.685 210.324C627.685 210.912 627.877 211.368 628.201 211.716C628.465 212.004 628.849 212.232 629.377 212.232C629.905 212.232 630.301 212.04 630.565 211.752C630.889 211.404 631.069 210.912 631.069 210.324ZM637.455 208.668H635.751V206.928H637.455V208.668ZM637.455 213.012H635.751V211.272H637.455V213.012ZM646.9 210.252C646.9 211.128 646.66 211.836 646.192 212.352C645.76 212.832 645.088 213.168 644.212 213.168C643.396 213.168 642.7 212.892 642.244 212.448C641.776 211.992 641.5 211.368 641.464 210.6H642.484C642.508 211.128 642.688 211.512 642.964 211.788C643.24 212.064 643.672 212.232 644.2 212.232C644.776 212.232 645.196 212.004 645.448 211.68C645.724 211.332 645.868 210.864 645.868 210.3C645.868 209.724 645.7 209.22 645.388 208.872C645.124 208.584 644.728 208.404 644.2 208.404C643.636 208.404 643.072 208.656 642.784 209.136H641.644L641.872 204.66H646.48V205.584H642.748L642.616 208.248C642.988 207.708 643.696 207.492 644.404 207.492C645.136 207.492 645.736 207.756 646.144 208.176C646.636 208.68 646.9 209.424 646.9 210.252ZM654.078 210.72C654.078 211.368 653.85 211.968 653.442 212.4C652.998 212.868 652.326 213.156 651.39 213.156C650.586 213.156 649.914 212.868 649.446 212.4C649.014 211.968 648.75 211.38 648.738 210.612H649.782C649.806 211.08 649.938 211.476 650.214 211.764C650.466 212.04 650.862 212.232 651.39 212.232C651.894 212.232 652.35 212.076 652.638 211.752C652.866 211.5 653.034 211.152 653.034 210.696C653.034 209.676 652.302 209.148 651.282 209.148H650.742V208.2H651.282C652.242 208.2 652.854 207.672 652.854 206.796C652.854 206.412 652.722 206.076 652.458 205.824C652.23 205.596 651.858 205.416 651.402 205.416C650.946 205.416 650.598 205.548 650.346 205.752C650.022 206.016 649.854 206.424 649.842 206.928H648.798C648.81 206.1 649.11 205.5 649.602 205.092C650.07 204.708 650.706 204.492 651.426 204.492C652.122 204.492 652.794 204.744 653.238 205.164C653.658 205.548 653.91 206.076 653.91 206.796C653.91 207.576 653.37 208.392 652.686 208.68C653.574 208.98 654.078 209.856 654.078 210.72ZM659.779 208.668H658.075V206.928H659.779V208.668ZM659.779 213.012H658.075V211.272H659.779V213.012ZM669.452 213H663.896V212.064H666.164V205.824L663.908 207.18V206.088L666.212 204.66H667.196V212.064H669.452V213ZM676.666 210.252C676.666 211.128 676.426 211.836 675.958 212.352C675.526 212.832 674.854 213.168 673.978 213.168C673.162 213.168 672.466 212.892 672.01 212.448C671.542 211.992 671.266 211.368 671.23 210.6H672.25C672.274 211.128 672.454 211.512 672.73 211.788C673.006 212.064 673.438 212.232 673.966 212.232C674.542 212.232 674.962 212.004 675.214 211.68C675.49 211.332 675.634 210.864 675.634 210.3C675.634 209.724 675.466 209.22 675.154 208.872C674.89 208.584 674.494 208.404 673.966 208.404C673.402 208.404 672.838 208.656 672.55 209.136H671.41L671.638 204.66H676.246V205.584H672.514L672.382 208.248C672.754 207.708 673.462 207.492 674.17 207.492C674.902 207.492 675.502 207.756 675.91 208.176C676.402 208.68 676.666 209.424 676.666 210.252Z" fill="#737680"/>
<path d="M711.504 208.824C711.504 210.432 711.36 211.596 710.52 212.448C710.112 212.856 709.548 213.156 708.72 213.156C707.892 213.156 707.328 212.856 706.92 212.448C706.08 211.596 705.936 210.432 705.936 208.824C705.936 207.216 706.08 206.04 706.92 205.188C707.328 204.78 707.892 204.492 708.72 204.492C709.548 204.492 710.112 204.78 710.52 205.188C711.36 206.04 711.504 207.216 711.504 208.824ZM707.028 210.24L710.16 206.4C710.064 206.172 709.932 205.968 709.752 205.8C709.512 205.572 709.164 205.416 708.72 205.416C708.276 205.416 707.928 205.572 707.688 205.8C706.98 206.472 706.992 207.696 706.992 208.824C706.992 209.292 706.98 209.784 707.028 210.24ZM710.448 208.824C710.448 208.38 710.448 207.924 710.412 207.492L707.316 211.32C707.412 211.524 707.532 211.704 707.688 211.848C707.928 212.076 708.276 212.232 708.72 212.232C709.164 212.232 709.512 212.076 709.752 211.848C710.46 211.176 710.448 209.952 710.448 208.824ZM719.101 210.312C719.101 211.152 718.801 211.836 718.333 212.352C717.889 212.832 717.193 213.156 716.329 213.156C715.393 213.156 714.673 212.676 714.265 212.112C713.665 211.284 713.521 210.132 713.521 208.944C713.521 207.756 713.653 206.58 714.217 205.68C714.613 205.056 715.321 204.492 716.377 204.492C717.085 204.492 717.721 204.744 718.141 205.164C718.513 205.536 718.789 206.064 718.813 206.676H717.781C717.757 206.268 717.565 205.944 717.313 205.728C717.073 205.524 716.737 205.416 716.341 205.416C715.813 205.416 715.441 205.668 715.189 205.956C714.661 206.556 714.565 207.6 714.553 208.476C714.817 207.9 715.669 207.504 716.461 207.504C717.217 207.504 717.853 207.768 718.249 208.152C718.789 208.668 719.101 209.436 719.101 210.312ZM718.069 210.324C718.069 209.736 717.877 209.244 717.565 208.896C717.313 208.608 716.881 208.416 716.353 208.416C715.825 208.416 715.417 208.644 715.165 208.932C714.853 209.28 714.685 209.736 714.685 210.324C714.685 210.912 714.877 211.368 715.201 211.716C715.465 212.004 715.849 212.232 716.377 212.232C716.905 212.232 717.301 212.04 717.565 211.752C717.889 211.404 718.069 210.912 718.069 210.324ZM724.455 208.668H722.751V206.928H724.455V208.668ZM724.455 213.012H722.751V211.272H724.455V213.012ZM733.9 210.252C733.9 211.128 733.66 211.836 733.192 212.352C732.76 212.832 732.088 213.168 731.212 213.168C730.396 213.168 729.7 212.892 729.244 212.448C728.776 211.992 728.5 211.368 728.464 210.6H729.484C729.508 211.128 729.688 211.512 729.964 211.788C730.24 212.064 730.672 212.232 731.2 212.232C731.776 212.232 732.196 212.004 732.448 211.68C732.724 211.332 732.868 210.864 732.868 210.3C732.868 209.724 732.7 209.22 732.388 208.872C732.124 208.584 731.728 208.404 731.2 208.404C730.636 208.404 730.072 208.656 729.784 209.136H728.644L728.872 204.66H733.48V205.584H729.748L729.616 208.248C729.988 207.708 730.696 207.492 731.404 207.492C732.136 207.492 732.736 207.756 733.144 208.176C733.636 208.68 733.9 209.424 733.9 210.252ZM741.078 210.72C741.078 211.368 740.85 211.968 740.442 212.4C739.998 212.868 739.326 213.156 738.39 213.156C737.586 213.156 736.914 212.868 736.446 212.4C736.014 211.968 735.75 211.38 735.738 210.612H736.782C736.806 211.08 736.938 211.476 737.214 211.764C737.466 212.04 737.862 212.232 738.39 212.232C738.894 212.232 739.35 212.076 739.638 211.752C739.866 211.5 740.034 211.152 740.034 210.696C740.034 209.676 739.302 209.148 738.282 209.148H737.742V208.2H738.282C739.242 208.2 739.854 207.672 739.854 206.796C739.854 206.412 739.722 206.076 739.458 205.824C739.23 205.596 738.858 205.416 738.402 205.416C737.946 205.416 737.598 205.548 737.346 205.752C737.022 206.016 736.854 206.424 736.842 206.928H735.798C735.81 206.1 736.11 205.5 736.602 205.092C737.07 204.708 737.706 204.492 738.426 204.492C739.122 204.492 739.794 204.744 740.238 205.164C740.658 205.548 740.91 206.076 740.91 206.796C740.91 207.576 740.37 208.392 739.686 208.68C740.574 208.98 741.078 209.856 741.078 210.72ZM746.779 208.668H745.075V206.928H746.779V208.668ZM746.779 213.012H745.075V211.272H746.779V213.012ZM756.452 213H750.896V212.064H753.164V205.824L750.908 207.18V206.088L753.212 204.66H754.196V212.064H756.452V213ZM763.666 210.252C763.666 211.128 763.426 211.836 762.958 212.352C762.526 212.832 761.854 213.168 760.978 213.168C760.162 213.168 759.466 212.892 759.01 212.448C758.542 211.992 758.266 211.368 758.23 210.6H759.25C759.274 211.128 759.454 211.512 759.73 211.788C760.006 212.064 760.438 212.232 760.966 212.232C761.542 212.232 761.962 212.004 762.214 211.68C762.49 211.332 762.634 210.864 762.634 210.3C762.634 209.724 762.466 209.22 762.154 208.872C761.89 208.584 761.494 208.404 760.966 208.404C760.402 208.404 759.838 208.656 759.55 209.136H758.41L758.638 204.66H763.246V205.584H759.514L759.382 208.248C759.754 207.708 760.462 207.492 761.17 207.492C761.902 207.492 762.502 207.756 762.91 208.176C763.402 208.68 763.666 209.424 763.666 210.252Z" fill="#737680"/>
<path d="M-363 196C-305.222 194.624 -247.444 193.251 -189.667 187.75C-131.889 182.249 -74.7778 153.625 -17 133C40.7778 112.375 99.2222 64 157 64C214.778 64 272.556 76.375 330.333 92.875C388.111 109.375 445.889 147.187 503.667 163C561.444 178.813 619.222 182.249 677 187.75C734.778 193.251 792.555 196 850.333 196C908.111 196 965.889 183.625 1023.67 183.625C1081.44 183.625 1139.22 191.446 1197 195.571" stroke="#1E6EE1" stroke-width="2"/>
<circle cx="87" cy="83" r="4.5" fill="white" stroke="#1E6EE1"/>
<circle cx="173" cy="64" r="4.5" fill="white" stroke="#1E6EE1"/>
<circle cx="260" cy="75" r="4.5" fill="white" stroke="#1E6EE1"/>
<circle cx="347" cy="99" r="4.5" fill="white" stroke="#1E6EE1"/>
<circle cx="433" cy="135" r="4.5" fill="white" stroke="#1E6EE1"/>
<circle cx="520" cy="167" r="4.5" fill="white" stroke="#1E6EE1"/>
<circle cx="607" cy="181" r="4.5" fill="white" stroke="#1E6EE1"/>
<circle cx="693" cy="189" r="4.5" fill="white" stroke="#1E6EE1"/>
</g>
<path d="M10 0.5H770C775.247 0.5 779.5 4.75329 779.5 10V246C779.5 251.247 775.247 255.5 770 255.5H10C4.7533 255.5 0.5 251.247 0.5 246V10C0.5 4.7533 4.7533 0.5 10 0.5Z" stroke="#DCDCE0"/>
<defs>
<clipPath id="clip0_311_35107">
<path d="M0 10C0 4.47715 4.47715 0 10 0H770C775.523 0 780 4.47715 780 10V246C780 251.523 775.523 256 770 256H9.99998C4.47713 256 0 251.523 0 246V10Z" fill="white"/>
</clipPath>
</defs>
</svg>
