<svg width="780" height="268" viewBox="0 0 780 268" fill="none" xmlns="http://www.w3.org/2000/svg">
<path d="M0 10C0 4.47716 4.47715 0 10 0H770C775.523 0 780 4.47715 780 10V258C780 263.523 775.523 268 770 268H9.99998C4.47713 268 0 263.523 0 258V10Z" fill="#F5F5F5"/>
<rect width="716" height="60" transform="translate(32 32)" fill="#417DF7"/>
<path d="M49.134 50.354H53.026C53.9873 50.354 54.734 50.6107 55.266 51.124C55.798 51.6373 56.064 52.3467 56.064 53.252C56.064 53.84 55.938 54.3533 55.686 54.792C55.434 55.2307 55.07 55.5713 54.594 55.814C54.118 56.0473 53.5487 56.164 52.886 56.164H50.436V60H49.134V50.354ZM52.676 55.03C53.3573 55.03 53.8707 54.8807 54.216 54.582C54.5613 54.2833 54.734 53.84 54.734 53.252C54.734 52.664 54.566 52.2253 54.23 51.936C53.9033 51.6467 53.4087 51.502 52.746 51.502H50.436V55.03H52.676ZM59.9828 60.196C59.3855 60.196 58.8395 60.0513 58.3448 59.762C57.8595 59.4633 57.4768 59.0387 57.1968 58.488C56.9168 57.928 56.7768 57.2793 56.7768 56.542C56.7768 55.814 56.9168 55.1793 57.1968 54.638C57.4768 54.0873 57.8595 53.6673 58.3448 53.378C58.8395 53.0887 59.3855 52.944 59.9828 52.944C60.5801 52.944 61.1261 53.0887 61.6208 53.378C62.1155 53.6673 62.5028 54.0873 62.7828 54.638C63.0721 55.1793 63.2168 55.814 63.2168 56.542C63.2168 57.2793 63.0721 57.928 62.7828 58.488C62.5028 59.0387 62.1155 59.4633 61.6208 59.762C61.1261 60.0513 60.5801 60.196 59.9828 60.196ZM59.9828 59.174C60.3748 59.174 60.7155 59.0713 61.0048 58.866C61.3035 58.6607 61.5321 58.362 61.6908 57.97C61.8588 57.5687 61.9428 57.0927 61.9428 56.542C61.9428 55.9913 61.8588 55.5247 61.6908 55.142C61.5321 54.75 61.3035 54.456 61.0048 54.26C60.7155 54.064 60.3748 53.966 59.9828 53.966C59.6001 53.966 59.2595 54.064 58.9608 54.26C58.6715 54.456 58.4428 54.75 58.2748 55.142C58.1161 55.5247 58.0368 55.9913 58.0368 56.542C58.0368 57.0927 58.1161 57.5687 58.2748 57.97C58.4428 58.362 58.6715 58.6607 58.9608 58.866C59.2595 59.0713 59.6001 59.174 59.9828 59.174ZM63.9056 53.14H65.1796L67.0276 59.454L66.5516 59.468L68.3016 53.14H69.6456L71.4236 59.482L70.8916 59.468L72.7256 53.14H73.9296L71.7736 60H70.4716L68.6936 53.728H69.1836L67.4056 60H66.0616L63.9056 53.14ZM77.8666 60.196C77.1853 60.196 76.6019 60.0467 76.1166 59.748C75.6313 59.44 75.2626 59.0107 75.0106 58.46C74.7586 57.9 74.6326 57.2513 74.6326 56.514C74.6326 55.786 74.7679 55.1513 75.0386 54.61C75.3186 54.0687 75.6966 53.658 76.1726 53.378C76.6579 53.0887 77.1993 52.944 77.7966 52.944C78.4313 52.944 78.9773 53.0887 79.4346 53.378C79.9013 53.6673 80.2559 54.0827 80.4986 54.624C80.7413 55.156 80.8626 55.7953 80.8626 56.542V56.794H75.3046L75.8366 56.248C75.8366 56.304 75.8366 56.346 75.8366 56.374C75.8366 56.402 75.8366 56.444 75.8366 56.5C75.8366 56.556 75.8366 56.6167 75.8366 56.682C75.8366 57.186 75.9113 57.6247 76.0606 57.998C76.2193 58.3713 76.4526 58.6653 76.7606 58.88C77.0779 59.0853 77.4559 59.188 77.8946 59.188C78.3333 59.188 78.7159 59.062 79.0426 58.81C79.3693 58.5487 79.6213 58.194 79.7986 57.746L80.7926 58.25C80.6526 58.6047 80.4473 58.9313 80.1766 59.23C79.9153 59.5193 79.5886 59.7527 79.1966 59.93C78.8046 60.1073 78.3613 60.196 77.8666 60.196ZM79.6306 56.038C79.6213 55.5713 79.5419 55.184 79.3926 54.876C79.2433 54.5587 79.0333 54.3253 78.7626 54.176C78.4919 54.0173 78.1699 53.938 77.7966 53.938C77.4419 53.938 77.1246 54.0127 76.8446 54.162C76.5739 54.3113 76.3546 54.526 76.1866 54.806C76.0186 55.086 75.9159 55.4267 75.8786 55.828H80.2186L79.6306 56.206V56.038ZM82.3657 53.14H83.5697V54.862C83.7937 54.2647 84.1017 53.798 84.4937 53.462C84.8951 53.126 85.3851 52.958 85.9637 52.958C86.0197 52.958 86.0711 52.9627 86.1177 52.972C86.1737 52.972 86.2297 52.9767 86.2857 52.986V54.232C86.2111 54.2133 86.0804 54.204 85.8937 54.204C85.4271 54.204 85.0211 54.302 84.6757 54.498C84.3304 54.6847 84.0644 54.9833 83.8777 55.394C83.6911 55.8047 83.5977 56.3273 83.5977 56.962V60H82.3657V53.14ZM90.7324 57.872C90.8164 58.2733 91.0217 58.6047 91.3484 58.866C91.675 59.1273 92.0764 59.258 92.5524 59.258C93.019 59.258 93.383 59.16 93.6444 58.964C93.915 58.7587 94.0504 58.5067 94.0504 58.208C94.0504 57.9187 93.957 57.6993 93.7704 57.55C93.593 57.3913 93.271 57.2467 92.8044 57.116L91.7824 56.836C91.1664 56.6867 90.7044 56.4487 90.3964 56.122C90.0884 55.786 89.9344 55.3753 89.9344 54.89C89.9344 54.498 90.037 54.1573 90.2424 53.868C90.457 53.5693 90.7557 53.3407 91.1384 53.182C91.521 53.0233 91.9597 52.944 92.4544 52.944C92.8744 52.944 93.2617 53.014 93.6164 53.154C93.9804 53.2847 94.2837 53.4807 94.5264 53.742C94.7784 54.0033 94.9557 54.316 95.0584 54.68L93.9664 55.016C93.8824 54.6893 93.7097 54.4187 93.4484 54.204C93.1964 53.9893 92.851 53.882 92.4124 53.882C91.983 53.882 91.647 53.9613 91.4044 54.12C91.171 54.2693 91.0544 54.4793 91.0544 54.75C91.0544 55.0113 91.1477 55.2167 91.3344 55.366C91.521 55.5153 91.8384 55.6553 92.2864 55.786L93.4064 56.094C94.0317 56.2527 94.4937 56.5047 94.7924 56.85C95.091 57.186 95.2404 57.592 95.2404 58.068C95.2404 58.516 95.1237 58.8987 94.8904 59.216C94.6664 59.5333 94.349 59.776 93.9384 59.944C93.5277 60.112 93.0517 60.196 92.5104 60.196C91.997 60.196 91.535 60.1167 91.1244 59.958C90.723 59.79 90.3917 59.5567 90.1304 59.258C89.8784 58.9593 89.7104 58.614 89.6264 58.222L90.7324 57.872ZM98.7945 60.196C98.3185 60.196 97.9172 60.0887 97.5905 59.874C97.2638 59.6593 97.0165 59.356 96.8485 58.964C96.6898 58.5627 96.6105 58.0913 96.6105 57.55V53.14H97.8285V57.284C97.8285 57.9 97.9358 58.362 98.1505 58.67C98.3652 58.978 98.6918 59.132 99.1305 59.132C99.5038 59.132 99.8398 59.0293 100.139 58.824C100.447 58.6187 100.689 58.32 100.867 57.928C101.044 57.5267 101.133 57.0553 101.133 56.514V53.14H102.351V60H101.147V58.46C100.951 58.9733 100.652 59.3933 100.251 59.72C99.8492 60.0373 99.3638 60.196 98.7945 60.196ZM104.227 53.14H105.431V55.366L105.207 55.324C105.263 54.8947 105.398 54.5027 105.613 54.148C105.828 53.784 106.122 53.4947 106.495 53.28C106.868 53.056 107.302 52.944 107.797 52.944C108.329 52.944 108.805 53.0887 109.225 53.378C109.654 53.658 109.99 54.0733 110.233 54.624C110.476 55.1653 110.597 55.8187 110.597 56.584C110.597 57.3213 110.476 57.9653 110.233 58.516C109.99 59.0573 109.65 59.4727 109.211 59.762C108.782 60.042 108.287 60.182 107.727 60.182C107.223 60.182 106.789 60.07 106.425 59.846C106.061 59.6127 105.781 59.3187 105.585 58.964C105.398 58.6 105.286 58.2173 105.249 57.816L105.473 58.152V62.73H104.227V53.14ZM107.391 59.174C107.792 59.174 108.138 59.076 108.427 58.88C108.716 58.6747 108.94 58.3807 109.099 57.998C109.258 57.606 109.337 57.1393 109.337 56.598C109.337 56.038 109.258 55.562 109.099 55.17C108.95 54.7687 108.73 54.4653 108.441 54.26C108.152 54.0547 107.806 53.952 107.405 53.952C107.004 53.952 106.654 54.064 106.355 54.288C106.056 54.512 105.828 54.8247 105.669 55.226C105.51 55.618 105.431 56.066 105.431 56.57C105.431 57.1113 105.51 57.578 105.669 57.97C105.837 58.362 106.066 58.6607 106.355 58.866C106.654 59.0713 106.999 59.174 107.391 59.174ZM112.116 53.14H113.32V55.366L113.096 55.324C113.152 54.8947 113.287 54.5027 113.502 54.148C113.716 53.784 114.01 53.4947 114.384 53.28C114.757 53.056 115.191 52.944 115.686 52.944C116.218 52.944 116.694 53.0887 117.114 53.378C117.543 53.658 117.879 54.0733 118.122 54.624C118.364 55.1653 118.486 55.8187 118.486 56.584C118.486 57.3213 118.364 57.9653 118.122 58.516C117.879 59.0573 117.538 59.4727 117.1 59.762C116.67 60.042 116.176 60.182 115.616 60.182C115.112 60.182 114.678 60.07 114.314 59.846C113.95 59.6127 113.67 59.3187 113.474 58.964C113.287 58.6 113.175 58.2173 113.138 57.816L113.362 58.152V62.73H112.116V53.14ZM115.28 59.174C115.681 59.174 116.026 59.076 116.316 58.88C116.605 58.6747 116.829 58.3807 116.988 57.998C117.146 57.606 117.226 57.1393 117.226 56.598C117.226 56.038 117.146 55.562 116.988 55.17C116.838 54.7687 116.619 54.4653 116.33 54.26C116.04 54.0547 115.695 53.952 115.294 53.952C114.892 53.952 114.542 54.064 114.244 54.288C113.945 54.512 113.716 54.8247 113.558 55.226C113.399 55.618 113.32 56.066 113.32 56.57C113.32 57.1113 113.399 57.578 113.558 57.97C113.726 58.362 113.954 58.6607 114.244 58.866C114.542 59.0713 114.888 59.174 115.28 59.174ZM120.004 50.354H121.25V60H120.004V50.354ZM122.646 61.694H123.444C123.836 61.694 124.134 61.6053 124.34 61.428C124.554 61.26 124.741 60.9473 124.9 60.49L125.236 59.454L125.264 60.644L122.31 53.14H123.654L125.936 59.188L125.46 59.202L127.602 53.14H128.876L125.894 61.078C125.651 61.7127 125.334 62.1513 124.942 62.394C124.55 62.6367 124.05 62.758 123.444 62.758C123.164 62.758 122.898 62.744 122.646 62.716V61.694ZM132.842 53.14H134.088V60H132.842V53.14ZM132.842 50.256H134.074V51.81H132.842V50.256ZM136.519 57.872C136.603 58.2733 136.809 58.6047 137.135 58.866C137.462 59.1273 137.863 59.258 138.339 59.258C138.806 59.258 139.17 59.16 139.431 58.964C139.702 58.7587 139.837 58.5067 139.837 58.208C139.837 57.9187 139.744 57.6993 139.557 57.55C139.38 57.3913 139.058 57.2467 138.591 57.116L137.569 56.836C136.953 56.6867 136.491 56.4487 136.183 56.122C135.875 55.786 135.721 55.3753 135.721 54.89C135.721 54.498 135.824 54.1573 136.029 53.868C136.244 53.5693 136.543 53.3407 136.925 53.182C137.308 53.0233 137.747 52.944 138.241 52.944C138.661 52.944 139.049 53.014 139.403 53.154C139.767 53.2847 140.071 53.4807 140.313 53.742C140.565 54.0033 140.743 54.316 140.845 54.68L139.753 55.016C139.669 54.6893 139.497 54.4187 139.235 54.204C138.983 53.9893 138.638 53.882 138.199 53.882C137.77 53.882 137.434 53.9613 137.191 54.12C136.958 54.2693 136.841 54.4793 136.841 54.75C136.841 55.0113 136.935 55.2167 137.121 55.366C137.308 55.5153 137.625 55.6553 138.073 55.786L139.193 56.094C139.819 56.2527 140.281 56.5047 140.579 56.85C140.878 57.186 141.027 57.592 141.027 58.068C141.027 58.516 140.911 58.8987 140.677 59.216C140.453 59.5333 140.136 59.776 139.725 59.944C139.315 60.112 138.839 60.196 138.297 60.196C137.784 60.196 137.322 60.1167 136.911 59.958C136.51 59.79 136.179 59.5567 135.917 59.258C135.665 58.9593 135.497 58.614 135.413 58.222L136.519 57.872ZM143.014 57.872C143.098 58.2733 143.303 58.6047 143.63 58.866C143.956 59.1273 144.358 59.258 144.834 59.258C145.3 59.258 145.664 59.16 145.926 58.964C146.196 58.7587 146.332 58.5067 146.332 58.208C146.332 57.9187 146.238 57.6993 146.052 57.55C145.874 57.3913 145.552 57.2467 145.086 57.116L144.064 56.836C143.448 56.6867 142.986 56.4487 142.678 56.122C142.37 55.786 142.216 55.3753 142.216 54.89C142.216 54.498 142.318 54.1573 142.524 53.868C142.738 53.5693 143.037 53.3407 143.42 53.182C143.802 53.0233 144.241 52.944 144.736 52.944C145.156 52.944 145.543 53.014 145.898 53.154C146.262 53.2847 146.565 53.4807 146.808 53.742C147.06 54.0033 147.237 54.316 147.34 54.68L146.248 55.016C146.164 54.6893 145.991 54.4187 145.73 54.204C145.478 53.9893 145.132 53.882 144.694 53.882C144.264 53.882 143.928 53.9613 143.686 54.12C143.452 54.2693 143.336 54.4793 143.336 54.75C143.336 55.0113 143.429 55.2167 143.616 55.366C143.802 55.5153 144.12 55.6553 144.568 55.786L145.688 56.094C146.313 56.2527 146.775 56.5047 147.074 56.85C147.372 57.186 147.522 57.592 147.522 58.068C147.522 58.516 147.405 58.8987 147.172 59.216C146.948 59.5333 146.63 59.776 146.22 59.944C145.809 60.112 145.333 60.196 144.792 60.196C144.278 60.196 143.816 60.1167 143.406 59.958C143.004 59.79 142.673 59.5567 142.412 59.258C142.16 58.9593 141.992 58.614 141.908 58.222L143.014 57.872ZM151.076 60.196C150.6 60.196 150.198 60.0887 149.872 59.874C149.545 59.6593 149.298 59.356 149.13 58.964C148.971 58.5627 148.892 58.0913 148.892 57.55V53.14H150.11V57.284C150.11 57.9 150.217 58.362 150.432 58.67C150.646 58.978 150.973 59.132 151.412 59.132C151.785 59.132 152.121 59.0293 152.42 58.824C152.728 58.6187 152.97 58.32 153.148 57.928C153.325 57.5267 153.414 57.0553 153.414 56.514V53.14H154.632V60H153.428V58.46C153.232 58.9733 152.933 59.3933 152.532 59.72C152.13 60.0373 151.645 60.196 151.076 60.196ZM159.378 60.196C158.697 60.196 158.114 60.0467 157.628 59.748C157.143 59.44 156.774 59.0107 156.522 58.46C156.27 57.9 156.144 57.2513 156.144 56.514C156.144 55.786 156.28 55.1513 156.55 54.61C156.83 54.0687 157.208 53.658 157.684 53.378C158.17 53.0887 158.711 52.944 159.308 52.944C159.943 52.944 160.489 53.0887 160.946 53.378C161.413 53.6673 161.768 54.0827 162.01 54.624C162.253 55.156 162.374 55.7953 162.374 56.542V56.794H156.816L157.348 56.248C157.348 56.304 157.348 56.346 157.348 56.374C157.348 56.402 157.348 56.444 157.348 56.5C157.348 56.556 157.348 56.6167 157.348 56.682C157.348 57.186 157.423 57.6247 157.572 57.998C157.731 58.3713 157.964 58.6653 158.272 58.88C158.59 59.0853 158.968 59.188 159.406 59.188C159.845 59.188 160.228 59.062 160.554 58.81C160.881 58.5487 161.133 58.194 161.31 57.746L162.304 58.25C162.164 58.6047 161.959 58.9313 161.688 59.23C161.427 59.5193 161.1 59.7527 160.708 59.93C160.316 60.1073 159.873 60.196 159.378 60.196ZM161.142 56.038C161.133 55.5713 161.054 55.184 160.904 54.876C160.755 54.5587 160.545 54.3253 160.274 54.176C160.004 54.0173 159.682 53.938 159.308 53.938C158.954 53.938 158.636 54.0127 158.356 54.162C158.086 54.3113 157.866 54.526 157.698 54.806C157.53 55.086 157.428 55.4267 157.39 55.828H161.73L161.142 56.206V56.038Z" fill="white"/>
<path d="M692.488 69.408C688.84 69.408 686.44 67.512 686.44 64.68C686.44 62.28 687.616 60.696 689.872 60C687.904 59.136 687.064 57.816 687.064 55.848C687.064 53.28 689.224 51.552 692.44 51.552C695.68 51.552 697.768 53.208 697.768 55.8C697.768 57.792 696.76 59.184 694.888 59.808C697.384 60.72 698.392 62.184 698.392 64.536C698.392 67.44 696.064 69.408 692.488 69.408ZM688.624 64.368C688.624 66.336 690.16 67.68 692.488 67.68C694.84 67.68 696.232 66.48 696.232 64.536C696.232 62.88 695.368 61.8 693.28 61.152L691.72 60.672C689.488 61.464 688.624 62.544 688.624 64.368ZM689.224 55.848C689.224 57.36 690.064 58.32 692.056 58.92L692.872 59.16C694.912 58.368 695.608 57.504 695.608 55.896C695.608 54.192 694.408 53.184 692.368 53.184C690.424 53.184 689.224 54.192 689.224 55.848ZM702.818 68.76C702.818 63.792 704.954 58.56 708.65 53.952H700.298V51.96H711.098V53.64C707.138 58.056 705.194 63.648 705.194 68.592V69H702.818V68.76ZM717.126 60.384C714.654 60.384 713.022 58.704 713.022 56.016C713.022 53.424 714.654 51.72 717.102 51.72C719.502 51.72 721.182 53.448 721.182 56.088C721.182 58.704 719.502 60.384 717.126 60.384ZM717.126 58.848C718.494 58.848 719.406 57.816 719.406 56.088C719.406 54.336 718.494 53.256 717.102 53.256C715.686 53.256 714.75 54.312 714.75 56.016C714.75 57.816 715.686 58.848 717.126 58.848ZM715.59 69.36L726.078 51.96H728.07L717.582 69.36H715.59ZM726.654 69.384C724.182 69.384 722.55 67.704 722.55 65.016C722.55 62.424 724.182 60.72 726.63 60.72C729.03 60.72 730.71 62.448 730.71 65.088C730.71 67.704 729.03 69.384 726.654 69.384ZM726.654 67.848C728.022 67.848 728.934 66.816 728.934 65.088C728.934 63.336 728.022 62.256 726.63 62.256C725.214 62.256 724.278 63.312 724.278 65.016C724.278 66.816 725.214 67.848 726.654 67.848Z" fill="white"/>
<rect width="508" height="60" transform="translate(32 104)" fill="#17171C" fill-opacity="0.08"/>
<path d="M52.788 132.196C51.9293 132.196 51.1873 131.991 50.562 131.58C49.9367 131.169 49.4607 130.591 49.134 129.844C48.8073 129.097 48.644 128.229 48.644 127.24C48.644 126.185 48.8213 125.275 49.176 124.51C49.54 123.745 50.0393 123.161 50.674 122.76C51.3087 122.359 52.032 122.158 52.844 122.158C53.5067 122.158 54.09 122.284 54.594 122.536C55.1073 122.788 55.532 123.147 55.868 123.614C56.204 124.071 56.4513 124.622 56.61 125.266L55.378 125.616C55.2567 125.14 55.084 124.734 54.86 124.398C54.636 124.062 54.3513 123.801 54.006 123.614C53.67 123.427 53.2827 123.334 52.844 123.334C52.256 123.334 51.7473 123.493 51.318 123.81C50.8887 124.118 50.5573 124.561 50.324 125.14C50.1 125.719 49.988 126.405 49.988 127.198C49.988 127.982 50.1 128.659 50.324 129.228C50.5573 129.797 50.8887 130.236 51.318 130.544C51.7473 130.852 52.256 131.006 52.844 131.006C53.5813 131.006 54.1693 130.773 54.608 130.306C55.056 129.83 55.35 129.177 55.49 128.346L56.708 128.724C56.568 129.443 56.33 130.063 55.994 130.586C55.658 131.099 55.2193 131.496 54.678 131.776C54.146 132.056 53.516 132.196 52.788 132.196ZM60.9535 132.196C60.3562 132.196 59.8102 132.051 59.3155 131.762C58.8302 131.463 58.4475 131.039 58.1675 130.488C57.8875 129.928 57.7475 129.279 57.7475 128.542C57.7475 127.814 57.8875 127.179 58.1675 126.638C58.4475 126.087 58.8302 125.667 59.3155 125.378C59.8102 125.089 60.3562 124.944 60.9535 124.944C61.5508 124.944 62.0968 125.089 62.5915 125.378C63.0862 125.667 63.4735 126.087 63.7535 126.638C64.0428 127.179 64.1875 127.814 64.1875 128.542C64.1875 129.279 64.0428 129.928 63.7535 130.488C63.4735 131.039 63.0862 131.463 62.5915 131.762C62.0968 132.051 61.5508 132.196 60.9535 132.196ZM60.9535 131.174C61.3455 131.174 61.6862 131.071 61.9755 130.866C62.2742 130.661 62.5028 130.362 62.6615 129.97C62.8295 129.569 62.9135 129.093 62.9135 128.542C62.9135 127.991 62.8295 127.525 62.6615 127.142C62.5028 126.75 62.2742 126.456 61.9755 126.26C61.6862 126.064 61.3455 125.966 60.9535 125.966C60.5708 125.966 60.2302 126.064 59.9315 126.26C59.6422 126.456 59.4135 126.75 59.2455 127.142C59.0868 127.525 59.0075 127.991 59.0075 128.542C59.0075 129.093 59.0868 129.569 59.2455 129.97C59.4135 130.362 59.6422 130.661 59.9315 130.866C60.2302 131.071 60.5708 131.174 60.9535 131.174ZM68.514 132.196C67.9167 132.196 67.3707 132.051 66.876 131.762C66.3907 131.463 66.008 131.039 65.728 130.488C65.448 129.928 65.308 129.279 65.308 128.542C65.308 127.814 65.448 127.179 65.728 126.638C66.008 126.087 66.3907 125.667 66.876 125.378C67.3707 125.089 67.9167 124.944 68.514 124.944C69.1114 124.944 69.6574 125.089 70.152 125.378C70.6467 125.667 71.034 126.087 71.314 126.638C71.6034 127.179 71.748 127.814 71.748 128.542C71.748 129.279 71.6034 129.928 71.314 130.488C71.034 131.039 70.6467 131.463 70.152 131.762C69.6574 132.051 69.1114 132.196 68.514 132.196ZM68.514 131.174C68.906 131.174 69.2467 131.071 69.536 130.866C69.8347 130.661 70.0634 130.362 70.222 129.97C70.39 129.569 70.474 129.093 70.474 128.542C70.474 127.991 70.39 127.525 70.222 127.142C70.0634 126.75 69.8347 126.456 69.536 126.26C69.2467 126.064 68.906 125.966 68.514 125.966C68.1314 125.966 67.7907 126.064 67.492 126.26C67.2027 126.456 66.974 126.75 66.806 127.142C66.6474 127.525 66.568 127.991 66.568 128.542C66.568 129.093 66.6474 129.569 66.806 129.97C66.974 130.362 67.2027 130.661 67.492 130.866C67.7907 131.071 68.1314 131.174 68.514 131.174ZM73.2466 122.354H74.4926V132H73.2466V122.354ZM76.3638 125.14H77.6098V132H76.3638V125.14ZM76.3638 122.256H77.5958V123.81H76.3638V122.256ZM79.481 125.14H80.685V127.87L80.489 127.688C80.5263 127.193 80.6476 126.741 80.853 126.33C81.0583 125.91 81.343 125.574 81.707 125.322C82.0803 125.07 82.519 124.944 83.023 124.944C83.527 124.944 83.9563 125.056 84.311 125.28C84.6656 125.504 84.9363 125.817 85.123 126.218C85.3096 126.619 85.403 127.086 85.403 127.618V132H84.171V127.884C84.171 127.473 84.115 127.128 84.003 126.848C83.891 126.568 83.723 126.358 83.499 126.218C83.2843 126.069 83.009 125.994 82.673 125.994C82.309 125.994 81.9776 126.101 81.679 126.316C81.3896 126.521 81.1563 126.815 80.979 127.198C80.811 127.581 80.727 128.01 80.727 128.486V132H79.481V125.14ZM89.9076 130.082C89.3476 130.082 88.8436 129.979 88.3956 129.774C87.9569 129.569 87.6116 129.275 87.3596 128.892C87.1169 128.5 86.9956 128.047 86.9956 127.534C86.9956 127.049 87.1169 126.61 87.3596 126.218C87.6022 125.817 87.9429 125.504 88.3816 125.28C88.8296 125.056 89.3382 124.944 89.9076 124.944C90.6169 124.944 91.2096 125.103 91.6856 125.42C92.1709 125.737 92.4836 126.162 92.6236 126.694L92.4696 126.778C92.4416 126.293 92.4696 125.905 92.5536 125.616C92.6469 125.317 92.8102 125.103 93.0436 124.972C93.2862 124.832 93.6316 124.767 94.0796 124.776L94.1916 125.798H93.9816C93.7109 125.798 93.4916 125.845 93.3236 125.938C93.1556 126.022 93.0296 126.162 92.9456 126.358C92.8709 126.554 92.8242 126.815 92.8056 127.142L92.7916 127.492C92.7729 128.015 92.6469 128.472 92.4136 128.864C92.1802 129.247 91.8489 129.545 91.4196 129.76C90.9996 129.975 90.4956 130.082 89.9076 130.082ZM89.8376 133.96C90.7242 133.96 91.3636 133.876 91.7556 133.708C92.1569 133.549 92.3576 133.293 92.3576 132.938C92.3576 132.705 92.2689 132.532 92.0916 132.42C91.9236 132.317 91.6622 132.266 91.3076 132.266H88.7736C88.4189 132.266 88.1389 132.336 87.9336 132.476C87.7376 132.616 87.6396 132.807 87.6396 133.05C87.6396 133.367 87.8169 133.596 88.1716 133.736C88.5356 133.885 89.0909 133.96 89.8376 133.96ZM89.7956 134.926C88.7502 134.926 87.9569 134.791 87.4156 134.52C86.8742 134.249 86.6036 133.857 86.6036 133.344C86.6036 133.045 86.6969 132.784 86.8836 132.56C87.0702 132.345 87.3129 132.182 87.6116 132.07C87.3596 131.986 87.1589 131.851 87.0096 131.664C86.8602 131.477 86.7856 131.235 86.7856 130.936C86.7856 130.684 86.8556 130.455 86.9956 130.25C87.1356 130.045 87.3129 129.872 87.5276 129.732C87.7516 129.592 87.9802 129.489 88.2136 129.424L88.6336 129.802C88.3909 129.867 88.1809 129.975 88.0036 130.124C87.8262 130.264 87.7376 130.427 87.7376 130.614C87.7376 130.81 87.8216 130.955 87.9896 131.048C88.1576 131.132 88.4282 131.174 88.8016 131.174H91.3636C92.0542 131.174 92.5909 131.319 92.9736 131.608C93.3656 131.897 93.5616 132.303 93.5616 132.826C93.5616 133.507 93.2442 134.025 92.6096 134.38C91.9749 134.744 91.0369 134.926 89.7956 134.926ZM89.9076 129.144C90.2529 129.144 90.5516 129.083 90.8036 128.962C91.0649 128.831 91.2656 128.645 91.4056 128.402C91.5456 128.159 91.6156 127.87 91.6156 127.534C91.6156 127.189 91.5456 126.895 91.4056 126.652C91.2656 126.409 91.0649 126.227 90.8036 126.106C90.5516 125.985 90.2529 125.924 89.9076 125.924C89.5529 125.924 89.2449 125.989 88.9836 126.12C88.7316 126.241 88.5356 126.423 88.3956 126.666C88.2556 126.899 88.1856 127.189 88.1856 127.534C88.1856 127.879 88.2556 128.173 88.3956 128.416C88.5356 128.649 88.7316 128.831 88.9836 128.962C89.2449 129.083 89.5529 129.144 89.9076 129.144ZM98.7347 126.106H97.2787V125.14H98.7347V124.09C98.7347 123.437 98.9027 122.951 99.2387 122.634C99.584 122.317 100.06 122.158 100.667 122.158C100.835 122.158 100.993 122.172 101.143 122.2C101.292 122.219 101.432 122.247 101.563 122.284V123.25C101.376 123.194 101.175 123.166 100.961 123.166C100.587 123.166 100.321 123.255 100.163 123.432C100.004 123.6 99.9247 123.866 99.9247 124.23V125.14H101.577V126.106H99.9247V132H98.7347V126.106ZM104.449 132.196C103.786 132.196 103.249 132.014 102.839 131.65C102.437 131.286 102.237 130.777 102.237 130.124C102.237 129.564 102.377 129.111 102.657 128.766C102.937 128.411 103.315 128.155 103.791 127.996C104.276 127.828 104.845 127.735 105.499 127.716C105.825 127.716 106.143 127.73 106.451 127.758C106.544 127.767 106.633 127.777 106.717 127.786V127.366C106.717 126.871 106.586 126.503 106.325 126.26C106.063 126.017 105.657 125.896 105.107 125.896C104.799 125.896 104.528 125.943 104.295 126.036C104.061 126.129 103.875 126.269 103.735 126.456C103.595 126.643 103.515 126.876 103.497 127.156L102.335 126.96C102.344 126.568 102.47 126.223 102.713 125.924C102.955 125.616 103.282 125.378 103.693 125.21C104.113 125.033 104.579 124.944 105.093 124.944C106.017 124.944 106.717 125.163 107.193 125.602C107.678 126.031 107.921 126.675 107.921 127.534V130.39C107.921 130.679 107.967 130.88 108.061 130.992C108.163 131.104 108.331 131.16 108.565 131.16C108.723 131.16 108.882 131.127 109.041 131.062V131.93C108.938 131.995 108.812 132.042 108.663 132.07C108.513 132.107 108.359 132.126 108.201 132.126C107.762 132.126 107.421 132 107.179 131.748C106.936 131.487 106.815 131.109 106.815 130.614V129.914L106.997 129.984C106.95 130.385 106.819 130.754 106.605 131.09C106.399 131.426 106.11 131.697 105.737 131.902C105.363 132.098 104.934 132.196 104.449 132.196ZM104.841 131.174C105.419 131.174 105.877 130.997 106.213 130.642C106.549 130.287 106.717 129.793 106.717 129.158V128.038L107.207 128.64C107.02 128.621 106.805 128.612 106.563 128.612C106.329 128.603 106.077 128.598 105.807 128.598C105.013 128.617 104.421 128.738 104.029 128.962C103.646 129.186 103.455 129.541 103.455 130.026C103.455 130.39 103.576 130.675 103.819 130.88C104.061 131.076 104.402 131.174 104.841 131.174ZM110.024 125.14H111.228V127.87L111.032 127.688C111.069 127.193 111.191 126.741 111.396 126.33C111.601 125.91 111.886 125.574 112.25 125.322C112.623 125.07 113.062 124.944 113.566 124.944C114.07 124.944 114.499 125.056 114.854 125.28C115.209 125.504 115.479 125.817 115.666 126.218C115.853 126.619 115.946 127.086 115.946 127.618V132H114.714V127.884C114.714 127.473 114.658 127.128 114.546 126.848C114.434 126.568 114.266 126.358 114.042 126.218C113.827 126.069 113.552 125.994 113.216 125.994C112.852 125.994 112.521 126.101 112.222 126.316C111.933 126.521 111.699 126.815 111.522 127.198C111.354 127.581 111.27 128.01 111.27 128.486V132H110.024V125.14ZM122.701 132.196C122.038 132.196 121.501 132.014 121.091 131.65C120.689 131.286 120.489 130.777 120.489 130.124C120.489 129.564 120.629 129.111 120.909 128.766C121.189 128.411 121.567 128.155 122.043 127.996C122.528 127.828 123.097 127.735 123.751 127.716C124.077 127.716 124.395 127.73 124.703 127.758C124.796 127.767 124.885 127.777 124.969 127.786V127.366C124.969 126.871 124.838 126.503 124.577 126.26C124.315 126.017 123.909 125.896 123.359 125.896C123.051 125.896 122.78 125.943 122.547 126.036C122.313 126.129 122.127 126.269 121.987 126.456C121.847 126.643 121.767 126.876 121.749 127.156L120.587 126.96C120.596 126.568 120.722 126.223 120.965 125.924C121.207 125.616 121.534 125.378 121.945 125.21C122.365 125.033 122.831 124.944 123.345 124.944C124.269 124.944 124.969 125.163 125.445 125.602C125.93 126.031 126.173 126.675 126.173 127.534V130.39C126.173 130.679 126.219 130.88 126.313 130.992C126.415 131.104 126.583 131.16 126.817 131.16C126.975 131.16 127.134 131.127 127.293 131.062V131.93C127.19 131.995 127.064 132.042 126.915 132.07C126.765 132.107 126.611 132.126 126.453 132.126C126.014 132.126 125.673 132 125.431 131.748C125.188 131.487 125.067 131.109 125.067 130.614V129.914L125.249 129.984C125.202 130.385 125.071 130.754 124.857 131.09C124.651 131.426 124.362 131.697 123.989 131.902C123.615 132.098 123.186 132.196 122.701 132.196ZM123.093 131.174C123.671 131.174 124.129 130.997 124.465 130.642C124.801 130.287 124.969 129.793 124.969 129.158V128.038L125.459 128.64C125.272 128.621 125.057 128.612 124.815 128.612C124.581 128.603 124.329 128.598 124.059 128.598C123.265 128.617 122.673 128.738 122.281 128.962C121.898 129.186 121.707 129.541 121.707 130.026C121.707 130.39 121.828 130.675 122.071 130.88C122.313 131.076 122.654 131.174 123.093 131.174ZM128.836 129.872C128.92 130.273 129.125 130.605 129.452 130.866C129.779 131.127 130.18 131.258 130.656 131.258C131.123 131.258 131.487 131.16 131.748 130.964C132.019 130.759 132.154 130.507 132.154 130.208C132.154 129.919 132.061 129.699 131.874 129.55C131.697 129.391 131.375 129.247 130.908 129.116L129.886 128.836C129.27 128.687 128.808 128.449 128.5 128.122C128.192 127.786 128.038 127.375 128.038 126.89C128.038 126.498 128.141 126.157 128.346 125.868C128.561 125.569 128.859 125.341 129.242 125.182C129.625 125.023 130.063 124.944 130.558 124.944C130.978 124.944 131.365 125.014 131.72 125.154C132.084 125.285 132.387 125.481 132.63 125.742C132.882 126.003 133.059 126.316 133.162 126.68L132.07 127.016C131.986 126.689 131.813 126.419 131.552 126.204C131.3 125.989 130.955 125.882 130.516 125.882C130.087 125.882 129.751 125.961 129.508 126.12C129.275 126.269 129.158 126.479 129.158 126.75C129.158 127.011 129.251 127.217 129.438 127.366C129.625 127.515 129.942 127.655 130.39 127.786L131.51 128.094C132.135 128.253 132.597 128.505 132.896 128.85C133.195 129.186 133.344 129.592 133.344 130.068C133.344 130.516 133.227 130.899 132.994 131.216C132.77 131.533 132.453 131.776 132.042 131.944C131.631 132.112 131.155 132.196 130.614 132.196C130.101 132.196 129.639 132.117 129.228 131.958C128.827 131.79 128.495 131.557 128.234 131.258C127.982 130.959 127.814 130.614 127.73 130.222L128.836 129.872ZM135.33 129.872C135.414 130.273 135.619 130.605 135.946 130.866C136.273 131.127 136.674 131.258 137.15 131.258C137.617 131.258 137.981 131.16 138.242 130.964C138.513 130.759 138.648 130.507 138.648 130.208C138.648 129.919 138.555 129.699 138.368 129.55C138.191 129.391 137.869 129.247 137.402 129.116L136.38 128.836C135.764 128.687 135.302 128.449 134.994 128.122C134.686 127.786 134.532 127.375 134.532 126.89C134.532 126.498 134.635 126.157 134.84 125.868C135.055 125.569 135.353 125.341 135.736 125.182C136.119 125.023 136.557 124.944 137.052 124.944C137.472 124.944 137.859 125.014 138.214 125.154C138.578 125.285 138.881 125.481 139.124 125.742C139.376 126.003 139.553 126.316 139.656 126.68L138.564 127.016C138.48 126.689 138.307 126.419 138.046 126.204C137.794 125.989 137.449 125.882 137.01 125.882C136.581 125.882 136.245 125.961 136.002 126.12C135.769 126.269 135.652 126.479 135.652 126.75C135.652 127.011 135.745 127.217 135.932 127.366C136.119 127.515 136.436 127.655 136.884 127.786L138.004 128.094C138.629 128.253 139.091 128.505 139.39 128.85C139.689 129.186 139.838 129.592 139.838 130.068C139.838 130.516 139.721 130.899 139.488 131.216C139.264 131.533 138.947 131.776 138.536 131.944C138.125 132.112 137.649 132.196 137.108 132.196C136.595 132.196 136.133 132.117 135.722 131.958C135.321 131.79 134.989 131.557 134.728 131.258C134.476 130.959 134.308 130.614 134.224 130.222L135.33 129.872ZM144.134 132.196C143.453 132.196 142.87 132.047 142.384 131.748C141.899 131.44 141.53 131.011 141.278 130.46C141.026 129.9 140.9 129.251 140.9 128.514C140.9 127.786 141.036 127.151 141.306 126.61C141.586 126.069 141.964 125.658 142.44 125.378C142.926 125.089 143.467 124.944 144.064 124.944C144.699 124.944 145.245 125.089 145.702 125.378C146.169 125.667 146.524 126.083 146.766 126.624C147.009 127.156 147.13 127.795 147.13 128.542V128.794H141.572L142.104 128.248C142.104 128.304 142.104 128.346 142.104 128.374C142.104 128.402 142.104 128.444 142.104 128.5C142.104 128.556 142.104 128.617 142.104 128.682C142.104 129.186 142.179 129.625 142.328 129.998C142.487 130.371 142.72 130.665 143.028 130.88C143.346 131.085 143.724 131.188 144.162 131.188C144.601 131.188 144.984 131.062 145.31 130.81C145.637 130.549 145.889 130.194 146.066 129.746L147.06 130.25C146.92 130.605 146.715 130.931 146.444 131.23C146.183 131.519 145.856 131.753 145.464 131.93C145.072 132.107 144.629 132.196 144.134 132.196ZM145.898 128.038C145.889 127.571 145.81 127.184 145.66 126.876C145.511 126.559 145.301 126.325 145.03 126.176C144.76 126.017 144.438 125.938 144.064 125.938C143.71 125.938 143.392 126.013 143.112 126.162C142.842 126.311 142.622 126.526 142.454 126.806C142.286 127.086 142.184 127.427 142.146 127.828H146.486L145.898 128.206V128.038ZM148.633 125.14H149.837V126.722C149.959 126.386 150.127 126.083 150.341 125.812C150.565 125.541 150.831 125.331 151.139 125.182C151.447 125.023 151.793 124.944 152.175 124.944C152.763 124.944 153.249 125.103 153.631 125.42C154.023 125.737 154.28 126.176 154.401 126.736C154.523 126.391 154.695 126.087 154.919 125.826C155.153 125.555 155.433 125.341 155.759 125.182C156.086 125.023 156.445 124.944 156.837 124.944C157.332 124.944 157.752 125.051 158.097 125.266C158.443 125.481 158.699 125.789 158.867 126.19C159.045 126.591 159.133 127.058 159.133 127.59V132H157.915V127.884C157.915 127.259 157.799 126.787 157.565 126.47C157.332 126.153 156.968 125.994 156.473 125.994C156.109 125.994 155.773 126.101 155.465 126.316C155.167 126.521 154.929 126.815 154.751 127.198C154.583 127.581 154.499 128.01 154.499 128.486V132H153.267V127.884C153.267 127.473 153.216 127.128 153.113 126.848C153.011 126.568 152.852 126.358 152.637 126.218C152.432 126.069 152.161 125.994 151.825 125.994C151.461 125.994 151.13 126.101 150.831 126.316C150.542 126.521 150.309 126.815 150.131 127.198C149.963 127.581 149.879 128.01 149.879 128.486V132H148.633V125.14ZM164.508 132.196C164.013 132.196 163.579 132.089 163.206 131.874C162.833 131.65 162.539 131.361 162.324 131.006C162.109 130.642 161.974 130.245 161.918 129.816L162.142 129.774V132H160.938V122.354H162.184V126.988L161.96 127.324C161.997 126.923 162.109 126.545 162.296 126.19C162.492 125.826 162.772 125.532 163.136 125.308C163.5 125.075 163.934 124.958 164.438 124.958C164.989 124.958 165.479 125.103 165.908 125.392C166.347 125.672 166.687 126.087 166.93 126.638C167.182 127.179 167.308 127.819 167.308 128.556C167.308 129.321 167.187 129.979 166.944 130.53C166.701 131.071 166.365 131.487 165.936 131.776C165.516 132.056 165.04 132.196 164.508 132.196ZM164.116 131.188C164.517 131.188 164.863 131.085 165.152 130.88C165.441 130.675 165.661 130.376 165.81 129.984C165.969 129.583 166.048 129.102 166.048 128.542C166.048 128.001 165.969 127.539 165.81 127.156C165.651 126.764 165.427 126.47 165.138 126.274C164.849 126.069 164.503 125.966 164.102 125.966C163.71 125.966 163.365 126.069 163.066 126.274C162.777 126.479 162.548 126.778 162.38 127.17C162.221 127.562 162.142 128.029 162.142 128.57C162.142 129.074 162.221 129.527 162.38 129.928C162.539 130.32 162.767 130.628 163.066 130.852C163.365 131.076 163.715 131.188 164.116 131.188ZM168.827 122.354H170.073V132H168.827V122.354ZM171.468 133.694H172.266C172.658 133.694 172.957 133.605 173.162 133.428C173.377 133.26 173.563 132.947 173.722 132.49L174.058 131.454L174.086 132.644L171.132 125.14H172.476L174.758 131.188L174.282 131.202L176.424 125.14H177.698L174.716 133.078C174.473 133.713 174.156 134.151 173.764 134.394C173.372 134.637 172.873 134.758 172.266 134.758C171.986 134.758 171.72 134.744 171.468 134.716V133.694ZM182.188 126.106H180.732V125.14H182.188V124.09C182.188 123.437 182.356 122.951 182.692 122.634C183.037 122.317 183.513 122.158 184.12 122.158C184.288 122.158 184.446 122.172 184.596 122.2C184.745 122.219 184.885 122.247 185.016 122.284V123.25C184.829 123.194 184.628 123.166 184.414 123.166C184.04 123.166 183.774 123.255 183.616 123.432C183.457 123.6 183.378 123.866 183.378 124.23V125.14H185.03V126.106H183.378V132H182.188V126.106ZM187.902 132.196C187.239 132.196 186.703 132.014 186.292 131.65C185.891 131.286 185.69 130.777 185.69 130.124C185.69 129.564 185.83 129.111 186.11 128.766C186.39 128.411 186.768 128.155 187.244 127.996C187.729 127.828 188.299 127.735 188.952 127.716C189.279 127.716 189.596 127.73 189.904 127.758C189.997 127.767 190.086 127.777 190.17 127.786V127.366C190.17 126.871 190.039 126.503 189.778 126.26C189.517 126.017 189.111 125.896 188.56 125.896C188.252 125.896 187.981 125.943 187.748 126.036C187.515 126.129 187.328 126.269 187.188 126.456C187.048 126.643 186.969 126.876 186.95 127.156L185.788 126.96C185.797 126.568 185.923 126.223 186.166 125.924C186.409 125.616 186.735 125.378 187.146 125.21C187.566 125.033 188.033 124.944 188.546 124.944C189.47 124.944 190.17 125.163 190.646 125.602C191.131 126.031 191.374 126.675 191.374 127.534V130.39C191.374 130.679 191.421 130.88 191.514 130.992C191.617 131.104 191.785 131.16 192.018 131.16C192.177 131.16 192.335 131.127 192.494 131.062V131.93C192.391 131.995 192.265 132.042 192.116 132.07C191.967 132.107 191.813 132.126 191.654 132.126C191.215 132.126 190.875 132 190.632 131.748C190.389 131.487 190.268 131.109 190.268 130.614V129.914L190.45 129.984C190.403 130.385 190.273 130.754 190.058 131.09C189.853 131.426 189.563 131.697 189.19 131.902C188.817 132.098 188.387 132.196 187.902 132.196ZM188.294 131.174C188.873 131.174 189.33 130.997 189.666 130.642C190.002 130.287 190.17 129.793 190.17 129.158V128.038L190.66 128.64C190.473 128.621 190.259 128.612 190.016 128.612C189.783 128.603 189.531 128.598 189.26 128.598C188.467 128.617 187.874 128.738 187.482 128.962C187.099 129.186 186.908 129.541 186.908 130.026C186.908 130.39 187.029 130.675 187.272 130.88C187.515 131.076 187.855 131.174 188.294 131.174ZM193.477 125.14H194.723V132H193.477V125.14ZM193.477 122.256H194.709V123.81H193.477V122.256ZM196.594 122.354H197.84V132H196.594V122.354ZM201.839 132.196C201.363 132.196 200.962 132.089 200.635 131.874C200.309 131.659 200.061 131.356 199.893 130.964C199.735 130.563 199.655 130.091 199.655 129.55V125.14H200.873V129.284C200.873 129.9 200.981 130.362 201.195 130.67C201.41 130.978 201.737 131.132 202.175 131.132C202.549 131.132 202.885 131.029 203.183 130.824C203.491 130.619 203.734 130.32 203.911 129.928C204.089 129.527 204.177 129.055 204.177 128.514V125.14H205.395V132H204.191V130.46C203.995 130.973 203.697 131.393 203.295 131.72C202.894 132.037 202.409 132.196 201.839 132.196ZM207.272 125.14H208.476V126.862C208.7 126.265 209.008 125.798 209.4 125.462C209.801 125.126 210.291 124.958 210.87 124.958C210.926 124.958 210.977 124.963 211.024 124.972C211.08 124.972 211.136 124.977 211.192 124.986V126.232C211.117 126.213 210.987 126.204 210.8 126.204C210.333 126.204 209.927 126.302 209.582 126.498C209.237 126.685 208.971 126.983 208.784 127.394C208.597 127.805 208.504 128.327 208.504 128.962V132H207.272V125.14ZM214.996 132.196C214.314 132.196 213.731 132.047 213.245 131.748C212.76 131.44 212.392 131.011 212.14 130.46C211.888 129.9 211.762 129.251 211.762 128.514C211.762 127.786 211.897 127.151 212.168 126.61C212.448 126.069 212.826 125.658 213.302 125.378C213.787 125.089 214.328 124.944 214.926 124.944C215.56 124.944 216.106 125.089 216.564 125.378C217.03 125.667 217.385 126.083 217.628 126.624C217.87 127.156 217.992 127.795 217.992 128.542V128.794H212.434L212.966 128.248C212.966 128.304 212.966 128.346 212.966 128.374C212.966 128.402 212.966 128.444 212.966 128.5C212.966 128.556 212.966 128.617 212.966 128.682C212.966 129.186 213.04 129.625 213.19 129.998C213.348 130.371 213.582 130.665 213.89 130.88C214.207 131.085 214.585 131.188 215.024 131.188C215.462 131.188 215.845 131.062 216.172 130.81C216.498 130.549 216.75 130.194 216.928 129.746L217.922 130.25C217.782 130.605 217.576 130.931 217.306 131.23C217.044 131.519 216.718 131.753 216.326 131.93C215.934 132.107 215.49 132.196 214.996 132.196ZM216.76 128.038C216.75 127.571 216.671 127.184 216.522 126.876C216.372 126.559 216.162 126.325 215.892 126.176C215.621 126.017 215.299 125.938 214.926 125.938C214.571 125.938 214.254 126.013 213.974 126.162C213.703 126.311 213.484 126.526 213.316 126.806C213.148 127.086 213.045 127.427 213.008 127.828H217.348L216.76 128.206V128.038Z" fill="#222129"/>
<path d="M486.296 127.56C485.792 128.256 484.496 128.616 483.584 128.616H482.72V126.672H483.248C484.856 126.672 486.224 125.712 486.632 123.96H488.456V141H486.296V127.56ZM492.164 139.224C493.532 138.216 495.692 136.488 497.828 134.448C499.94 132.312 500.66 130.872 500.66 128.784C500.66 126.648 499.532 125.424 497.612 125.424C495.668 125.424 494.492 126.672 494.492 128.592C494.492 129.024 494.564 129.528 494.684 130.128L492.524 129.912C492.404 129.432 492.356 129 492.356 128.568C492.356 125.52 494.372 123.552 497.732 123.552C500.972 123.552 502.916 125.4 502.916 128.76C502.916 131.184 501.74 133.296 499.172 135.768C497.876 136.968 496.7 137.928 495.068 139.056H503.108V141H492.164V139.224ZM509.415 132.384C506.943 132.384 505.311 130.704 505.311 128.016C505.311 125.424 506.943 123.72 509.391 123.72C511.791 123.72 513.471 125.448 513.471 128.088C513.471 130.704 511.791 132.384 509.415 132.384ZM509.415 130.848C510.783 130.848 511.695 129.816 511.695 128.088C511.695 126.336 510.783 125.256 509.391 125.256C507.975 125.256 507.039 126.312 507.039 128.016C507.039 129.816 507.975 130.848 509.415 130.848ZM507.879 141.36L518.367 123.96H520.359L509.871 141.36H507.879ZM518.943 141.384C516.471 141.384 514.839 139.704 514.839 137.016C514.839 134.424 516.471 132.72 518.919 132.72C521.319 132.72 522.999 134.448 522.999 137.088C522.999 139.704 521.319 141.384 518.943 141.384ZM518.943 139.848C520.311 139.848 521.223 138.816 521.223 137.088C521.223 135.336 520.311 134.256 518.919 134.256C517.503 134.256 516.567 135.312 516.567 137.016C516.567 138.816 517.503 139.848 518.943 139.848Z" fill="#222129"/>
<rect width="433" height="60" transform="translate(32 176)" fill="#17171C" fill-opacity="0.08"/>
<path d="M49.134 194.354H51.248L54.412 202.936H53.894L57.142 194.354H59.172V204H57.898V195.012L58.066 195.124L54.692 204H53.544L50.142 194.872H50.408V204H49.134V194.354ZM63.0503 204.196C62.3877 204.196 61.851 204.014 61.4403 203.65C61.039 203.286 60.8383 202.777 60.8383 202.124C60.8383 201.564 60.9783 201.111 61.2583 200.766C61.5383 200.411 61.9163 200.155 62.3923 199.996C62.8777 199.828 63.447 199.735 64.1003 199.716C64.427 199.716 64.7443 199.73 65.0523 199.758C65.1457 199.767 65.2343 199.777 65.3183 199.786V199.366C65.3183 198.871 65.1877 198.503 64.9263 198.26C64.665 198.017 64.259 197.896 63.7083 197.896C63.4003 197.896 63.1297 197.943 62.8963 198.036C62.663 198.129 62.4763 198.269 62.3363 198.456C62.1963 198.643 62.117 198.876 62.0983 199.156L60.9363 198.96C60.9457 198.568 61.0717 198.223 61.3143 197.924C61.557 197.616 61.8837 197.378 62.2943 197.21C62.7143 197.033 63.181 196.944 63.6943 196.944C64.6183 196.944 65.3183 197.163 65.7943 197.602C66.2797 198.031 66.5223 198.675 66.5223 199.534V202.39C66.5223 202.679 66.569 202.88 66.6623 202.992C66.765 203.104 66.933 203.16 67.1663 203.16C67.325 203.16 67.4837 203.127 67.6423 203.062V203.93C67.5397 203.995 67.4137 204.042 67.2643 204.07C67.115 204.107 66.961 204.126 66.8023 204.126C66.3637 204.126 66.023 204 65.7803 203.748C65.5377 203.487 65.4163 203.109 65.4163 202.614V201.914L65.5983 201.984C65.5517 202.385 65.421 202.754 65.2063 203.09C65.001 203.426 64.7117 203.697 64.3383 203.902C63.965 204.098 63.5357 204.196 63.0503 204.196ZM63.4423 203.174C64.021 203.174 64.4783 202.997 64.8143 202.642C65.1503 202.287 65.3183 201.793 65.3183 201.158V200.038L65.8083 200.64C65.6217 200.621 65.407 200.612 65.1643 200.612C64.931 200.603 64.679 200.598 64.4083 200.598C63.615 200.617 63.0223 200.738 62.6303 200.962C62.2477 201.186 62.0563 201.541 62.0563 202.026C62.0563 202.39 62.1777 202.675 62.4203 202.88C62.663 203.076 63.0037 203.174 63.4423 203.174ZM68.6255 197.14H69.8715V204H68.6255V197.14ZM68.6255 194.256H69.8575V195.81H68.6255V194.256ZM71.7427 197.14H72.9467V199.87L72.7507 199.688C72.788 199.193 72.9094 198.741 73.1147 198.33C73.32 197.91 73.6047 197.574 73.9687 197.322C74.342 197.07 74.7807 196.944 75.2847 196.944C75.7887 196.944 76.218 197.056 76.5727 197.28C76.9274 197.504 77.198 197.817 77.3847 198.218C77.5714 198.619 77.6647 199.086 77.6647 199.618V204H76.4327V199.884C76.4327 199.473 76.3767 199.128 76.2647 198.848C76.1527 198.568 75.9847 198.358 75.7607 198.218C75.546 198.069 75.2707 197.994 74.9347 197.994C74.5707 197.994 74.2394 198.101 73.9407 198.316C73.6514 198.521 73.418 198.815 73.2407 199.198C73.0727 199.581 72.9887 200.01 72.9887 200.486V204H71.7427V197.14ZM86.1135 204.196C85.6188 204.196 85.1848 204.089 84.8115 203.874C84.4381 203.65 84.1441 203.361 83.9295 203.006C83.7148 202.642 83.5795 202.245 83.5235 201.816L83.7475 201.774V204H82.5435V194.354H83.7895V198.988L83.5655 199.324C83.6028 198.923 83.7148 198.545 83.9015 198.19C84.0975 197.826 84.3775 197.532 84.7415 197.308C85.1055 197.075 85.5395 196.958 86.0435 196.958C86.5941 196.958 87.0841 197.103 87.5135 197.392C87.9521 197.672 88.2928 198.087 88.5355 198.638C88.7875 199.179 88.9135 199.819 88.9135 200.556C88.9135 201.321 88.7921 201.979 88.5495 202.53C88.3068 203.071 87.9708 203.487 87.5415 203.776C87.1215 204.056 86.6455 204.196 86.1135 204.196ZM85.7215 203.188C86.1228 203.188 86.4681 203.085 86.7575 202.88C87.0468 202.675 87.2661 202.376 87.4155 201.984C87.5741 201.583 87.6535 201.102 87.6535 200.542C87.6535 200.001 87.5741 199.539 87.4155 199.156C87.2568 198.764 87.0328 198.47 86.7435 198.274C86.4541 198.069 86.1088 197.966 85.7075 197.966C85.3155 197.966 84.9701 198.069 84.6715 198.274C84.3821 198.479 84.1535 198.778 83.9855 199.17C83.8268 199.562 83.7475 200.029 83.7475 200.57C83.7475 201.074 83.8268 201.527 83.9855 201.928C84.1441 202.32 84.3728 202.628 84.6715 202.852C84.9701 203.076 85.3201 203.188 85.7215 203.188ZM93.2601 204.196C92.6628 204.196 92.1168 204.051 91.6221 203.762C91.1368 203.463 90.7541 203.039 90.4741 202.488C90.1941 201.928 90.0541 201.279 90.0541 200.542C90.0541 199.814 90.1941 199.179 90.4741 198.638C90.7541 198.087 91.1368 197.667 91.6221 197.378C92.1168 197.089 92.6628 196.944 93.2601 196.944C93.8575 196.944 94.4035 197.089 94.8981 197.378C95.3928 197.667 95.7801 198.087 96.0601 198.638C96.3495 199.179 96.4941 199.814 96.4941 200.542C96.4941 201.279 96.3495 201.928 96.0601 202.488C95.7801 203.039 95.3928 203.463 94.8981 203.762C94.4035 204.051 93.8575 204.196 93.2601 204.196ZM93.2601 203.174C93.6521 203.174 93.9928 203.071 94.2821 202.866C94.5808 202.661 94.8095 202.362 94.9681 201.97C95.1361 201.569 95.2201 201.093 95.2201 200.542C95.2201 199.991 95.1361 199.525 94.9681 199.142C94.8095 198.75 94.5808 198.456 94.2821 198.26C93.9928 198.064 93.6521 197.966 93.2601 197.966C92.8775 197.966 92.5368 198.064 92.2381 198.26C91.9488 198.456 91.7201 198.75 91.5521 199.142C91.3935 199.525 91.3141 199.991 91.3141 200.542C91.3141 201.093 91.3935 201.569 91.5521 201.97C91.7201 202.362 91.9488 202.661 92.2381 202.866C92.5368 203.071 92.8775 203.174 93.2601 203.174ZM99.8687 204.196C99.206 204.196 98.6694 204.014 98.2587 203.65C97.8574 203.286 97.6567 202.777 97.6567 202.124C97.6567 201.564 97.7967 201.111 98.0767 200.766C98.3567 200.411 98.7347 200.155 99.2107 199.996C99.696 199.828 100.265 199.735 100.919 199.716C101.245 199.716 101.563 199.73 101.871 199.758C101.964 199.767 102.053 199.777 102.137 199.786V199.366C102.137 198.871 102.006 198.503 101.745 198.26C101.483 198.017 101.077 197.896 100.527 197.896C100.219 197.896 99.948 197.943 99.7147 198.036C99.4814 198.129 99.2947 198.269 99.1547 198.456C99.0147 198.643 98.9354 198.876 98.9167 199.156L97.7547 198.96C97.764 198.568 97.89 198.223 98.1327 197.924C98.3754 197.616 98.702 197.378 99.1127 197.21C99.5327 197.033 99.9994 196.944 100.513 196.944C101.437 196.944 102.137 197.163 102.613 197.602C103.098 198.031 103.341 198.675 103.341 199.534V202.39C103.341 202.679 103.387 202.88 103.481 202.992C103.583 203.104 103.751 203.16 103.985 203.16C104.143 203.16 104.302 203.127 104.461 203.062V203.93C104.358 203.995 104.232 204.042 104.083 204.07C103.933 204.107 103.779 204.126 103.621 204.126C103.182 204.126 102.841 204 102.599 203.748C102.356 203.487 102.235 203.109 102.235 202.614V201.914L102.417 201.984C102.37 202.385 102.239 202.754 102.025 203.09C101.819 203.426 101.53 203.697 101.157 203.902C100.783 204.098 100.354 204.196 99.8687 204.196ZM100.261 203.174C100.839 203.174 101.297 202.997 101.633 202.642C101.969 202.287 102.137 201.793 102.137 201.158V200.038L102.627 200.64C102.44 200.621 102.225 200.612 101.983 200.612C101.749 200.603 101.497 200.598 101.227 200.598C100.433 200.617 99.8407 200.738 99.4487 200.962C99.066 201.186 98.8747 201.541 98.8747 202.026C98.8747 202.39 98.996 202.675 99.2387 202.88C99.4814 203.076 99.822 203.174 100.261 203.174ZM105.444 197.14H106.648V198.862C106.872 198.265 107.18 197.798 107.572 197.462C107.973 197.126 108.463 196.958 109.042 196.958C109.098 196.958 109.149 196.963 109.196 196.972C109.252 196.972 109.308 196.977 109.364 196.986V198.232C109.289 198.213 109.159 198.204 108.972 198.204C108.505 198.204 108.099 198.302 107.754 198.498C107.409 198.685 107.143 198.983 106.956 199.394C106.769 199.805 106.676 200.327 106.676 200.962V204H105.444V197.14ZM112.733 204.196C112.201 204.196 111.721 204.056 111.291 203.776C110.871 203.487 110.54 203.071 110.297 202.53C110.055 201.979 109.933 201.321 109.933 200.556C109.933 199.819 110.055 199.179 110.297 198.638C110.54 198.087 110.876 197.672 111.305 197.392C111.744 197.103 112.243 196.958 112.803 196.958C113.317 196.958 113.751 197.075 114.105 197.308C114.469 197.532 114.749 197.826 114.945 198.19C115.141 198.545 115.253 198.923 115.281 199.324L115.071 198.988V194.354H116.317V204H115.099V201.774L115.323 201.816C115.277 202.245 115.141 202.642 114.917 203.006C114.703 203.361 114.409 203.65 114.035 203.874C113.662 204.089 113.228 204.196 112.733 204.196ZM113.125 203.188C113.527 203.188 113.877 203.076 114.175 202.852C114.474 202.628 114.703 202.32 114.861 201.928C115.02 201.527 115.099 201.074 115.099 200.57C115.099 200.029 115.015 199.562 114.847 199.17C114.689 198.778 114.46 198.479 114.161 198.274C113.872 198.069 113.531 197.966 113.139 197.966C112.738 197.966 112.393 198.069 112.103 198.274C111.814 198.47 111.59 198.764 111.431 199.156C111.273 199.539 111.193 200.001 111.193 200.542C111.193 201.102 111.268 201.583 111.417 201.984C111.576 202.376 111.8 202.675 112.089 202.88C112.379 203.085 112.724 203.188 113.125 203.188ZM123.712 204.196C123.18 204.196 122.699 204.056 122.27 203.776C121.85 203.487 121.519 203.071 121.276 202.53C121.033 201.979 120.912 201.321 120.912 200.556C120.912 199.819 121.033 199.179 121.276 198.638C121.519 198.087 121.855 197.672 122.284 197.392C122.723 197.103 123.222 196.958 123.782 196.958C124.295 196.958 124.729 197.075 125.084 197.308C125.448 197.532 125.728 197.826 125.924 198.19C126.12 198.545 126.232 198.923 126.26 199.324L126.05 198.988V194.354H127.296V204H126.078V201.774L126.302 201.816C126.255 202.245 126.12 202.642 125.896 203.006C125.681 203.361 125.387 203.65 125.014 203.874C124.641 204.089 124.207 204.196 123.712 204.196ZM124.104 203.188C124.505 203.188 124.855 203.076 125.154 202.852C125.453 202.628 125.681 202.32 125.84 201.928C125.999 201.527 126.078 201.074 126.078 200.57C126.078 200.029 125.994 199.562 125.826 199.17C125.667 198.778 125.439 198.479 125.14 198.274C124.851 198.069 124.51 197.966 124.118 197.966C123.717 197.966 123.371 198.069 123.082 198.274C122.793 198.47 122.569 198.764 122.41 199.156C122.251 199.539 122.172 200.001 122.172 200.542C122.172 201.102 122.247 201.583 122.396 201.984C122.555 202.376 122.779 202.675 123.068 202.88C123.357 203.085 123.703 203.188 124.104 203.188ZM131.054 204.196C130.392 204.196 129.855 204.014 129.444 203.65C129.043 203.286 128.842 202.777 128.842 202.124C128.842 201.564 128.982 201.111 129.262 200.766C129.542 200.411 129.92 200.155 130.396 199.996C130.882 199.828 131.451 199.735 132.104 199.716C132.431 199.716 132.748 199.73 133.056 199.758C133.15 199.767 133.238 199.777 133.322 199.786V199.366C133.322 198.871 133.192 198.503 132.93 198.26C132.669 198.017 132.263 197.896 131.712 197.896C131.404 197.896 131.134 197.943 130.9 198.036C130.667 198.129 130.48 198.269 130.34 198.456C130.2 198.643 130.121 198.876 130.102 199.156L128.94 198.96C128.95 198.568 129.076 198.223 129.318 197.924C129.561 197.616 129.888 197.378 130.298 197.21C130.718 197.033 131.185 196.944 131.698 196.944C132.622 196.944 133.322 197.163 133.798 197.602C134.284 198.031 134.526 198.675 134.526 199.534V202.39C134.526 202.679 134.573 202.88 134.666 202.992C134.769 203.104 134.937 203.16 135.17 203.16C135.329 203.16 135.488 203.127 135.646 203.062V203.93C135.544 203.995 135.418 204.042 135.268 204.07C135.119 204.107 134.965 204.126 134.806 204.126C134.368 204.126 134.027 204 133.784 203.748C133.542 203.487 133.42 203.109 133.42 202.614V201.914L133.602 201.984C133.556 202.385 133.425 202.754 133.21 203.09C133.005 203.426 132.716 203.697 132.342 203.902C131.969 204.098 131.54 204.196 131.054 204.196ZM131.446 203.174C132.025 203.174 132.482 202.997 132.818 202.642C133.154 202.287 133.322 201.793 133.322 201.158V200.038L133.812 200.64C133.626 200.621 133.411 200.612 133.168 200.612C132.935 200.603 132.683 200.598 132.412 200.598C131.619 200.617 131.026 200.738 130.634 200.962C130.252 201.186 130.06 201.541 130.06 202.026C130.06 202.39 130.182 202.675 130.424 202.88C130.667 203.076 131.008 203.174 131.446 203.174ZM136.629 197.14H137.833V198.722C137.955 198.386 138.123 198.083 138.337 197.812C138.561 197.541 138.827 197.331 139.135 197.182C139.443 197.023 139.789 196.944 140.171 196.944C140.759 196.944 141.245 197.103 141.627 197.42C142.019 197.737 142.276 198.176 142.397 198.736C142.519 198.391 142.691 198.087 142.915 197.826C143.149 197.555 143.429 197.341 143.755 197.182C144.082 197.023 144.441 196.944 144.833 196.944C145.328 196.944 145.748 197.051 146.093 197.266C146.439 197.481 146.695 197.789 146.863 198.19C147.041 198.591 147.129 199.058 147.129 199.59V204H145.911V199.884C145.911 199.259 145.795 198.787 145.561 198.47C145.328 198.153 144.964 197.994 144.469 197.994C144.105 197.994 143.769 198.101 143.461 198.316C143.163 198.521 142.925 198.815 142.747 199.198C142.579 199.581 142.495 200.01 142.495 200.486V204H141.263V199.884C141.263 199.473 141.212 199.128 141.109 198.848C141.007 198.568 140.848 198.358 140.633 198.218C140.428 198.069 140.157 197.994 139.821 197.994C139.457 197.994 139.126 198.101 138.827 198.316C138.538 198.521 138.305 198.815 138.127 199.198C137.959 199.581 137.875 200.01 137.875 200.486V204H136.629V197.14ZM150.81 204.196C150.147 204.196 149.611 204.014 149.2 203.65C148.799 203.286 148.598 202.777 148.598 202.124C148.598 201.564 148.738 201.111 149.018 200.766C149.298 200.411 149.676 200.155 150.152 199.996C150.637 199.828 151.207 199.735 151.86 199.716C152.187 199.716 152.504 199.73 152.812 199.758C152.905 199.767 152.994 199.777 153.078 199.786V199.366C153.078 198.871 152.947 198.503 152.686 198.26C152.425 198.017 152.019 197.896 151.468 197.896C151.16 197.896 150.889 197.943 150.656 198.036C150.423 198.129 150.236 198.269 150.096 198.456C149.956 198.643 149.877 198.876 149.858 199.156L148.696 198.96C148.705 198.568 148.831 198.223 149.074 197.924C149.317 197.616 149.643 197.378 150.054 197.21C150.474 197.033 150.941 196.944 151.454 196.944C152.378 196.944 153.078 197.163 153.554 197.602C154.039 198.031 154.282 198.675 154.282 199.534V202.39C154.282 202.679 154.329 202.88 154.422 202.992C154.525 203.104 154.693 203.16 154.926 203.16C155.085 203.16 155.243 203.127 155.402 203.062V203.93C155.299 203.995 155.173 204.042 155.024 204.07C154.875 204.107 154.721 204.126 154.562 204.126C154.123 204.126 153.783 204 153.54 203.748C153.297 203.487 153.176 203.109 153.176 202.614V201.914L153.358 201.984C153.311 202.385 153.181 202.754 152.966 203.09C152.761 203.426 152.471 203.697 152.098 203.902C151.725 204.098 151.295 204.196 150.81 204.196ZM151.202 203.174C151.781 203.174 152.238 202.997 152.574 202.642C152.91 202.287 153.078 201.793 153.078 201.158V200.038L153.568 200.64C153.381 200.621 153.167 200.612 152.924 200.612C152.691 200.603 152.439 200.598 152.168 200.598C151.375 200.617 150.782 200.738 150.39 200.962C150.007 201.186 149.816 201.541 149.816 202.026C149.816 202.39 149.937 202.675 150.18 202.88C150.423 203.076 150.763 203.174 151.202 203.174ZM159.087 202.082C158.527 202.082 158.023 201.979 157.575 201.774C157.137 201.569 156.791 201.275 156.539 200.892C156.297 200.5 156.175 200.047 156.175 199.534C156.175 199.049 156.297 198.61 156.539 198.218C156.782 197.817 157.123 197.504 157.561 197.28C158.009 197.056 158.518 196.944 159.087 196.944C159.797 196.944 160.389 197.103 160.865 197.42C161.351 197.737 161.663 198.162 161.803 198.694L161.649 198.778C161.621 198.293 161.649 197.905 161.733 197.616C161.827 197.317 161.99 197.103 162.223 196.972C162.466 196.832 162.811 196.767 163.259 196.776L163.371 197.798H163.161C162.891 197.798 162.671 197.845 162.503 197.938C162.335 198.022 162.209 198.162 162.125 198.358C162.051 198.554 162.004 198.815 161.985 199.142L161.971 199.492C161.953 200.015 161.827 200.472 161.593 200.864C161.36 201.247 161.029 201.545 160.599 201.76C160.179 201.975 159.675 202.082 159.087 202.082ZM159.017 205.96C159.904 205.96 160.543 205.876 160.935 205.708C161.337 205.549 161.537 205.293 161.537 204.938C161.537 204.705 161.449 204.532 161.271 204.42C161.103 204.317 160.842 204.266 160.487 204.266H157.953C157.599 204.266 157.319 204.336 157.113 204.476C156.917 204.616 156.819 204.807 156.819 205.05C156.819 205.367 156.997 205.596 157.351 205.736C157.715 205.885 158.271 205.96 159.017 205.96ZM158.975 206.926C157.93 206.926 157.137 206.791 156.595 206.52C156.054 206.249 155.783 205.857 155.783 205.344C155.783 205.045 155.877 204.784 156.063 204.56C156.25 204.345 156.493 204.182 156.791 204.07C156.539 203.986 156.339 203.851 156.189 203.664C156.04 203.477 155.965 203.235 155.965 202.936C155.965 202.684 156.035 202.455 156.175 202.25C156.315 202.045 156.493 201.872 156.707 201.732C156.931 201.592 157.16 201.489 157.393 201.424L157.813 201.802C157.571 201.867 157.361 201.975 157.183 202.124C157.006 202.264 156.917 202.427 156.917 202.614C156.917 202.81 157.001 202.955 157.169 203.048C157.337 203.132 157.608 203.174 157.981 203.174H160.543C161.234 203.174 161.771 203.319 162.153 203.608C162.545 203.897 162.741 204.303 162.741 204.826C162.741 205.507 162.424 206.025 161.789 206.38C161.155 206.744 160.217 206.926 158.975 206.926ZM159.087 201.144C159.433 201.144 159.731 201.083 159.983 200.962C160.245 200.831 160.445 200.645 160.585 200.402C160.725 200.159 160.795 199.87 160.795 199.534C160.795 199.189 160.725 198.895 160.585 198.652C160.445 198.409 160.245 198.227 159.983 198.106C159.731 197.985 159.433 197.924 159.087 197.924C158.733 197.924 158.425 197.989 158.163 198.12C157.911 198.241 157.715 198.423 157.575 198.666C157.435 198.899 157.365 199.189 157.365 199.534C157.365 199.879 157.435 200.173 157.575 200.416C157.715 200.649 157.911 200.831 158.163 200.962C158.425 201.083 158.733 201.144 159.087 201.144ZM166.884 204.196C166.203 204.196 165.62 204.047 165.134 203.748C164.649 203.44 164.28 203.011 164.028 202.46C163.776 201.9 163.65 201.251 163.65 200.514C163.65 199.786 163.786 199.151 164.056 198.61C164.336 198.069 164.714 197.658 165.19 197.378C165.676 197.089 166.217 196.944 166.814 196.944C167.449 196.944 167.995 197.089 168.452 197.378C168.919 197.667 169.274 198.083 169.516 198.624C169.759 199.156 169.88 199.795 169.88 200.542V200.794H164.322L164.854 200.248C164.854 200.304 164.854 200.346 164.854 200.374C164.854 200.402 164.854 200.444 164.854 200.5C164.854 200.556 164.854 200.617 164.854 200.682C164.854 201.186 164.929 201.625 165.078 201.998C165.237 202.371 165.47 202.665 165.778 202.88C166.096 203.085 166.474 203.188 166.912 203.188C167.351 203.188 167.734 203.062 168.06 202.81C168.387 202.549 168.639 202.194 168.816 201.746L169.81 202.25C169.67 202.605 169.465 202.931 169.194 203.23C168.933 203.519 168.606 203.753 168.214 203.93C167.822 204.107 167.379 204.196 166.884 204.196ZM168.648 200.038C168.639 199.571 168.56 199.184 168.41 198.876C168.261 198.559 168.051 198.325 167.78 198.176C167.51 198.017 167.188 197.938 166.814 197.938C166.46 197.938 166.142 198.013 165.862 198.162C165.592 198.311 165.372 198.526 165.204 198.806C165.036 199.086 164.934 199.427 164.896 199.828H169.236L168.648 200.206V200.038Z" fill="#222129"/>
<path d="M425.296 199.56C424.792 200.256 423.496 200.616 422.584 200.616H421.72V198.672H422.248C423.856 198.672 425.224 197.712 425.632 195.96H427.456V213H425.296V199.56ZM434.142 204.384C431.67 204.384 430.038 202.704 430.038 200.016C430.038 197.424 431.67 195.72 434.118 195.72C436.518 195.72 438.198 197.448 438.198 200.088C438.198 202.704 436.518 204.384 434.142 204.384ZM434.142 202.848C435.51 202.848 436.422 201.816 436.422 200.088C436.422 198.336 435.51 197.256 434.118 197.256C432.702 197.256 431.766 198.312 431.766 200.016C431.766 201.816 432.702 202.848 434.142 202.848ZM432.605 213.36L443.094 195.96H445.086L434.598 213.36H432.605ZM443.67 213.384C441.198 213.384 439.566 211.704 439.566 209.016C439.566 206.424 441.198 204.72 443.646 204.72C446.046 204.72 447.726 206.448 447.726 209.088C447.726 211.704 446.046 213.384 443.67 213.384ZM443.67 211.848C445.038 211.848 445.95 210.816 445.95 209.088C445.95 207.336 445.038 206.256 443.646 206.256C442.23 206.256 441.294 207.312 441.294 209.016C441.294 210.816 442.23 211.848 443.67 211.848Z" fill="#222129"/>
</svg>
