<svg width="780" height="256" viewBox="0 0 780 256" fill="none" xmlns="http://www.w3.org/2000/svg">
<g clip-path="url(#clip0_311_46522)">
<path d="M0 10C0 4.47715 4.47715 0 10 0H770C775.523 0 780 4.47715 780 10V246C780 251.523 775.523 256 770 256H9.99998C4.47713 256 0 251.523 0 246V10Z" fill="white"/>
<path d="M0 256L1.01411e-05 -3.51667e-06" stroke="#DCDCE0" stroke-width="0.5" stroke-linejoin="round"/>
<path d="M156 256L156 -3.51667e-06" stroke="#DCDCE0" stroke-linejoin="round" stroke-dasharray="2 2"/>
<path d="M312 256L312 -3.51667e-06" stroke="#DCDCE0" stroke-linejoin="round" stroke-dasharray="2 2"/>
<path d="M468 256L468 -3.51667e-06" stroke="#DCDCE0" stroke-linejoin="round" stroke-dasharray="2 2"/>
<path d="M624 256L624 -3.51667e-06" stroke="#DCDCE0" stroke-linejoin="round" stroke-dasharray="2 2"/>
<path d="M780 256L780 -3.51667e-06" stroke="#DCDCE0" stroke-width="0.5" stroke-linejoin="round"/>
<path d="M780 64L-2.86102e-05 64" stroke="#DCDCE0" stroke-linejoin="round" stroke-dasharray="2 2"/>
<path d="M780 128L-2.86102e-05 128" stroke="#DCDCE0" stroke-linejoin="round" stroke-dasharray="2 2"/>
<path d="M780 192L-2.86102e-05 192" stroke="#DCDCE0" stroke-linejoin="round" stroke-dasharray="2 2"/>
<path d="M18.456 82.708C18.456 83.344 18.24 83.848 17.904 84.244C17.412 84.832 16.596 85.156 15.72 85.156C14.844 85.156 14.028 84.832 13.536 84.244C13.2 83.848 12.984 83.344 12.984 82.708C12.984 81.796 13.524 81.004 14.292 80.656C13.608 80.296 13.152 79.576 13.152 78.772C13.152 78.088 13.428 77.548 13.836 77.164C14.304 76.732 14.988 76.492 15.72 76.492C16.452 76.492 17.136 76.732 17.604 77.164C18.012 77.548 18.288 78.088 18.288 78.772C18.288 79.576 17.832 80.296 17.148 80.656C17.916 81.004 18.456 81.796 18.456 82.708ZM17.256 78.772C17.256 77.92 16.548 77.392 15.72 77.392C14.892 77.392 14.184 77.92 14.184 78.772C14.184 79.54 14.76 80.212 15.72 80.212C16.68 80.212 17.256 79.54 17.256 78.772ZM17.424 82.66C17.424 81.772 16.776 81.1 15.72 81.1C14.664 81.1 14.016 81.772 14.016 82.66C14.016 83.644 14.748 84.256 15.72 84.256C16.692 84.256 17.424 83.644 17.424 82.66ZM25.1534 78.304C25.1534 79.456 24.2894 80.272 23.1614 80.272C22.0334 80.272 21.1814 79.456 21.1814 78.304C21.1814 77.152 22.0334 76.336 23.1614 76.336C24.2894 76.336 25.1534 77.152 25.1534 78.304ZM24.2534 78.304C24.2534 77.644 23.7854 77.188 23.1614 77.188C22.5374 77.188 22.0814 77.644 22.0814 78.304C22.0814 78.964 22.5374 79.42 23.1614 79.42C23.7854 79.42 24.2534 78.964 24.2534 78.304ZM32.7148 82.288H33.8188C33.7468 83.944 32.4148 85.168 30.7588 85.168C29.9068 85.168 29.1628 84.844 28.5628 84.256C27.6028 83.32 27.5188 82.012 27.5188 80.752C27.5188 79.492 27.6028 78.184 28.5628 77.248C29.1628 76.66 29.9068 76.336 30.7588 76.336C32.4028 76.336 33.7348 77.488 33.8068 79.156H32.6908C32.6668 78.688 32.4628 78.232 32.1988 77.956C31.8508 77.572 31.3468 77.344 30.7588 77.344C30.1828 77.344 29.7148 77.584 29.3188 77.992C28.6228 78.712 28.6228 79.816 28.6228 80.752C28.6228 81.688 28.6228 82.792 29.3188 83.512C29.7148 83.92 30.1828 84.16 30.7588 84.16C31.8388 84.16 32.6908 83.38 32.7148 82.288Z" fill="#737680"/>
<path d="M18.564 141.584L15.06 149H13.956L17.46 141.584H12.972V140.66H18.564V141.584ZM25.1534 142.304C25.1534 143.456 24.2894 144.272 23.1614 144.272C22.0334 144.272 21.1814 143.456 21.1814 142.304C21.1814 141.152 22.0334 140.336 23.1614 140.336C24.2894 140.336 25.1534 141.152 25.1534 142.304ZM24.2534 142.304C24.2534 141.644 23.7854 141.188 23.1614 141.188C22.5374 141.188 22.0814 141.644 22.0814 142.304C22.0814 142.964 22.5374 143.42 23.1614 143.42C23.7854 143.42 24.2534 142.964 24.2534 142.304ZM32.7148 146.288H33.8188C33.7468 147.944 32.4148 149.168 30.7588 149.168C29.9068 149.168 29.1628 148.844 28.5628 148.256C27.6028 147.32 27.5188 146.012 27.5188 144.752C27.5188 143.492 27.6028 142.184 28.5628 141.248C29.1628 140.66 29.9068 140.336 30.7588 140.336C32.4028 140.336 33.7348 141.488 33.8068 143.156H32.6908C32.6668 142.688 32.4628 142.232 32.1988 141.956C31.8508 141.572 31.3468 141.344 30.7588 141.344C30.1828 141.344 29.7148 141.584 29.3188 141.992C28.6228 142.712 28.6228 143.816 28.6228 144.752C28.6228 145.688 28.6228 146.792 29.3188 147.512C29.7148 147.92 30.1828 148.16 30.7588 148.16C31.8388 148.16 32.6908 147.38 32.7148 146.288Z" fill="#737680"/>
<path d="M18.66 210.312C18.66 211.152 18.36 211.836 17.892 212.352C17.448 212.832 16.752 213.156 15.888 213.156C14.952 213.156 14.232 212.676 13.824 212.112C13.224 211.284 13.08 210.132 13.08 208.944C13.08 207.756 13.212 206.58 13.776 205.68C14.172 205.056 14.88 204.492 15.936 204.492C16.644 204.492 17.28 204.744 17.7 205.164C18.072 205.536 18.348 206.064 18.372 206.676H17.34C17.316 206.268 17.124 205.944 16.872 205.728C16.632 205.524 16.296 205.416 15.9 205.416C15.372 205.416 15 205.668 14.748 205.956C14.22 206.556 14.124 207.6 14.112 208.476C14.376 207.9 15.228 207.504 16.02 207.504C16.776 207.504 17.412 207.768 17.808 208.152C18.348 208.668 18.66 209.436 18.66 210.312ZM17.628 210.324C17.628 209.736 17.436 209.244 17.124 208.896C16.872 208.608 16.44 208.416 15.912 208.416C15.384 208.416 14.976 208.644 14.724 208.932C14.412 209.28 14.244 209.736 14.244 210.324C14.244 210.912 14.436 211.368 14.76 211.716C15.024 212.004 15.408 212.232 15.936 212.232C16.464 212.232 16.86 212.04 17.124 211.752C17.448 211.404 17.628 210.912 17.628 210.324ZM25.1534 206.304C25.1534 207.456 24.2894 208.272 23.1614 208.272C22.0334 208.272 21.1814 207.456 21.1814 206.304C21.1814 205.152 22.0334 204.336 23.1614 204.336C24.2894 204.336 25.1534 205.152 25.1534 206.304ZM24.2534 206.304C24.2534 205.644 23.7854 205.188 23.1614 205.188C22.5374 205.188 22.0814 205.644 22.0814 206.304C22.0814 206.964 22.5374 207.42 23.1614 207.42C23.7854 207.42 24.2534 206.964 24.2534 206.304ZM32.7148 210.288H33.8188C33.7468 211.944 32.4148 213.168 30.7588 213.168C29.9068 213.168 29.1628 212.844 28.5628 212.256C27.6028 211.32 27.5188 210.012 27.5188 208.752C27.5188 207.492 27.6028 206.184 28.5628 205.248C29.1628 204.66 29.9068 204.336 30.7588 204.336C32.4028 204.336 33.7348 205.488 33.8068 207.156H32.6908C32.6668 206.688 32.4628 206.232 32.1988 205.956C31.8508 205.572 31.3468 205.344 30.7588 205.344C30.1828 205.344 29.7148 205.584 29.3188 205.992C28.6228 206.712 28.6228 207.816 28.6228 208.752C28.6228 209.688 28.6228 210.792 29.3188 211.512C29.7148 211.92 30.1828 212.16 30.7588 212.16C31.8388 212.16 32.6908 211.38 32.7148 210.288Z" fill="#737680"/>
<path d="M174.6 213H173.292L169.884 206.16V213H168.84V204.492H170.172L173.568 211.368V204.492H174.6V213ZM182.413 208.752C182.413 210.108 182.305 211.344 181.381 212.244C180.769 212.844 180.013 213.168 179.161 213.168C178.309 213.168 177.553 212.844 176.941 212.244C176.017 211.344 175.909 210.108 175.909 208.752C175.909 207.396 176.017 206.16 176.941 205.26C177.553 204.66 178.309 204.336 179.161 204.336C180.013 204.336 180.769 204.66 181.381 205.26C182.305 206.16 182.413 207.396 182.413 208.752ZM181.309 208.752C181.309 207.864 181.333 206.724 180.637 206.004C180.229 205.584 179.737 205.356 179.161 205.356C178.585 205.356 178.093 205.584 177.685 206.004C176.989 206.724 177.013 207.864 177.013 208.752C177.013 209.64 176.989 210.78 177.685 211.5C178.093 211.92 178.585 212.148 179.161 212.148C179.737 212.148 180.229 211.92 180.637 211.5C181.333 210.78 181.309 209.64 181.309 208.752ZM189.891 204.492L189.303 213H188.019L186.603 208.308L185.223 213H183.927L183.339 204.492H184.347L184.779 211.428L186.123 206.928H187.119L188.463 211.416L188.883 204.492H189.891Z" fill="#737680"/>
<path d="M331.032 209.124H328.14V212.28H327.3V209.124H324.42V208.296H327.3V205.332H328.14V208.296H331.032V209.124ZM338.017 210.252C338.017 211.128 337.777 211.836 337.309 212.352C336.877 212.832 336.205 213.168 335.329 213.168C334.513 213.168 333.817 212.892 333.361 212.448C332.893 211.992 332.617 211.368 332.581 210.6H333.601C333.625 211.128 333.805 211.512 334.081 211.788C334.357 212.064 334.789 212.232 335.317 212.232C335.893 212.232 336.313 212.004 336.565 211.68C336.841 211.332 336.985 210.864 336.985 210.3C336.985 209.724 336.817 209.22 336.505 208.872C336.241 208.584 335.845 208.404 335.317 208.404C334.753 208.404 334.189 208.656 333.901 209.136H332.761L332.989 204.66H337.597V205.584H333.865L333.733 208.248C334.105 207.708 334.813 207.492 335.521 207.492C336.253 207.492 336.853 207.756 337.261 208.176C337.753 208.68 338.017 209.424 338.017 210.252ZM345.855 213H344.847V208.692C344.847 208.152 344.727 207.672 344.115 207.672C343.863 207.672 343.695 207.804 343.551 207.948C343.251 208.26 343.191 208.8 343.191 209.412V213H342.231V208.764C342.231 208.128 342.039 207.672 341.439 207.672C340.767 207.672 340.491 208.356 340.491 209.292V213H339.483V206.928H340.311L340.407 207.516C340.611 207.12 341.067 206.772 341.727 206.772C342.363 206.772 342.795 207.24 342.915 207.576C343.203 207.096 343.695 206.772 344.343 206.772C345.411 206.772 345.855 207.588 345.855 208.404V213ZM351.04 205.776H349.588V204.336H351.04V205.776ZM353.092 213H347.656V212.124H349.852V207.792H347.896V206.928H350.884V212.124H353.092V213ZM360.09 213H359.046V209.148C359.046 208.26 358.65 207.696 357.714 207.696C357.126 207.696 356.61 208.116 356.346 208.668C356.142 209.112 356.082 209.76 356.082 210.228V213H355.05V206.928H355.95L356.034 207.84C356.394 207.144 357.222 206.772 357.93 206.772C359.31 206.772 360.09 207.6 360.09 209.004V213Z" fill="#737680"/>
<path d="M487.032 209.124H484.14V212.28H483.3V209.124H480.42V208.296H483.3V205.332H484.14V208.296H487.032V209.124ZM494.245 213H488.689V212.064H490.957V205.824L488.701 207.18V206.088L491.005 204.66H491.989V212.064H494.245V213ZM501.387 208.824C501.387 210.432 501.243 211.596 500.403 212.448C499.995 212.856 499.431 213.156 498.603 213.156C497.775 213.156 497.211 212.856 496.803 212.448C495.963 211.596 495.819 210.432 495.819 208.824C495.819 207.216 495.963 206.04 496.803 205.188C497.211 204.78 497.775 204.492 498.603 204.492C499.431 204.492 499.995 204.78 500.403 205.188C501.243 206.04 501.387 207.216 501.387 208.824ZM496.911 210.24L500.043 206.4C499.947 206.172 499.815 205.968 499.635 205.8C499.395 205.572 499.047 205.416 498.603 205.416C498.159 205.416 497.811 205.572 497.571 205.8C496.863 206.472 496.875 207.696 496.875 208.824C496.875 209.292 496.863 209.784 496.911 210.24ZM500.331 208.824C500.331 208.38 500.331 207.924 500.295 207.492L497.199 211.32C497.295 211.524 497.415 211.704 497.571 211.848C497.811 212.076 498.159 212.232 498.603 212.232C499.047 212.232 499.395 212.076 499.635 211.848C500.343 211.176 500.331 209.952 500.331 208.824ZM509.296 213H508.288V208.692C508.288 208.152 508.168 207.672 507.556 207.672C507.304 207.672 507.136 207.804 506.992 207.948C506.692 208.26 506.632 208.8 506.632 209.412V213H505.672V208.764C505.672 208.128 505.48 207.672 504.88 207.672C504.208 207.672 503.932 208.356 503.932 209.292V213H502.924V206.928H503.752L503.848 207.516C504.052 207.12 504.508 206.772 505.168 206.772C505.804 206.772 506.236 207.24 506.356 207.576C506.644 207.096 507.136 206.772 507.784 206.772C508.852 206.772 509.296 207.588 509.296 208.404V213ZM514.482 205.776H513.03V204.336H514.482V205.776ZM516.534 213H511.098V212.124H513.294V207.792H511.338V206.928H514.326V212.124H516.534V213ZM523.531 213H522.487V209.148C522.487 208.26 522.091 207.696 521.155 207.696C520.567 207.696 520.051 208.116 519.787 208.668C519.583 209.112 519.523 209.76 519.523 210.228V213H518.491V206.928H519.391L519.475 207.84C519.835 207.144 520.663 206.772 521.371 206.772C522.751 206.772 523.531 207.6 523.531 209.004V213Z" fill="#737680"/>
<path d="M643.032 209.124H640.14V212.28H639.3V209.124H636.42V208.296H639.3V205.332H640.14V208.296H643.032V209.124ZM650.245 213H644.689V212.064H646.957V205.824L644.701 207.18V206.088L647.005 204.66H647.989V212.064H650.245V213ZM657.459 210.252C657.459 211.128 657.219 211.836 656.751 212.352C656.319 212.832 655.647 213.168 654.771 213.168C653.955 213.168 653.259 212.892 652.803 212.448C652.335 211.992 652.059 211.368 652.023 210.6H653.043C653.067 211.128 653.247 211.512 653.523 211.788C653.799 212.064 654.231 212.232 654.759 212.232C655.335 212.232 655.755 212.004 656.007 211.68C656.283 211.332 656.427 210.864 656.427 210.3C656.427 209.724 656.259 209.22 655.947 208.872C655.683 208.584 655.287 208.404 654.759 208.404C654.195 208.404 653.631 208.656 653.343 209.136H652.203L652.431 204.66H657.039V205.584H653.307L653.175 208.248C653.547 207.708 654.255 207.492 654.963 207.492C655.695 207.492 656.295 207.756 656.703 208.176C657.195 208.68 657.459 209.424 657.459 210.252ZM665.296 213H664.288V208.692C664.288 208.152 664.168 207.672 663.556 207.672C663.304 207.672 663.136 207.804 662.992 207.948C662.692 208.26 662.632 208.8 662.632 209.412V213H661.672V208.764C661.672 208.128 661.48 207.672 660.88 207.672C660.208 207.672 659.932 208.356 659.932 209.292V213H658.924V206.928H659.752L659.848 207.516C660.052 207.12 660.508 206.772 661.168 206.772C661.804 206.772 662.236 207.24 662.356 207.576C662.644 207.096 663.136 206.772 663.784 206.772C664.852 206.772 665.296 207.588 665.296 208.404V213ZM670.482 205.776H669.03V204.336H670.482V205.776ZM672.534 213H667.098V212.124H669.294V207.792H667.338V206.928H670.326V212.124H672.534V213ZM679.531 213H678.487V209.148C678.487 208.26 678.091 207.696 677.155 207.696C676.567 207.696 676.051 208.116 675.787 208.668C675.583 209.112 675.523 209.76 675.523 210.228V213H674.491V206.928H675.391L675.475 207.84C675.835 207.144 676.663 206.772 677.371 206.772C678.751 206.772 679.531 207.6 679.531 209.004V213Z" fill="#737680"/>
<path d="M156 192L313 130C313 130 533.508 89.7746 624.5 64" stroke="#DC2D28" stroke-width="2"/>
<path d="M0 192H156" stroke="#DCDCE0"/>
<circle cx="156" cy="192" r="4.5" fill="white" stroke="#DC2D28"/>
<circle cx="312" cy="130" r="4.5" fill="white" stroke="#DC2D28"/>
<circle cx="468" cy="100" r="4.5" fill="white" stroke="#DC2D28"/>
<circle cx="624" cy="64" r="4.5" fill="white" stroke="#DC2D28"/>
</g>
<path d="M10 0.5H770C775.247 0.5 779.5 4.75329 779.5 10V246C779.5 251.247 775.247 255.5 770 255.5H10C4.7533 255.5 0.5 251.247 0.5 246V10C0.5 4.7533 4.7533 0.5 10 0.5Z" stroke="#DCDCE0"/>
<defs>
<clipPath id="clip0_311_46522">
<path d="M0 10C0 4.47715 4.47715 0 10 0H770C775.523 0 780 4.47715 780 10V246C780 251.523 775.523 256 770 256H9.99998C4.47713 256 0 251.523 0 246V10Z" fill="white"/>
</clipPath>
</defs>
</svg>
