<svg width="20" height="20" viewBox="0 0 20 20" fill="none" xmlns="http://www.w3.org/2000/svg">
<path d="M17.9543 14.8765L16.2503 10.1193V7.4296C16.2503 3.88411 13.4463 1 10.0003 1C6.55437 1 3.75039 3.88411 3.75039 7.42857V10.1183L2.0464 14.8765C1.9614 15.113 1.9944 15.3774 2.1354 15.5841C2.2754 15.7909 2.5054 15.9143 2.75039 15.9143H6.53737C6.78137 17.6567 8.24136 19 10.0003 19C11.7593 19 13.2193 17.6567 13.4633 15.9143H17.2503C17.4953 15.9143 17.7253 15.7909 17.8653 15.5841C18.0053 15.3774 18.0383 15.113 17.9543 14.8765ZM10.0003 17.4571C9.07135 17.4571 8.29036 16.7999 8.06636 15.9143H11.9333C11.7093 16.7999 10.9283 17.4571 9.99935 17.4571H10.0003ZM3.82639 14.3714L5.20438 10.5225C5.23538 10.4371 5.25038 10.3466 5.25038 10.2561V7.42857C5.25038 4.73474 7.38136 2.54286 10.0003 2.54286C12.6193 2.54286 14.7503 4.73474 14.7503 7.42857V10.2561C14.7503 10.3466 14.7663 10.4371 14.7963 10.5225L16.1743 14.3714H3.82639Z" fill="#737680"/>
</svg>
