<svg width="20" height="20" viewBox="0 0 20 20" fill="none" xmlns="http://www.w3.org/2000/svg">
<path d="M10 1C5.03714 1 1 5.03714 1 10C1 14.9629 5.03714 19 10 19C14.9629 19 19 14.9629 19 10C19 5.03714 14.9629 1 10 1ZM17.417 9.22857H13.8438C13.7769 7.22903 13.4488 5.3632 12.9047 3.91086C12.773 3.55806 12.6342 3.24846 12.4922 2.9728C15.1501 3.91806 17.1177 6.32903 17.417 9.22857ZM10 17.4571C9.65749 17.4571 9.06914 16.9573 8.54046 15.5481C8.05703 14.2593 7.76389 12.5858 7.70011 10.7714H12.3009C12.2361 12.5848 11.943 14.2593 11.4595 15.5471C10.9309 16.9562 10.3425 17.4571 10 17.4571ZM7.69909 9.22857C7.76389 7.4152 8.05703 5.74069 8.53943 4.45189C9.06811 3.04274 9.65646 2.54286 9.99897 2.54286C10.3415 2.54286 10.9298 3.04274 11.4585 4.45189C11.9419 5.74069 12.2351 7.41417 12.2989 9.22857H7.69806H7.69909ZM7.50777 2.9728C7.36583 3.24846 7.228 3.55806 7.09531 3.91086C6.55017 5.36423 6.22309 7.22903 6.15623 9.22857H2.58297C2.88229 6.32903 4.85097 3.91806 7.50777 2.9728ZM2.58297 10.7714H6.15623C6.22309 12.771 6.55017 14.6358 7.09531 16.0891C7.22697 16.4419 7.36583 16.7515 7.50777 17.0272C4.84994 16.0819 2.88229 13.671 2.58297 10.7714ZM12.4922 17.0272C12.6342 16.7515 12.772 16.4419 12.9047 16.0891C13.4498 14.6358 13.7769 12.771 13.8438 10.7714H17.417C17.1177 13.671 15.149 16.0819 12.4922 17.0272Z" fill="#737680"/>
</svg>
