<svg width="20" height="20" viewBox="0 0 20 20" fill="none" xmlns="http://www.w3.org/2000/svg">
<path d="M17.125 8.97143C16.9502 7.7536 16.4709 6.63246 15.7643 5.69029L17.0901 4.36446L15.6357 2.91006L14.31 4.23589C13.3679 3.52926 12.2468 3.04891 11.029 2.87406V1H8.972V2.87303C7.75321 3.04789 6.63214 3.52823 5.69002 4.23486L4.36426 2.90903L2.90995 4.36343L4.23673 5.69029C3.53014 6.63246 3.05085 7.7536 2.87601 8.97143H1V11.0286H2.87498C3.04983 12.2464 3.53014 13.3665 4.23673 14.3087L2.90892 15.6366L4.36324 17.091L5.69105 15.7631C6.63316 16.4697 7.75424 16.949 8.972 17.1239V19H11.029V17.1239C12.2468 16.949 13.3668 16.4697 14.309 15.7631L15.6368 17.091L17.0911 15.6366L15.7633 14.3087C16.4699 13.3665 16.9502 12.2454 17.125 11.0275H19V8.9704H17.1261L17.125 8.97143ZM14.1866 13.8016C14.1259 13.8685 14.0631 13.9343 13.9994 13.9981C13.8214 14.176 13.6301 14.3416 13.4296 14.4949C13.3936 14.5226 13.3566 14.5494 13.3195 14.5761C13.2815 14.6039 13.2424 14.6317 13.2033 14.6584C13.0398 14.7715 12.8701 14.8765 12.6952 14.9711C12.5121 15.0709 12.3229 15.1593 12.1285 15.2375C11.7778 15.3805 11.4096 15.4885 11.028 15.5584C10.7781 15.6047 10.522 15.6345 10.2607 15.6469C10.1743 15.651 10.0869 15.653 9.99846 15.653C9.82258 15.653 9.64876 15.6448 9.47803 15.6283C9.3073 15.6119 9.13759 15.5882 8.97097 15.5584C8.56265 15.4833 8.16976 15.3661 7.79744 15.2087C7.62774 15.1367 7.46317 15.0575 7.30273 14.9701C7.14228 14.8826 6.98697 14.788 6.83681 14.6872C6.82241 14.6779 6.80904 14.6666 6.79464 14.6574C6.65991 14.5638 6.52826 14.4661 6.40175 14.3622C6.12199 14.1318 5.86589 13.8746 5.63448 13.5949C5.5306 13.4683 5.43289 13.3377 5.33929 13.203C5.32901 13.1886 5.31872 13.1742 5.30844 13.1598C5.20662 13.0096 5.11199 12.8533 5.0256 12.6938C4.9824 12.6136 4.94023 12.5323 4.90115 12.4501C4.82195 12.2855 4.74996 12.1158 4.68619 11.943C4.62242 11.7702 4.56791 11.5922 4.5206 11.4112C4.48769 11.2847 4.46197 11.1561 4.43729 11.0275C4.427 10.972 4.41569 10.9154 4.40746 10.8599C4.37866 10.6727 4.35912 10.4824 4.34987 10.289C4.34472 10.1923 4.34267 10.0957 4.34267 9.99794C4.34267 9.82206 4.35089 9.64926 4.36735 9.47749C4.38381 9.30571 4.40746 9.13703 4.43729 8.9704C4.58334 8.17326 4.89601 7.43577 5.33827 6.79291C5.73013 6.22411 6.22382 5.7304 6.79258 5.33749C7.4354 4.89417 8.17388 4.58149 8.97097 4.43543C9.13759 4.40457 9.3073 4.38091 9.47803 4.36549C9.64876 4.35006 9.82258 4.3408 9.99846 4.3408C10.3502 4.3408 10.6937 4.37474 11.027 4.43543C11.8241 4.58149 12.5625 4.89417 13.2043 5.33749C13.7731 5.72937 14.2668 6.22309 14.6586 6.79291C15.1009 7.43577 15.4136 8.17326 15.5596 8.9704C15.6213 9.30366 15.6542 9.6472 15.6542 9.99794C15.6542 10.3487 15.6203 10.6933 15.5586 11.0275C15.43 11.7249 15.175 12.377 14.816 12.9592C14.7646 13.0425 14.7111 13.1238 14.6566 13.204C14.5126 13.4138 14.3552 13.6134 14.1845 13.8006L14.1866 13.8016Z" fill="#737680"/>
</svg>
