<svg width="42" height="42" viewBox="0 0 42 42" fill="none" xmlns="http://www.w3.org/2000/svg">
<g filter="url(#filter0_d_1399_9583)">
<path d="M5 7C5 4.79086 6.79086 3 9 3H33C35.2091 3 37 4.79086 37 7V31C37 33.2091 35.2091 35 33 35H9C6.79086 35 5 33.2091 5 31V7Z" fill="#45454F"/>
<path d="M33 2.5C35.4853 2.5 37.5 4.51472 37.5 7V31C37.5 33.4853 35.4853 35.5 33 35.5H9C6.51472 35.5 4.5 33.4853 4.5 31V7C4.5 4.51472 6.51472 2.5 9 2.5H33Z" stroke="white"/>
<path d="M16.2076 23.6076L15.3886 21.0076H11.8786L11.0726 23.6076H9.88965L12.8796 14.3906H14.4136L17.4166 23.6076H16.2076ZM13.6206 15.4046L12.2166 19.9156H15.0376L13.6206 15.4046Z" fill="white"/>
<path d="M23.2682 23.6076L21.4222 19.7726H19.5112V23.6076H18.3542V14.3906H21.4612C23.3332 14.3906 24.5292 15.4046 24.5292 17.0816C24.5292 18.2516 23.8532 19.2266 22.5792 19.5646L24.5682 23.6076H23.2682ZM23.3332 17.0816C23.3332 15.9116 22.5142 15.4566 21.4222 15.4566H19.5112V18.6936H21.4222C22.5142 18.6936 23.3332 18.2516 23.3332 17.0816Z" fill="white"/>
<path d="M30.8097 23.6076L28.9637 19.7726H27.0527V23.6076H25.8957V14.3906H29.0027C30.8747 14.3906 32.0707 15.4046 32.0707 17.0816C32.0707 18.2516 31.3947 19.2266 30.1207 19.5646L32.1097 23.6076H30.8097ZM30.8747 17.0816C30.8747 15.9116 30.0557 15.4566 28.9637 15.4566H27.0527V18.6936H28.9637C30.0557 18.6936 30.8747 18.2516 30.8747 17.0816Z" fill="white"/>
</g>
<defs>
<filter id="filter0_d_1399_9583" x="0" y="0" width="42" height="42" filterUnits="userSpaceOnUse" color-interpolation-filters="sRGB">
<feFlood flood-opacity="0" result="BackgroundImageFix"/>
<feColorMatrix in="SourceAlpha" type="matrix" values="0 0 0 0 0 0 0 0 0 0 0 0 0 0 0 0 0 0 127 0" result="hardAlpha"/>
<feOffset dy="2"/>
<feGaussianBlur stdDeviation="2"/>
<feComposite in2="hardAlpha" operator="out"/>
<feColorMatrix type="matrix" values="0 0 0 0 0 0 0 0 0 0 0 0 0 0 0 0 0 0 0.16 0"/>
<feBlend mode="normal" in2="BackgroundImageFix" result="effect1_dropShadow_1399_9583"/>
<feBlend mode="normal" in="SourceGraphic" in2="effect1_dropShadow_1399_9583" result="shape"/>
</filter>
</defs>
</svg>
