<svg width="34" height="34" viewBox="0 0 34 34" fill="none" xmlns="http://www.w3.org/2000/svg">
<path d="M29 0.5C31.4853 0.5 33.5 2.51472 33.5 5V29C33.5 31.4853 31.4853 33.5 29 33.5H5C2.51472 33.5 0.5 31.4853 0.5 29V5C0.5 2.51472 2.51472 0.5 5 0.5H29Z" fill="#45454F"/>
<path d="M29 0.5C31.4853 0.5 33.5 2.51472 33.5 5V29C33.5 31.4853 31.4853 33.5 29 33.5H5C2.51472 33.5 0.5 31.4853 0.5 29V5C0.5 2.51472 2.51472 0.5 5 0.5H29Z" stroke="white"/>
<path d="M12.2086 21.6085L11.3896 19.0085H7.87963L7.07362 21.6085H5.89062L8.88063 12.3915H10.4146L13.4176 21.6085H12.2086ZM9.62163 13.4055L8.21762 17.9165H11.0386L9.62163 13.4055Z" fill="white"/>
<path d="M19.2691 21.6085L17.4231 17.7735H15.5121V21.6085H14.3551V12.3915H17.4621C19.3341 12.3915 20.5301 13.4055 20.5301 15.0825C20.5301 16.2525 19.8541 17.2275 18.5801 17.5655L20.5691 21.6085H19.2691ZM19.3341 15.0825C19.3341 13.9125 18.5151 13.4575 17.4231 13.4575H15.5121V16.6945H17.4231C18.5151 16.6945 19.3341 16.2525 19.3341 15.0825Z" fill="white"/>
<path d="M26.8107 21.6085L24.9647 17.7735H23.0537V21.6085H21.8967V12.3915H25.0037C26.8757 12.3915 28.0717 13.4055 28.0717 15.0825C28.0717 16.2525 27.3957 17.2275 26.1217 17.5655L28.1107 21.6085H26.8107ZM26.8757 15.0825C26.8757 13.9125 26.0567 13.4575 24.9647 13.4575H23.0537V16.6945H24.9647C26.0567 16.6945 26.8757 16.2525 26.8757 15.0825Z" fill="white"/>
</svg>
