<svg width="42" height="42" viewBox="0 0 42 42" fill="none" xmlns="http://www.w3.org/2000/svg">
<g filter="url(#filter0_d_1178_119553)">
<path d="M5 7C5 4.79086 6.79086 3 9 3H33C35.2091 3 37 4.79086 37 7V31C37 33.2091 35.2091 35 33 35H9C6.79086 35 5 33.2091 5 31V7Z" fill="#DBEAFE" shape-rendering="crispEdges"/>
<path d="M33 2.5C35.4853 2.5 37.5 4.51472 37.5 7V31C37.5 33.4853 35.4853 35.5 33 35.5H9C6.51472 35.5 4.5 33.4853 4.5 31V7C4.5 4.51472 6.51472 2.5 9 2.5H33Z" stroke="white" shape-rendering="crispEdges"/>
<g clip-path="url(#clip0_1178_119553)">
<path d="M27.6689 24.333H22.3359V21.666H19.6689V24.333H14.3359V13.666H27.6689V24.333ZM16.1328 16.5996V17.3994H26.5332V16.5996H16.1328ZM16.1328 15.7998H26.5332V15H16.1328V15.7998Z" fill="#417DF7"/>
</g>
</g>
<defs>
<filter id="filter0_d_1178_119553" x="0" y="0" width="42" height="42" filterUnits="userSpaceOnUse" color-interpolation-filters="sRGB">
<feFlood flood-opacity="0" result="BackgroundImageFix"/>
<feColorMatrix in="SourceAlpha" type="matrix" values="0 0 0 0 0 0 0 0 0 0 0 0 0 0 0 0 0 0 127 0" result="hardAlpha"/>
<feOffset dy="2"/>
<feGaussianBlur stdDeviation="2"/>
<feComposite in2="hardAlpha" operator="out"/>
<feColorMatrix type="matrix" values="0 0 0 0 0 0 0 0 0 0 0 0 0 0 0 0 0 0 0.16 0"/>
<feBlend mode="normal" in2="BackgroundImageFix" result="effect1_dropShadow_1178_119553"/>
<feBlend mode="normal" in="SourceGraphic" in2="effect1_dropShadow_1178_119553" result="shape"/>
</filter>
<clipPath id="clip0_1178_119553">
<rect width="16" height="16" fill="white" transform="translate(13 11)"/>
</clipPath>
</defs>
</svg>
