<svg width="34" height="34" viewBox="0 0 34 34" fill="none" xmlns="http://www.w3.org/2000/svg">
<path d="M29 0.5C31.4853 0.5 33.5 2.51472 33.5 5V29C33.5 31.4853 31.4853 33.5 29 33.5H5C2.51472 33.5 0.5 31.4853 0.5 29V5C0.5 2.51472 2.51472 0.5 5 0.5H29Z" fill="#45454F"/>
<path d="M29 0.5C31.4853 0.5 33.5 2.51472 33.5 5V29C33.5 31.4853 31.4853 33.5 29 33.5H5C2.51472 33.5 0.5 31.4853 0.5 29V5C0.5 2.51472 2.51472 0.5 5 0.5H29Z" stroke="white"/>
<path d="M12.5198 16.9805C12.5198 18.2285 12.3378 19.3855 11.8178 20.2175C11.2978 21.0625 10.3488 21.6085 8.87978 21.6085H6.17578V12.3915H8.87978C10.3488 12.3915 11.3108 12.9765 11.8308 13.8215C12.3508 14.6535 12.5198 15.7325 12.5198 16.9805ZM11.3368 16.9805C11.3368 15.7975 11.2198 14.7055 10.5828 14.0555C10.2318 13.6915 9.67278 13.4575 8.85378 13.4575H7.33278V20.5425H8.85378C9.71178 20.5425 10.2708 20.2825 10.6218 19.9055C11.2328 19.2425 11.3368 18.1245 11.3368 16.9805Z" fill="white"/>
<path d="M13.9643 21.6085V12.3915H19.8923V13.4575H15.1213V16.3305H18.8783V17.4225H15.1213V20.5425H19.8923V21.6085H13.9643Z" fill="white"/>
<path d="M24.7428 12.3915C26.6278 12.3915 27.8238 13.4055 27.8238 15.1215C27.8238 16.8375 26.6278 17.8515 24.7428 17.8515H22.5328V21.6085H21.3758V12.3915H24.7428ZM22.5328 13.4445V16.7985H24.6518C25.8868 16.7985 26.6278 16.2525 26.6278 15.1215C26.6278 13.9905 25.8868 13.4445 24.6518 13.4445H22.5328Z" fill="white"/>
</svg>
