<svg width="16" height="16" viewBox="0 0 16 16" fill="none" xmlns="http://www.w3.org/2000/svg">
<g clip-path="url(#clip0_480_10314)">
<path d="M9.44667 2H3.33333C2.6 2 2 2.6 2 3.33333V12.6667C2 13.4 2.6 14 3.33333 14H12.6667C13.4 14 14 13.4 14 12.6667V6.55333C14 6.2 13.86 5.86 13.6067 5.61333L10.3867 2.39333C10.14 2.14 9.8 2 9.44667 2ZM5.33333 10H10.6667C11.0333 10 11.3333 10.3 11.3333 10.6667C11.3333 11.0333 11.0333 11.3333 10.6667 11.3333H5.33333C4.96667 11.3333 4.66667 11.0333 4.66667 10.6667C4.66667 10.3 4.96667 10 5.33333 10ZM5.33333 7.33333H10.6667C11.0333 7.33333 11.3333 7.63333 11.3333 8C11.3333 8.36667 11.0333 8.66667 10.6667 8.66667H5.33333C4.96667 8.66667 4.66667 8.36667 4.66667 8C4.66667 7.63333 4.96667 7.33333 5.33333 7.33333ZM5.33333 4.66667H8.66667C9.03333 4.66667 9.33333 4.96667 9.33333 5.33333C9.33333 5.7 9.03333 6 8.66667 6H5.33333C4.96667 6 4.66667 5.7 4.66667 5.33333C4.66667 4.96667 4.96667 4.66667 5.33333 4.66667Z" fill="#B8B8C0"/>
</g>
<defs>
<clipPath id="clip0_480_10314">
<rect width="16" height="16" fill="white"/>
</clipPath>
</defs>
</svg>
