<svg width="34" height="34" viewBox="0 0 34 34" fill="none" xmlns="http://www.w3.org/2000/svg">
<path d="M29 0.5C31.4853 0.5 33.5 2.51472 33.5 5V29C33.5 31.4853 31.4853 33.5 29 33.5H5C2.51472 33.5 0.5 31.4853 0.5 29V5C0.5 2.51472 2.51472 0.5 5 0.5H29Z" fill="#45454F"/>
<path d="M29 0.5C31.4853 0.5 33.5 2.51472 33.5 5V29C33.5 31.4853 31.4853 33.5 29 33.5H5C2.51472 33.5 0.5 31.4853 0.5 29V5C0.5 2.51472 2.51472 0.5 5 0.5H29Z" stroke="white"/>
<g clip-path="url(#clip0_941_66088)">
<path d="M23.6689 22.333H18.3359V19.666H15.6689V22.333H10.3359V11.666H23.6689V22.333ZM12.1328 14.5996V15.3994H22.5332V14.5996H12.1328ZM12.1328 13.7998H22.5332V13H12.1328V13.7998Z" fill="white"/>
</g>
<defs>
<clipPath id="clip0_941_66088">
<rect width="16" height="16" fill="white" transform="translate(9 9)"/>
</clipPath>
</defs>
</svg>
