<svg width="34" height="34" viewBox="0 0 34 34" fill="none" xmlns="http://www.w3.org/2000/svg">
<path d="M29 0.5C31.4853 0.5 33.5 2.51472 33.5 5V29C33.5 31.4853 31.4853 33.5 29 33.5H5C2.51472 33.5 0.5 31.4853 0.5 29V5C0.5 2.51472 2.51472 0.5 5 0.5H29Z" fill="#45454F"/>
<path d="M29 0.5C31.4853 0.5 33.5 2.51472 33.5 5V29C33.5 31.4853 31.4853 33.5 29 33.5H5C2.51472 33.5 0.5 31.4853 0.5 29V5C0.5 2.51472 2.51472 0.5 5 0.5H29Z" stroke="white"/>
<g clip-path="url(#clip0_941_66130)">
<path d="M16.9997 10.3333C14.4197 10.3333 12.333 12.42 12.333 15C12.333 16.16 12.6663 17.2466 13.273 18.2266C13.9063 19.2533 14.7397 20.1333 15.3797 21.16C15.693 21.66 15.9197 22.1266 16.1597 22.6666C16.333 23.0333 16.473 23.6666 16.9997 23.6666C17.5263 23.6666 17.6663 23.0333 17.833 22.6666C18.0797 22.1266 18.2997 21.66 18.613 21.16C19.253 20.14 20.0863 19.26 20.7197 18.2266C21.333 17.2466 21.6663 16.16 21.6663 15C21.6663 12.42 19.5797 10.3333 16.9997 10.3333ZM16.9997 16.8333C16.0797 16.8333 15.333 16.0866 15.333 15.1666C15.333 14.2466 16.0797 13.5 16.9997 13.5C17.9197 13.5 18.6663 14.2466 18.6663 15.1666C18.6663 16.0866 17.9197 16.8333 16.9997 16.8333Z" fill="white"/>
</g>
<defs>
<clipPath id="clip0_941_66130">
<rect width="16" height="16" fill="white" transform="translate(9 9)"/>
</clipPath>
</defs>
</svg>
