<svg width="48" height="48" viewBox="0 0 48 48" fill="none" xmlns="http://www.w3.org/2000/svg">
<path d="M0 4C0 1.79086 1.79086 0 4 0H44C46.2091 0 48 1.79086 48 4V44C48 46.2091 46.2091 48 44 48H4C1.79086 48 0 46.2091 0 44V4Z" fill="#CE365C"/>
<path d="M20.7323 12.9679C20.8744 10.4966 24.0476 10.1958 24.8765 12.9679C25.5395 15.1855 24.4733 18.7484 23.7944 21.2924C24.4733 22.7883 26.6909 25.5603 28.0125 26.7852C32.4255 26.1405 34.912 26.2124 36.5473 26.9572C38.765 27.9671 38.2946 30.452 36.1441 30.6532C34.3072 30.8251 31.5966 30.6532 27.7437 27.5803C26.7431 27.7092 23.7608 28.2636 20.1946 29.4498C18.8282 31.5557 16.9241 34.436 15.3112 35.6816C12.6679 37.7231 10.6742 37.0569 10.1142 35.9395C9.3526 33.9625 12.4439 32.1144 18.0665 29.4498C18.9551 27.7593 21.0055 23.5318 22.0987 20.1451C21.6208 19.0492 20.5531 16.0837 20.7323 12.9679ZM17.3049 30.6102C9.6438 33.7816 10.0023 35.918 11.4359 36.1329C12.8696 36.3478 14.6392 34.6071 17.3049 30.6102ZM36.0545 28.7192C35.9649 26.6993 32.7392 26.6992 28.5278 27.3869C33.4336 30.7391 36.0545 30.1375 36.0545 28.7192ZM23.4204 22.1006C22.2376 25.4529 21.0907 27.8095 20.6651 28.5688C23.8549 27.6233 26.3848 27.1147 27.2509 26.9786C25.4768 25.0532 23.958 22.9243 23.4204 22.1006ZM22.5019 19.0706C24.3612 13.3761 23.734 11.5711 22.3228 11.7644C20.8443 12.0008 21.0459 16.0407 22.5019 19.0706Z" fill="white"/>
</svg>
