<svg width="16" height="16" viewBox="0 0 16 16" fill="none" xmlns="http://www.w3.org/2000/svg">
<g clip-path="url(#clip0_941_44755)">
<path d="M7.9974 3C4.66406 3 1.8174 5.07333 0.664062 8C1.8174 10.9267 4.66406 13 7.9974 13C11.3307 13 14.1774 10.9267 15.3307 8C14.1774 5.07333 11.3307 3 7.9974 3ZM7.9974 11.3333C6.1574 11.3333 4.66406 9.84 4.66406 8C4.66406 6.16 6.1574 4.66667 7.9974 4.66667C9.8374 4.66667 11.3307 6.16 11.3307 8C11.3307 9.84 9.8374 11.3333 7.9974 11.3333ZM7.9974 6C6.89073 6 5.9974 6.89333 5.9974 8C5.9974 9.10667 6.89073 10 7.9974 10C9.10406 10 9.9974 9.10667 9.9974 8C9.9974 6.89333 9.10406 6 7.9974 6Z" fill="#B8B8C0"/>
</g>
<defs>
<clipPath id="clip0_941_44755">
<rect width="16" height="16" fill="white"/>
</clipPath>
</defs>
</svg>
