<svg width="20" height="20" viewBox="0 0 20 20" fill="none" xmlns="http://www.w3.org/2000/svg">
<g clip-path="url(#clip0_948_674)">
<path d="M8.16699 2.5C11.3885 2.5 14.0008 5.1115 14.001 8.33301C14.001 9.64292 13.5678 10.8515 12.8389 11.8252L16.6035 15.5898C16.948 15.9344 16.9631 16.4773 16.6377 16.8027C16.3123 17.1282 15.7694 17.1131 15.4248 16.7686L11.6602 13.0039C10.6863 13.7334 9.47739 14.167 8.16699 14.167C4.94548 14.1668 2.33398 11.5546 2.33398 8.33301C2.33416 5.1116 4.94559 2.50018 8.16699 2.5ZM8.16699 4.16699C5.86606 4.16717 4.00115 6.03208 4.00098 8.33301C4.00098 10.6341 5.86596 12.4998 8.16699 12.5C10.4682 12.5 12.334 10.6342 12.334 8.33301C12.3338 6.03197 10.4681 4.16699 8.16699 4.16699Z" fill="#737680"/>
</g>
<defs>
<clipPath id="clip0_948_674">
<rect width="20" height="20" fill="white"/>
</clipPath>
</defs>
</svg>
