<svg width="16" height="16" viewBox="0 0 16 16" fill="none" xmlns="http://www.w3.org/2000/svg">
<g clip-path="url(#clip0_ship_grey)">
<path d="M13.3336 13.9997C12.4069 13.9997 11.4803 13.6864 10.6669 13.1197C9.04025 14.2597 6.96025 14.2597 5.33358 13.1197C4.52025 13.6864 3.59358 13.9997 2.66692 13.9997H1.33359V15.333H2.66692C3.58692 15.333 4.49358 15.0997 5.33358 14.673C7.01358 15.533 8.98692 15.533 10.6669 14.673C11.5069 15.1064 12.4136 15.333 13.3336 15.333H14.6669V13.9997H13.3336ZM2.63358 12.6664H2.66692C3.73358 12.6664 4.68025 12.0797 5.33358 11.333C5.98692 12.0797 6.93358 12.6664 8.00025 12.6664C9.06692 12.6664 10.0136 12.0797 10.6669 11.333C11.3203 12.0797 12.2669 12.6664 13.3336 12.6664H13.3669L14.6269 8.21301C14.6803 8.03968 14.6669 7.85301 14.5869 7.69301C14.5069 7.53301 14.3603 7.41301 14.1869 7.35968L13.3336 7.07968V4.00635C13.3336 3.27301 12.7336 2.66635 12.0003 2.66635H10.0003V0.666351H6.00025V2.66635H4.00025C3.26692 2.66635 2.66692 3.27301 2.66692 4.00635V7.07968L1.80692 7.35968C1.63358 7.41301 1.48692 7.53301 1.40692 7.69301C1.32692 7.85301 1.30692 8.03968 1.36692 8.21301L2.63358 12.6664ZM4.00025 4.00635H12.0003V6.65301L8.00025 5.33301L4.00025 6.65301V4.00635Z" fill="#B8B8C0"/>
</g>
<defs>
<clipPath id="clip0_ship_grey">
<rect width="16" height="16" fill="white"/>
</clipPath>
</defs>
</svg>
