<svg width="32" height="32" viewBox="0 0 32 32" fill="none" xmlns="http://www.w3.org/2000/svg">
<rect width="32" height="32" rx="4" fill="#417DF7" fill-opacity="0.08"/>
<g clip-path="url(#clip0_1185_21580)">
<path d="M22.667 23.4997C21.5086 23.4997 20.3503 23.108 19.3336 22.3997C17.3003 23.8247 14.7003 23.8247 12.667 22.3997C11.6503 23.108 10.492 23.4997 9.33365 23.4997H7.66698V25.1663H9.33365C10.4836 25.1663 11.617 24.8747 12.667 24.3413C14.767 25.4163 17.2336 25.4163 19.3336 24.3413C20.3836 24.883 21.517 25.1663 22.667 25.1663H24.3336V23.4997H22.667ZM9.29198 21.833H9.33365C10.667 21.833 11.8503 21.0997 12.667 20.1663C13.4836 21.0997 14.667 21.833 16.0003 21.833C17.3336 21.833 18.517 21.0997 19.3336 20.1663C20.1503 21.0997 21.3336 21.833 22.667 21.833H22.7086L24.2836 16.2663C24.3503 16.0497 24.3336 15.8163 24.2336 15.6163C24.1336 15.4163 23.9503 15.2663 23.7336 15.1997L22.667 14.8497V10.9997C22.667 10.083 21.917 9.33301 21.0003 9.33301H18.5003V6.83301H13.5003V9.33301H11.0003C10.0836 9.33301 9.33365 10.083 9.33365 10.9997V14.8497L8.25865 15.1997C8.04198 15.2663 7.85865 15.4163 7.75865 15.6163C7.65865 15.8163 7.63365 16.0497 7.70865 16.2663L9.29198 21.833ZM11.0003 10.9997H21.0003V14.308L16.0003 12.6663L11.0003 14.308V10.9997Z" fill="#1E6EE1"/>
</g>
<defs>
<clipPath id="clip0_1185_21580">
<rect width="20" height="20" fill="white" transform="translate(6 6)"/>
</clipPath>
</defs>
</svg>
