<svg width="20" height="20" viewBox="0 0 20 20" fill="none" xmlns="http://www.w3.org/2000/svg">
<path d="M14.9453 9.67093L15.1467 8.94848L14.9453 9.67093ZM15.2946 10.0228L16.0253 9.8538L15.2946 10.0228ZM10.6679 4.73823L10.9279 4.03473V4.03473L10.6679 4.73823ZM10.9706 5.1322L10.2288 5.24268L10.9706 5.1322ZM17.2631 1.66663C17.2631 1.25241 16.9273 0.916626 16.5131 0.916626C16.0989 0.916626 15.7631 1.25241 15.7631 1.66663H16.5131H17.2631ZM15.7631 7.16712C15.7631 7.58134 16.0989 7.91712 16.5131 7.91712C16.9273 7.91712 17.2631 7.58134 17.2631 7.16712H16.5131H15.7631ZM13.8131 3.67908C13.3989 3.67908 13.0631 4.01486 13.0631 4.42908C13.0631 4.84329 13.3989 5.17908 13.8131 5.17908V4.42908V3.67908ZM19.1663 5.17908C19.5806 5.17908 19.9163 4.84329 19.9163 4.42908C19.9163 4.01486 19.5806 3.67908 19.1663 3.67908V4.42908V5.17908ZM6.34398 12.8172C6.12861 12.4634 5.66719 12.3512 5.31337 12.5665C4.95955 12.7819 4.84732 13.2433 5.06269 13.5971L5.70334 13.2072L6.34398 12.8172ZM11.6151 13.5971C11.8305 13.2433 11.7182 12.7819 11.3644 12.5665C11.0106 12.3512 10.5492 12.4634 10.3338 12.8172L10.9745 13.2072L11.6151 13.5971ZM6.02405 9.11871V8.36871C5.60984 8.36871 5.27405 8.70449 5.27405 9.11871H6.02405ZM6.09978 9.11871H6.84978C6.84978 8.70449 6.51399 8.36871 6.09978 8.36871V9.11871ZM10.5855 9.11871V8.36871C10.1713 8.36871 9.83553 8.70449 9.83553 9.11871H10.5855ZM10.6529 9.11871H11.4029C11.4029 8.70449 11.0671 8.36871 10.6529 8.36871V9.11871ZM6.09978 9.18062V9.93062C6.51399 9.93062 6.84978 9.59483 6.84978 9.18062H6.09978ZM6.02405 9.18062H5.27405C5.27405 9.59483 5.60984 9.93062 6.02405 9.93062V9.18062ZM10.6529 9.18062V9.93062C11.0671 9.93062 11.4029 9.59483 11.4029 9.18062H10.6529ZM10.5855 9.18062H9.83553C9.83553 9.59483 10.1713 9.93062 10.5855 9.93062V9.18062ZM10.6679 4.73823L10.9279 4.03473C10.0639 3.7154 9.13153 3.54146 8.16068 3.54146V4.29146V5.04146C8.95118 5.04146 9.70761 5.1829 10.4079 5.44172L10.6679 4.73823ZM14.9453 9.67093L15.1467 8.94848C13.3655 8.4519 11.9952 6.9207 11.7124 5.02172L10.9706 5.1322L10.2288 5.24268C10.5982 7.72341 12.3888 9.73681 14.7438 10.3934L14.9453 9.67093ZM15.4884 11.729H16.2384C16.2384 11.0847 16.1648 10.4568 16.0253 9.8538L15.2946 10.0228L14.5639 10.1918C14.6779 10.6846 14.7384 11.1992 14.7384 11.729H15.4884ZM8.16068 19.1666V19.9166C12.6323 19.9166 16.2384 16.2404 16.2384 11.729H15.4884H14.7384C14.7384 15.4331 11.7829 18.4166 8.16068 18.4166V19.1666ZM0.833008 11.729H0.0830078C0.0830078 16.2404 3.68902 19.9166 8.16068 19.9166V19.1666V18.4166C4.53842 18.4166 1.58301 15.4331 1.58301 11.729H0.833008ZM8.16068 4.29146V3.54146C3.68902 3.54146 0.0830078 7.21773 0.0830078 11.729H0.833008H1.58301C1.58301 8.02503 4.53842 5.04146 8.16068 5.04146V4.29146ZM14.9453 9.67093L14.7438 10.3934C14.6827 10.3763 14.5928 10.3169 14.5639 10.1918L15.2946 10.0228L16.0253 9.8538C15.9157 9.37982 15.5477 9.06029 15.1467 8.94848L14.9453 9.67093ZM10.6679 4.73823L10.4079 5.44172C10.2771 5.39338 10.2361 5.29189 10.2288 5.24268L10.9706 5.1322L11.7124 5.02172C11.6523 4.61825 11.3899 4.20546 10.9279 4.03473L10.6679 4.73823ZM16.5131 1.66663H15.7631V7.16712H16.5131H17.2631V1.66663H16.5131ZM13.8131 4.42908V5.17908H19.1663V4.42908V3.67908H13.8131V4.42908ZM8.33889 14.7218V13.9718C7.5139 13.9718 6.77363 13.5231 6.34398 12.8172L5.70334 13.2072L5.06269 13.5971C5.74164 14.7126 6.94785 15.4718 8.33889 15.4718V14.7218ZM10.9745 13.2072L10.3338 12.8172C9.90416 13.5231 9.16389 13.9718 8.33889 13.9718V14.7218V15.4718C9.72994 15.4718 10.9362 14.7126 11.6151 13.5971L10.9745 13.2072ZM6.02405 9.11871V9.86871H6.09978V9.11871V8.36871H6.02405V9.11871ZM10.5855 9.11871V9.86871H10.6529V9.11871V8.36871H10.5855V9.11871ZM6.09978 9.11871H5.34978V9.18062H6.09978H6.84978V9.11871H6.09978ZM6.09978 9.18062V8.43062H6.02405V9.18062V9.93062H6.09978V9.18062ZM6.02405 9.18062H6.77405V9.11871H6.02405H5.27405V9.18062H6.02405ZM10.6529 9.11871H9.90285V9.18062H10.6529H11.4029V9.11871H10.6529ZM10.6529 9.18062V8.43062H10.5855V9.18062V9.93062H10.6529V9.18062ZM10.5855 9.18062H11.3355V9.11871H10.5855H9.83553V9.18062H10.5855Z" fill="#909097"/>
</svg>
