<svg width="16" height="16" viewBox="0 0 16 16" fill="none" xmlns="http://www.w3.org/2000/svg">
<path d="M4.4002 9.30197L4.78159 9.84876C4.96034 9.72408 5.06686 9.51991 5.06686 9.30197H4.4002ZM7.6002 9.30197H6.93353C6.93353 9.4916 7.01429 9.67226 7.15559 9.79873L7.6002 9.30197ZM6.0002 10.9334C5.63201 10.9334 5.33353 11.2319 5.33353 11.6001C5.33353 11.9683 5.63201 12.2668 6.0002 12.2668V11.6001V10.9334ZM6.0377 12.2668C6.40589 12.2668 6.70436 11.9683 6.70436 11.6001C6.70436 11.2319 6.40589 10.9334 6.0377 10.9334V11.6001V12.2668ZM8.8002 11.6001H8.13353C8.13353 12.7783 7.1784 13.7334 6.0002 13.7334V14.4001V15.0668C7.91478 15.0668 9.46686 13.5147 9.46686 11.6001H8.8002ZM6.0002 14.4001V13.7334C4.82199 13.7334 3.86686 12.7783 3.86686 11.6001H3.2002H2.53353C2.53353 13.5147 4.08561 15.0668 6.0002 15.0668V14.4001ZM3.2002 11.6001H3.86686C3.86686 10.8757 4.22728 10.2354 4.78159 9.84876L4.4002 9.30197L4.0188 8.75518C3.12232 9.3805 2.53353 10.4215 2.53353 11.6001H3.2002ZM7.6002 9.30197L7.15559 9.79873C7.38549 10.0045 7.63993 10.3136 7.8337 10.6587C8.031 11.0101 8.13353 11.3416 8.13353 11.6001H8.8002H9.46686C9.46686 11.0293 9.25581 10.4681 8.99632 10.0059C8.7333 9.53749 8.38774 9.11215 8.0448 8.80522L7.6002 9.30197ZM7.6002 3.2001H6.93353V9.30197H7.6002H8.26686V3.2001H7.6002ZM4.4002 9.30197H5.06686V3.19905H4.4002H3.73353V9.30197H4.4002ZM6.0002 1.6001V2.26676C6.51566 2.26676 6.93353 2.68463 6.93353 3.2001H7.6002H8.26686C8.26686 1.94825 7.25204 0.933431 6.0002 0.933431V1.6001ZM6.0002 1.6001V0.933431C4.74892 0.933431 3.73353 1.94664 3.73353 3.19905H4.4002H5.06686C5.06686 2.68415 5.48416 2.26676 6.0002 2.26676V1.6001ZM6.0002 11.6001V12.2668H6.0377V11.6001V10.9334H6.0002V11.6001ZM12.8002 4.8001H12.1335C12.1335 5.31556 11.7157 5.73343 11.2002 5.73343V6.4001V7.06676C12.452 7.06676 13.4669 6.05194 13.4669 4.8001H12.8002ZM11.2002 6.4001V5.73343C10.6847 5.73343 10.2669 5.31556 10.2669 4.8001H9.6002H8.93353C8.93353 6.05194 9.94835 7.06676 11.2002 7.06676V6.4001ZM9.6002 4.8001H10.2669C10.2669 4.28463 10.6847 3.86676 11.2002 3.86676V3.2001V2.53343C9.94835 2.53343 8.93353 3.54825 8.93353 4.8001H9.6002ZM11.2002 3.2001V3.86676C11.7157 3.86676 12.1335 4.28463 12.1335 4.8001H12.8002H13.4669C13.4669 3.54825 12.452 2.53343 11.2002 2.53343V3.2001Z" fill="#B8B8C0"/>
</svg>
