<svg width="16" height="16" viewBox="0 0 16 16" fill="none" xmlns="http://www.w3.org/2000/svg">
<g clip-path="url(#clip0_train_grey)">
<path d="M7.9997 0.666016C5.06637 0.666016 2.66637 0.999349 2.66637 3.33268V9.53268C2.66637 10.8193 3.71304 11.866 4.9997 11.866L3.9997 12.866V13.1993H11.9997V12.866L10.9997 11.866C12.2864 11.866 13.333 10.8193 13.333 9.53268V3.33268C13.333 0.999349 10.933 0.666016 7.9997 0.666016ZM7.9997 1.99935C11.9997 1.99935 11.9997 2.79935 11.9997 3.33268H3.9997C3.9997 2.79935 3.9997 1.99935 7.9997 1.99935ZM11.9997 4.66602V6.66602H3.9997V4.66602H11.9997ZM10.9997 10.5327H4.9997C4.44637 10.5327 3.9997 10.086 3.9997 9.53268V7.33268H11.9997V9.53268C11.9997 10.086 11.553 10.5327 10.9997 10.5327ZM7.9997 7.93268C7.26637 7.93268 6.66637 8.53268 6.66637 9.26602C6.66637 9.99935 7.26637 10.5993 7.9997 10.5993C8.73304 10.5993 9.33304 9.99935 9.33304 9.26602C9.33304 8.53268 8.73304 7.93268 7.9997 7.93268Z" fill="#B8B8C0"/>
</g>
<defs>
<clipPath id="clip0_train_grey">
<rect width="16" height="16" fill="white"/>
</clipPath>
</defs>
</svg>
