<svg width="32" height="32" viewBox="0 0 32 32" fill="none" xmlns="http://www.w3.org/2000/svg">
<rect width="32" height="32" rx="4" fill="#417DF7" fill-opacity="0.08"/>
<g clip-path="url(#clip0_1185_21588)">
<path d="M15.9997 6.83301C12.3163 6.83301 9.33301 7.24967 9.33301 10.1663V18.9163C9.33301 20.5247 10.6413 21.833 12.2497 21.833L10.9997 23.083V23.4997H20.9997V23.083L19.7497 21.833C21.358 21.833 22.6663 20.5247 22.6663 18.9163V10.1663C22.6663 7.24967 19.683 6.83301 15.9997 6.83301ZM15.9997 8.49967C20.9997 8.49967 20.9997 9.49967 20.9997 10.1663H10.9997C10.9997 9.49967 10.9997 8.49967 15.9997 8.49967ZM20.9997 11.833V14.333H10.9997V11.833H20.9997ZM19.7497 20.1663H12.2497C11.558 20.1663 10.9997 19.608 10.9997 18.9163V15.9997H20.9997V18.9163C20.9997 19.608 20.4413 20.1663 19.7497 20.1663ZM15.9997 16.4163C15.083 16.4163 14.333 17.1663 14.333 18.083C14.333 18.9997 15.083 19.7497 15.9997 19.7497C16.9163 19.7497 17.6663 18.9997 17.6663 18.083C17.6663 17.1663 16.9163 16.4163 15.9997 16.4163Z" fill="#1E6EE1"/>
</g>
<defs>
<clipPath id="clip0_1185_21588">
<rect width="20" height="20" fill="white" transform="translate(6 6)"/>
</clipPath>
</defs>
</svg>
