<svg width="32" height="32" viewBox="0 0 32 32" fill="none" xmlns="http://www.w3.org/2000/svg">
<rect width="32" height="32" rx="4" fill="#417DF7" fill-opacity="0.08"/>
<g clip-path="url(#clip0_1185_21596)">
<path d="M22.6663 12.6663H20.1663V9.33301H8.49967C7.58301 9.33301 6.83301 10.083 6.83301 10.9997V20.1663H8.49967C8.49967 21.5497 9.61634 22.6663 10.9997 22.6663C12.383 22.6663 13.4997 21.5497 13.4997 20.1663H18.4997C18.4997 21.5497 19.6163 22.6663 20.9997 22.6663C22.383 22.6663 23.4997 21.5497 23.4997 20.1663H25.1663V15.9997L22.6663 12.6663ZM22.2497 13.9163L23.883 15.9997H20.1663V13.9163H22.2497ZM10.9997 20.9997C10.5413 20.9997 10.1663 20.6247 10.1663 20.1663C10.1663 19.708 10.5413 19.333 10.9997 19.333C11.458 19.333 11.833 19.708 11.833 20.1663C11.833 20.6247 11.458 20.9997 10.9997 20.9997ZM12.8497 18.4997C12.3913 17.9913 11.7413 17.6663 10.9997 17.6663C10.258 17.6663 9.60801 17.9913 9.14967 18.4997H8.49967V10.9997H18.4997V18.4997H12.8497ZM20.9997 20.9997C20.5413 20.9997 20.1663 20.6247 20.1663 20.1663C20.1663 19.708 20.5413 19.333 20.9997 19.333C21.458 19.333 21.833 19.708 21.833 20.1663C21.833 20.6247 21.458 20.9997 20.9997 20.9997Z" fill="#1E6EE1"/>
</g>
<defs>
<clipPath id="clip0_1185_21596">
<rect width="20" height="20" fill="white" transform="translate(6 6)"/>
</clipPath>
</defs>
</svg>
