<svg width="16" height="16" viewBox="0 0 16 16" fill="none" xmlns="http://www.w3.org/2000/svg">
<g clip-path="url(#clip0_480_10266)">
<path d="M6.66634 10.6665H9.33301C9.69967 10.6665 9.99967 10.3665 9.99967 9.99982V6.66648H11.0597C11.653 6.66648 11.953 5.94648 11.533 5.52648L8.47301 2.46648C8.21301 2.20648 7.79301 2.20648 7.53301 2.46648L4.47301 5.52648C4.05301 5.94648 4.34634 6.66648 4.93967 6.66648H5.99967V9.99982C5.99967 10.3665 6.29967 10.6665 6.66634 10.6665ZM3.99967 11.9998H11.9997C12.3663 11.9998 12.6663 12.2998 12.6663 12.6665C12.6663 13.0332 12.3663 13.3332 11.9997 13.3332H3.99967C3.63301 13.3332 3.33301 13.0332 3.33301 12.6665C3.33301 12.2998 3.63301 11.9998 3.99967 11.9998Z" fill="#45454F"/>
</g>
<defs>
<clipPath id="clip0_480_10266">
<rect width="16" height="16" fill="white"/>
</clipPath>
</defs>
</svg>
