<svg width="20" height="20" viewBox="0 0 20 20" fill="none" xmlns="http://www.w3.org/2000/svg">
<g clip-path="url(#clip0_311_46387)">
<path d="M15.2486 4.75892C14.9236 4.43392 14.3986 4.43392 14.0736 4.75892L9.99863 8.82559L5.92363 4.75059C5.59863 4.42559 5.07363 4.42559 4.74863 4.75059C4.42363 5.07559 4.42363 5.60059 4.74863 5.92559L8.82363 10.0006L4.74863 14.0756C4.42363 14.4006 4.42363 14.9256 4.74863 15.2506C5.07363 15.5756 5.59863 15.5756 5.92363 15.2506L9.99863 11.1756L14.0736 15.2506C14.3986 15.5756 14.9236 15.5756 15.2486 15.2506C15.5736 14.9256 15.5736 14.4006 15.2486 14.0756L11.1736 10.0006L15.2486 5.92559C15.5653 5.60892 15.5653 5.07559 15.2486 4.75892Z" fill="#909097"/>
</g>
<defs>
<clipPath id="clip0_311_46387">
<rect width="20" height="20" fill="white"/>
</clipPath>
</defs>
</svg>
