<svg width="20" height="20" viewBox="0 0 20 20" fill="none" xmlns="http://www.w3.org/2000/svg">
<g clip-path="url(#clip0_311_46382)">
<path d="M11.5439 1.7002C12.0963 1.70027 12.6261 2.09095 12.7119 2.69824H12.7129L12.9414 4.25098C13.1775 4.36625 13.4042 4.4954 13.6221 4.63672L15.1465 4.04199L15.1582 4.03809L15.1709 4.0332C15.6489 3.86422 16.2817 4.00708 16.5947 4.54395H16.5957L18.1377 7.13867L18.1475 7.15625C18.4256 7.65227 18.3206 8.29666 17.8447 8.66211L17.8418 8.66406L16.5703 9.62988C16.5785 9.74893 16.585 9.87215 16.585 10C16.585 10.1275 16.5784 10.2504 16.5703 10.3691L17.8418 11.3359L17.8447 11.3379C18.3206 11.7033 18.4256 12.3477 18.1475 12.8438L18.1377 12.8613L16.5957 15.4561L16.5947 15.4551C16.2947 15.9703 15.6763 16.1589 15.1533 15.96L15.1465 15.958L13.6201 15.3613C13.4048 15.5004 13.1785 15.6302 12.9414 15.7471L12.7129 17.3018L12.7119 17.3008C12.6265 17.9086 12.0966 18.2997 11.5439 18.2998H8.45996C7.90733 18.2996 7.37533 17.9087 7.29004 17.3008L7.06055 15.7471C6.82464 15.6318 6.5976 15.5036 6.37988 15.3623L4.85742 15.958L4.84473 15.9619L4.83301 15.9668C4.3498 16.1375 3.70673 15.99 3.39746 15.4385V15.4375L1.86621 12.8613L1.86035 12.8525L1.85547 12.8438C1.57757 12.3479 1.6836 11.7033 2.15918 11.3379L2.16211 11.3359L3.43262 10.3682C3.42443 10.2482 3.41895 10.125 3.41895 10C3.41895 9.87463 3.42439 9.75113 3.43262 9.63086L2.16211 8.66406L2.15918 8.66211C1.70709 8.31475 1.54666 7.66448 1.87012 7.13184L3.4082 4.54395C3.68933 4.06161 4.25041 3.86628 4.75 4.00684L4.85059 4.04004L4.85742 4.04199L6.38281 4.6377C6.59788 4.49877 6.82378 4.36874 7.06055 4.25195L7.29004 2.69824C7.37575 2.09089 7.90762 1.70038 8.45996 1.7002H11.5439ZM8.58008 4.91895L8.5127 5.375L8.08496 5.5459C7.69005 5.70339 7.31628 5.92151 6.95703 6.18359L6.60352 6.44238L6.19434 6.28223L4.60449 5.66113L3.4375 7.62402L4.75684 8.62793L5.125 8.9082L5.06641 9.36719C5.03774 9.59028 5.01855 9.80034 5.01855 10C5.01855 10.1997 5.03774 10.4097 5.06641 10.6328L5.125 11.0918L4.75684 11.3721L3.4375 12.375L4.60449 14.3379L6.19434 13.7178L6.60938 13.5557L6.96484 13.8223C7.31327 14.083 7.68444 14.2944 8.08496 14.4541L8.5127 14.625L8.58008 15.0811L8.81836 16.7002H11.1846L11.4229 15.0811L11.4902 14.625L11.918 14.4541C12.3129 14.2967 12.6866 14.0784 13.0459 13.8164L13.4004 13.5576L13.8086 13.7178L15.3975 14.3379L16.5654 12.375L15.2461 11.3721L14.8779 11.0918L14.9375 10.6328C14.9663 10.409 14.9844 10.2067 14.9844 10C14.9844 9.79334 14.9663 9.59105 14.9375 9.36719L14.8779 8.9082L15.2461 8.62793L16.5654 7.62402L15.3975 5.66113L13.8086 6.28223L13.3945 6.44434L13.0381 6.17773C12.6897 5.91711 12.3185 5.70556 11.918 5.5459L11.4902 5.375L11.4229 4.91895L11.1846 3.2998H8.81836L8.58008 4.91895ZM10 7.11621C11.5924 7.11621 12.8838 8.40758 12.8838 10C12.8838 11.5924 11.5924 12.8838 10 12.8838C8.40776 12.8836 7.11621 11.5923 7.11621 10C7.11621 8.40771 8.40776 7.11642 10 7.11621ZM10 8.7168C9.29141 8.71701 8.7168 9.29136 8.7168 10C8.7168 10.7086 9.29141 11.283 10 11.2832C10.7088 11.2832 11.2832 10.7088 11.2832 10C11.2832 9.29123 10.7088 8.7168 10 8.7168Z" fill="#909097"/>
</g>
<defs>
<clipPath id="clip0_311_46382">
<rect width="20" height="20" fill="white"/>
</clipPath>
</defs>
</svg>
