<svg width="32" height="32" viewBox="0 0 32 32" fill="none" xmlns="http://www.w3.org/2000/svg">
<rect width="32" height="32" fill="#1E6EE1"/>
<path d="M18.4766 8C18.7859 8.00015 19.0361 8.2486 19.0361 8.55566V16.2764C19.0359 16.5832 18.7857 16.8309 18.4766 16.8311H15.2441C14.6395 16.8311 14.059 17.074 13.6377 17.5059C13.2164 17.9362 12.9886 18.5197 13.0078 19.1201L13.1689 24.29C13.1793 24.6665 12.8175 24.9457 12.4521 24.8398L9.03809 23.8477C8.82139 23.7835 8.6642 23.5958 8.63965 23.3721L8.1416 18.6514C8.0331 17.6364 7.17123 16.8644 6.14355 16.8643H5.55957C5.25015 16.8643 5 16.6158 5 16.3086V9.77051C5 9.53797 5.14672 9.33059 5.36523 9.24902L7.5625 8.44043C7.92771 8.30512 8.3161 8.5742 8.31641 8.96094V15.3408C8.31653 16.4201 9.18032 17.3037 10.2676 17.335L10.6729 17.3467H10.7266C11.3086 17.3467 11.8683 17.1213 12.2861 16.7188C12.7197 16.3005 12.9648 15.7254 12.9648 15.125V8.55566C12.9648 8.24864 13.2142 8.00022 13.5234 8H18.4766ZM23.6846 8.96191C23.6846 8.57493 24.0731 8.30778 24.4385 8.44141L26.6338 9.25C26.8541 9.32983 26.999 9.53797 26.999 9.77051V16.3076C26.999 16.6146 26.7496 16.863 26.4404 16.8633H25.8564C24.8285 16.865 23.9668 17.6352 23.8584 18.6504L23.3594 23.3701C23.3366 23.594 23.1795 23.7832 22.9609 23.8457L19.5469 24.8389C19.1816 24.9445 18.8178 24.6646 18.8301 24.2881L19.0293 17.9336C19.038 17.6404 19.276 17.4043 19.5713 17.3955L21.7344 17.333C22.8198 17.3016 23.6846 16.4181 23.6846 15.3389V8.96191Z" fill="white"/>
</svg>
