<svg width="64" height="64" viewBox="0 0 64 64" fill="none" xmlns="http://www.w3.org/2000/svg">
<path d="M39.2051 7.28369C40.1036 7.28395 40.832 8.01275 40.832 8.91162V31.5415H40.8301C40.8301 32.4405 40.1018 33.1694 39.2031 33.1694H29.7998C28.0395 33.1694 26.3536 33.8832 25.127 35.1489C23.9003 36.4131 23.2398 38.1214 23.2939 39.8823L23.7637 55.0376C23.7975 56.1437 22.7432 56.9607 21.6807 56.6499L11.75 53.7417C11.1158 53.556 10.6575 53.0068 10.5879 52.3491L9.13672 38.5093C8.82409 35.534 6.31742 33.2733 3.32617 33.27H1.62695C0.728388 33.2698 0 32.541 0 31.6421V12.4731C5.28089e-05 11.7908 0.422719 11.1825 1.06152 10.9458L7.44629 8.57666C8.5089 8.18365 9.6395 8.96988 9.63965 10.104V28.7993C9.63965 31.9636 12.1549 34.5539 15.3164 34.647L16.499 34.6812C16.5514 34.6827 16.6038 34.6831 16.6562 34.6831C18.3468 34.6831 19.9756 34.0253 21.1914 32.8433C22.4536 31.6162 23.167 29.9308 23.167 28.1714V8.91162C23.167 8.0127 23.8954 7.28386 24.7939 7.28369H39.2051ZM54.3613 10.105C54.3613 8.97074 55.492 8.18305 56.5547 8.57764L62.9395 10.9468H62.9385C63.5754 11.1836 63.9988 11.7926 63.999 12.4731V31.6392C63.999 32.5382 63.2708 33.2671 62.3721 33.2671H60.6738C57.6822 33.2702 55.1748 35.5301 54.8623 38.5073L53.4111 52.3481C53.3415 53.0056 52.884 53.5549 52.25 53.7407L42.3193 56.6479C41.2567 56.959 40.2013 56.142 40.2354 55.0356L40.8135 36.4067C40.8399 35.5465 41.5336 34.8553 42.3936 34.8306L48.6846 34.646C51.846 34.5529 54.3612 31.9629 54.3613 28.8003V10.105Z" fill="#1E6EE1"/>
</svg>
