<svg width="97" height="22" viewBox="0 0 97 22" fill="none" xmlns="http://www.w3.org/2000/svg">
<path d="M16.2041 0C16.5754 0.000200001 16.876 0.301405 16.876 0.672852V10.0264C16.8758 10.3978 16.5744 10.6992 16.2031 10.6992H12.3164C11.5891 10.6993 10.8926 10.9937 10.3857 11.5166C9.87887 12.039 9.60567 12.745 9.62793 13.4727L9.82227 19.7363C9.83633 20.1936 9.40014 20.5319 8.96094 20.4033L4.85645 19.2012C4.59453 19.1244 4.40579 18.8976 4.37695 18.626L3.77734 12.9062C3.6482 11.6764 2.61142 10.7415 1.375 10.7402H0.672852C0.301498 10.7401 0 10.4389 0 10.0674V2.14453C0.000193159 1.86269 0.175565 1.61147 0.439453 1.51367L3.07812 0.53418C3.51728 0.371882 3.98438 0.697296 3.98438 1.16602V8.89258C3.98438 10.2004 5.02431 11.2712 6.33105 11.3096L6.81934 11.3232C6.84107 11.3239 6.86303 11.3242 6.88477 11.3242C7.58345 11.3242 8.25635 11.052 8.75879 10.5635C9.28042 10.0563 9.5752 9.35993 9.5752 8.63281V0.672852C9.5752 0.301282 9.87661 0 10.248 0H16.2041ZM22.4668 1.16602C22.4668 0.697237 22.9348 0.372075 23.374 0.535156L26.0127 1.51367H26.0117C26.2751 1.61152 26.4512 1.86411 26.4512 2.14551V10.0664C26.4512 10.4379 26.1497 10.7392 25.7783 10.7393H25.0762C23.8399 10.7406 22.8041 11.674 22.6748 12.9043L22.0742 18.625C22.0455 18.8968 21.8568 19.1244 21.5947 19.2012L17.4902 20.4023C17.0511 20.5309 16.615 20.1935 16.6289 19.7363L16.8682 12.0371C16.879 11.6817 17.1652 11.3952 17.5205 11.3848L20.1211 11.3086C21.4278 11.2701 22.4668 10.1997 22.4668 8.89258V1.16602Z" fill="#1E6EE1"/>
<path d="M89.7598 4.5127C91.1034 4.51275 92.1823 4.96233 93.0811 5.97461V5.97266H93.1729V4.96973C93.1729 4.90641 93.2242 4.85449 93.2881 4.85449L96.0059 4.85547C96.0691 4.85547 96.1211 4.90675 96.1211 4.9707V16.0498C96.1211 18.0246 95.5608 19.391 94.5859 20.3662C93.5624 21.3658 92.0504 22 90.1484 22C86.7731 21.9999 84.6673 20.1646 84.3848 17.8125C84.3767 17.7436 84.4321 17.6828 84.501 17.6826H87.332C87.3838 17.6826 87.4273 17.7174 87.4414 17.7666C87.7182 18.7221 88.6803 19.3896 90.1494 19.3896C91.125 19.3896 91.9049 19.0726 92.417 18.5117C92.9041 18.0238 93.1729 17.2676 93.1729 16.2188V15.4707H93.0801V15.4688C92.389 16.428 91.0888 16.9023 89.7598 16.9023C86.176 16.9023 84.0305 14.1466 84.0303 10.708C84.0303 7.26923 86.1758 4.5127 89.7598 4.5127ZM76.0869 4.51367C79.8045 4.51367 82.5029 7.33422 82.5029 11.0742C82.5028 14.8141 79.745 17.6348 76.0869 17.6348C72.429 17.6346 69.671 14.8754 69.6709 11.0742C69.6709 7.27295 72.3695 4.51386 76.0869 4.51367ZM43.5146 4.85449C43.5664 4.85449 43.6119 4.88957 43.626 4.93945L46.0791 13.7275H46.1885L47.9307 4.94727C47.9416 4.89372 47.9891 4.8546 48.0439 4.85449H50.9258L50.9238 4.85547C50.9971 4.85561 51.0518 4.92306 51.0361 4.99512L48.3555 17.2031C48.3439 17.2561 48.2974 17.2939 48.2432 17.2939H44.2842C44.2324 17.2939 44.1863 17.2585 44.1729 17.208L41.8447 8.4209H41.7393L39.4111 17.208C39.3977 17.2584 39.353 17.2938 39.3008 17.2939H35.3408C35.2867 17.2938 35.2401 17.256 35.2285 17.2031L32.5479 4.99512C32.5322 4.92375 32.5869 4.85569 32.6602 4.85547H35.54C35.595 4.85551 35.6425 4.89455 35.6533 4.94824L37.3975 13.7285H37.4902L39.958 4.93945C39.972 4.88971 40.0168 4.85469 40.0684 4.85449H43.5146ZM55.7422 4.85449C55.806 4.85452 55.8573 4.90652 55.8574 4.96973V17.1777C55.8572 17.2415 55.8053 17.2929 55.7422 17.293H52.9258C52.862 17.293 52.8107 17.2409 52.8105 17.1777V4.9707C52.8105 4.90675 52.8625 4.85547 52.9258 4.85547L55.7422 4.85449ZM61.5889 0C61.6526 0.000185534 61.7031 0.0520341 61.7031 0.115234V17.1777C61.7029 17.2414 61.6518 17.2918 61.5889 17.292H58.7715C58.7078 17.2919 58.6565 17.2408 58.6562 17.1777V0.115234C58.6562 0.0513652 58.7083 0.000134656 58.7715 0H61.5889ZM67.4346 0C67.4985 0 67.5498 0.0519204 67.5498 0.115234V17.1777C67.5496 17.2415 67.4977 17.292 67.4346 17.292H64.6182C64.5544 17.292 64.5032 17.2408 64.5029 17.1777V0.115234C64.5029 0.0512809 64.5549 0 64.6182 0H67.4346ZM76.0869 7.31348C74.4645 7.31366 72.7188 8.4907 72.7188 11.0742C72.7188 13.6576 74.4645 14.8348 76.0869 14.835C77.7094 14.835 79.456 13.6578 79.4561 11.0742C79.4561 8.4905 77.7095 7.31348 76.0869 7.31348ZM90.1729 7.31738C88.2474 7.31753 87.077 8.78119 87.0527 10.708C87.0772 12.6346 88.2469 14.0975 90.1729 14.0977C92.1232 14.0977 93.2936 12.6341 93.2695 10.708C93.2938 8.78109 92.0984 7.31738 90.1729 7.31738ZM55.791 0C55.8548 0.000172496 55.9062 0.0520261 55.9062 0.115234V3.00684C55.906 3.0705 55.854 3.12092 55.791 3.12109H52.876C52.8122 3.12103 52.7609 3.06994 52.7607 3.00684V0.115234C52.7607 0.0513196 52.8127 6.18436e-05 52.876 0H55.791Z" fill="#052346"/>
</svg>
