<svg width="20" height="20" viewBox="0 0 20 20" fill="none" xmlns="http://www.w3.org/2000/svg">
<g clip-path="url(#clip0_100_11005)">
<path d="M9.9974 9.08268C9.48906 9.08268 9.08073 9.49102 9.08073 9.99935C9.08073 10.5077 9.48906 10.916 9.9974 10.916C10.5057 10.916 10.9141 10.5077 10.9141 9.99935C10.9141 9.49102 10.5057 9.08268 9.9974 9.08268ZM9.9974 1.66602C5.3974 1.66602 1.66406 5.39935 1.66406 9.99935C1.66406 14.5993 5.3974 18.3327 9.9974 18.3327C14.5974 18.3327 18.3307 14.5993 18.3307 9.99935C18.3307 5.39935 14.5974 1.66602 9.9974 1.66602ZM11.8224 11.8243L4.9974 14.9993L8.1724 8.17435L14.9974 4.99935L11.8224 11.8243Z" fill="#909097"/>
</g>
<defs>
<clipPath id="clip0_100_11005">
<rect width="20" height="20" fill="white"/>
</clipPath>
</defs>
</svg>
