<svg width="34" height="34" viewBox="0 0 34 34" fill="none" xmlns="http://www.w3.org/2000/svg">
<g filter="url(#filter0_d_311_37044)">
<path d="M5 7C5 4.79086 6.79086 3 9 3H25C27.2091 3 29 4.79086 29 7V23C29 25.2091 27.2091 27 25 27H9C6.79086 27 5 25.2091 5 23V7Z" fill="#DBEAFE" shape-rendering="crispEdges"/>
<path d="M25 2.5C27.4853 2.5 29.5 4.51472 29.5 7V23C29.5 25.4853 27.4853 27.5 25 27.5H9C6.51472 27.5 4.5 25.4853 4.5 23V7C4.5 4.51472 6.51472 2.5 9 2.5H25Z" stroke="white" shape-rendering="crispEdges"/>
<g clip-path="url(#clip0_311_37044)">
<path d="M23.6668 17.6666V16.3333L18.0002 12.9999V9.33325C18.0002 8.77992 17.5535 8.33325 17.0002 8.33325C16.4468 8.33325 16.0002 8.77992 16.0002 9.33325V12.9999L10.3335 16.3333V17.6666L16.0002 15.9999V19.6666L14.3335 20.6666V21.6666L17.0002 20.9999L19.6668 21.6666V20.6666L18.0002 19.6666V15.9999L23.6668 17.6666Z" fill="#1E6EE1"/>
</g>
</g>
<defs>
<filter id="filter0_d_311_37044" x="0" y="0" width="34" height="34" filterUnits="userSpaceOnUse" color-interpolation-filters="sRGB">
<feFlood flood-opacity="0" result="BackgroundImageFix"/>
<feColorMatrix in="SourceAlpha" type="matrix" values="0 0 0 0 0 0 0 0 0 0 0 0 0 0 0 0 0 0 127 0" result="hardAlpha"/>
<feOffset dy="2"/>
<feGaussianBlur stdDeviation="2"/>
<feComposite in2="hardAlpha" operator="out"/>
<feColorMatrix type="matrix" values="0 0 0 0 0 0 0 0 0 0 0 0 0 0 0 0 0 0 0.16 0"/>
<feBlend mode="normal" in2="BackgroundImageFix" result="effect1_dropShadow_311_37044"/>
<feBlend mode="normal" in="SourceGraphic" in2="effect1_dropShadow_311_37044" result="shape"/>
</filter>
<clipPath id="clip0_311_37044">
<rect width="16" height="16" fill="white" transform="translate(9 7)"/>
</clipPath>
</defs>
</svg>
