<svg width="34" height="34" viewBox="0 0 34 34" fill="none" xmlns="http://www.w3.org/2000/svg">
<g filter="url(#filter0_d_311_3293)">
<path d="M5 7C5 4.79086 6.79086 3 9 3H25C27.2091 3 29 4.79086 29 7V23C29 25.2091 27.2091 27 25 27H9C6.79086 27 5 25.2091 5 23V7Z" fill="#DBEAFE" shape-rendering="crispEdges"/>
<path d="M25 2.5C27.4853 2.5 29.5 4.51472 29.5 7V23C29.5 25.4853 27.4853 27.5 25 27.5H9C6.51472 27.5 4.5 25.4853 4.5 23V7C4.5 4.51472 6.51472 2.5 9 2.5H25Z" stroke="white" shape-rendering="crispEdges"/>
<g clip-path="url(#clip0_311_3293)">
<path d="M22.3336 20.9998C21.4069 20.9998 20.4803 20.6865 19.6669 20.1198C18.0403 21.2598 15.9603 21.2598 14.3336 20.1198C13.5203 20.6865 12.5936 20.9998 11.6669 20.9998H10.3336V22.3332H11.6669C12.5869 22.3332 13.4936 22.0998 14.3336 21.6732C16.0136 22.5332 17.9869 22.5332 19.6669 21.6732C20.5069 22.1065 21.4136 22.3332 22.3336 22.3332H23.6669V20.9998H22.3336ZM11.6336 19.6665H11.6669C12.7336 19.6665 13.6803 19.0798 14.3336 18.3332C14.9869 19.0798 15.9336 19.6665 17.0003 19.6665C18.0669 19.6665 19.0136 19.0798 19.6669 18.3332C20.3203 19.0798 21.2669 19.6665 22.3336 19.6665H22.3669L23.6269 15.2132C23.6803 15.0398 23.6669 14.8532 23.5869 14.6932C23.5069 14.5332 23.3603 14.4132 23.1869 14.3598L22.3336 14.0798V10.9998C22.3336 10.2665 21.7336 9.6665 21.0003 9.6665H19.0003V7.6665H15.0003V9.6665H13.0003C12.2669 9.6665 11.6669 10.2665 11.6669 10.9998V14.0798L10.8069 14.3598C10.6336 14.4132 10.4869 14.5332 10.4069 14.6932C10.3269 14.8532 10.3069 15.0398 10.3669 15.2132L11.6336 19.6665ZM13.0003 10.9998H21.0003V13.6465L17.0003 12.3332L13.0003 13.6465V10.9998Z" fill="#417DF7"/>
</g>
</g>
<defs>
<filter id="filter0_d_311_3293" x="0" y="0" width="34" height="34" filterUnits="userSpaceOnUse" color-interpolation-filters="sRGB">
<feFlood flood-opacity="0" result="BackgroundImageFix"/>
<feColorMatrix in="SourceAlpha" type="matrix" values="0 0 0 0 0 0 0 0 0 0 0 0 0 0 0 0 0 0 127 0" result="hardAlpha"/>
<feOffset dy="2"/>
<feGaussianBlur stdDeviation="2"/>
<feComposite in2="hardAlpha" operator="out"/>
<feColorMatrix type="matrix" values="0 0 0 0 0 0 0 0 0 0 0 0 0 0 0 0 0 0 0.16 0"/>
<feBlend mode="normal" in2="BackgroundImageFix" result="effect1_dropShadow_311_3293"/>
<feBlend mode="normal" in="SourceGraphic" in2="effect1_dropShadow_311_3293" result="shape"/>
</filter>
<clipPath id="clip0_311_3293">
<rect width="16" height="16" fill="white" transform="translate(9 7)"/>
</clipPath>
</defs>
</svg>
