<svg width="34" height="34" viewBox="0 0 34 34" fill="none" xmlns="http://www.w3.org/2000/svg">
<g filter="url(#filter0_d_311_3285)">
<path d="M5 7C5 4.79086 6.79086 3 9 3H25C27.2091 3 29 4.79086 29 7V23C29 25.2091 27.2091 27 25 27H9C6.79086 27 5 25.2091 5 23V7Z" fill="#45454F"/>
<path d="M25 2.5C27.4853 2.5 29.5 4.51472 29.5 7V23C29.5 25.4853 27.4853 27.5 25 27.5H9C6.51472 27.5 4.5 25.4853 4.5 23V7C4.5 4.51472 6.51472 2.5 9 2.5H25Z" stroke="white"/>
<g clip-path="url(#clip0_311_3285)">
<path d="M23.6689 20.333H18.3359V17.666H15.6689V20.333H10.3359V9.66602H23.6689V20.333ZM12.1328 12.5996V13.3994H22.5332V12.5996H12.1328ZM12.1328 11.7998H22.5332V11H12.1328V11.7998Z" fill="white"/>
</g>
</g>
<defs>
<filter id="filter0_d_311_3285" x="0" y="0" width="34" height="34" filterUnits="userSpaceOnUse" color-interpolation-filters="sRGB">
<feFlood flood-opacity="0" result="BackgroundImageFix"/>
<feColorMatrix in="SourceAlpha" type="matrix" values="0 0 0 0 0 0 0 0 0 0 0 0 0 0 0 0 0 0 127 0" result="hardAlpha"/>
<feOffset dy="2"/>
<feGaussianBlur stdDeviation="2"/>
<feComposite in2="hardAlpha" operator="out"/>
<feColorMatrix type="matrix" values="0 0 0 0 0 0 0 0 0 0 0 0 0 0 0 0 0 0 0.16 0"/>
<feBlend mode="normal" in2="BackgroundImageFix" result="effect1_dropShadow_311_3285"/>
<feBlend mode="normal" in="SourceGraphic" in2="effect1_dropShadow_311_3285" result="shape"/>
</filter>
<clipPath id="clip0_311_3285">
<rect width="16" height="16" fill="white" transform="translate(9 7)"/>
</clipPath>
</defs>
</svg>
