<svg width="780" height="210" viewBox="0 0 780 210" fill="none" xmlns="http://www.w3.org/2000/svg">
  <rect width="780" height="210" fill="white"/>

  <!-- Grid lines -->
  <line x1="40" y1="20" x2="740" y2="20" stroke="#EBEBEC" stroke-dasharray="4 4"/>
  <line x1="40" y1="60" x2="740" y2="60" stroke="#EBEBEC" stroke-dasharray="4 4"/>
  <line x1="40" y1="100" x2="740" y2="100" stroke="#EBEBEC" stroke-dasharray="4 4"/>
  <line x1="40" y1="140" x2="740" y2="140" stroke="#EBEBEC" stroke-dasharray="4 4"/>

  <!-- Y-axis labels -->
  <text x="25" y="24" fill="#737680" font-family="monospace" font-size="11">200</text>
  <text x="25" y="64" fill="#737680" font-family="monospace" font-size="11">190</text>
  <text x="25" y="104" fill="#737680" font-family="monospace" font-size="11">180</text>
  <text x="25" y="144" fill="#737680" font-family="monospace" font-size="11">170</text>
  <text x="25" y="180" fill="#737680" font-family="monospace" font-size="11">160</text>

  <!-- Moving average line (gray) -->
  <path d="M60 90 Q200 70, 300 85 Q400 100, 500 110 Q600 90, 700 70" stroke="#B8B8C0" stroke-width="2" fill="none"/>

  <!-- Main trend line (blue) -->
  <path d="M60 100 L100 60 L140 50 L180 55 L220 50 L260 55 L300 65 L340 80 L380 100 L420 70 L460 90 L500 100 L540 80 L580 90 L620 130 L660 120 L700 80" stroke="#417DF7" stroke-width="2" fill="none"/>

  <!-- Data points -->
  <circle cx="140" cy="50" r="4" fill="white" stroke="#417DF7" stroke-width="2"/>
  <circle cx="620" cy="130" r="4" fill="white" stroke="#417DF7" stroke-width="2"/>

  <!-- Peak label -->
  <text x="130" y="40" fill="#17171C" font-family="sans-serif" font-size="12">195</text>

  <!-- Low label -->
  <text x="620" y="150" fill="#17171C" font-family="sans-serif" font-size="12">138</text>

  <!-- X-axis labels -->
  <text x="60" y="200" fill="#737680" font-family="monospace" font-size="10">11-05</text>
  <text x="140" y="200" fill="#737680" font-family="monospace" font-size="10">11-14</text>
  <text x="220" y="200" fill="#737680" font-family="monospace" font-size="10">11-23</text>
  <text x="300" y="200" fill="#737680" font-family="monospace" font-size="10">12-02</text>
  <text x="380" y="200" fill="#737680" font-family="monospace" font-size="10">12-11</text>
  <text x="460" y="200" fill="#737680" font-family="monospace" font-size="10">12-20</text>
  <text x="540" y="200" fill="#737680" font-family="monospace" font-size="10">12-29</text>
  <text x="620" y="200" fill="#737680" font-family="monospace" font-size="10">01-23</text>
  <text x="700" y="200" fill="#737680" font-family="monospace" font-size="10">01-25</text>
</svg>
